{"accessors":[{"bufferView":0,"componentType":5126,"count":5,"max":[-3.6940172,0.0,0.0,0.0,0.0,0.0,3.6940138,0.0,0.0,3.6940138,0.0,0.0,0.0,0.0,0.0,1.0],"min":[-3.6940172,0.0,0.0,0.0,0.0,0.0,3.6940138,0.0,0.0,3.6940138,0.0,0.0,0.0,0.0,-0.29552108,1.0],"normalized":false,"type":"MAT4"},{"bufferView":1,"componentType":5126,"count":166,"max":[0.07022904,0.0048846006,0.07033279],"min":[-0.07022904,-0.0048846006,-0.07033279],"normalized":false,"type":"VEC3"},{"bufferView":2,"componentType":5126,"count":166,"max":[1.0,1.0,4.577916e-05,1.0],"min":[-1.525972e-05,-1.5259255e-05,-4.5778463e-05,-1.0],"normalized":false,"type":"VEC4"},{"bufferView":3,"componentType":5126,"count":166,"max":[0.9840146,1.0,0.9870065],"min":[-0.98402137,-1.0,-0.98699725],"normalized":false,"type":"VEC3"},{"bufferView":4,"componentType":5126,"count":166,"max":[0.9831083,0.9683461],"min":[0.019153345,-0.0043871403],"normalized":false,"type":"VEC2"},{"bufferView":5,"componentType":5121,"count":166,"max":[0,0,0,0],"min":[0,0,0,0],"normalized":false,"type":"VEC4"},{"bufferView":6,"componentType":5126,"count":166,"max":[1.0,0.0,0.0,0.0],"min":[1.0,0.0,0.0,0.0],"normalized":false,"type":"VEC4"},{"bufferView":7,"componentType":5121,"count":528,"max":[165],"min":[0],"normalized":false,"type":"SCALAR"},{"bufferView":8,"componentType":5126,"count":166,"max":[0.07022904,0.024884641,0.07033279],"min":[-0.07022904,0.01511538,-0.07033279],"normalized":false,"type":"VEC3"},{"bufferView":9,"componentType":5126,"count":166,"max":[1.0,1.0,4.577916e-05,1.0],"min":[-1.525972e-05,-1.5259255e-05,-4.5778463e-05,-1.0],"normalized":false,"type":"VEC4"},{"bufferView":10,"componentType":5126,"count":166,"max":[0.9840146,1.0,0.9870065],"min":[-0.98402137,-1.0,-0.98699725],"normalized":false,"type":"VEC3"},{"bufferView":11,"componentType":5126,"count":166,"max":[0.9831083,0.9683461],"min":[0.019153345,-0.0043871403],"normalized":false,"type":"VEC2"},{"bufferView":12,"componentType":5121,"count":166,"max":[1,0,0,0],"min":[1,0,0,0],"normalized":false,"type":"VEC4"},{"bufferView":13,"componentType":5121,"count":528,"max":[165],"min":[0],"normalized":false,"type":"SCALAR"},{"bufferView":14,"componentType":5126,"count":166,"max":[0.07022904,0.044884622,0.07033279],"min":[-0.07022904,0.03511542,-0.07033279],"normalized":false,"type":"VEC3"},{"bufferView":15,"componentType":5126,"count":166,"max":[0.9840146,1.0,0.9870065],"min":[-0.98402137,-1.0,-0.98699725],"normalized":false,"type":"VEC3"},{"bufferView":16,"componentType":5121,"count":166,"max":[2,0,0,0],"min":[2,0,0,0],"normalized":false,"type":"VEC4"},{"bufferView":17,"componentType":5126,"count":166,"max":[0.07022904,0.06488466,0.07033279],"min":[-0.07022904,0.0551154,-0.07033279],"normalized":false,"type":"VEC3"},{"bufferView":18,"componentType":5121,"count":166,"max":[3,0,0,0],"min":[3,0,0,0],"normalized":false,"type":"VEC4"},{"bufferView":19,"componentType":5126,"count":166,"max":[0.07022904,0.08488464,0.07033279],"min":[-0.07022904,0.07511544,-0.07033279],"normalized":false,"type":"VEC3"},{"bufferView":20,"componentType":5121,"count":166,"max":[4,0,0,0],"min":[4,0,0,0],"normalized":false,"type":"VEC4"},{"bufferView":21,"componentType":5126,"count":18,"max":[5.25],"min":[0.0],"normalized":false,"type":"SCALAR"},{"bufferView":22,"componentType":5126,"count":18,"max":[-4.850609,8.89443,2.4225671],"min":[-4.850609,5.7574105,2.4225671],"normalized":false,"type":"VEC3"},{"bufferView":23,"componentType":5126,"count":18,"max":[0.006943905,0.71328986,0.7071068,0.03560671],"min":[-0.58068997,-0.8928869,-0.6841194,-0.0004257855],"normalized":false,"type":"VEC4"},{"bufferView":24,"componentType":5126,"count":20,"max":[5.25],"min":[0.0],"normalized":false,"type":"SCALAR"},{"bufferView":25,"componentType":5126,"count":20,"max":[-4.850609,8.96831,2.4225671],"min":[-4.850609,5.8312907,2.4225671],"normalized":false,"type":"VEC3"},{"bufferView":26,"componentType":5126,"count":20,"max":[0.005753224,0.71080786,0.7071068,0.6113626],"min":[-0.5618515,-0.7995666,-0.6931297,-0.006260206],"normalized":false,"type":"VEC4"},{"bufferView":27,"componentType":5126,"count":20,"max":[5.25],"min":[0.0],"normalized":false,"type":"SCALAR"},{"bufferView":28,"componentType":5126,"count":20,"max":[-4.850609,9.042191,2.4225671],"min":[-4.850609,5.905171,2.4225671],"normalized":false,"type":"VEC3"},{"bufferView":29,"componentType":5126,"count":20,"max":[0.0027444616,0.7116897,0.7071068,0.34899852],"min":[-0.31144822,-0.9254236,-0.69032854,-0.0030753533],"normalized":false,"type":"VEC4"},{"bufferView":30,"componentType":5126,"count":23,"max":[5.25],"min":[0.0],"normalized":false,"type":"SCALAR"},{"bufferView":31,"componentType":5126,"count":23,"max":[-4.850609,9.116071,2.4225671],"min":[-4.850609,5.979051,2.4225671],"normalized":false,"type":"VEC3"},{"bufferView":32,"componentType":5126,"count":23,"max":[0.0,0.7610996,0.7071068,0.5374857],"min":[-0.41098312,0.6863245,0.2667597,0.0],"normalized":false,"type":"VEC4"},{"bufferView":33,"componentType":5126,"count":24,"max":[5.25],"min":[0.0],"normalized":false,"type":"SCALAR"},{"bufferView":34,"componentType":5126,"count":24,"max":[-4.850609,9.189951,2.4225671],"min":[-4.850609,6.0034122,2.4225671],"normalized":false,"type":"VEC3"},{"bufferView":35,"componentType":5126,"count":22,"max":[5.25],"min":[0.0],"normalized":false,"type":"SCALAR"},{"bufferView":36,"componentType":5126,"count":22,"max":[0.0,0.7071068,0.85281324,0.036448088],"min":[-0.53104407,0.14546147,0.7071068,0.0],"normalized":false,"type":"VEC4"}],"animations":[{"channels":[{"sampler":0,"target":{"node":2,"path":"translation"}},{"sampler":1,"target":{"node":2,"path":"rotation"}},{"sampler":2,"target":{"node":3,"path":"translation"}},{"sampler":3,"target":{"node":3,"path":"rotation"}},{"sampler":4,"target":{"node":4,"path":"translation"}},{"sampler":5,"target":{"node":4,"path":"rotation"}},{"sampler":6,"target":{"node":5,"path":"translation"}},{"sampler":7,"target":{"node":5,"path":"rotation"}},{"sampler":8,"target":{"node":6,"path":"translation"}},{"sampler":9,"target":{"node":6,"path":"rotation"}}],"name":"SoulTokensFalling","samplers":[{"input":21,"interpolation":"LINEAR","output":22},{"input":21,"interpolation":"LINEAR","output":23},{"input":24,"interpolation":"LINEAR","output":25},{"input":24,"interpolation":"LINEAR","output":26},{"input":27,"interpolation":"LINEAR","output":28},{"input":27,"interpolation":"LINEAR","output":29},{"input":30,"interpolation":"LINEAR","output":31},{"input":30,"interpolation":"LINEAR","output":32},{"input":33,"interpolation":"LINEAR","output":34},{"input":35,"interpolation":"LINEAR","output":36}]}],"asset":{"copyright":"The Creators of 'Friday Night Funkin': Lullaby'","generator":"GDRE Tools vv2.6.3","version":"2.0"},"bufferViews":[{"buffer":0,"byteLength":320},{"buffer":0,"byteLength":1992,"byteOffset":320,"byteStride":12,"target":34962},{"buffer":0,"byteLength":2656,"byteOffset":2312,"byteStride":16,"target":34962},{"buffer":0,"byteLength":1992,"byteOffset":4968,"byteStride":12,"target":34962},{"buffer":0,"byteLength":1328,"byteOffset":6960,"byteStride":8,"target":34962},{"buffer":0,"byteLength":664,"byteOffset":8288,"byteStride":4,"target":34962},{"buffer":0,"byteLength":2656,"byteOffset":8952,"byteStride":16,"target":34962},{"buffer":0,"byteLength":528,"byteOffset":11608,"target":34963},{"buffer":0,"byteLength":1992,"byteOffset":12136,"byteStride":12,"target":34962},{"buffer":0,"byteLength":2656,"byteOffset":14128,"byteStride":16,"target":34962},{"buffer":0,"byteLength":1992,"byteOffset":16784,"byteStride":12,"target":34962},{"buffer":0,"byteLength":1328,"byteOffset":18776,"byteStride":8,"target":34962},{"buffer":0,"byteLength":664,"byteOffset":20104,"byteStride":4,"target":34962},{"buffer":0,"byteLength":528,"byteOffset":20768,"target":34963},{"buffer":0,"byteLength":1992,"byteOffset":21296,"byteStride":12,"target":34962},{"buffer":0,"byteLength":1992,"byteOffset":23288,"byteStride":12,"target":34962},{"buffer":0,"byteLength":664,"byteOffset":25280,"byteStride":4,"target":34962},{"buffer":0,"byteLength":1992,"byteOffset":25944,"byteStride":12,"target":34962},{"buffer":0,"byteLength":664,"byteOffset":27936,"byteStride":4,"target":34962},{"buffer":0,"byteLength":1992,"byteOffset":28600,"byteStride":12,"target":34962},{"buffer":0,"byteLength":664,"byteOffset":30592,"byteStride":4,"target":34962},{"buffer":0,"byteLength":72,"byteOffset":31256},{"buffer":0,"byteLength":216,"byteOffset":31328},{"buffer":0,"byteLength":288,"byteOffset":31544},{"buffer":0,"byteLength":80,"byteOffset":31832},{"buffer":0,"byteLength":240,"byteOffset":31912},{"buffer":0,"byteLength":320,"byteOffset":32152},{"buffer":0,"byteLength":80,"byteOffset":32472},{"buffer":0,"byteLength":240,"byteOffset":32552},{"buffer":0,"byteLength":320,"byteOffset":32792},{"buffer":0,"byteLength":92,"byteOffset":33112},{"buffer":0,"byteLength":276,"byteOffset":33204},{"buffer":0,"byteLength":368,"byteOffset":33480},{"buffer":0,"byteLength":96,"byteOffset":33848},{"buffer":0,"byteLength":288,"byteOffset":33944},{"buffer":0,"byteLength":88,"byteOffset":34232},{"buffer":0,"byteLength":352,"byteOffset":34320},{"buffer":0,"byteLength":94972,"byteOffset":34672},{"buffer":0,"byteLength":33304,"byteOffset":129644},{"buffer":0,"byteLength":84734,"byteOffset":162948},{"buffer":0,"byteLength":67200,"byteOffset":247682}],"buffers":[{"byteLength":314882,"uri":"mdl_falling_tokens0.bin"}],"extensionsUsed":["GODOT_single_root"],"images":[{"bufferView":37,"mimeType":"image/png","name":"soul_token"},{"bufferView":38,"mimeType":"image/png","name":"soul_token_metallic-soul_token_roughness"},{"bufferView":39,"mimeType":"image/png","name":"soul_token_normal"},{"bufferView":40,"mimeType":"image/png","name":"soul_token_emissive"}],"materials":[{"doubleSided":true,"emissiveFactor":[1.0,1.0,1.0],"emissiveTexture":{"index":3},"name":"soul_token","normalTexture":{"index":2,"scale":1.0},"pbrMetallicRoughness":{"baseColorFactor":[1.0,1.0,1.0,1.0],"baseColorTexture":{"index":0},"metallicFactor":1.0,"metallicRoughnessTexture":{"index":1},"roughnessFactor":1.0}}],"meshes":[{"name":"Cube_004","primitives":[{"attributes":{"JOINTS_0":5,"NORMAL":3,"POSITION":1,"TANGENT":2,"TEXCOORD_0":4,"WEIGHTS_0":6},"indices":7,"material":0,"mode":4}]},{"name":"Cube_007","primitives":[{"attributes":{"JOINTS_0":12,"NORMAL":10,"POSITION":8,"TANGENT":9,"TEXCOORD_0":11,"WEIGHTS_0":6},"indices":13,"material":0,"mode":4}]},{"name":"Cube_008","primitives":[{"attributes":{"JOINTS_0":16,"NORMAL":15,"POSITION":14,"TANGENT":9,"TEXCOORD_0":11,"WEIGHTS_0":6},"indices":13,"material":0,"mode":4}]},{"name":"Cube_010","primitives":[{"attributes":{"JOINTS_0":18,"NORMAL":15,"POSITION":17,"TANGENT":9,"TEXCOORD_0":11,"WEIGHTS_0":6},"indices":13,"material":0,"mode":4}]},{"name":"Cube_011","primitives":[{"attributes":{"JOINTS_0":20,"NORMAL":15,"POSITION":19,"TANGENT":9,"TEXCOORD_0":11,"WEIGHTS_0":6},"indices":13,"material":0,"mode":4}]}],"nodes":[{"children":[1],"name":"mdl_falling_tokens"},{"children":[2,3,4,5,6,7,8,9,10,11],"name":"falling_soul_tokens","scale":[0.270708,0.27070823,0.27070823]},{"name":"TOKEN1_2","rotation":[0.0,0.70710677,0.70710677,0.0]},{"name":"TOKEN2_2","rotation":[0.0,0.70710677,0.70710677,0.0],"translation":[0.0,0.07388027,0.0]},{"name":"TOKEN3_2","rotation":[0.0,0.70710677,0.70710677,0.0],"translation":[0.0,0.14776054,0.0]},{"name":"TOKEN4_2","rotation":[0.0,0.70710677,0.70710677,0.0],"translation":[0.0,0.2216408,0.0]},{"name":"TOKEN5_2","rotation":[0.0,0.70710677,0.70710677,0.0],"translation":[0.0,0.29552108,0.0]},{"mesh":0,"name":"TOKEN1","skin":0},{"mesh":1,"name":"TOKEN2","skin":0},{"mesh":2,"name":"TOKEN3","skin":0},{"mesh":3,"name":"TOKEN4","skin":0},{"mesh":4,"name":"TOKEN5","skin":0}],"samplers":[{"magFilter":9729,"minFilter":9987,"wrapS":10497,"wrapT":10497}],"scene":0,"scenes":[{"name":"mdl_falling_tokens","nodes":[0]}],"skins":[{"inverseBindMatrices":0,"joints":[2,3,4,5,6],"name":"Skin"}],"textures":[{"sampler":0,"source":0},{"sampler":0,"source":1},{"sampler":0,"source":2},{"sampler":0,"source":3}]}