{"accessors":[{"bufferView":0,"componentType":5126,"count":73,"max":[2.2635202,-2.7939677e-09,2.2635195],"min":[-2.2635198,-0.030000003,-2.2635202],"normalized":false,"type":"VEC3"},{"bufferView":1,"componentType":5126,"count":73,"max":[0.98180044,0.9999852,0.40859228,1.0],"min":[-0.0010441947,-0.9999851,-0.61082065,1.0],"normalized":false,"type":"VEC4"},{"bufferView":2,"componentType":5126,"count":73,"max":[0.9873079,1.0,0.9873079],"min":[-0.98731476,-2.117858e-05,-0.98730516],"normalized":false,"type":"VEC3"},{"bufferView":3,"componentType":5126,"count":73,"max":[0.9628949,0.9739242],"min":[0.019033954,0.030063272],"normalized":false,"type":"VEC2"},{"bufferView":4,"componentType":5126,"count":73,"max":[0.98333335,0.98333335],"min":[0.016666668,0.016666668],"normalized":false,"type":"VEC2"},{"bufferView":5,"componentType":5121,"count":192,"max":[72],"min":[0],"normalized":false,"type":"SCALAR"},{"bufferView":6,"componentType":5126,"count":656,"max":[-3.9384089,2.995289,6.7171674],"min":[-3.99212,1.3318851,5.2868266],"normalized":false,"type":"VEC3"},{"bufferView":7,"componentType":5126,"count":656,"max":[0.99994254,0.998509,0.99921817,1.0],"min":[-0.9999449,-0.9909996,-0.98301464,-1.0],"normalized":false,"type":"VEC4"},{"bufferView":8,"componentType":5126,"count":656,"max":[1.0,0.99892294,0.99503356],"min":[-0.9991731,-0.9989245,-0.9950312],"normalized":false,"type":"VEC3"},{"bufferView":9,"componentType":5126,"count":656,"max":[0.9108118,0.97471666],"min":[0.019283116,0.02528274],"normalized":false,"type":"VEC2"},{"bufferView":10,"componentType":5126,"count":656,"max":[0.9852941,0.9852941],"min":[0.014705882,0.014705882],"normalized":false,"type":"VEC2"},{"bufferView":11,"componentType":5123,"count":2112,"max":[655],"min":[0],"normalized":false,"type":"SCALAR"},{"bufferView":12,"componentType":5126,"count":949,"max":[0.85140204,0.3037452,0.8404732],"min":[-0.86376494,-1.7113682,-0.83814883],"normalized":false,"type":"VEC3"},{"bufferView":13,"componentType":5126,"count":949,"max":[0.99809563,0.99529076,0.9965186,1.0],"min":[-0.9982484,-0.9952796,-0.9981927,1.0],"normalized":false,"type":"VEC4"},{"bufferView":14,"componentType":5126,"count":949,"max":[0.9990881,0.9945609,0.9990892],"min":[-0.9990905,-0.81315047,-0.9990907],"normalized":false,"type":"VEC3"},{"bufferView":15,"componentType":5126,"count":949,"max":[0.9997877,0.9997876],"min":[0.00021238768,0.09417027],"normalized":false,"type":"VEC2"},{"bufferView":16,"componentType":5126,"count":949,"max":[0.9868421,0.9868421],"min":[0.013157895,0.013157895],"normalized":false,"type":"VEC2"},{"bufferView":17,"componentType":5123,"count":3444,"max":[948],"min":[0],"normalized":false,"type":"SCALAR"},{"bufferView":18,"componentType":5126,"count":72,"max":[0.63759583,1.3842771,0.9705371],"min":[-0.58557767,-0.45489272,-0.591244],"normalized":false,"type":"VEC3"},{"bufferView":19,"componentType":5126,"count":72,"max":[0.981323,1.0,0.19236746,1.0],"min":[-0.98133177,-1.7909368e-05,-0.6310904,1.0],"normalized":false,"type":"VEC4"},{"bufferView":20,"componentType":5126,"count":72,"max":[0.9813149,1.0,0.9813149],"min":[-0.77570945,-0.94169885,-0.98131156],"normalized":false,"type":"VEC3"},{"bufferView":21,"componentType":5126,"count":72,"max":[0.964514,0.79746294],"min":[0.11839354,0.017843604],"normalized":false,"type":"VEC2"},{"bufferView":22,"componentType":5126,"count":72,"max":[0.98333335,0.9852941],"min":[0.016666668,0.014705882],"normalized":false,"type":"VEC2"},{"bufferView":23,"componentType":5121,"count":108,"max":[71],"min":[0],"normalized":false,"type":"SCALAR"},{"bufferView":24,"componentType":5126,"count":72,"max":[0.9868421,0.9852941],"min":[0.013157895,0.014705882],"normalized":false,"type":"VEC2"},{"bufferView":25,"componentType":5126,"count":72,"max":[0.9880952,0.9880952],"min":[0.011904762,0.011904762],"normalized":false,"type":"VEC2"},{"bufferView":26,"componentType":5126,"count":2682,"max":[2.9975538,3.4607656,2.660545],"min":[-2.9975538,-0.0020030737,2.2926066],"normalized":false,"type":"VEC3"},{"bufferView":27,"componentType":5126,"count":2682,"max":[1.0,1.0,1.0,1.0],"min":[-1.0,-0.9998316,-1.0,-1.0],"normalized":false,"type":"VEC4"},{"bufferView":28,"componentType":5126,"count":2682,"max":[1.0,0.92011034,1.0],"min":[-1.0,-1.0,-1.0],"normalized":false,"type":"VEC3"},{"bufferView":29,"componentType":5126,"count":2682,"max":[0.9899378,0.99798894],"min":[0.007601328,0.0019347668],"normalized":false,"type":"VEC2"},{"bufferView":30,"componentType":5126,"count":2682,"max":[0.99242425,0.99242425],"min":[0.007575758,0.007575758],"normalized":false,"type":"VEC2"},{"bufferView":31,"componentType":5123,"count":8292,"max":[2681],"min":[0],"normalized":false,"type":"SCALAR"},{"bufferView":32,"componentType":5126,"count":88,"max":[1.0559728,0.28635088,3.1893609],"min":[-1.2188054,-0.013257477,-0.25844407],"normalized":false,"type":"VEC3"},{"bufferView":33,"componentType":5126,"count":88,"max":[0.99999285,0.2590953,0.07259486,1.0],"min":[0.965114,-0.18037668,-0.028275022,1.0],"normalized":false,"type":"VEC4"},{"bufferView":34,"componentType":5126,"count":88,"max":[0.17859378,0.9999229,0.16024892],"min":[-0.26022473,0.9650567,-0.19037291],"normalized":false,"type":"VEC3"},{"bufferView":35,"componentType":5126,"count":88,"max":[0.6815268,0.99991745],"min":[8.261204e-05,8.255243e-05],"normalized":false,"type":"VEC2"},{"bufferView":36,"componentType":5126,"count":88,"max":[0.9166667,0.9166667],"min":[0.083333336,0.083333336],"normalized":false,"type":"VEC2"},{"bufferView":37,"componentType":5121,"count":321,"max":[87],"min":[0],"normalized":false,"type":"SCALAR"},{"bufferView":38,"componentType":5126,"count":80,"max":[4.069176,3.680375,10.094908],"min":[-4.469562,-0.07758355,-2.2813656],"normalized":false,"type":"VEC3"},{"bufferView":39,"componentType":5126,"count":80,"max":[1.0,1.0,1.0,1.0],"min":[-1.0,-1.0,-1.0,-1.0],"normalized":false,"type":"VEC4"},{"bufferView":40,"componentType":5126,"count":80,"max":[1.0,1.0,1.0],"min":[-1.0,-1.0,-1.5259022e-05],"normalized":false,"type":"VEC3"},{"bufferView":41,"componentType":5126,"count":80,"max":[0.9658803,0.9774057],"min":[0.013232324,0.022134602],"normalized":false,"type":"VEC2"},{"bufferView":42,"componentType":5126,"count":80,"max":[0.99615383,0.99615383],"min":[0.0038461538,0.0038461538],"normalized":false,"type":"VEC2"},{"bufferView":43,"componentType":5121,"count":132,"max":[79],"min":[0],"normalized":false,"type":"SCALAR"},{"bufferView":44,"componentType":5126,"count":116,"max":[0.023905039,0.25704175,0.017400716],"min":[-0.013453164,0.029740421,-0.017400716],"normalized":false,"type":"VEC3"},{"bufferView":45,"componentType":5126,"count":116,"max":[1.0,0.9857907,1.0,1.0],"min":[-1.0,-0.60141015,-1.0,-1.0],"normalized":false,"type":"VEC4"},{"bufferView":46,"componentType":5126,"count":116,"max":[1.0,0.79760337,1.0],"min":[-1.0,-1.0,-1.0],"normalized":false,"type":"VEC3"},{"bufferView":47,"componentType":5126,"count":116,"max":[0.9777939,0.45765442],"min":[0.036667854,0.045770407],"normalized":false,"type":"VEC2"},{"bufferView":48,"componentType":5126,"count":116,"max":[0.97727275,0.9722222],"min":[0.022727273,0.027777778],"normalized":false,"type":"VEC2"},{"bufferView":49,"componentType":5121,"count":234,"max":[115],"min":[0],"normalized":false,"type":"SCALAR"},{"bufferView":50,"componentType":5126,"count":134,"max":[0.032304086,0.029740421,0.032303993],"min":[-0.03230402,-0.055752337,-0.032304123],"normalized":false,"type":"VEC3"},{"bufferView":51,"componentType":5126,"count":134,"max":[1.0,0.53820133,0.99539787,1.0],"min":[-1.0,-0.5375288,-0.9906304,1.0],"normalized":false,"type":"VEC4"},{"bufferView":52,"componentType":5126,"count":134,"max":[1.0,0.8226793,1.0],"min":[-1.0,-1.0,-1.0],"normalized":false,"type":"VEC3"},{"bufferView":53,"componentType":5126,"count":134,"max":[0.9867221,0.9914335],"min":[0.06494871,0.45670646],"normalized":false,"type":"VEC2"},{"bufferView":54,"componentType":5126,"count":134,"max":[0.97727275,0.9722222],"min":[0.022727273,0.027777778],"normalized":false,"type":"VEC2"},{"bufferView":55,"componentType":5121,"count":444,"max":[133],"min":[0],"normalized":false,"type":"SCALAR"},{"bufferView":56,"componentType":5126,"count":30,"max":[0.32479745,0.035188437,5.367445],"min":[-5.284376,-3.131185,-0.015841484],"normalized":false,"type":"VEC3"},{"bufferView":57,"componentType":5126,"count":30,"max":[0.99587065,0.32635316,0.98464197,1.0],"min":[-0.0011652517,-0.16233201,-0.9452633,1.0],"normalized":false,"type":"VEC4"},{"bufferView":58,"componentType":5126,"count":30,"max":[0.99342257,0.7851078,0.9996693],"min":[-0.99462426,-0.19674273,0.036355942],"normalized":false,"type":"VEC3"},{"bufferView":59,"componentType":5126,"count":30,"max":[0.9980042,0.99132085],"min":[0.36395624,0.003445685],"normalized":false,"type":"VEC2"},{"bufferView":60,"componentType":5126,"count":30,"max":[0.9166667,0.95],"min":[0.083333336,0.05],"normalized":false,"type":"VEC2"},{"bufferView":61,"componentType":5121,"count":72,"max":[29],"min":[0],"normalized":false,"type":"SCALAR"},{"bufferView":62,"componentType":5126,"count":152,"max":[0.7525218,2.198738,0.47106463],"min":[-1.2331109,-1.0,-0.46209717],"normalized":false,"type":"VEC3"},{"bufferView":63,"componentType":5126,"count":152,"max":[0.1866177,0.9999998,1.0,1.0],"min":[-0.99991167,-0.9999974,-1.0,1.0],"normalized":false,"type":"VEC4"},{"bufferView":64,"componentType":5126,"count":152,"max":[0.9999974,1.0,1.0],"min":[-0.99999744,-1.0,-1.0],"normalized":false,"type":"VEC3"},{"bufferView":65,"componentType":5126,"count":152,"max":[0.99967116,0.99967116],"min":[0.0003288425,0.023421168],"normalized":false,"type":"VEC2"},{"bufferView":66,"componentType":5126,"count":152,"max":[0.9913793,0.9907407],"min":[0.00862069,0.009259259],"normalized":false,"type":"VEC2"},{"bufferView":67,"componentType":5121,"count":228,"max":[151],"min":[0],"normalized":false,"type":"SCALAR"},{"bufferView":68,"componentType":5126,"count":40,"max":[0.23630646,0.14711802,0.043251257],"min":[-0.23630646,-0.14711793,0.005331762],"normalized":false,"type":"VEC3"},{"bufferView":69,"componentType":5126,"count":40,"max":[1.0,1.0,4.577916e-05,1.0],"min":[-1.0,0.0,-1.5259022e-05,1.0],"normalized":false,"type":"VEC4"},{"bufferView":70,"componentType":5126,"count":40,"max":[1.0,1.0,1.0],"min":[-1.0,-1.0,-1.5259022e-05],"normalized":false,"type":"VEC3"},{"bufferView":71,"componentType":5126,"count":40,"max":[0.61001635,0.91778475],"min":[0.453964,0.70971495],"normalized":false,"type":"VEC2"},{"bufferView":72,"componentType":5126,"count":40,"max":[0.9722222,0.9722222],"min":[0.027777778,0.027777778],"normalized":false,"type":"VEC2"},{"bufferView":73,"componentType":5121,"count":72,"max":[39],"min":[0],"normalized":false,"type":"SCALAR"},{"bufferView":74,"componentType":5126,"count":4,"max":[0.18320444,0.10011839,0.012694389],"min":[-0.18320444,-0.100118294,0.012694389],"normalized":false,"type":"VEC3"},{"bufferView":75,"componentType":5126,"count":4,"max":[1.0,0.0,-1.5259022e-05,1.0],"min":[1.0,0.0,-1.5259022e-05,1.0],"normalized":false,"type":"VEC4"},{"bufferView":76,"componentType":5126,"count":4,"max":[-1.5259255e-05,-1.5259255e-05,1.0],"min":[-1.5259255e-05,-1.5259255e-05,1.0],"normalized":false,"type":"VEC3"},{"bufferView":77,"componentType":5126,"count":4,"max":[0.51662487,0.1776542],"min":[0.29336762,0.0036070943],"normalized":false,"type":"VEC2"},{"bufferView":78,"componentType":5126,"count":4,"max":[0.30555555,0.30555555],"min":[0.027777778,0.027777778],"normalized":false,"type":"VEC2"},{"bufferView":79,"componentType":5121,"count":6,"max":[3],"min":[0],"normalized":false,"type":"SCALAR"},{"bufferView":80,"componentType":5126,"count":654,"max":[0.36066222,0.23786406,0.1271972],"min":[-0.3606616,-0.17525174,-0.12629251],"normalized":false,"type":"VEC3"},{"bufferView":81,"componentType":5126,"count":654,"max":[1.0,1.0,0.9075945,1.0],"min":[-1.0,-0.9999992,-1.0,-1.0],"normalized":false,"type":"VEC4"},{"bufferView":82,"componentType":5126,"count":654,"max":[1.0,1.0,1.0],"min":[-1.0,-1.0,-1.0],"normalized":false,"type":"VEC3"},{"bufferView":83,"componentType":5126,"count":654,"max":[0.742901,0.999897],"min":[0.000103,0.000102996826],"normalized":false,"type":"VEC2"},{"bufferView":84,"componentType":5126,"count":654,"max":[0.9880952,0.9880952],"min":[0.011904762,0.011904762],"normalized":false,"type":"VEC2"},{"bufferView":85,"componentType":5123,"count":1404,"max":[653],"min":[0],"normalized":false,"type":"SCALAR"},{"bufferView":86,"componentType":5126,"count":602,"max":[3.5607958,0.75542146,-3.029395],"min":[1.9016382,0.13757995,-3.3412004],"normalized":false,"type":"VEC3"},{"bufferView":87,"componentType":5126,"count":602,"max":[0.98226607,0.81317073,0.9998525,1.0],"min":[-0.9822843,-0.8097127,-0.99985236,-1.0],"normalized":false,"type":"VEC4"},{"bufferView":88,"componentType":5126,"count":602,"max":[0.98228675,0.9824847,0.9998519],"min":[-0.9822907,-0.9824808,-0.99985206],"normalized":false,"type":"VEC3"},{"bufferView":89,"componentType":5126,"count":602,"max":[0.9390608,0.50151545],"min":[0.0062882933,0.2259906],"normalized":false,"type":"VEC2"},{"bufferView":90,"componentType":5126,"count":602,"max":[0.9913793,0.9913793],"min":[0.0,0.0],"normalized":false,"type":"VEC2"},{"bufferView":91,"componentType":5123,"count":966,"max":[601],"min":[0],"normalized":false,"type":"SCALAR"},{"bufferView":92,"componentType":5126,"count":4,"max":[0.2759036,0.0,0.5],"min":[-0.2759036,0.0,-0.5],"normalized":false,"type":"VEC3"},{"bufferView":93,"componentType":5126,"count":4,"max":[0.0,1.0,-1.5259022e-05],"min":[0.0,1.0,-1.5259022e-05],"normalized":false,"type":"VEC3"},{"bufferView":94,"componentType":5126,"count":4,"max":[1.0,1.0],"min":[0.0,0.0],"normalized":false,"type":"VEC2"},{"bufferView":95,"componentType":5126,"count":4,"max":[0.9166667,0.9166667],"min":[0.083333336,0.083333336],"normalized":false,"type":"VEC2"},{"bufferView":96,"componentType":5126,"count":801,"max":[0.050021194,0.119507775,0.02693373],"min":[-0.050339468,0.0005564466,-0.03762168],"normalized":false,"type":"VEC3"},{"bufferView":97,"componentType":5126,"count":801,"max":[0.999906,0.9779137,0.99995786,1.0],"min":[-0.99999374,-0.9872321,-0.99989754,-1.0],"normalized":false,"type":"VEC4"},{"bufferView":98,"componentType":5126,"count":801,"max":[0.9999497,0.99997354,0.9999974],"min":[-0.99947673,-0.9999997,-0.9999973],"normalized":false,"type":"VEC3"},{"bufferView":99,"componentType":5126,"count":801,"max":[0.99638575,0.99256635],"min":[0.005346656,0.004274249],"normalized":false,"type":"VEC2"},{"bufferView":100,"componentType":5126,"count":801,"max":[0.9807692,0.97727275],"min":[0.01923077,0.022727273],"normalized":false,"type":"VEC2"},{"bufferView":101,"componentType":5123,"count":2556,"max":[800],"min":[0],"normalized":false,"type":"SCALAR"},{"bufferView":102,"componentType":5126,"count":121,"max":[0.567339,0.06627655,1.1329668],"min":[-0.567339,-0.614486,-1.1329668],"normalized":false,"type":"VEC3"},{"bufferView":103,"componentType":5126,"count":121,"max":[1.0,0.8802839,0.9997985,1.0],"min":[-1.0,-1.0,-1.0,1.0],"normalized":false,"type":"VEC4"},{"bufferView":104,"componentType":5126,"count":121,"max":[1.0,1.0,1.0],"min":[-0.456614,-1.0,-1.0],"normalized":false,"type":"VEC3"},{"bufferView":105,"componentType":5126,"count":121,"max":[0.6668892,0.40793258],"min":[0.29898858,0.028446734],"normalized":false,"type":"VEC2"},{"bufferView":106,"componentType":5126,"count":121,"max":[0.9852941,0.98333335],"min":[0.014705882,0.016666668],"normalized":false,"type":"VEC2"},{"bufferView":107,"componentType":5121,"count":228,"max":[120],"min":[0],"normalized":false,"type":"SCALAR"},{"bufferView":108,"componentType":5126,"count":8944,"max":[7.13491,1.1129925,2.0415359],"min":[-1.1895187,-1.7575505,-0.5487256],"normalized":false,"type":"VEC3"},{"bufferView":109,"componentType":5126,"count":8944,"max":[0.9999584,0.9998067,0.99986756,1.0],"min":[-0.9999817,-0.99999285,-0.999923,-1.0],"normalized":false,"type":"VEC4"},{"bufferView":110,"componentType":5126,"count":8944,"max":[0.99982893,0.9999636,0.99996555],"min":[-0.99980235,-0.99997956,-0.9991951],"normalized":false,"type":"VEC3"},{"bufferView":111,"componentType":5126,"count":8944,"max":[0.99048775,0.9904877],"min":[0.009512245,0.0106031895],"normalized":false,"type":"VEC2"},{"bufferView":112,"componentType":5126,"count":8944,"max":[0.99489796,0.9946808],"min":[0.0051020407,0.005319149],"normalized":false,"type":"VEC2"},{"bufferView":113,"componentType":5123,"count":33579,"max":[8943],"min":[0],"normalized":false,"type":"SCALAR"},{"bufferView":114,"componentType":5126,"count":2433,"max":[5.4404373,1.564621,1.9114021],"min":[-1.2805281,-1.7346973,-1.392807],"normalized":false,"type":"VEC3"},{"bufferView":115,"componentType":5126,"count":2433,"max":[1.0,0.9985003,0.9983582,1.0],"min":[-0.9981766,-0.9977288,-0.9998965,-1.0],"normalized":false,"type":"VEC4"},{"bufferView":116,"componentType":5126,"count":2433,"max":[0.99814373,0.9997166,0.99997956],"min":[-0.9998512,-0.9998841,-0.99822766],"normalized":false,"type":"VEC3"},{"bufferView":117,"componentType":5126,"count":2433,"max":[0.9799073,0.9948666],"min":[0.0051333774,0.0051335096],"normalized":false,"type":"VEC2"},{"bufferView":118,"componentType":5126,"count":2433,"max":[0.7908163,0.8244681],"min":[0.0051020407,0.005319149],"normalized":false,"type":"VEC2"},{"bufferView":119,"componentType":5123,"count":8175,"max":[2432],"min":[0],"normalized":false,"type":"SCALAR"},{"bufferView":120,"componentType":5126,"count":514,"max":[0.57139736,1.1088687,1.05079],"min":[-0.83332664,-0.010964036,-1.2716097],"normalized":false,"type":"VEC3"},{"bufferView":121,"componentType":5126,"count":514,"max":[1.0,1.0,0.99999756,1.0],"min":[-1.0,-1.0,-0.99999756,-1.0],"normalized":false,"type":"VEC4"},{"bufferView":122,"componentType":5126,"count":514,"max":[0.9999976,1.0,1.0],"min":[-0.9999977,-0.904555,-0.99999994],"normalized":false,"type":"VEC3"},{"bufferView":123,"componentType":5126,"count":514,"max":[0.9984276,0.9984277],"min":[0.0015723102,0.10688579],"normalized":false,"type":"VEC2"},{"bufferView":124,"componentType":5126,"count":514,"max":[0.99,0.99],"min":[0.01,0.01],"normalized":false,"type":"VEC2"},{"bufferView":125,"componentType":5123,"count":996,"max":[513],"min":[0],"normalized":false,"type":"SCALAR"},{"bufferView":126,"componentType":5126,"count":52,"max":[0.51665723,0.5398659,0.83264107],"min":[-0.5348178,-0.52068704,-0.90683174],"normalized":false,"type":"VEC3"},{"bufferView":127,"componentType":5126,"count":52,"max":[0.80141383,0.55785465,0.76930386,1.0],"min":[-0.643541,-0.77559346,-0.76262605,1.0],"normalized":false,"type":"VEC4"},{"bufferView":128,"componentType":5126,"count":52,"max":[0.80137694,0.78838235,0.9741579],"min":[-0.8013956,-0.59410846,-0.97416526],"normalized":false,"type":"VEC3"},{"bufferView":129,"componentType":5126,"count":52,"max":[0.9358172,0.7350615],"min":[0.040201865,0.0040954947],"normalized":false,"type":"VEC2"},{"bufferView":130,"componentType":5126,"count":52,"max":[0.97727275,0.9807692],"min":[0.022727273,0.01923077],"normalized":false,"type":"VEC2"},{"bufferView":131,"componentType":5121,"count":78,"max":[51],"min":[0],"normalized":false,"type":"SCALAR"},{"bufferView":132,"componentType":5126,"count":94,"max":[1.9602033,-0.09577465,1.0937221],"min":[-2.038305,-1.2340051,-1.1677351],"normalized":false,"type":"VEC3"},{"bufferView":133,"componentType":5126,"count":94,"max":[1.0,0.98927695,0.77056724,1.0],"min":[-0.3923318,-0.7242151,-0.65865135,-1.0],"normalized":false,"type":"VEC4"},{"bufferView":134,"componentType":5126,"count":94,"max":[0.8451712,1.0,1.0],"min":[-0.8612364,-1.0,-1.0],"normalized":false,"type":"VEC3"},{"bufferView":135,"componentType":5126,"count":94,"max":[0.934881,0.9805375],"min":[0.006849007,9.697676e-05],"normalized":false,"type":"VEC2"},{"bufferView":136,"componentType":5126,"count":94,"max":[0.98913044,0.98913044],"min":[0.010869565,0.010869565],"normalized":false,"type":"VEC2"},{"bufferView":137,"componentType":5121,"count":228,"max":[93],"min":[0],"normalized":false,"type":"SCALAR"},{"bufferView":138,"componentType":5126,"count":514,"max":[2.2874048,1.2724313,1.0],"min":[-2.2874048,0.0054216087,-1.1550373],"normalized":false,"type":"VEC3"},{"bufferView":139,"componentType":5126,"count":514,"max":[0.9999988,1.0,0.99999994,1.0],"min":[-0.9999988,-1.0,-1.0,-1.0],"normalized":false,"type":"VEC4"},{"bufferView":140,"componentType":5126,"count":514,"max":[0.99999994,1.0,0.9999988],"min":[-0.99999994,-0.904555,-0.9999987],"normalized":false,"type":"VEC3"},{"bufferView":141,"componentType":5126,"count":514,"max":[0.9984276,0.9984277],"min":[0.0015723102,0.10688579],"normalized":false,"type":"VEC2"},{"bufferView":142,"componentType":5126,"count":514,"max":[0.9932432,0.99358976],"min":[0.006756757,0.0064102565],"normalized":false,"type":"VEC2"},{"bufferView":143,"componentType":5123,"count":996,"max":[513],"min":[0],"normalized":false,"type":"SCALAR"},{"bufferView":144,"componentType":5126,"count":246,"max":[2.5626438,0.38217115,-0.59715474],"min":[1.7013079,0.047314364,-1.2191893],"normalized":false,"type":"VEC3"},{"bufferView":145,"componentType":5126,"count":246,"max":[0.9905286,0.65425295,0.9906594,1.0],"min":[-0.9905358,-0.65429664,-0.9906528,1.0],"normalized":false,"type":"VEC4"},{"bufferView":146,"componentType":5126,"count":246,"max":[0.99053526,0.9999528,0.9906595],"min":[-0.9905317,-0.99995255,-0.99065197],"normalized":false,"type":"VEC3"},{"bufferView":147,"componentType":5126,"count":246,"max":[0.9390608,0.50151545],"min":[0.0062882933,0.2259906],"normalized":false,"type":"VEC2"},{"bufferView":148,"componentType":5126,"count":246,"max":[0.9852941,0.9852941],"min":[0.014705882,0.014705882],"normalized":false,"type":"VEC2"},{"bufferView":149,"componentType":5121,"count":420,"max":[245],"min":[0],"normalized":false,"type":"SCALAR"},{"bufferView":150,"componentType":5126,"count":4035,"max":[0.37245488,0.31053448,0.26618743],"min":[-0.5765908,-0.20035195,-0.43566024],"normalized":false,"type":"VEC3"},{"bufferView":151,"componentType":5126,"count":4035,"max":[1.0,1.0,0.999714,1.0],"min":[-0.98986,-0.9999993,-0.99956536,-1.0],"normalized":false,"type":"VEC4"},{"bufferView":152,"componentType":5126,"count":4035,"max":[0.9988537,1.0,0.99972385],"min":[-0.9968706,-1.0,-0.9996974],"normalized":false,"type":"VEC3"},{"bufferView":153,"componentType":5126,"count":4035,"max":[0.98117465,0.999853],"min":[0.000147,0.00014698505],"normalized":false,"type":"VEC2"},{"bufferView":154,"componentType":5126,"count":4035,"max":[0.99242425,0.9919355],"min":[0.0,0.0],"normalized":false,"type":"VEC2"},{"bufferView":155,"componentType":5123,"count":13158,"max":[4034],"min":[0],"normalized":false,"type":"SCALAR"},{"bufferView":156,"componentType":5126,"count":165,"max":[0.39834037,0.01362779,0.4230471],"min":[-0.35570258,-0.041951254,-0.32314768],"normalized":false,"type":"VEC3"},{"bufferView":157,"componentType":5126,"count":165,"max":[0.99999994,0.8625412,0.70956385,1.0],"min":[-0.50552475,-0.8624883,-0.70468825,-1.0],"normalized":false,"type":"VEC4"},{"bufferView":158,"componentType":5126,"count":165,"max":[0.8624509,0.99999934,0.84987354],"min":[-0.8624248,-0.97438556,-0.84987795],"normalized":false,"type":"VEC3"},{"bufferView":159,"componentType":5126,"count":165,"max":[0.2655685,0.3509302],"min":[0.022668023,0.030342579],"normalized":false,"type":"VEC2"},{"bufferView":160,"componentType":5126,"count":165,"max":[0.96428573,0.95],"min":[0.035714287,0.05],"normalized":false,"type":"VEC2"},{"bufferView":161,"componentType":5121,"count":654,"max":[164],"min":[0],"normalized":false,"type":"SCALAR"},{"bufferView":162,"componentType":5126,"count":198,"max":[0.035017945,0.0122981,0.028151872],"min":[-0.11769068,0.0037559206,-0.10676788],"normalized":false,"type":"VEC3"},{"bufferView":163,"componentType":5126,"count":198,"max":[0.97289246,0.85974437,0.79611206,1.0],"min":[-0.879778,-0.85979366,-0.9816174,1.0],"normalized":false,"type":"VEC4"},{"bufferView":164,"componentType":5126,"count":198,"max":[0.9999909,1.0,0.9999909],"min":[-0.9999909,-0.74873304,-0.9999907],"normalized":false,"type":"VEC3"},{"bufferView":165,"componentType":5126,"count":198,"max":[0.8578447,0.8570697],"min":[0.8133902,0.81261516],"normalized":false,"type":"VEC2"},{"bufferView":166,"componentType":5126,"count":198,"max":[0.96428573,0.95],"min":[0.035714287,0.05],"normalized":false,"type":"VEC2"},{"bufferView":167,"componentType":5121,"count":720,"max":[197],"min":[0],"normalized":false,"type":"SCALAR"},{"bufferView":168,"componentType":5126,"count":128,"max":[1.0545039,2.198738,0.80968606],"min":[-1.5324254,-0.99999994,-0.44820875],"normalized":false,"type":"VEC3"},{"bufferView":169,"componentType":5126,"count":128,"max":[0.050795045,0.9999916,1.0,1.0],"min":[-1.0,-0.99999994,-1.0,1.0],"normalized":false,"type":"VEC4"},{"bufferView":170,"componentType":5126,"count":128,"max":[0.99999577,1.0,1.0],"min":[-0.9999959,-1.0,-1.0],"normalized":false,"type":"VEC3"},{"bufferView":171,"componentType":5126,"count":128,"max":[0.9306752,0.99967116],"min":[0.00032881278,0.054281235],"normalized":false,"type":"VEC2"},{"bufferView":172,"componentType":5126,"count":128,"max":[0.9919355,0.9913793],"min":[0.008064516,0.00862069],"normalized":false,"type":"VEC2"},{"bufferView":173,"componentType":5121,"count":192,"max":[127],"min":[0],"normalized":false,"type":"SCALAR"},{"bufferView":174,"componentType":5126,"count":217,"max":[1.5704064,2.8106756,1.0],"min":[-1.5704064,0.0,-1.0181563],"normalized":false,"type":"VEC3"},{"bufferView":175,"componentType":5126,"count":217,"max":[1.0,0.98254645,0.999418,1.0],"min":[-0.81502247,-0.9947428,-1.0,-1.0],"normalized":false,"type":"VEC4"},{"bufferView":176,"componentType":5126,"count":217,"max":[1.0,1.0,1.0],"min":[-1.0,-0.98915726,-0.5872043],"normalized":false,"type":"VEC3"},{"bufferView":177,"componentType":5126,"count":217,"max":[0.9852125,0.9882562],"min":[0.00846976,0.012504399],"normalized":false,"type":"VEC2"},{"bufferView":178,"componentType":5126,"count":217,"max":[0.9868421,0.9868421],"min":[0.013157895,0.013157895],"normalized":false,"type":"VEC2"},{"bufferView":179,"componentType":5121,"count":489,"max":[216],"min":[0],"normalized":false,"type":"SCALAR"},{"bufferView":180,"componentType":5126,"count":19,"max":[0.5290016,0.870365,0.5909185],"min":[0.3786633,-0.8703646,-0.6559673],"normalized":false,"type":"VEC3"},{"bufferView":181,"componentType":5126,"count":19,"max":[0.0036305864,-0.14545146,0.9893587,1.0],"min":[-0.5820884,-0.648221,0.4908999,1.0],"normalized":false,"type":"VEC4"},{"bufferView":182,"componentType":5126,"count":19,"max":[-0.37438703,0.0055947495,0.004485011],"min":[-0.9999743,-0.671469,-0.8485461],"normalized":false,"type":"VEC3"},{"bufferView":183,"componentType":5126,"count":19,"max":[0.86457115,0.442932],"min":[0.64647496,0.002312541],"normalized":false,"type":"VEC2"},{"bufferView":184,"componentType":5126,"count":19,"max":[0.95,0.95],"min":[0.05,0.05],"normalized":false,"type":"VEC2"},{"bufferView":185,"componentType":5121,"count":78,"max":[18],"min":[0],"normalized":false,"type":"SCALAR"},{"bufferView":186,"componentType":5126,"count":1658,"max":[3.9666822,-0.29034597,2.8491275],"min":[3.235119,-0.603218,1.5861821],"normalized":false,"type":"VEC3"},{"bufferView":187,"componentType":5126,"count":1658,"max":[1.0,0.9999998,0.99992293,1.0],"min":[-0.99203664,-0.99793845,-0.9964997,-1.0],"normalized":false,"type":"VEC4"},{"bufferView":188,"componentType":5126,"count":1658,"max":[0.9975472,1.0,0.99754715],"min":[-0.9995201,-1.0,-0.9975461],"normalized":false,"type":"VEC3"},{"bufferView":189,"componentType":5126,"count":1658,"max":[1.0,1.0],"min":[0.0062882933,0.048031032],"normalized":false,"type":"VEC2"},{"bufferView":190,"componentType":5126,"count":1658,"max":[0.99,0.99],"min":[0.01,0.01],"normalized":false,"type":"VEC2"},{"bufferView":191,"componentType":5123,"count":5712,"max":[1657],"min":[0],"normalized":false,"type":"SCALAR"},{"bufferView":192,"componentType":5126,"count":2726,"max":[0.5145375,0.09957005,0.2591859],"min":[-0.5145375,-0.057251707,-0.20668888],"normalized":false,"type":"VEC3"},{"bufferView":193,"componentType":5126,"count":2726,"max":[0.86400574,0.9999969,0.9919114,1.0],"min":[-0.61855716,-0.9999991,-0.9989194,1.0],"normalized":false,"type":"VEC4"},{"bufferView":194,"componentType":5126,"count":2726,"max":[0.99995774,0.99999994,0.99814963],"min":[-0.99676585,-0.9999999,-1.0],"normalized":false,"type":"VEC3"},{"bufferView":195,"componentType":5126,"count":2726,"max":[0.99707043,0.9970705],"min":[0.0029295576,0.14833438],"normalized":false,"type":"VEC2"},{"bufferView":196,"componentType":5126,"count":2726,"max":[0.98333335,0.9807692],"min":[0.016666668,0.01923077],"normalized":false,"type":"VEC2"},{"bufferView":197,"componentType":5123,"count":5610,"max":[2725],"min":[0],"normalized":false,"type":"SCALAR"},{"bufferView":198,"componentType":5126,"count":651,"max":[2.84454,1.074225,0.038230393],"min":[2.1768143,-0.4608192,-0.68767065],"normalized":false,"type":"VEC3"},{"bufferView":199,"componentType":5126,"count":651,"max":[0.9685721,0.9861667,0.9020048,1.0],"min":[-0.8182428,-0.8264322,-0.9980032,-1.0],"normalized":false,"type":"VEC4"},{"bufferView":200,"componentType":5126,"count":651,"max":[0.9350778,0.99220115,0.97331417],"min":[-0.94671965,-0.9839754,-0.9860176],"normalized":false,"type":"VEC3"},{"bufferView":201,"componentType":5126,"count":651,"max":[1.0028759,3.024624],"min":[-0.03844018,-15.204687],"normalized":false,"type":"VEC2"},{"bufferView":202,"componentType":5126,"count":651,"max":[0.97727275,0.97727275],"min":[0.022727273,0.022727273],"normalized":false,"type":"VEC2"},{"bufferView":203,"componentType":5123,"count":972,"max":[650],"min":[0],"normalized":false,"type":"SCALAR"}],"asset":{"copyright":"The Creators of 'Friday Night Funkin': Lullaby'","generator":"GDRE Tools vv2.6.3","version":"2.0"},"bufferViews":[{"buffer":0,"byteLength":876,"byteStride":12,"target":34962},{"buffer":0,"byteLength":1168,"byteOffset":876,"byteStride":16,"target":34962},{"buffer":0,"byteLength":876,"byteOffset":2044,"byteStride":12,"target":34962},{"buffer":0,"byteLength":584,"byteOffset":2920,"byteStride":8,"target":34962},{"buffer":0,"byteLength":584,"byteOffset":3504,"byteStride":8,"target":34962},{"buffer":0,"byteLength":192,"byteOffset":4088,"target":34963},{"buffer":0,"byteLength":7872,"byteOffset":4280,"byteStride":12,"target":34962},{"buffer":0,"byteLength":10496,"byteOffset":12152,"byteStride":16,"target":34962},{"buffer":0,"byteLength":7872,"byteOffset":22648,"byteStride":12,"target":34962},{"buffer":0,"byteLength":5248,"byteOffset":30520,"byteStride":8,"target":34962},{"buffer":0,"byteLength":5248,"byteOffset":35768,"byteStride":8,"target":34962},{"buffer":0,"byteLength":4224,"byteOffset":41016,"target":34963},{"buffer":0,"byteLength":11388,"byteOffset":45240,"byteStride":12,"target":34962},{"buffer":0,"byteLength":15184,"byteOffset":56628,"byteStride":16,"target":34962},{"buffer":0,"byteLength":11388,"byteOffset":71812,"byteStride":12,"target":34962},{"buffer":0,"byteLength":7592,"byteOffset":83200,"byteStride":8,"target":34962},{"buffer":0,"byteLength":7592,"byteOffset":90792,"byteStride":8,"target":34962},{"buffer":0,"byteLength":6888,"byteOffset":98384,"target":34963},{"buffer":0,"byteLength":864,"byteOffset":105272,"byteStride":12,"target":34962},{"buffer":0,"byteLength":1152,"byteOffset":106136,"byteStride":16,"target":34962},{"buffer":0,"byteLength":864,"byteOffset":107288,"byteStride":12,"target":34962},{"buffer":0,"byteLength":576,"byteOffset":108152,"byteStride":8,"target":34962},{"buffer":0,"byteLength":576,"byteOffset":108728,"byteStride":8,"target":34962},{"buffer":0,"byteLength":108,"byteOffset":109304,"target":34963},{"buffer":0,"byteLength":576,"byteOffset":109412,"byteStride":8,"target":34962},{"buffer":0,"byteLength":576,"byteOffset":109988,"byteStride":8,"target":34962},{"buffer":0,"byteLength":32184,"byteOffset":110564,"byteStride":12,"target":34962},{"buffer":0,"byteLength":42912,"byteOffset":142748,"byteStride":16,"target":34962},{"buffer":0,"byteLength":32184,"byteOffset":185660,"byteStride":12,"target":34962},{"buffer":0,"byteLength":21456,"byteOffset":217844,"byteStride":8,"target":34962},{"buffer":0,"byteLength":21456,"byteOffset":239300,"byteStride":8,"target":34962},{"buffer":0,"byteLength":16584,"byteOffset":260756,"target":34963},{"buffer":0,"byteLength":1056,"byteOffset":277340,"byteStride":12,"target":34962},{"buffer":0,"byteLength":1408,"byteOffset":278396,"byteStride":16,"target":34962},{"buffer":0,"byteLength":1056,"byteOffset":279804,"byteStride":12,"target":34962},{"buffer":0,"byteLength":704,"byteOffset":280860,"byteStride":8,"target":34962},{"buffer":0,"byteLength":704,"byteOffset":281564,"byteStride":8,"target":34962},{"buffer":0,"byteLength":321,"byteOffset":282268,"target":34963},{"buffer":0,"byteLength":960,"byteOffset":282592,"byteStride":12,"target":34962},{"buffer":0,"byteLength":1280,"byteOffset":283552,"byteStride":16,"target":34962},{"buffer":0,"byteLength":960,"byteOffset":284832,"byteStride":12,"target":34962},{"buffer":0,"byteLength":640,"byteOffset":285792,"byteStride":8,"target":34962},{"buffer":0,"byteLength":640,"byteOffset":286432,"byteStride":8,"target":34962},{"buffer":0,"byteLength":132,"byteOffset":287072,"target":34963},{"buffer":0,"byteLength":1392,"byteOffset":287204,"byteStride":12,"target":34962},{"buffer":0,"byteLength":1856,"byteOffset":288596,"byteStride":16,"target":34962},{"buffer":0,"byteLength":1392,"byteOffset":290452,"byteStride":12,"target":34962},{"buffer":0,"byteLength":928,"byteOffset":291844,"byteStride":8,"target":34962},{"buffer":0,"byteLength":928,"byteOffset":292772,"byteStride":8,"target":34962},{"buffer":0,"byteLength":234,"byteOffset":293700,"target":34963},{"buffer":0,"byteLength":1608,"byteOffset":293936,"byteStride":12,"target":34962},{"buffer":0,"byteLength":2144,"byteOffset":295544,"byteStride":16,"target":34962},{"buffer":0,"byteLength":1608,"byteOffset":297688,"byteStride":12,"target":34962},{"buffer":0,"byteLength":1072,"byteOffset":299296,"byteStride":8,"target":34962},{"buffer":0,"byteLength":1072,"byteOffset":300368,"byteStride":8,"target":34962},{"buffer":0,"byteLength":444,"byteOffset":301440,"target":34963},{"buffer":0,"byteLength":360,"byteOffset":301884,"byteStride":12,"target":34962},{"buffer":0,"byteLength":480,"byteOffset":302244,"byteStride":16,"target":34962},{"buffer":0,"byteLength":360,"byteOffset":302724,"byteStride":12,"target":34962},{"buffer":0,"byteLength":240,"byteOffset":303084,"byteStride":8,"target":34962},{"buffer":0,"byteLength":240,"byteOffset":303324,"byteStride":8,"target":34962},{"buffer":0,"byteLength":72,"byteOffset":303564,"target":34963},{"buffer":0,"byteLength":1824,"byteOffset":303636,"byteStride":12,"target":34962},{"buffer":0,"byteLength":2432,"byteOffset":305460,"byteStride":16,"target":34962},{"buffer":0,"byteLength":1824,"byteOffset":307892,"byteStride":12,"target":34962},{"buffer":0,"byteLength":1216,"byteOffset":309716,"byteStride":8,"target":34962},{"buffer":0,"byteLength":1216,"byteOffset":310932,"byteStride":8,"target":34962},{"buffer":0,"byteLength":228,"byteOffset":312148,"target":34963},{"buffer":0,"byteLength":480,"byteOffset":312376,"byteStride":12,"target":34962},{"buffer":0,"byteLength":640,"byteOffset":312856,"byteStride":16,"target":34962},{"buffer":0,"byteLength":480,"byteOffset":313496,"byteStride":12,"target":34962},{"buffer":0,"byteLength":320,"byteOffset":313976,"byteStride":8,"target":34962},{"buffer":0,"byteLength":320,"byteOffset":314296,"byteStride":8,"target":34962},{"buffer":0,"byteLength":72,"byteOffset":314616,"target":34963},{"buffer":0,"byteLength":48,"byteOffset":314688,"byteStride":12,"target":34962},{"buffer":0,"byteLength":64,"byteOffset":314736,"byteStride":16,"target":34962},{"buffer":0,"byteLength":48,"byteOffset":314800,"byteStride":12,"target":34962},{"buffer":0,"byteLength":32,"byteOffset":314848,"byteStride":8,"target":34962},{"buffer":0,"byteLength":32,"byteOffset":314880,"byteStride":8,"target":34962},{"buffer":0,"byteLength":6,"byteOffset":314912,"target":34963},{"buffer":0,"byteLength":7848,"byteOffset":314920,"byteStride":12,"target":34962},{"buffer":0,"byteLength":10464,"byteOffset":322768,"byteStride":16,"target":34962},{"buffer":0,"byteLength":7848,"byteOffset":333232,"byteStride":12,"target":34962},{"buffer":0,"byteLength":5232,"byteOffset":341080,"byteStride":8,"target":34962},{"buffer":0,"byteLength":5232,"byteOffset":346312,"byteStride":8,"target":34962},{"buffer":0,"byteLength":2808,"byteOffset":351544,"target":34963},{"buffer":0,"byteLength":7224,"byteOffset":354352,"byteStride":12,"target":34962},{"buffer":0,"byteLength":9632,"byteOffset":361576,"byteStride":16,"target":34962},{"buffer":0,"byteLength":7224,"byteOffset":371208,"byteStride":12,"target":34962},{"buffer":0,"byteLength":4816,"byteOffset":378432,"byteStride":8,"target":34962},{"buffer":0,"byteLength":4816,"byteOffset":383248,"byteStride":8,"target":34962},{"buffer":0,"byteLength":1932,"byteOffset":388064,"target":34963},{"buffer":0,"byteLength":48,"byteOffset":389996,"byteStride":12,"target":34962},{"buffer":0,"byteLength":48,"byteOffset":390044,"byteStride":12,"target":34962},{"buffer":0,"byteLength":32,"byteOffset":390092,"byteStride":8,"target":34962},{"buffer":0,"byteLength":32,"byteOffset":390124,"byteStride":8,"target":34962},{"buffer":0,"byteLength":9612,"byteOffset":390156,"byteStride":12,"target":34962},{"buffer":0,"byteLength":12816,"byteOffset":399768,"byteStride":16,"target":34962},{"buffer":0,"byteLength":9612,"byteOffset":412584,"byteStride":12,"target":34962},{"buffer":0,"byteLength":6408,"byteOffset":422196,"byteStride":8,"target":34962},{"buffer":0,"byteLength":6408,"byteOffset":428604,"byteStride":8,"target":34962},{"buffer":0,"byteLength":5112,"byteOffset":435012,"target":34963},{"buffer":0,"byteLength":1452,"byteOffset":440124,"byteStride":12,"target":34962},{"buffer":0,"byteLength":1936,"byteOffset":441576,"byteStride":16,"target":34962},{"buffer":0,"byteLength":1452,"byteOffset":443512,"byteStride":12,"target":34962},{"buffer":0,"byteLength":968,"byteOffset":444964,"byteStride":8,"target":34962},{"buffer":0,"byteLength":968,"byteOffset":445932,"byteStride":8,"target":34962},{"buffer":0,"byteLength":228,"byteOffset":446900,"target":34963},{"buffer":0,"byteLength":107328,"byteOffset":447128,"byteStride":12,"target":34962},{"buffer":0,"byteLength":143104,"byteOffset":554456,"byteStride":16,"target":34962},{"buffer":0,"byteLength":107328,"byteOffset":697560,"byteStride":12,"target":34962},{"buffer":0,"byteLength":71552,"byteOffset":804888,"byteStride":8,"target":34962},{"buffer":0,"byteLength":71552,"byteOffset":876440,"byteStride":8,"target":34962},{"buffer":0,"byteLength":67158,"byteOffset":947992,"target":34963},{"buffer":0,"byteLength":29196,"byteOffset":1015152,"byteStride":12,"target":34962},{"buffer":0,"byteLength":38928,"byteOffset":1044348,"byteStride":16,"target":34962},{"buffer":0,"byteLength":29196,"byteOffset":1083276,"byteStride":12,"target":34962},{"buffer":0,"byteLength":19464,"byteOffset":1112472,"byteStride":8,"target":34962},{"buffer":0,"byteLength":19464,"byteOffset":1131936,"byteStride":8,"target":34962},{"buffer":0,"byteLength":16350,"byteOffset":1151400,"target":34963},{"buffer":0,"byteLength":6168,"byteOffset":1167752,"byteStride":12,"target":34962},{"buffer":0,"byteLength":8224,"byteOffset":1173920,"byteStride":16,"target":34962},{"buffer":0,"byteLength":6168,"byteOffset":1182144,"byteStride":12,"target":34962},{"buffer":0,"byteLength":4112,"byteOffset":1188312,"byteStride":8,"target":34962},{"buffer":0,"byteLength":4112,"byteOffset":1192424,"byteStride":8,"target":34962},{"buffer":0,"byteLength":1992,"byteOffset":1196536,"target":34963},{"buffer":0,"byteLength":624,"byteOffset":1198528,"byteStride":12,"target":34962},{"buffer":0,"byteLength":832,"byteOffset":1199152,"byteStride":16,"target":34962},{"buffer":0,"byteLength":624,"byteOffset":1199984,"byteStride":12,"target":34962},{"buffer":0,"byteLength":416,"byteOffset":1200608,"byteStride":8,"target":34962},{"buffer":0,"byteLength":416,"byteOffset":1201024,"byteStride":8,"target":34962},{"buffer":0,"byteLength":78,"byteOffset":1201440,"target":34963},{"buffer":0,"byteLength":1128,"byteOffset":1201520,"byteStride":12,"target":34962},{"buffer":0,"byteLength":1504,"byteOffset":1202648,"byteStride":16,"target":34962},{"buffer":0,"byteLength":1128,"byteOffset":1204152,"byteStride":12,"target":34962},{"buffer":0,"byteLength":752,"byteOffset":1205280,"byteStride":8,"target":34962},{"buffer":0,"byteLength":752,"byteOffset":1206032,"byteStride":8,"target":34962},{"buffer":0,"byteLength":228,"byteOffset":1206784,"target":34963},{"buffer":0,"byteLength":6168,"byteOffset":1207012,"byteStride":12,"target":34962},{"buffer":0,"byteLength":8224,"byteOffset":1213180,"byteStride":16,"target":34962},{"buffer":0,"byteLength":6168,"byteOffset":1221404,"byteStride":12,"target":34962},{"buffer":0,"byteLength":4112,"byteOffset":1227572,"byteStride":8,"target":34962},{"buffer":0,"byteLength":4112,"byteOffset":1231684,"byteStride":8,"target":34962},{"buffer":0,"byteLength":1992,"byteOffset":1235796,"target":34963},{"buffer":0,"byteLength":2952,"byteOffset":1237788,"byteStride":12,"target":34962},{"buffer":0,"byteLength":3936,"byteOffset":1240740,"byteStride":16,"target":34962},{"buffer":0,"byteLength":2952,"byteOffset":1244676,"byteStride":12,"target":34962},{"buffer":0,"byteLength":1968,"byteOffset":1247628,"byteStride":8,"target":34962},{"buffer":0,"byteLength":1968,"byteOffset":1249596,"byteStride":8,"target":34962},{"buffer":0,"byteLength":420,"byteOffset":1251564,"target":34963},{"buffer":0,"byteLength":48420,"byteOffset":1251984,"byteStride":12,"target":34962},{"buffer":0,"byteLength":64560,"byteOffset":1300404,"byteStride":16,"target":34962},{"buffer":0,"byteLength":48420,"byteOffset":1364964,"byteStride":12,"target":34962},{"buffer":0,"byteLength":32280,"byteOffset":1413384,"byteStride":8,"target":34962},{"buffer":0,"byteLength":32280,"byteOffset":1445664,"byteStride":8,"target":34962},{"buffer":0,"byteLength":26316,"byteOffset":1477944,"target":34963},{"buffer":0,"byteLength":1980,"byteOffset":1504260,"byteStride":12,"target":34962},{"buffer":0,"byteLength":2640,"byteOffset":1506240,"byteStride":16,"target":34962},{"buffer":0,"byteLength":1980,"byteOffset":1508880,"byteStride":12,"target":34962},{"buffer":0,"byteLength":1320,"byteOffset":1510860,"byteStride":8,"target":34962},{"buffer":0,"byteLength":1320,"byteOffset":1512180,"byteStride":8,"target":34962},{"buffer":0,"byteLength":654,"byteOffset":1513500,"target":34963},{"buffer":0,"byteLength":2376,"byteOffset":1514156,"byteStride":12,"target":34962},{"buffer":0,"byteLength":3168,"byteOffset":1516532,"byteStride":16,"target":34962},{"buffer":0,"byteLength":2376,"byteOffset":1519700,"byteStride":12,"target":34962},{"buffer":0,"byteLength":1584,"byteOffset":1522076,"byteStride":8,"target":34962},{"buffer":0,"byteLength":1584,"byteOffset":1523660,"byteStride":8,"target":34962},{"buffer":0,"byteLength":720,"byteOffset":1525244,"target":34963},{"buffer":0,"byteLength":1536,"byteOffset":1525964,"byteStride":12,"target":34962},{"buffer":0,"byteLength":2048,"byteOffset":1527500,"byteStride":16,"target":34962},{"buffer":0,"byteLength":1536,"byteOffset":1529548,"byteStride":12,"target":34962},{"buffer":0,"byteLength":1024,"byteOffset":1531084,"byteStride":8,"target":34962},{"buffer":0,"byteLength":1024,"byteOffset":1532108,"byteStride":8,"target":34962},{"buffer":0,"byteLength":192,"byteOffset":1533132,"target":34963},{"buffer":0,"byteLength":2604,"byteOffset":1533324,"byteStride":12,"target":34962},{"buffer":0,"byteLength":3472,"byteOffset":1535928,"byteStride":16,"target":34962},{"buffer":0,"byteLength":2604,"byteOffset":1539400,"byteStride":12,"target":34962},{"buffer":0,"byteLength":1736,"byteOffset":1542004,"byteStride":8,"target":34962},{"buffer":0,"byteLength":1736,"byteOffset":1543740,"byteStride":8,"target":34962},{"buffer":0,"byteLength":489,"byteOffset":1545476,"target":34963},{"buffer":0,"byteLength":228,"byteOffset":1545968,"byteStride":12,"target":34962},{"buffer":0,"byteLength":304,"byteOffset":1546196,"byteStride":16,"target":34962},{"buffer":0,"byteLength":228,"byteOffset":1546500,"byteStride":12,"target":34962},{"buffer":0,"byteLength":152,"byteOffset":1546728,"byteStride":8,"target":34962},{"buffer":0,"byteLength":152,"byteOffset":1546880,"byteStride":8,"target":34962},{"buffer":0,"byteLength":78,"byteOffset":1547032,"target":34963},{"buffer":0,"byteLength":19896,"byteOffset":1547112,"byteStride":12,"target":34962},{"buffer":0,"byteLength":26528,"byteOffset":1567008,"byteStride":16,"target":34962},{"buffer":0,"byteLength":19896,"byteOffset":1593536,"byteStride":12,"target":34962},{"buffer":0,"byteLength":13264,"byteOffset":1613432,"byteStride":8,"target":34962},{"buffer":0,"byteLength":13264,"byteOffset":1626696,"byteStride":8,"target":34962},{"buffer":0,"byteLength":11424,"byteOffset":1639960,"target":34963},{"buffer":0,"byteLength":32712,"byteOffset":1651384,"byteStride":12,"target":34962},{"buffer":0,"byteLength":43616,"byteOffset":1684096,"byteStride":16,"target":34962},{"buffer":0,"byteLength":32712,"byteOffset":1727712,"byteStride":12,"target":34962},{"buffer":0,"byteLength":21808,"byteOffset":1760424,"byteStride":8,"target":34962},{"buffer":0,"byteLength":21808,"byteOffset":1782232,"byteStride":8,"target":34962},{"buffer":0,"byteLength":11220,"byteOffset":1804040,"target":34963},{"buffer":0,"byteLength":7812,"byteOffset":1815260,"byteStride":12,"target":34962},{"buffer":0,"byteLength":10416,"byteOffset":1823072,"byteStride":16,"target":34962},{"buffer":0,"byteLength":7812,"byteOffset":1833488,"byteStride":12,"target":34962},{"buffer":0,"byteLength":5208,"byteOffset":1841300,"byteStride":8,"target":34962},{"buffer":0,"byteLength":5208,"byteOffset":1846508,"byteStride":8,"target":34962},{"buffer":0,"byteLength":1944,"byteOffset":1851716,"target":34963},{"buffer":0,"byteLength":774274,"byteOffset":1853660},{"buffer":0,"byteLength":679969,"byteOffset":2627934},{"buffer":0,"byteLength":255623,"byteOffset":3307903},{"buffer":0,"byteLength":158915,"byteOffset":3563526},{"buffer":0,"byteLength":50484,"byteOffset":3722441},{"buffer":0,"byteLength":237244,"byteOffset":3772925},{"buffer":0,"byteLength":240647,"byteOffset":4010169},{"buffer":0,"byteLength":476739,"byteOffset":4250816},{"buffer":0,"byteLength":157174,"byteOffset":4727555},{"buffer":0,"byteLength":1150038,"byteOffset":4884729},{"buffer":0,"byteLength":771647,"byteOffset":6034767},{"buffer":0,"byteLength":1419743,"byteOffset":6806414},{"buffer":0,"byteLength":1454930,"byteOffset":8226157},{"buffer":0,"byteLength":933803,"byteOffset":9681087},{"buffer":0,"byteLength":1304278,"byteOffset":10614890},{"buffer":0,"byteLength":3768430,"byteOffset":11919168},{"buffer":0,"byteLength":1156547,"byteOffset":15687598},{"buffer":0,"byteLength":2559820,"byteOffset":16844145},{"buffer":0,"byteLength":8729,"byteOffset":19403965},{"buffer":0,"byteLength":17948,"byteOffset":19412694},{"buffer":0,"byteLength":15339,"byteOffset":19430642},{"buffer":0,"byteLength":17948,"byteOffset":19445981},{"buffer":0,"byteLength":15339,"byteOffset":19463929},{"buffer":0,"byteLength":13198,"byteOffset":19479268},{"buffer":0,"byteLength":474954,"byteOffset":19492466},{"buffer":0,"byteLength":5204918,"byteOffset":19967420},{"buffer":0,"byteLength":184165,"byteOffset":25172338},{"buffer":0,"byteLength":159334,"byteOffset":25356503},{"buffer":0,"byteLength":1029720,"byteOffset":25515837},{"buffer":0,"byteLength":550927,"byteOffset":26545557},{"buffer":0,"byteLength":121858,"byteOffset":27096484},{"buffer":0,"byteLength":36642,"byteOffset":27218342},{"buffer":0,"byteLength":56111,"byteOffset":27254984},{"buffer":0,"byteLength":74626,"byteOffset":27311095},{"buffer":0,"byteLength":431270,"byteOffset":27385721},{"buffer":0,"byteLength":103825,"byteOffset":27816991},{"buffer":0,"byteLength":1733352,"byteOffset":27920816},{"buffer":0,"byteLength":656947,"byteOffset":29654168},{"buffer":0,"byteLength":37623,"byteOffset":30311115},{"buffer":0,"byteLength":1083859,"byteOffset":30348738},{"buffer":0,"byteLength":741754,"byteOffset":31432597},{"buffer":0,"byteLength":199283,"byteOffset":32174351},{"buffer":0,"byteLength":165110,"byteOffset":32373634},{"buffer":0,"byteLength":589449,"byteOffset":32538744},{"buffer":0,"byteLength":2059911,"byteOffset":33128193},{"buffer":0,"byteLength":27160,"byteOffset":35188104},{"buffer":0,"byteLength":1086091,"byteOffset":35215264},{"buffer":0,"byteLength":370821,"byteOffset":36301355},{"buffer":0,"byteLength":223088,"byteOffset":36672176},{"buffer":0,"byteLength":14268,"byteOffset":36895264},{"buffer":0,"byteLength":8155,"byteOffset":36909532},{"buffer":0,"byteLength":47128,"byteOffset":36917687},{"buffer":0,"byteLength":333301,"byteOffset":36964815},{"buffer":0,"byteLength":121144,"byteOffset":37298116},{"buffer":0,"byteLength":320341,"byteOffset":37419260},{"buffer":0,"byteLength":160777,"byteOffset":37739601},{"buffer":0,"byteLength":38249,"byteOffset":37900378},{"buffer":0,"byteLength":43273,"byteOffset":37938627}],"buffers":[{"byteLength":37981900,"uri":"mdl_shop_base0.bin"}],"extensionsUsed":["GODOT_single_root","KHR_materials_emissive_strength"],"images":[{"bufferView":204,"mimeType":"image/png","name":"rug"},{"bufferView":205,"mimeType":"image/png","name":"rug_height"},{"bufferView":206,"mimeType":"image/png","name":"frame"},{"bufferView":207,"mimeType":"image/png","name":"frame_orm"},{"bufferView":208,"mimeType":"image/png","name":"frame_normal"},{"bufferView":209,"mimeType":"image/png","name":"stool"},{"bufferView":210,"mimeType":"image/png","name":"stool_orm"},{"bufferView":211,"mimeType":"image/png","name":"cardboard_box"},{"bufferView":212,"mimeType":"image/png","name":"cardboard_box_normal"},{"bufferView":213,"mimeType":"image/png","name":"pillar"},{"bufferView":214,"mimeType":"image/png","name":"pillar_orm"},{"bufferView":215,"mimeType":"image/png","name":"pillar_normal"},{"bufferView":216,"mimeType":"image/png","name":"unown_list"},{"bufferView":217,"mimeType":"image/png","name":"unown_list-unown_list_roughness"},{"bufferView":218,"mimeType":"image/png","name":"unown_list_normal"},{"bufferView":219,"mimeType":"image/png","name":"layout"},{"bufferView":220,"mimeType":"image/png","name":"layout_roughness"},{"bufferView":221,"mimeType":"image/png","name":"layout_normal"},{"bufferView":222,"mimeType":"image/png","name":"bulb"},{"bufferView":223,"mimeType":"image/png","name":"bulb_orm"},{"bufferView":224,"mimeType":"image/png","name":"bulb_normal"},{"bufferView":225,"mimeType":"image/png","name":"bulb_orm_020"},{"bufferView":226,"mimeType":"image/png","name":"bulb_normal_020"},{"bufferView":227,"mimeType":"image/png","name":"bulb_emissive"},{"bufferView":228,"mimeType":"image/png","name":"misc_textures"},{"bufferView":229,"mimeType":"image/png","name":"wood"},{"bufferView":230,"mimeType":"image/png","name":"toolbox"},{"bufferView":231,"mimeType":"image/png","name":"toolbox_orm"},{"bufferView":232,"mimeType":"image/png","name":"bowls"},{"bufferView":233,"mimeType":"image/png","name":"bowls_orm"},{"bufferView":234,"mimeType":"image/png","name":"gigi"},{"bufferView":235,"mimeType":"image/png","name":"pikacu"},{"bufferView":236,"mimeType":"image/png","name":"pikacu_orm"},{"bufferView":237,"mimeType":"image/png","name":"pikacu_normal"},{"bufferView":238,"mimeType":"image/png","name":"plushies"},{"bufferView":239,"mimeType":"image/png","name":"plushies_roughness"},{"bufferView":240,"mimeType":"image/png","name":"plushies_normal"},{"bufferView":241,"mimeType":"image/png","name":"plushies_small"},{"bufferView":242,"mimeType":"image/png","name":"plushies_small_roughness"},{"bufferView":243,"mimeType":"image/png","name":"plushies_small_normal"},{"bufferView":244,"mimeType":"image/png","name":"table"},{"bufferView":245,"mimeType":"image/png","name":"table_roughness"},{"bufferView":246,"mimeType":"image/png","name":"table_height"},{"bufferView":247,"mimeType":"image/png","name":"pinboard"},{"bufferView":248,"mimeType":"image/png","name":"table_rug"},{"bufferView":249,"mimeType":"image/png","name":"table_rug_height"},{"bufferView":250,"mimeType":"image/png","name":"radio"},{"bufferView":251,"mimeType":"image/png","name":"radio_orm"},{"bufferView":252,"mimeType":"image/png","name":"radio_normal"},{"bufferView":253,"mimeType":"image/png","name":"candle"},{"bufferView":254,"mimeType":"image/png","name":"candle_roughness"},{"bufferView":255,"mimeType":"image/png","name":"candle_normal"},{"bufferView":256,"mimeType":"image/png","name":"box"},{"bufferView":257,"mimeType":"image/png","name":"box_orm"},{"bufferView":258,"mimeType":"image/png","name":"box_normal"},{"bufferView":259,"mimeType":"image/png","name":"controller"},{"bufferView":260,"mimeType":"image/png","name":"controller_roughness"},{"bufferView":261,"mimeType":"image/png","name":"controller_normal"}],"materials":[{"name":"rug","normalTexture":{"index":1,"scale":1.0},"pbrMetallicRoughness":{"baseColorFactor":[1.0,1.0,1.0,1.0],"baseColorTexture":{"index":0},"metallicFactor":0.0,"roughnessFactor":1.0}},{"name":"frame","normalTexture":{"index":4,"scale":1.0},"pbrMetallicRoughness":{"baseColorFactor":[1.0,1.0,1.0,1.0],"baseColorTexture":{"index":2},"metallicFactor":1.0,"metallicRoughnessTexture":{"index":3},"roughnessFactor":1.0}},{"name":"stool","pbrMetallicRoughness":{"baseColorFactor":[1.0,1.0,1.0,1.0],"baseColorTexture":{"index":5},"metallicFactor":1.0,"metallicRoughnessTexture":{"index":6},"roughnessFactor":1.0}},{"name":"cardboard_box","normalTexture":{"index":8,"scale":1.0},"pbrMetallicRoughness":{"baseColorFactor":[1.0,1.0,1.0,1.0],"baseColorTexture":{"index":7},"metallicFactor":0.0,"roughnessFactor":0.8141593}},{"name":"pillar","normalTexture":{"index":11,"scale":1.0},"pbrMetallicRoughness":{"baseColorFactor":[1.0,1.0,1.0,1.0],"baseColorTexture":{"index":9},"metallicFactor":1.0,"metallicRoughnessTexture":{"index":10},"roughnessFactor":1.0}},{"name":"unown_list","normalTexture":{"index":14,"scale":1.0},"pbrMetallicRoughness":{"baseColorFactor":[0.8,0.8,0.8,1.0],"baseColorTexture":{"index":12},"metallicFactor":1.0,"metallicRoughnessTexture":{"index":13},"roughnessFactor":1.0}},{"alphaCutoff":0.341,"alphaMode":"MASK","name":"layout","normalTexture":{"index":17,"scale":1.0},"pbrMetallicRoughness":{"baseColorFactor":[1.0,1.0,1.0,1.0],"baseColorTexture":{"index":15},"metallicFactor":0.0,"metallicRoughnessTexture":{"index":16},"roughnessFactor":1.0}},{"doubleSided":true,"name":"bulb","normalTexture":{"index":20,"scale":1.0},"pbrMetallicRoughness":{"baseColorFactor":[1.0,1.0,1.0,1.0],"baseColorTexture":{"index":18},"metallicFactor":1.0,"metallicRoughnessTexture":{"index":19},"roughnessFactor":1.0}},{"emissiveFactor":[1.0,1.0,1.0],"emissiveTexture":{"index":24},"extensions":{"KHR_materials_emissive_strength":{"emissiveStrength":5.0}},"name":"bulb_emissive","normalTexture":{"index":23,"scale":1.0},"pbrMetallicRoughness":{"baseColorFactor":[1.0,1.0,1.0,1.0],"baseColorTexture":{"index":21},"metallicFactor":1.0,"metallicRoughnessTexture":{"index":22},"roughnessFactor":1.0}},{"alphaCutoff":0.5,"alphaMode":"MASK","name":"misc_textures","pbrMetallicRoughness":{"baseColorFactor":[1.0,1.0,1.0,1.0],"baseColorTexture":{"index":25},"metallicFactor":0.0,"roughnessFactor":1.0}},{"name":"wood","pbrMetallicRoughness":{"baseColorFactor":[1.0,1.0,1.0,1.0],"baseColorTexture":{"index":26},"metallicFactor":0.0,"roughnessFactor":0.5}},{"name":"toolbox","pbrMetallicRoughness":{"baseColorFactor":[1.0,1.0,1.0,1.0],"baseColorTexture":{"index":27},"metallicFactor":1.0,"metallicRoughnessTexture":{"index":28},"roughnessFactor":1.0}},{"name":"bowls","pbrMetallicRoughness":{"baseColorFactor":[1.0,1.0,1.0,1.0],"baseColorTexture":{"index":29},"metallicFactor":1.0,"metallicRoughnessTexture":{"index":30},"roughnessFactor":1.0}},{"alphaMode":"BLEND","name":"gigi","pbrMetallicRoughness":{"baseColorFactor":[1.0,1.0,1.0,1.0],"baseColorTexture":{"index":31},"metallicFactor":0.0,"roughnessFactor":0.5}},{"doubleSided":true,"name":"pikacu","normalTexture":{"index":34,"scale":1.0},"pbrMetallicRoughness":{"baseColorFactor":[1.0,1.0,1.0,1.0],"baseColorTexture":{"index":32},"metallicFactor":1.0,"metallicRoughnessTexture":{"index":33},"roughnessFactor":1.0}},{"doubleSided":true,"name":"plushies_big","normalTexture":{"index":37,"scale":1.0},"pbrMetallicRoughness":{"baseColorFactor":[1.0,1.0,1.0,1.0],"baseColorTexture":{"index":35},"metallicFactor":0.0,"metallicRoughnessTexture":{"index":36},"roughnessFactor":1.0}},{"doubleSided":true,"name":"plushies_little","normalTexture":{"index":40,"scale":1.0},"pbrMetallicRoughness":{"baseColorFactor":[1.0,1.0,1.0,1.0],"baseColorTexture":{"index":38},"metallicFactor":0.0,"metallicRoughnessTexture":{"index":39},"roughnessFactor":1.0}},{"name":"table","normalTexture":{"index":43,"scale":1.0},"pbrMetallicRoughness":{"baseColorFactor":[1.0,1.0,1.0,1.0],"baseColorTexture":{"index":41},"metallicFactor":0.0,"metallicRoughnessTexture":{"index":42},"roughnessFactor":1.0}},{"name":"pinboard","pbrMetallicRoughness":{"baseColorFactor":[1.0,1.0,1.0,1.0],"baseColorTexture":{"index":44},"metallicFactor":0.0,"roughnessFactor":1.0}},{"name":"table_rug","normalTexture":{"index":46,"scale":1.0},"pbrMetallicRoughness":{"baseColorFactor":[1.0,1.0,1.0,1.0],"baseColorTexture":{"index":45},"metallicFactor":0.0,"roughnessFactor":1.0}},{"name":"radio","normalTexture":{"index":49,"scale":1.0},"pbrMetallicRoughness":{"baseColorFactor":[1.0,1.0,1.0,1.0],"baseColorTexture":{"index":47},"metallicFactor":0.0,"metallicRoughnessTexture":{"index":48},"roughnessFactor":1.0}},{"alphaCutoff":0.5,"alphaMode":"MASK","name":"candles","normalTexture":{"index":52,"scale":1.0},"pbrMetallicRoughness":{"baseColorFactor":[1.0,1.0,1.0,1.0],"baseColorTexture":{"index":50},"metallicFactor":0.0,"metallicRoughnessTexture":{"index":51},"roughnessFactor":1.0}},{"name":"box","normalTexture":{"index":55,"scale":1.0},"pbrMetallicRoughness":{"baseColorFactor":[1.0,1.0,1.0,1.0],"baseColorTexture":{"index":53},"metallicFactor":1.0,"metallicRoughnessTexture":{"index":54},"roughnessFactor":1.0}},{"name":"controller","normalTexture":{"index":58,"scale":1.0},"pbrMetallicRoughness":{"baseColorFactor":[1.0,1.0,1.0,1.0],"baseColorTexture":{"index":56},"metallicFactor":0.0,"metallicRoughnessTexture":{"index":57},"roughnessFactor":1.0}},{"name":"cable","pbrMetallicRoughness":{"baseColorFactor":[0.0,0.0,0.0,1.0],"metallicFactor":0.0,"roughnessFactor":0.5}}],"meshes":[{"name":"Plane_004","primitives":[{"attributes":{"NORMAL":2,"POSITION":0,"TANGENT":1,"TEXCOORD_0":3,"TEXCOORD_1":4},"indices":5,"material":0,"mode":4}]},{"name":"Plane_013","primitives":[{"attributes":{"NORMAL":8,"POSITION":6,"TANGENT":7,"TEXCOORD_0":9,"TEXCOORD_1":10},"indices":11,"material":1,"mode":4}]},{"name":"Cylinder_003","primitives":[{"attributes":{"NORMAL":14,"POSITION":12,"TANGENT":13,"TEXCOORD_0":15,"TEXCOORD_1":16},"indices":17,"material":2,"mode":4}]},{"name":"Cube_022","primitives":[{"attributes":{"NORMAL":20,"POSITION":18,"TANGENT":19,"TEXCOORD_0":21,"TEXCOORD_1":22},"indices":23,"material":3,"mode":4}]},{"name":"Cube_012","primitives":[{"attributes":{"NORMAL":20,"POSITION":18,"TANGENT":19,"TEXCOORD_0":21,"TEXCOORD_1":24},"indices":23,"material":3,"mode":4}]},{"name":"Cube_009","primitives":[{"attributes":{"NORMAL":20,"POSITION":18,"TANGENT":19,"TEXCOORD_0":21,"TEXCOORD_1":24},"indices":23,"material":3,"mode":4}]},{"name":"Cube_016","primitives":[{"attributes":{"NORMAL":20,"POSITION":18,"TANGENT":19,"TEXCOORD_0":21,"TEXCOORD_1":24},"indices":23,"material":3,"mode":4}]},{"name":"Cube_017","primitives":[{"attributes":{"NORMAL":20,"POSITION":18,"TANGENT":19,"TEXCOORD_0":21,"TEXCOORD_1":25},"indices":23,"material":3,"mode":4}]},{"name":"Cube_020","primitives":[{"attributes":{"NORMAL":20,"POSITION":18,"TANGENT":19,"TEXCOORD_0":21,"TEXCOORD_1":25},"indices":23,"material":3,"mode":4}]},{"name":"Cylinder_009","primitives":[{"attributes":{"NORMAL":28,"POSITION":26,"TANGENT":27,"TEXCOORD_0":29,"TEXCOORD_1":30},"indices":31,"material":4,"mode":4}]},{"name":"Plane_002","primitives":[{"attributes":{"NORMAL":34,"POSITION":32,"TANGENT":33,"TEXCOORD_0":35,"TEXCOORD_1":36},"indices":37,"material":5,"mode":4}]},{"name":"Plane_003","primitives":[{"attributes":{"NORMAL":40,"POSITION":38,"TANGENT":39,"TEXCOORD_0":41,"TEXCOORD_1":42},"indices":43,"material":6,"mode":4}]},{"name":"Sphere","primitives":[{"attributes":{"NORMAL":46,"POSITION":44,"TANGENT":45,"TEXCOORD_0":47,"TEXCOORD_1":48},"indices":49,"material":7,"mode":4},{"attributes":{"NORMAL":52,"POSITION":50,"TANGENT":51,"TEXCOORD_0":53,"TEXCOORD_1":54},"indices":55,"material":8,"mode":4}]},{"name":"Plane_005","primitives":[{"attributes":{"NORMAL":58,"POSITION":56,"TANGENT":57,"TEXCOORD_0":59,"TEXCOORD_1":60},"indices":61,"material":9,"mode":4}]},{"name":"Cube_011","primitives":[{"attributes":{"NORMAL":64,"POSITION":62,"TANGENT":63,"TEXCOORD_0":65,"TEXCOORD_1":66},"indices":67,"material":10,"mode":4}]},{"name":"Cube_024","primitives":[{"attributes":{"NORMAL":70,"POSITION":68,"TANGENT":69,"TEXCOORD_0":71,"TEXCOORD_1":72},"indices":73,"material":10,"mode":4},{"attributes":{"NORMAL":76,"POSITION":74,"TANGENT":75,"TEXCOORD_0":77,"TEXCOORD_1":78},"indices":79,"material":9,"mode":4}]},{"name":"toolbox","primitives":[{"attributes":{"NORMAL":82,"POSITION":80,"TANGENT":81,"TEXCOORD_0":83,"TEXCOORD_1":84},"indices":85,"material":11,"mode":4}]},{"name":"Cylinder_004","primitives":[{"attributes":{"NORMAL":88,"POSITION":86,"TANGENT":87,"TEXCOORD_0":89,"TEXCOORD_1":90},"indices":91,"material":12,"mode":4}]},{"name":"gigi","primitives":[{"attributes":{"NORMAL":93,"POSITION":92,"TANGENT":75,"TEXCOORD_0":94,"TEXCOORD_1":95},"indices":79,"material":13,"mode":4}]},{"name":"Cube_014","primitives":[{"attributes":{"NORMAL":98,"POSITION":96,"TANGENT":97,"TEXCOORD_0":99,"TEXCOORD_1":100},"indices":101,"material":14,"mode":4}]},{"name":"Cube_018","primitives":[{"attributes":{"NORMAL":104,"POSITION":102,"TANGENT":103,"TEXCOORD_0":105,"TEXCOORD_1":106},"indices":107,"material":10,"mode":4}]},{"name":"Cube_043","primitives":[{"attributes":{"NORMAL":110,"POSITION":108,"TANGENT":109,"TEXCOORD_0":111,"TEXCOORD_1":112},"indices":113,"material":15,"mode":4},{"attributes":{"NORMAL":116,"POSITION":114,"TANGENT":115,"TEXCOORD_0":117,"TEXCOORD_1":118},"indices":119,"material":16,"mode":4}]},{"name":"Cube_010","primitives":[{"attributes":{"NORMAL":122,"POSITION":120,"TANGENT":121,"TEXCOORD_0":123,"TEXCOORD_1":124},"indices":125,"material":17,"mode":4}]},{"name":"Cylinder_010","primitives":[{"attributes":{"NORMAL":128,"POSITION":126,"TANGENT":127,"TEXCOORD_0":129,"TEXCOORD_1":130},"indices":131,"material":18,"mode":4}]},{"name":"Plane_007","primitives":[{"attributes":{"NORMAL":134,"POSITION":132,"TANGENT":133,"TEXCOORD_0":135,"TEXCOORD_1":136},"indices":137,"material":19,"mode":4}]},{"name":"Cube_001","primitives":[{"attributes":{"NORMAL":140,"POSITION":138,"TANGENT":139,"TEXCOORD_0":141,"TEXCOORD_1":142},"indices":143,"material":17,"mode":4}]},{"name":"Cylinder_005","primitives":[{"attributes":{"NORMAL":146,"POSITION":144,"TANGENT":145,"TEXCOORD_0":147,"TEXCOORD_1":148},"indices":149,"material":12,"mode":4}]},{"name":"radio","primitives":[{"attributes":{"NORMAL":152,"POSITION":150,"TANGENT":151,"TEXCOORD_0":153,"TEXCOORD_1":154},"indices":155,"material":20,"mode":4}]},{"name":"Cylinder_016","primitives":[{"attributes":{"NORMAL":158,"POSITION":156,"TANGENT":157,"TEXCOORD_0":159,"TEXCOORD_1":160},"indices":161,"material":9,"mode":4}]},{"name":"Cube_013","primitives":[{"attributes":{"NORMAL":164,"POSITION":162,"TANGENT":163,"TEXCOORD_0":165,"TEXCOORD_1":166},"indices":167,"material":21,"mode":4}]},{"name":"Cube_007","primitives":[{"attributes":{"NORMAL":170,"POSITION":168,"TANGENT":169,"TEXCOORD_0":171,"TEXCOORD_1":172},"indices":173,"material":10,"mode":4}]},{"name":"Cube_004","primitives":[{"attributes":{"NORMAL":176,"POSITION":174,"TANGENT":175,"TEXCOORD_0":177,"TEXCOORD_1":178},"indices":179,"material":22,"mode":4}]},{"name":"Plane","primitives":[{"attributes":{"NORMAL":182,"POSITION":180,"TANGENT":181,"TEXCOORD_0":183,"TEXCOORD_1":184},"indices":185,"material":9,"mode":4}]},{"name":"Cylinder_002","primitives":[{"attributes":{"NORMAL":188,"POSITION":186,"TANGENT":187,"TEXCOORD_0":189,"TEXCOORD_1":190},"indices":191,"material":12,"mode":4}]},{"name":"controller","primitives":[{"attributes":{"NORMAL":194,"POSITION":192,"TANGENT":193,"TEXCOORD_0":195,"TEXCOORD_1":196},"indices":197,"material":23,"mode":4}]},{"name":"NurbsPath","primitives":[{"attributes":{"NORMAL":200,"POSITION":198,"TANGENT":199,"TEXCOORD_0":201,"TEXCOORD_1":202},"indices":203,"material":24,"mode":4}]}],"nodes":[{"children":[1,2,3,4,5,6,7,8,9,10,12,13,14,15,16,17,18,19,20,21,22,23,24,25,26,27,28,29,31,32,33,34,35],"name":"mdl_shop_base"},{"mesh":0,"name":"Rug","scale":[0.88446534,0.88446534,0.88446534],"translation":[0.0,0.040740296,4.608168]},{"mesh":1,"name":"Picture"},{"mesh":2,"name":"Stool","scale":[0.39054,0.39054,0.39054],"translation":[-2.2680335,0.6742807,4.7049975]},{"mesh":3,"name":"CardboardBox1","rotation":[0.0,0.9869559,0.0,0.16099091],"scale":[0.8413076,0.8413076,0.8413076],"translation":[3.548826,0.71008366,7.507086]},{"mesh":4,"name":"CardboardBox2","rotation":[0.0,0.21221153,0.0,0.97722375],"translation":[-3.2660756,0.46146467,6.520863]},{"mesh":5,"name":"CardboardBox3","rotation":[0.0,-0.47173822,0.0,0.88173866],"translation":[-2.9036574,0.46146467,-0.9999943]},{"mesh":6,"name":"CardboardBox4","rotation":[0.0,0.9996341,0.0,-0.027050225],"translation":[2.6329641,0.46146467,6.520863]},{"mesh":7,"name":"CardboardBox5","rotation":[0.0,0.8097443,0.0,0.5867828],"scale":[1.3154727,1.3154726,1.3154727],"translation":[2.4175005,0.5366007,7.9319677]},{"mesh":8,"name":"CardboardBox6","rotation":[0.0,0.9176755,0.0,0.39733073],"scale":[1.3154727,1.3154726,1.3154727],"translation":[-2.5220833,0.5366007,8.234875]},{"children":[11],"mesh":9,"name":"Pillars","scale":[1.0342768,1.0342768,1.0342768],"translation":[0.0,0.0,2.7243576]},{"mesh":10,"name":"Paper","rotation":[0.48914698,-0.51062244,0.48914707,0.5106223],"scale":[0.26874357,0.26874357,0.26874357],"translation":[2.737732,2.2656915,2.4673553]},{"mesh":11,"name":"Layout"},{"mesh":12,"name":"LightBulb","scale":[2.9282002,2.9282002,2.9282002],"translation":[0.0,2.8409572,4.6305146]},{"mesh":13,"name":"Notes","rotation":[-0.14261152,0.0,0.0,0.98977876],"translation":[2.3645475,2.6004925,-1.167748]},{"mesh":14,"name":"ShelfB","translation":[2.6207614,0.9912049,-1.6198307]},{"mesh":15,"name":"Frame","rotation":[-0.07710837,-0.16269377,-0.012754524,0.9835763],"translation":[2.9585245,2.7836654,-1.4890598]},{"mesh":16,"name":"Toolbox","rotation":[0.0,0.07665428,0.0,0.99705774],"translation":[1.8988309,2.2684896,-1.4319799]},{"mesh":17,"name":"BooksB","translation":[-0.3479503,1.2168238,1.7865294]},{"mesh":18,"name":"Gigi","rotation":[0.49511215,0.5048406,-0.5048406,0.49511206],"scale":[0.3742881,0.3742881,0.3742881],"translation":[-3.283895,2.8569927,3.5036118]},{"mesh":19,"name":"Pikacu","rotation":[0.0,0.5591943,0.0,0.8290366],"scale":[1.5000001,1.5,1.5000001],"translation":[-3.0209248,2.6492476,3.1092687]},{"mesh":20,"name":"ShelfL","translation":[-3.491491,2.5884225,3.8176637]},{"mesh":21,"name":"Plushies","rotation":[0.0,0.72958285,0.0,0.6838924],"scale":[0.19076627,0.19076627,0.19076627],"translation":[-3.2306125,2.9710839,4.4326158]},{"mesh":22,"name":"DeskL","scale":[0.99484086,0.89999986,0.89999986],"translation":[-3.241129,0.0,3.8894944]},{"mesh":23,"name":"Pinboard","rotation":[0.07955273,-0.08118346,-0.4434407,0.8890675],"translation":[-4.0449224,1.7535659,3.837477]},{"mesh":24,"name":"Cloth","translation":[0.0,1.3778168,1.1707671]},{"mesh":25,"name":"DeskF","translation":[0.0,0.0,1.1707671]},{"mesh":26,"name":"BooksF","translation":[-0.3479503,1.2168238,1.7865294]},{"mesh":27,"name":"Radio","scale":[0.8999999,0.8999999,0.8999999],"translation":[-1.4749625,1.4571784,1.74033]},{"children":[30],"mesh":28,"name":"CandlePlate","translation":[1.113,1.313,1.537]},{"mesh":29,"name":"CandleDrops","translation":[0.0976814,-0.03180325,0.23761284]},{"mesh":30,"name":"ShelfR","rotation":[0.0,-0.70710665,0.0,0.7071069],"translation":[3.498109,0.9912049,3.8372078]},{"mesh":31,"name":"Box","rotation":[0.0,-0.6838094,0.0,0.72966063],"scale":[0.2640905,0.26409048,0.2640905],"translation":[3.1589062,0.6112891,2.9668798]},{"mesh":32,"name":"Poster","translation":[3.4716191,2.396127,6.196641]},{"mesh":33,"name":"Junk","translation":[-0.3479503,1.2168238,1.7865294]},{"children":[36],"mesh":34,"name":"Controller","rotation":[0.0,0.83581465,0.0,0.5490117],"scale":[0.343067,0.343067,0.343067],"translation":[2.8964179,0.6367363,3.5954494]},{"mesh":35,"name":"Cable","rotation":[0.0,-0.8358148,0.0,0.54901165],"scale":[2.9148824,2.9148824,2.9148824],"translation":[2.249713,-0.31582806,-8.225817]}],"samplers":[{"magFilter":9729,"minFilter":9987,"wrapS":10497,"wrapT":10497}],"scene":0,"scenes":[{"name":"mdl_shop_base","nodes":[0]}],"textures":[{"sampler":0,"source":0},{"sampler":0,"source":1},{"sampler":0,"source":2},{"sampler":0,"source":3},{"sampler":0,"source":4},{"sampler":0,"source":5},{"sampler":0,"source":6},{"sampler":0,"source":7},{"sampler":0,"source":8},{"sampler":0,"source":9},{"sampler":0,"source":10},{"sampler":0,"source":11},{"sampler":0,"source":12},{"sampler":0,"source":13},{"sampler":0,"source":14},{"sampler":0,"source":15},{"sampler":0,"source":16},{"sampler":0,"source":17},{"sampler":0,"source":18},{"sampler":0,"source":19},{"sampler":0,"source":20},{"sampler":0,"source":18},{"sampler":0,"source":21},{"sampler":0,"source":22},{"sampler":0,"source":23},{"sampler":0,"source":24},{"sampler":0,"source":25},{"sampler":0,"source":26},{"sampler":0,"source":27},{"sampler":0,"source":28},{"sampler":0,"source":29},{"sampler":0,"source":30},{"sampler":0,"source":31},{"sampler":0,"source":32},{"sampler":0,"source":33},{"sampler":0,"source":34},{"sampler":0,"source":35},{"sampler":0,"source":36},{"sampler":0,"source":37},{"sampler":0,"source":38},{"sampler":0,"source":39},{"sampler":0,"source":40},{"sampler":0,"source":41},{"sampler":0,"source":42},{"sampler":0,"source":43},{"sampler":0,"source":44},{"sampler":0,"source":45},{"sampler":0,"source":46},{"sampler":0,"source":47},{"sampler":0,"source":48},{"sampler":0,"source":49},{"sampler":0,"source":50},{"sampler":0,"source":51},{"sampler":0,"source":52},{"sampler":0,"source":53},{"sampler":0,"source":54},{"sampler":0,"source":55},{"sampler":0,"source":56},{"sampler":0,"source":57}]}