{"accessors":[{"bufferView":0,"componentType":5126,"count":4,"max":[1.0,7.078276e-14,1.5099583e-07,0.0,0.0,1.0,0.0,0.0,1.5099583e-07,5.9376885e-07,1.0,0.0,1.8582631e-09,0.13597783,0.012306784,1.0],"min":[-1.0,0.0,-1.509958e-07,0.0,-2.2532916e-14,-1.0,-5.9376885e-07,0.0,-1.509958e-07,-7.789697e-21,-1.0,0.0,-2.2275006e-09,0.010498358,-0.014752089,1.0],"normalized":false,"type":"MAT4"},{"bufferView":1,"componentType":5126,"count":1790,"max":[0.08335668,0.15836832,0.020783832],"min":[-0.0833567,-0.1179642,-0.01947256],"normalized":false,"type":"VEC3"},{"bufferView":2,"componentType":5126,"count":1790,"max":[1.0,1.0,0.95348674,1.0],"min":[-1.0,-1.0,-0.9534756,-1.0],"normalized":false,"type":"VEC4"},{"bufferView":3,"componentType":5126,"count":1790,"max":[0.80531627,0.90454453,1.0],"min":[-0.8053336,-0.90449214,-1.0],"normalized":false,"type":"VEC3"},{"bufferView":4,"componentType":5126,"count":1790,"max":[0.98487395,0.99937505],"min":[0.0006249733,0.0006249547],"normalized":false,"type":"VEC2"},{"bufferView":5,"componentType":5121,"count":1790,"max":[3,3,0,0],"min":[0,0,0,0],"normalized":false,"type":"VEC4"},{"bufferView":6,"componentType":5126,"count":1790,"max":[1.0,0.3953215,0.0,0.0],"min":[0.6046785,0.0,0.0,0.0],"normalized":false,"type":"VEC4"},{"bufferView":7,"componentType":5123,"count":5796,"max":[1789],"min":[0],"normalized":false,"type":"SCALAR"},{"bufferView":8,"componentType":5126,"count":14,"max":[1.0],"min":[0.0],"normalized":false,"type":"SCALAR"},{"bufferView":9,"componentType":5126,"count":14,"max":[0.00057938206,0.2686154,0.015478439],"min":[-0.0007303646,0.2508705,-0.013389404],"normalized":false,"type":"VEC3"},{"bufferView":10,"componentType":5126,"count":24,"max":[1.0],"min":[0.0],"normalized":false,"type":"SCALAR"},{"bufferView":11,"componentType":5126,"count":24,"max":[7.549794e-08,0.9769228,0.99999195,3.4845993e-08],"min":[-7.549792e-08,-0.9563528,-0.9999826,1.9909107e-11],"normalized":false,"type":"VEC4"},{"bufferView":12,"componentType":5126,"count":2,"max":[1.0],"min":[0.0],"normalized":false,"type":"SCALAR"},{"bufferView":13,"componentType":5126,"count":2,"max":[-5.6043564e-17,0.25106376,0.012416986],"min":[-3.4772743e-08,0.25095892,0.012306703],"normalized":false,"type":"VEC3"},{"bufferView":14,"componentType":5126,"count":2,"max":[0.99997616,-5.129306e-10,-7.549599e-08,0.007114965],"min":[0.9999747,-5.2156107e-10,-7.54961e-08,0.0069087576],"normalized":false,"type":"VEC4"},{"bufferView":15,"componentType":5126,"count":2,"max":[0.005731151,7.549671e-08,-4.2288678e-10,0.9999843],"min":[0.005601773,7.549666e-08,-4.3265452e-10,0.99998355],"normalized":false,"type":"VEC4"},{"bufferView":16,"componentType":5126,"count":2,"max":[1.2916665],"min":[0.0],"normalized":false,"type":"SCALAR"},{"bufferView":17,"componentType":5126,"count":2,"max":[-0.0007303646,0.2508705,-0.013389404],"min":[-0.0007303646,0.2508705,-0.013389404],"normalized":false,"type":"VEC3"},{"bufferView":18,"componentType":5126,"count":2,"max":[-7.5495564e-08,0.007926057,-0.9999686,5.984783e-10],"min":[-7.5495564e-08,0.007926057,-0.99996865,5.984783e-10],"normalized":false,"type":"VEC4"},{"bufferView":19,"componentType":5126,"count":20,"max":[1.2916665],"min":[0.0],"normalized":false,"type":"SCALAR"},{"bufferView":20,"componentType":5126,"count":20,"max":[-1.04318225e-07,0.26796964,0.01553211],"min":[-0.0017443968,0.25059536,-0.015782172],"normalized":false,"type":"VEC3"},{"bufferView":21,"componentType":5126,"count":29,"max":[1.2916665],"min":[0.0],"normalized":false,"type":"SCALAR"},{"bufferView":22,"componentType":5126,"count":29,"max":[0.99997175,6.805136e-08,7.5495805e-08,0.9993042],"min":[-0.999972,-8.405701e-08,-7.549576e-08,0.0074989544],"normalized":false,"type":"VEC4"},{"bufferView":23,"componentType":5126,"count":32,"max":[1.2916665],"min":[0.0],"normalized":false,"type":"SCALAR"},{"bufferView":24,"componentType":5126,"count":32,"max":[0.34820172,7.549776e-08,1.9742588e-09,0.9999981],"min":[-0.026149387,7.0773226e-08,-2.6288467e-08,0.93741965],"normalized":false,"type":"VEC4"}],"animations":[{"channels":[{"sampler":0,"target":{"node":3,"path":"translation"}},{"sampler":1,"target":{"node":3,"path":"rotation"}},{"sampler":2,"target":{"node":4,"path":"translation"}},{"sampler":3,"target":{"node":4,"path":"rotation"}},{"sampler":4,"target":{"node":5,"path":"rotation"}}],"name":"Page 1","samplers":[{"input":8,"interpolation":"LINEAR","output":9},{"input":10,"interpolation":"LINEAR","output":11},{"input":12,"interpolation":"LINEAR","output":13},{"input":12,"interpolation":"LINEAR","output":14},{"input":12,"interpolation":"LINEAR","output":15}]},{"channels":[{"sampler":0,"target":{"node":3,"path":"translation"}},{"sampler":1,"target":{"node":3,"path":"rotation"}},{"sampler":2,"target":{"node":4,"path":"translation"}},{"sampler":3,"target":{"node":4,"path":"rotation"}},{"sampler":4,"target":{"node":5,"path":"rotation"}}],"name":"Page 2","samplers":[{"input":16,"interpolation":"LINEAR","output":17},{"input":16,"interpolation":"LINEAR","output":18},{"input":19,"interpolation":"LINEAR","output":20},{"input":21,"interpolation":"LINEAR","output":22},{"input":23,"interpolation":"LINEAR","output":24}]}],"asset":{"copyright":"The Creators of 'Friday Night Funkin': Lullaby'","generator":"GDRE Tools vv2.6.3","version":"2.0"},"bufferViews":[{"buffer":0,"byteLength":256},{"buffer":0,"byteLength":21480,"byteOffset":256,"byteStride":12,"target":34962},{"buffer":0,"byteLength":28640,"byteOffset":21736,"byteStride":16,"target":34962},{"buffer":0,"byteLength":21480,"byteOffset":50376,"byteStride":12,"target":34962},{"buffer":0,"byteLength":14320,"byteOffset":71856,"byteStride":8,"target":34962},{"buffer":0,"byteLength":7160,"byteOffset":86176,"byteStride":4,"target":34962},{"buffer":0,"byteLength":28640,"byteOffset":93336,"byteStride":16,"target":34962},{"buffer":0,"byteLength":11592,"byteOffset":121976,"target":34963},{"buffer":0,"byteLength":56,"byteOffset":133568},{"buffer":0,"byteLength":168,"byteOffset":133624},{"buffer":0,"byteLength":96,"byteOffset":133792},{"buffer":0,"byteLength":384,"byteOffset":133888},{"buffer":0,"byteLength":8,"byteOffset":134272},{"buffer":0,"byteLength":24,"byteOffset":134280},{"buffer":0,"byteLength":32,"byteOffset":134304},{"buffer":0,"byteLength":32,"byteOffset":134336},{"buffer":0,"byteLength":8,"byteOffset":134368},{"buffer":0,"byteLength":24,"byteOffset":134376},{"buffer":0,"byteLength":32,"byteOffset":134400},{"buffer":0,"byteLength":80,"byteOffset":134432},{"buffer":0,"byteLength":240,"byteOffset":134512},{"buffer":0,"byteLength":116,"byteOffset":134752},{"buffer":0,"byteLength":464,"byteOffset":134868},{"buffer":0,"byteLength":128,"byteOffset":135332},{"buffer":0,"byteLength":512,"byteOffset":135460},{"buffer":0,"byteLength":1992547,"byteOffset":135972},{"buffer":0,"byteLength":399949,"byteOffset":2128519},{"buffer":0,"byteLength":1765481,"byteOffset":2528468},{"buffer":0,"byteLength":424711,"byteOffset":4293949}],"buffers":[{"byteLength":4718660,"uri":"mdl_notepad0.bin"}],"extensionsUsed":["GODOT_single_root","KHR_materials_emissive_strength"],"images":[{"bufferView":25,"mimeType":"image/png","name":"notepad"},{"bufferView":26,"mimeType":"image/png","name":"notepad_metallic"},{"bufferView":27,"mimeType":"image/png","name":"notepad_normal"},{"bufferView":28,"mimeType":"image/png","name":"notepad_emission"}],"materials":[{"doubleSided":true,"emissiveFactor":[1.0,1.0,1.0],"emissiveTexture":{"index":3},"extensions":{"KHR_materials_emissive_strength":{"emissiveStrength":7.0}},"name":"notepad","normalTexture":{"index":2,"scale":1.0},"pbrMetallicRoughness":{"baseColorFactor":[1.0,1.0,1.0,1.0],"baseColorTexture":{"index":0},"metallicFactor":1.0,"metallicRoughnessTexture":{"index":1},"roughnessFactor":1.0}}],"meshes":[{"name":"Cylinder","primitives":[{"attributes":{"JOINTS_0":5,"NORMAL":3,"POSITION":1,"TANGENT":2,"TEXCOORD_0":4,"WEIGHTS_0":6},"indices":7,"material":0,"mode":4}]}],"nodes":[{"children":[1],"name":"mdl_notepad"},{"children":[2,6],"name":"NotPadRIG"},{"children":[3,4],"name":"Root","translation":[0.0,-0.114981085,0.0]},{"name":"Back","rotation":[7.5497915e-08,-2.1936606e-21,1.0,-1.1266458e-14],"translation":[2.220446e-16,0.25095892,0.014752089]},{"children":[5],"name":"Front","rotation":[1.0,1.2977231e-14,-7.54979e-08,2.9688442e-07],"translation":[-4.207051e-24,0.25095892,0.012306703]},{"name":"Front_001","translation":[2.3900252e-17,0.12547947,2.8565905e-10]},{"mesh":0,"name":"MeshNotepad","skin":0}],"samplers":[{"magFilter":9729,"minFilter":9987,"wrapS":10497,"wrapT":10497}],"scene":0,"scenes":[{"name":"mdl_notepad","nodes":[0]}],"skins":[{"inverseBindMatrices":0,"joints":[2,3,4,5],"name":"Skin"}],"textures":[{"sampler":0,"source":0},{"sampler":0,"source":1},{"sampler":0,"source":2},{"sampler":0,"source":3}]}