{"accessors":[{"bufferView":0,"componentType":5126,"count":166,"max":[0.5523634,-5.123657,0.55317897],"min":[-0.5523634,-5.200494,-0.55317897],"normalized":false,"type":"VEC3"},{"bufferView":1,"componentType":5126,"count":166,"max":[1.0,1.0000001,0.00016927719,1.0],"min":[-6.559491e-05,-3.0518146e-05,-2.7418137e-05,-1.0],"normalized":false,"type":"VEC4"},{"bufferView":2,"componentType":5126,"count":166,"max":[0.98401856,1.0,0.9870049],"min":[-0.98401904,-1.0,-0.9870008],"normalized":false,"type":"VEC3"},{"bufferView":3,"componentType":5126,"count":166,"max":[0.9831083,0.9683461],"min":[0.019126562,-0.004388467],"normalized":false,"type":"VEC2"},{"bufferView":4,"componentType":5121,"count":528,"max":[165],"min":[0],"normalized":false,"type":"SCALAR"}],"asset":{"copyright":"The Creators of 'Friday Night Funkin': Lullaby'","generator":"GDRE Tools vv2.6.3","version":"2.0"},"bufferViews":[{"buffer":0,"byteLength":1992,"byteStride":12,"target":34962},{"buffer":0,"byteLength":2656,"byteOffset":1992,"byteStride":16,"target":34962},{"buffer":0,"byteLength":1992,"byteOffset":4648,"byteStride":12,"target":34962},{"buffer":0,"byteLength":1328,"byteOffset":6640,"byteStride":8,"target":34962},{"buffer":0,"byteLength":528,"byteOffset":7968,"target":34963},{"buffer":0,"byteLength":94972,"byteOffset":8496},{"buffer":0,"byteLength":69122,"byteOffset":103468},{"buffer":0,"byteLength":84734,"byteOffset":172590},{"buffer":0,"byteLength":67200,"byteOffset":257324}],"buffers":[{"byteLength":324524,"uri":"prp_soultoken0.bin"}],"extensionsUsed":["GODOT_single_root"],"images":[{"bufferView":5,"mimeType":"image/png","name":"DefaultMaterial_Base_color"},{"bufferView":6,"mimeType":"image/png","name":"DefaultMaterial_Metallic-DefaultMaterial_Roughness"},{"bufferView":7,"mimeType":"image/png","name":"DefaultMaterial_Normal_OpenGL"},{"bufferView":8,"mimeType":"image/png","name":"DefaultMaterial_Emissive"}],"materials":[{"doubleSided":true,"emissiveFactor":[1.0,1.0,1.0],"emissiveTexture":{"index":3},"name":"Material.001","normalTexture":{"index":2,"scale":1.0},"pbrMetallicRoughness":{"baseColorFactor":[1.0,1.0,1.0,1.0],"baseColorTexture":{"index":0},"metallicFactor":1.0,"metallicRoughnessTexture":{"index":1},"roughnessFactor":1.0}}],"meshes":[{"name":"Cube_011","primitives":[{"attributes":{"NORMAL":2,"POSITION":0,"TANGENT":1,"TEXCOORD_0":3},"indices":4,"material":0,"mode":4}]}],"nodes":[{"children":[1],"name":"prp_soultoken"},{"mesh":0,"name":"TOKEN5","scale":[0.12714282,0.12714292,0.12714292],"translation":[0.0,0.7363214,0.0]}],"samplers":[{"magFilter":9729,"minFilter":9987,"wrapS":10497,"wrapT":10497}],"scene":0,"scenes":[{"name":"prp_soultoken","nodes":[0]}],"textures":[{"sampler":0,"source":0},{"sampler":0,"source":1},{"sampler":0,"source":2},{"sampler":0,"source":3}]}