{"accessors":[{"bufferView":0,"componentType":5126,"count":2,"max":[1.9470718e-07,-1.0000001,-1.3435884e-07,0.0,1.0,1.947072e-07,2.6160635e-14,0.0,-3.388132e-21,-2.5356815e-07,1.0000001,0.0,-1.0291746,-2.688201,-3.7008233,1.0],"min":[1.9470717e-07,-1.0000001,-1.3435886e-07,0.0,1.0,1.947072e-07,2.6160633e-14,0.0,-3.3881326e-21,-2.5356817e-07,1.0000001,0.0,-1.0291747,-3.1624956,-3.7008233,1.0],"normalized":false,"type":"MAT4"},{"bufferView":1,"componentType":5126,"count":290,"max":[-3.1459565,1.0567446,4.0377817],"min":[-3.6679776,0.98849165,3.3697472],"normalized":false,"type":"VEC3"},{"bufferView":2,"componentType":5126,"count":290,"max":[1.0,1.0,0.72704923,1.0],"min":[-1.0,-1.0,-1.0,1.0],"normalized":false,"type":"VEC4"},{"bufferView":3,"componentType":5126,"count":290,"max":[1.0,1.0,1.0],"min":[-1.0,-1.0,-1.0],"normalized":false,"type":"VEC3"},{"bufferView":4,"componentType":5126,"count":290,"max":[0.93020976,0.9997938],"min":[0.045586362,0.00020617247],"normalized":false,"type":"VEC2"},{"bufferView":5,"componentType":5121,"count":290,"max":[1,0,0,0],"min":[0,0,0,0],"normalized":false,"type":"VEC4"},{"bufferView":6,"componentType":5126,"count":290,"max":[1.0,0.0,0.0,0.0],"min":[1.0,0.0,0.0,0.0],"normalized":false,"type":"VEC4"},{"bufferView":7,"componentType":5123,"count":1014,"max":[289],"min":[0],"normalized":false,"type":"SCALAR"}],"asset":{"copyright":"The Creators of 'Friday Night Funkin': Lullaby'","generator":"GDRE Tools vv2.6.3","version":"2.0"},"bufferViews":[{"buffer":0,"byteLength":128},{"buffer":0,"byteLength":3480,"byteOffset":128,"byteStride":12,"target":34962},{"buffer":0,"byteLength":4640,"byteOffset":3608,"byteStride":16,"target":34962},{"buffer":0,"byteLength":3480,"byteOffset":8248,"byteStride":12,"target":34962},{"buffer":0,"byteLength":2320,"byteOffset":11728,"byteStride":8,"target":34962},{"buffer":0,"byteLength":1160,"byteOffset":14048,"byteStride":4,"target":34962},{"buffer":0,"byteLength":4640,"byteOffset":15208,"byteStride":16,"target":34962},{"buffer":0,"byteLength":2028,"byteOffset":19848,"target":34963},{"buffer":0,"byteLength":213184,"byteOffset":21876},{"buffer":0,"byteLength":145641,"byteOffset":235060},{"buffer":0,"byteLength":75372,"byteOffset":380701}],"buffers":[{"byteLength":456073,"uri":"prp_kollectadex0.bin"}],"extensionsUsed":["GODOT_single_root"],"images":[{"bufferView":8,"mimeType":"image/png","name":"kollectadex"},{"bufferView":9,"mimeType":"image/png","name":"kollectadex_roughness"},{"bufferView":10,"mimeType":"image/png","name":"kollectadex_normal"}],"materials":[{"name":"kollectadex","normalTexture":{"index":2,"scale":1.0},"pbrMetallicRoughness":{"baseColorFactor":[1.0,1.0,1.0,1.0],"baseColorTexture":{"index":0},"metallicFactor":0.0,"metallicRoughnessTexture":{"index":1},"roughnessFactor":1.0}}],"meshes":[{"name":"Cube_006","primitives":[{"attributes":{"JOINTS_0":5,"NORMAL":3,"POSITION":1,"TANGENT":2,"TEXCOORD_0":4,"WEIGHTS_0":6},"indices":7,"material":0,"mode":4}]}],"nodes":[{"children":[1],"name":"prp_kollectadex"},{"children":[2,4],"name":"PokedexRig","rotation":[0.0,0.0,0.70710665,0.7071069],"translation":[-3.18364,0.990888,3.70385]},{"children":[3],"name":"root","translation":[0.038287234,-0.4954384,-0.0030275548]},{"name":"hinge","translation":[9.9495026e-08,0.47429487,1.8649075e-07]},{"mesh":0,"name":"Pokedex","skin":0}],"samplers":[{"magFilter":9729,"minFilter":9987,"wrapS":10497,"wrapT":10497}],"scene":0,"scenes":[{"name":"prp_kollectadex","nodes":[0]}],"skins":[{"inverseBindMatrices":0,"joints":[2,3],"name":"Skin"}],"textures":[{"sampler":0,"source":0},{"sampler":0,"source":1},{"sampler":0,"source":2}]}