{"accessors":[{"bufferView":0,"componentType":5126,"count":2058,"max":[-2.9334803,2.9133976,4.0567665],"min":[-3.0820394,2.6539233,3.8607762],"normalized":false,"type":"VEC3"},{"bufferView":1,"componentType":5126,"count":2058,"max":[0.99927706,0.9799104,0.9999554,1.0],"min":[-0.9988464,-0.9957707,-0.9992763,-1.0],"normalized":false,"type":"VEC4"},{"bufferView":2,"componentType":5126,"count":2058,"max":[0.9992125,1.0,0.9975593],"min":[-0.9975618,-1.0,-0.9975606],"normalized":false,"type":"VEC3"},{"bufferView":3,"componentType":5126,"count":2058,"max":[0.9781369,1.0],"min":[0.0,0.0],"normalized":false,"type":"VEC2"},{"bufferView":4,"componentType":5126,"count":2058,"max":[0.98913044,0.98913044],"min":[0.010869565,0.010869565],"normalized":false,"type":"VEC2"},{"bufferView":5,"componentType":5123,"count":3450,"max":[2057],"min":[0],"normalized":false,"type":"SCALAR"}],"asset":{"copyright":"The Creators of 'Friday Night Funkin': Lullaby'","generator":"GDRE Tools vv2.6.3","version":"2.0"},"bufferViews":[{"buffer":0,"byteLength":24696,"byteStride":12,"target":34962},{"buffer":0,"byteLength":32928,"byteOffset":24696,"byteStride":16,"target":34962},{"buffer":0,"byteLength":24696,"byteOffset":57624,"byteStride":12,"target":34962},{"buffer":0,"byteLength":16464,"byteOffset":82320,"byteStride":8,"target":34962},{"buffer":0,"byteLength":16464,"byteOffset":98784,"byteStride":8,"target":34962},{"buffer":0,"byteLength":6900,"byteOffset":115248,"target":34963},{"buffer":0,"byteLength":7289,"byteOffset":122148}],"buffers":[{"byteLength":129437,"uri":"prp_gigi0.bin"}],"extensionsUsed":["GODOT_single_root"],"images":[{"bufferView":6,"mimeType":"image/png","name":"tex"}],"materials":[{"alphaCutoff":0.5,"alphaMode":"MASK","name":"tex.png","pbrMetallicRoughness":{"baseColorFactor":[1.0,1.0,1.0,1.0],"baseColorTexture":{"index":0},"metallicFactor":0.0,"roughnessFactor":1.0}}],"meshes":[{"name":"FootR_1","primitives":[{"attributes":{"NORMAL":2,"POSITION":0,"TANGENT":1,"TEXCOORD_0":3,"TEXCOORD_1":4},"indices":5,"material":0,"mode":4}]}],"nodes":[{"children":[1],"name":"prp_gigi"},{"mesh":0,"name":"FootR_1"}],"samplers":[{"magFilter":9728,"minFilter":9986,"wrapS":10497,"wrapT":10497}],"scene":0,"scenes":[{"name":"prp_gigi","nodes":[0]}],"textures":[{"sampler":0,"source":0}]}