{"accessors":[{"bufferView":0,"componentType":5126,"count":4,"max":[1.0,2.2204545e-16,0.0,0.0,0.0,1.0,0.0,0.0,2.0937355e-13,1.0,1.0,0.0,0.53494585,0.0,1.8832949,1.0],"min":[1.0,0.0,-1.7563528e-06,0.0,-1.7563528e-06,1.1920929e-07,-1.0,0.0,0.0,0.0,1.19209275e-07,0.0,-0.601625,-0.033071034,0.0,1.0],"normalized":false,"type":"MAT4"},{"bufferView":1,"componentType":5126,"count":2468,"max":[1.002915,3.0581021,1.002915],"min":[-1.002915,-1.66893e-06,-1.002915],"normalized":false,"type":"VEC3"},{"bufferView":2,"componentType":5126,"count":2468,"max":[0.99981254,0.9157592,0.96931356,1.0],"min":[-0.99453694,-0.999691,-0.99989414,-1.0],"normalized":false,"type":"VEC4"},{"bufferView":3,"componentType":5126,"count":2468,"max":[1.0,1.0,1.0],"min":[-1.0,-1.0,-1.0],"normalized":false,"type":"VEC3"},{"bufferView":4,"componentType":5126,"count":2468,"max":[0.99975944,0.9997595],"min":[0.0002404728,0.080338776],"normalized":false,"type":"VEC2"},{"bufferView":5,"componentType":5121,"count":2468,"max":[3,0,0,0],"min":[0,0,0,0],"normalized":false,"type":"VEC4"},{"bufferView":6,"componentType":5126,"count":2468,"max":[1.0,0.0,0.0,0.0],"min":[1.0,0.0,0.0,0.0],"normalized":false,"type":"VEC4"},{"bufferView":7,"componentType":5123,"count":12366,"max":[2467],"min":[0],"normalized":false,"type":"SCALAR"},{"bufferView":8,"componentType":5126,"count":494,"max":[0.995377,2.8261034,0.995377],"min":[-0.995377,0.00805405,-0.995377],"normalized":false,"type":"VEC3"},{"bufferView":9,"componentType":5126,"count":494,"max":[0.99040717,0.39366835,0.9559469,1.0],"min":[-0.9907485,-0.991725,-0.9952768,1.0],"normalized":false,"type":"VEC4"},{"bufferView":10,"componentType":5126,"count":494,"max":[0.9917205,0.99998486,0.9917205],"min":[-0.99172294,-0.99078333,-0.9917183],"normalized":false,"type":"VEC3"},{"bufferView":11,"componentType":5126,"count":494,"max":[0.99975944,0.9997595],"min":[0.0002404728,0.09310788],"normalized":false,"type":"VEC2"},{"bufferView":12,"componentType":5121,"count":494,"max":[0,0,0,0],"min":[0,0,0,0],"normalized":false,"type":"VEC4"},{"bufferView":13,"componentType":5126,"count":494,"max":[1.0,0.0,0.0,0.0],"min":[1.0,0.0,0.0,0.0],"normalized":false,"type":"VEC4"},{"bufferView":14,"componentType":5123,"count":2394,"max":[493],"min":[0],"normalized":false,"type":"SCALAR"}],"asset":{"copyright":"The Creators of 'Friday Night Funkin': Lullaby'","generator":"GDRE Tools vv2.6.3","version":"2.0"},"bufferViews":[{"buffer":0,"byteLength":256},{"buffer":0,"byteLength":29616,"byteOffset":256,"byteStride":12,"target":34962},{"buffer":0,"byteLength":39488,"byteOffset":29872,"byteStride":16,"target":34962},{"buffer":0,"byteLength":29616,"byteOffset":69360,"byteStride":12,"target":34962},{"buffer":0,"byteLength":19744,"byteOffset":98976,"byteStride":8,"target":34962},{"buffer":0,"byteLength":9872,"byteOffset":118720,"byteStride":4,"target":34962},{"buffer":0,"byteLength":39488,"byteOffset":128592,"byteStride":16,"target":34962},{"buffer":0,"byteLength":24732,"byteOffset":168080,"target":34963},{"buffer":0,"byteLength":5928,"byteOffset":192812,"byteStride":12,"target":34962},{"buffer":0,"byteLength":7904,"byteOffset":198740,"byteStride":16,"target":34962},{"buffer":0,"byteLength":5928,"byteOffset":206644,"byteStride":12,"target":34962},{"buffer":0,"byteLength":3952,"byteOffset":212572,"byteStride":8,"target":34962},{"buffer":0,"byteLength":1976,"byteOffset":216524,"byteStride":4,"target":34962},{"buffer":0,"byteLength":7904,"byteOffset":218500,"byteStride":16,"target":34962},{"buffer":0,"byteLength":4788,"byteOffset":226404,"target":34963},{"buffer":0,"byteLength":1372918,"byteOffset":231192},{"buffer":0,"byteLength":599505,"byteOffset":1604110},{"buffer":0,"byteLength":1044498,"byteOffset":2203615},{"buffer":0,"byteLength":55126,"byteOffset":3248113}],"buffers":[{"byteLength":3303239,"uri":"prp_mono_jar0.bin"}],"extensionsUsed":["GODOT_single_root","KHR_materials_emissive_strength"],"images":[{"bufferView":15,"mimeType":"image/png","name":"mono_jar_base_with_alpha"},{"bufferView":16,"mimeType":"image/png","name":"mono_jar_orm"},{"bufferView":17,"mimeType":"image/png","name":"mono_jar_normal"},{"bufferView":18,"mimeType":"image/png","name":"mono_jar_emission"}],"materials":[{"alphaMode":"BLEND","emissiveFactor":[0.0,0.0,0.0],"emissiveTexture":{"index":3},"extensions":{"KHR_materials_emissive_strength":{"emissiveStrength":0.03}},"name":"mono_jar","normalTexture":{"index":2,"scale":1.0},"pbrMetallicRoughness":{"baseColorFactor":[1.0,1.0,1.0,1.0],"baseColorTexture":{"index":0},"metallicFactor":1.0,"metallicRoughnessTexture":{"index":1},"roughnessFactor":1.0}},{"alphaMode":"BLEND","doubleSided":true,"name":"Fog","pbrMetallicRoughness":{"baseColorFactor":[0.0,0.0,0.0,0.544],"metallicFactor":0.0,"roughnessFactor":0.5}}],"meshes":[{"name":"Cylinder","primitives":[{"attributes":{"JOINTS_0":5,"NORMAL":3,"POSITION":1,"TANGENT":2,"TEXCOORD_0":4,"WEIGHTS_0":6},"indices":7,"material":0,"mode":4},{"attributes":{"JOINTS_0":12,"NORMAL":10,"POSITION":8,"TANGENT":9,"TEXCOORD_0":11,"WEIGHTS_0":13},"indices":14,"material":1,"mode":4}]}],"nodes":[{"children":[1],"name":"prp_mono_jar"},{"children":[2,6],"name":"Jar_RIG"},{"children":[3,4,5],"name":"Jar"},{"name":"Bum_EYE_Steve","rotation":[0.70710677,-4.5237718e-07,-4.5237718e-07,0.70710677],"translation":[0.6016259,0.7190933,0.03307081]},{"name":"Mary","rotation":[0.70710677,-6.2096456e-07,-6.2096456e-07,0.70710677],"translation":[-0.5349446,0.7190933,0.03307081]},{"name":"Stupid_EYE_JOHN","rotation":[0.70710677,-3.090862e-08,-3.090862e-08,0.70710677],"translation":[-4.2082155e-17,1.8832949,0.03307081]},{"mesh":0,"name":"MonochromeJarMESH","skin":0}],"samplers":[{"magFilter":9729,"minFilter":9987,"wrapS":10497,"wrapT":10497}],"scene":0,"scenes":[{"name":"prp_mono_jar","nodes":[0]}],"skins":[{"inverseBindMatrices":0,"joints":[2,3,4,5],"name":"Skin"}],"textures":[{"sampler":0,"source":0},{"sampler":0,"source":1},{"sampler":0,"source":2},{"sampler":0,"source":3}]}