{"accessors":[{"bufferView":0,"componentType":5126,"count":2,"max":[0.67847437,0.0,0.0,0.0,0.0,0.67847437,3.5829254e-07,0.0,0.0,0.0,0.67847437,0.0,0.98287743,2.4539719,0.4286293,1.0],"min":[0.67847437,-1.1862843e-07,-1.02446734e-07,0.0,-1.1862839e-07,-0.67847455,0.0,0.0,-1.02446805e-07,-3.5829248e-07,-0.67847437,0.0,0.9828771,-0.29417297,-0.44847316,1.0],"normalized":false,"type":"MAT4"},{"bufferView":1,"componentType":5126,"count":192,"max":[-0.5316542,3.5808082,-0.62119395],"min":[-2.3075445,2.6596816,-0.7038174],"normalized":false,"type":"VEC3"},{"bufferView":2,"componentType":5126,"count":192,"max":[1.0,4.577916e-05,1.0,1.0],"min":[-0.12470907,-1.0,-1.0,-1.0],"normalized":false,"type":"VEC4"},{"bufferView":3,"componentType":5126,"count":192,"max":[0.99991184,0.99999666,1.0],"min":[-0.9999796,-0.9999912,-1.0],"normalized":false,"type":"VEC3"},{"bufferView":4,"componentType":5126,"count":192,"max":[0.9337956,0.99982303],"min":[0.0001769859,0.00017696619],"normalized":false,"type":"VEC2"},{"bufferView":5,"componentType":5126,"count":192,"max":[0.9807692,0.97727275],"min":[0.01923077,0.022727273],"normalized":false,"type":"VEC2"},{"bufferView":6,"componentType":5121,"count":192,"max":[1,0,0,0],"min":[1,0,0,0],"normalized":false,"type":"VEC4"},{"bufferView":7,"componentType":5126,"count":192,"max":[1.0,0.0,0.0,0.0],"min":[1.0,0.0,0.0,0.0],"normalized":false,"type":"VEC4"},{"bufferView":8,"componentType":5121,"count":480,"max":[191],"min":[0],"normalized":false,"type":"SCALAR"}],"asset":{"copyright":"The Creators of 'Friday Night Funkin': Lullaby'","generator":"GDRE Tools vv2.6.3","version":"2.0"},"bufferViews":[{"buffer":0,"byteLength":128},{"buffer":0,"byteLength":2304,"byteOffset":128,"byteStride":12,"target":34962},{"buffer":0,"byteLength":3072,"byteOffset":2432,"byteStride":16,"target":34962},{"buffer":0,"byteLength":2304,"byteOffset":5504,"byteStride":12,"target":34962},{"buffer":0,"byteLength":1536,"byteOffset":7808,"byteStride":8,"target":34962},{"buffer":0,"byteLength":1536,"byteOffset":9344,"byteStride":8,"target":34962},{"buffer":0,"byteLength":768,"byteOffset":10880,"byteStride":4,"target":34962},{"buffer":0,"byteLength":3072,"byteOffset":11648,"byteStride":16,"target":34962},{"buffer":0,"byteLength":480,"byteOffset":14720,"target":34963},{"buffer":0,"byteLength":1094660,"byteOffset":15200},{"buffer":0,"byteLength":459013,"byteOffset":1109860},{"buffer":0,"byteLength":578177,"byteOffset":1568873}],"buffers":[{"byteLength":2147050,"uri":"prp_sign0.bin"}],"extensionsUsed":["GODOT_single_root"],"images":[{"bufferView":9,"mimeType":"image/png","name":"sign"},{"bufferView":10,"mimeType":"image/png","name":"sign_roughness"},{"bufferView":11,"mimeType":"image/png","name":"sign_normal"}],"materials":[{"alphaCutoff":0.699,"alphaMode":"MASK","name":"sign","normalTexture":{"index":2,"scale":1.0},"pbrMetallicRoughness":{"baseColorFactor":[1.0,1.0,1.0,1.0],"baseColorTexture":{"index":0},"metallicFactor":0.0,"metallicRoughnessTexture":{"index":1},"roughnessFactor":1.0}}],"meshes":[{"name":"Plane_010","primitives":[{"attributes":{"JOINTS_0":6,"NORMAL":3,"POSITION":1,"TANGENT":2,"TEXCOORD_0":4,"TEXCOORD_1":5,"WEIGHTS_0":7},"indices":8,"material":0,"mode":4}]}],"nodes":[{"children":[1],"name":"prp_sign"},{"children":[2,4],"name":"SignRig","scale":[1.473895,1.473895,1.473895],"translation":[-1.4486578,0.43358007,-0.63175464]},{"children":[3],"name":"Root"},{"name":"Hello_Iam_a_sign","rotation":[1.0,-8.7422904e-08,-7.5497894e-08,-2.6404274e-07],"translation":[-5.9604645e-08,2.1597989,-0.019842416]},{"mesh":0,"name":"Sign","skin":0}],"samplers":[{"magFilter":9729,"minFilter":9987,"wrapS":10497,"wrapT":10497}],"scene":0,"scenes":[{"name":"prp_sign","nodes":[0]}],"skins":[{"inverseBindMatrices":0,"joints":[2,3],"name":"Skin"}],"textures":[{"sampler":0,"source":0},{"sampler":0,"source":1},{"sampler":0,"source":2}]}