{"accessors":[{"bufferView":0,"componentType":5126,"count":16,"max":[3.010712,0.0,1.1721059,0.0,0.0,3.2308233,0.0,0.0,1.1721137,3.010709,3.010709,0.0,-2.9970317,4.6904945,4.4626637,1.0],"min":[3.010709,-1.1721137,-1.1721137,0.0,-5.6744657e-06,-3.2308233,-3.2308233,0.0,1.1721059,0.0,-3.010712,0.0,-4.375573,-4.595032,-3.4776683,1.0],"normalized":false,"type":"MAT4"},{"bufferView":1,"componentType":5126,"count":3791,"max":[1.2893826,1.5383854,1.7500733],"min":[0.23344183,1.29579,0.7075448],"normalized":false,"type":"VEC3"},{"bufferView":2,"componentType":5126,"count":3791,"max":[0.99993706,1.0,0.99979174,1.0],"min":[-0.9834579,-1.0,-0.9888048,-1.0],"normalized":false,"type":"VEC4"},{"bufferView":3,"componentType":5126,"count":3791,"max":[0.99542236,1.0,0.99977046],"min":[-0.99977046,-1.0,-0.99896353],"normalized":false,"type":"VEC3"},{"bufferView":4,"componentType":5126,"count":3791,"max":[0.87344056,0.9932402],"min":[0.006759851,0.006759882],"normalized":false,"type":"VEC2"},{"bufferView":5,"componentType":5121,"count":3791,"max":[3,0,0,0],"min":[0,0,0,0],"normalized":false,"type":"VEC4"},{"bufferView":6,"componentType":5126,"count":3791,"max":[1.0,0.0,0.0,0.0],"min":[1.0,0.0,0.0,0.0],"normalized":false,"type":"VEC4"},{"bufferView":7,"componentType":5123,"count":13272,"max":[3790],"min":[0],"normalized":false,"type":"SCALAR"}],"asset":{"copyright":"The Creators of 'Friday Night Funkin': Lullaby'","generator":"GDRE Tools vv2.6.3","version":"2.0"},"bufferViews":[{"buffer":0,"byteLength":1024},{"buffer":0,"byteLength":45492,"byteOffset":1024,"byteStride":12,"target":34962},{"buffer":0,"byteLength":60656,"byteOffset":46516,"byteStride":16,"target":34962},{"buffer":0,"byteLength":45492,"byteOffset":107172,"byteStride":12,"target":34962},{"buffer":0,"byteLength":30328,"byteOffset":152664,"byteStride":8,"target":34962},{"buffer":0,"byteLength":15164,"byteOffset":182992,"byteStride":4,"target":34962},{"buffer":0,"byteLength":60656,"byteOffset":198156,"byteStride":16,"target":34962},{"buffer":0,"byteLength":26544,"byteOffset":258812,"target":34963},{"buffer":0,"byteLength":4153659,"byteOffset":285356},{"buffer":0,"byteLength":3105219,"byteOffset":4439015},{"buffer":0,"byteLength":2111137,"byteOffset":7544234}],"buffers":[{"byteLength":9655371,"uri":"prp_briefcase0.bin"}],"extensionsUsed":["GODOT_single_root"],"images":[{"bufferView":8,"mimeType":"image/png","name":"briefcase"},{"bufferView":9,"mimeType":"image/png","name":"briefcase_orm"},{"bufferView":10,"mimeType":"image/png","name":"briefcase_normal"}],"materials":[{"name":"briefcase","normalTexture":{"index":2,"scale":1.0},"pbrMetallicRoughness":{"baseColorFactor":[1.0,1.0,1.0,1.0],"baseColorTexture":{"index":0},"metallicFactor":1.0,"metallicRoughnessTexture":{"index":1},"roughnessFactor":1.0}}],"meshes":[{"name":"Cube_027","primitives":[{"attributes":{"JOINTS_0":5,"NORMAL":3,"POSITION":1,"TANGENT":2,"TEXCOORD_0":4,"WEIGHTS_0":6},"indices":7,"material":0,"mode":4}]}],"nodes":[{"children":[1],"name":"prp_briefcase"},{"children":[2,18],"name":"BriefcaseRig","rotation":[0.0,-0.18456632,0.0,0.98282003],"scale":[0.30951864,0.30951864,0.30951864],"translation":[0.761412,1.29579,1.18923]},{"children":[3,5,6,7,8,9,10,11,12,13,14,15,16,17],"name":"SuitcaseROOT"},{"children":[4],"name":"SuitcaseHINGE","translation":[0.0,0.40856457,-1.155743]},{"name":"SuitcaseLOCK","rotation":[1.0,0.0,-1.2665987e-06,0.0],"translation":[1.1920929e-07,0.0954628,2.404563]},{"name":"SuitcaseHANDLE","rotation":[0.70710677,-6.315012e-07,-6.1042783e-07,0.70710677],"translation":[2.3841858e-07,0.27618885,1.2414513]},{"name":"Cartridge2","translation":[0.0,0.2985692,0.78970385]},{"name":"Cartridge5","translation":[0.0,0.2985692,0.26447272]},{"name":"Cartridge8","translation":[-2.3841858e-07,0.2985692,-0.26447535]},{"name":"Cartridge11","translation":[-1.1920929e-07,0.2985692,-0.78970635]},{"name":"Cartridge1","translation":[-0.6892705,0.2985692,0.7897044]},{"name":"Cartridge4","translation":[-0.6892706,0.2985692,0.26447272]},{"name":"Cartridge7","translation":[-0.6892706,0.2985692,-0.2644751]},{"name":"Cartridge10","translation":[-0.6892705,0.2985692,-0.7897065]},{"name":"Cartridge3","translation":[0.6892705,0.2985692,0.7897043]},{"name":"Cartridge6","translation":[0.6892706,0.2985692,0.26447284]},{"name":"Cartridge9","translation":[0.6892706,0.2985692,-0.26447523]},{"name":"Cartridge12","translation":[0.6892706,0.2985692,-0.7897067]},{"mesh":0,"name":"Briefcase","skin":0}],"samplers":[{"magFilter":9729,"minFilter":9987,"wrapS":10497,"wrapT":10497}],"scene":0,"scenes":[{"name":"prp_briefcase","nodes":[0]}],"skins":[{"inverseBindMatrices":0,"joints":[2,3,4,5,6,7,8,9,10,11,12,13,14,15,16,17],"name":"Skin"}],"textures":[{"sampler":0,"source":0},{"sampler":0,"source":1},{"sampler":0,"source":2}]}