{"accessors":[{"bufferView":0,"componentType":5126,"count":26,"max":[1.0,8.846582e-07,0.99994785,0.0,0.9747106,0.96991485,0.48822218,0.0,0.52231574,0.9999262,0.9699148,0.0,0.758152,0.37955648,0.69925946,1.0],"min":[0.010186299,-0.52236587,-0.0005122857,0.0,-0.0072484277,-0.07857983,-0.99992627,0.0,-0.223238,-0.48822236,-0.07857981,0.0,-0.83119434,-0.7862688,0.14281516,1.0],"normalized":false,"type":"MAT4"},{"bufferView":1,"componentType":5126,"count":2399,"max":[0.77858204,1.3018327,0.589105],"min":[-0.86854684,0.00041466067,-0.7331339],"normalized":false,"type":"VEC3"},{"bufferView":2,"componentType":5126,"count":2399,"max":[0.9999479,0.99995273,0.9999994,1.0],"min":[-0.9999483,-1.0,-1.0,-1.0],"normalized":false,"type":"VEC4"},{"bufferView":3,"componentType":5126,"count":2399,"max":[1.0,1.0,1.0],"min":[-1.0,-1.0,-1.0],"normalized":false,"type":"VEC3"},{"bufferView":4,"componentType":5126,"count":2399,"max":[0.9994462,0.9994462],"min":[0.00055379706,0.020314872],"normalized":false,"type":"VEC2"},{"bufferView":5,"componentType":5121,"count":2399,"max":[25,15,3,0],"min":[0,0,0,0],"normalized":false,"type":"VEC4"},{"bufferView":6,"componentType":5126,"count":2399,"max":[1.0,0.49848932,0.00041200616,0.0],"min":[0.5015106,0.0,0.0,0.0],"normalized":false,"type":"VEC4"},{"bufferView":7,"componentType":5123,"count":7932,"max":[2398],"min":[0],"normalized":false,"type":"SCALAR"},{"bufferView":8,"componentType":5126,"count":4,"max":[-0.6771575,1.2637503,0.2874051],"min":[-0.684783,0.44926006,-0.24998048],"normalized":false,"type":"VEC3"},{"bufferView":9,"componentType":5126,"count":4,"max":[3.656247e-05,-0.22329041,-0.97475195,1.0],"min":[3.656247e-05,-0.22329041,-0.97475195,1.0],"normalized":false,"type":"VEC4"},{"bufferView":10,"componentType":5126,"count":4,"max":[0.99994814,-0.009930784,0.0022703537],"min":[0.99994814,-0.009930784,0.0022703537],"normalized":false,"type":"VEC3"},{"bufferView":11,"componentType":5126,"count":4,"max":[0.7910303,0.99992204],"min":[0.1832461,7.802248e-05],"normalized":false,"type":"VEC2"},{"bufferView":12,"componentType":5121,"count":4,"max":[13,0,0,0],"min":[13,0,0,0],"normalized":false,"type":"VEC4"},{"bufferView":13,"componentType":5126,"count":4,"max":[1.0,0.0,0.0,0.0],"min":[1.0,0.0,0.0,0.0],"normalized":false,"type":"VEC4"},{"bufferView":14,"componentType":5121,"count":6,"max":[3],"min":[0],"normalized":false,"type":"SCALAR"}],"asset":{"copyright":"The Creators of 'Friday Night Funkin': Lullaby'","generator":"GDRE Tools vv2.6.3","version":"2.0"},"bufferViews":[{"buffer":0,"byteLength":1664},{"buffer":0,"byteLength":28788,"byteOffset":1664,"byteStride":12,"target":34962},{"buffer":0,"byteLength":38384,"byteOffset":30452,"byteStride":16,"target":34962},{"buffer":0,"byteLength":28788,"byteOffset":68836,"byteStride":12,"target":34962},{"buffer":0,"byteLength":19192,"byteOffset":97624,"byteStride":8,"target":34962},{"buffer":0,"byteLength":9596,"byteOffset":116816,"byteStride":4,"target":34962},{"buffer":0,"byteLength":38384,"byteOffset":126412,"byteStride":16,"target":34962},{"buffer":0,"byteLength":15864,"byteOffset":164796,"target":34963},{"buffer":0,"byteLength":48,"byteOffset":180660,"byteStride":12,"target":34962},{"buffer":0,"byteLength":64,"byteOffset":180708,"byteStride":16,"target":34962},{"buffer":0,"byteLength":48,"byteOffset":180772,"byteStride":12,"target":34962},{"buffer":0,"byteLength":32,"byteOffset":180820,"byteStride":8,"target":34962},{"buffer":0,"byteLength":16,"byteOffset":180852,"byteStride":4,"target":34962},{"buffer":0,"byteLength":64,"byteOffset":180868,"byteStride":16,"target":34962},{"buffer":0,"byteLength":6,"byteOffset":180932,"target":34963},{"buffer":0,"byteLength":4253906,"byteOffset":180938},{"buffer":0,"byteLength":941349,"byteOffset":4434844},{"buffer":0,"byteLength":5191496,"byteOffset":5376193},{"buffer":0,"byteLength":22885,"byteOffset":10567689}],"buffers":[{"byteLength":10590574,"uri":"prp_cartridge_bag0.bin"}],"extensionsUsed":["GODOT_single_root"],"images":[{"bufferView":15,"mimeType":"image/png","name":"cartridge_bag"},{"bufferView":16,"mimeType":"image/png","name":"cartridge_bag_orm"},{"bufferView":17,"mimeType":"image/png","name":"cartridge_bag_normal"},{"bufferView":18,"mimeType":"image/png","name":"cartridge_bag_emmision"}],"materials":[{"emissiveFactor":[1.3869652,1.3869652,1.3869652],"emissiveTexture":{"index":3},"name":"Cartridge Bag","normalTexture":{"index":2,"scale":1.0},"pbrMetallicRoughness":{"baseColorFactor":[1.0,1.0,1.0,1.0],"baseColorTexture":{"index":0},"metallicFactor":1.0,"metallicRoughnessTexture":{"index":1},"roughnessFactor":1.0}},{"doubleSided":true,"emissiveFactor":[1.0,1.0,1.0],"name":"Screen","pbrMetallicRoughness":{"baseColorFactor":[0.0,0.0,0.0,1.0],"metallicFactor":1.0,"roughnessFactor":1.0}}],"meshes":[{"name":"Plane_001","primitives":[{"attributes":{"JOINTS_0":5,"NORMAL":3,"POSITION":1,"TANGENT":2,"TEXCOORD_0":4,"WEIGHTS_0":6},"indices":7,"material":0,"mode":4},{"attributes":{"JOINTS_0":12,"NORMAL":10,"POSITION":8,"TANGENT":9,"TEXCOORD_0":11,"WEIGHTS_0":13},"indices":14,"material":1,"mode":4}]}],"nodes":[{"children":[1],"name":"prp_cartridge_bag"},{"children":[2,28],"name":"CartridgeBag_RIG"},{"children":[3,16,26],"name":"Zipper","rotation":[0.71138847,2.513407e-07,2.544126e-07,0.70279896],"translation":[0.0,0.1952011,-0.37721312]},{"children":[4,14],"name":"Top","rotation":[-0.8656754,2.9331792e-05,4.642568e-05,0.50060576],"translation":[6.423604e-08,0.05340701,-0.08980843]},{"children":[5,10,11,12,13],"name":"Layer 1","rotation":[0.13168466,4.8212204e-08,-5.045698e-06,0.99129164]},{"children":[6,7,8,9],"name":"Layer 1_001","translation":[1.3926638e-12,0.395176,9.77292e-10]},{"name":"Layer 1 Pocket_001","rotation":[2.5493733e-08,-4.399061e-08,-4.6004505e-05,1.0],"translation":[-0.5027645,0.03677564,0.0092308745]},{"name":"Layer 1 Pocket_002","rotation":[3.289893e-08,-1.07028825e-07,-4.9352926e-05,1.0],"translation":[-0.18238315,0.036744278,0.00922278]},{"name":"Layer 1 Pocket_003","rotation":[3.2977866e-08,-1.3995174e-07,-4.2976353e-05,1.0],"translation":[0.14586954,0.036712147,0.009214487]},{"name":"Layer 1 Pocket_004","rotation":[2.5556886e-08,5.9023762e-08,-4.1404048e-05,1.0],"translation":[0.46622095,0.0366808,0.009206364]},{"name":"Layer 1 Pocket_007","rotation":[2.180721e-08,-2.7860452e-08,-4.2997985e-05,1.0],"translation":[0.14584816,-1.4283872e-05,-3.6997212e-06]},{"name":"Layer 1 Pocket_008","rotation":[2.1831687e-08,3.3170167e-08,-4.1296968e-05,1.0],"translation":[0.46583652,-4.5606095e-05,-1.1784154e-05]},{"name":"Layer 1 Pocket_006","rotation":[2.1728157e-08,3.303299e-09,-4.9376806e-05,1.0],"translation":[-0.18239573,1.7846449e-05,4.5932848e-06]},{"name":"Layer 1 Pocket_005","rotation":[2.1776087e-08,1.16719875e-07,-4.6022018e-05,1.0],"translation":[-0.50263095,4.9192837e-05,1.2683954e-05]},{"children":[15],"name":"Bone","rotation":[0.5688306,0.42176747,0.5629964,0.42612112],"translation":[-0.69070315,0.47749954,0.1098457]},{"name":"Bone_001","translation":[2.0023435e-08,0.23615862,1.9790605e-09]},{"children":[17,22,23,24,25],"name":"Layer 2","rotation":[0.033250432,9.685333e-05,5.2215775e-05,0.99944705],"translation":[6.423604e-08,0.05340701,-0.08980843]},{"children":[18,19,20,21],"name":"Layer 2_001","translation":[5.456968e-12,0.39517602,-1.696397e-08]},{"name":"Layer 2 Pocket_002","rotation":[3.0200455e-09,2.7570335e-08,-4.9361628e-05,1.0],"translation":[-0.18240117,1.787684e-05,-3.6087855e-05]},{"name":"Layer 2 Pocket_001","rotation":[8.3010376e-10,2.2774259e-08,-4.6054276e-05,1.0],"translation":[-0.502282,4.9195987e-05,-9.935397e-05]},{"name":"Layer 2 Pocket_003","rotation":[5.2907856e-10,1.0255797e-07,-4.297073e-05,1.0],"translation":[0.14502484,-1.4158513e-05,2.8669132e-05]},{"name":"Layer 2 Pocket_004","rotation":[3.617044e-10,-1.0824692e-09,-4.1329484e-05,1.0],"translation":[0.465279,-4.5514204e-05,9.200908e-05]},{"name":"Layer 2 Pocket_007","rotation":[-6.936898e-09,-2.5230912e-07,-4.2989173e-05,1.0],"translation":[0.14582497,-1.4302084e-05,2.8834644e-05]},{"name":"Layer 2 Pocket_008","rotation":[-7.1224093e-09,-7.378535e-07,-4.135358e-05,1.0],"translation":[0.4657775,-4.5620785e-05,9.211668e-05]},{"name":"Layer 2 Pocket_006","rotation":[-4.439224e-09,-2.0080594e-07,-4.938506e-05,1.0],"translation":[-0.18234955,1.782143e-05,-3.6073583e-05]},{"name":"Layer 2 Pocket_005","rotation":[-2.8826235e-09,4.0239746e-07,-4.5991823e-05,1.0],"translation":[-0.502932,4.9201793e-05,-9.948021e-05]},{"children":[27],"name":"Bottom_001","rotation":[0.008549336,0.001952402,0.2661734,0.96388525],"translation":[-0.72967297,0.14496994,-0.08580711]},{"name":"Handle","rotation":[-0.00850937,-9.63984e-06,0.0053834245,0.9999493],"translation":[-0.013755405,0.055699393,-0.0010133949]},{"mesh":0,"name":"Cart_MESH","skin":0}],"samplers":[{"magFilter":9729,"minFilter":9987,"wrapS":10497,"wrapT":10497}],"scene":0,"scenes":[{"name":"prp_cartridge_bag","nodes":[0]}],"skins":[{"inverseBindMatrices":0,"joints":[2,3,4,5,6,7,8,9,10,11,12,13,14,15,16,17,18,19,20,21,22,23,24,25,26,27],"name":"Skin"}],"textures":[{"sampler":0,"source":0},{"sampler":0,"source":1},{"sampler":0,"source":2},{"sampler":0,"source":3}]}