{"accessors":[{"bufferView":0,"componentType":5126,"count":980,"max":[1.3563364,1.0639541,0.8684518],"min":[-1.3563364,-0.84543234,-0.98097986],"normalized":false,"type":"VEC3"},{"bufferView":1,"componentType":5126,"count":980,"max":[0.99807096,1.0,0.999533,1.0],"min":[-0.99983823,-0.9999964,-0.9995356,-1.0],"normalized":false,"type":"VEC4"},{"bufferView":2,"componentType":5126,"count":980,"max":[0.9994309,0.9999673,0.99994093],"min":[-0.999432,-0.99996746,-1.0],"normalized":false,"type":"VEC3"},{"bufferView":3,"componentType":5126,"count":980,"max":[0.9788816,0.88280356],"min":[0.01707602,0.007778764],"normalized":false,"type":"VEC2"},{"bufferView":4,"componentType":5126,"count":980,"max":[0.9852941,0.9852941],"min":[0.014705882,0.014705882],"normalized":false,"type":"VEC2"},{"bufferView":5,"componentType":5123,"count":3516,"max":[979],"min":[0],"normalized":false,"type":"SCALAR"},{"bufferView":6,"componentType":5126,"count":35,"max":[1.1926417,0.9642356,0.81240755],"min":[-1.1926417,-0.45105624,0.6860477],"normalized":false,"type":"VEC3"},{"bufferView":7,"componentType":5126,"count":35,"max":[1.0,0.0008814456,0.15881787,1.0],"min":[0.98730785,-0.00089877046,-0.15877555,1.0],"normalized":false,"type":"VEC4"},{"bufferView":8,"componentType":5126,"count":35,"max":[0.1587783,0.08697206,1.0],"min":[-0.15881778,-0.08700938,0.9864725],"normalized":false,"type":"VEC3"},{"bufferView":9,"componentType":5126,"count":35,"max":[1.0,1.0],"min":[0.0,0.0],"normalized":false,"type":"VEC2"},{"bufferView":10,"componentType":5126,"count":35,"max":[0.16176471,0.16176471],"min":[0.014705882,0.014705882],"normalized":false,"type":"VEC2"},{"bufferView":11,"componentType":5121,"count":144,"max":[34],"min":[0],"normalized":false,"type":"SCALAR"},{"bufferView":12,"componentType":5126,"count":64,"max":[1.2794359,-0.50825715,0.89692014],"min":[1.0680301,-0.6810478,0.8548831],"normalized":false,"type":"VEC3"},{"bufferView":13,"componentType":5126,"count":64,"max":[0.5423772,-0.35862243,0.93257403,1.0],"min":[-0.55429536,-0.99988234,-0.93261737,1.0],"normalized":false,"type":"VEC4"},{"bufferView":14,"componentType":5126,"count":64,"max":[0.9047591,0.93292093,0.99968445],"min":[-0.90478,-0.9329395,0.35956147],"normalized":false,"type":"VEC3"},{"bufferView":15,"componentType":5126,"count":64,"max":[0.6675372,0.71024156],"min":[0.6306972,0.67269135],"normalized":false,"type":"VEC2"},{"bufferView":16,"componentType":5126,"count":64,"max":[0.95,0.9166667],"min":[0.05,0.083333336],"normalized":false,"type":"VEC2"},{"bufferView":17,"componentType":5121,"count":198,"max":[63],"min":[0],"normalized":false,"type":"SCALAR"},{"bufferView":18,"componentType":5126,"count":12,"max":[0.41666666],"min":[0.0],"normalized":false,"type":"SCALAR"},{"bufferView":19,"componentType":5126,"count":12,"max":[-1.4066701e-06,0.0,-1.3113022e-06],"min":[-3.1590462e-06,0.0,-0.023487568],"normalized":false,"type":"VEC3"}],"animations":[{"channels":[{"sampler":0,"target":{"node":2,"path":"translation"}}],"name":"TV1_HI_002Action","samplers":[{"input":18,"interpolation":"LINEAR","output":19}]}],"asset":{"copyright":"The Creators of 'Friday Night Funkin': Lullaby'","generator":"GDRE Tools vv2.6.3","version":"2.0"},"bufferViews":[{"buffer":0,"byteLength":11760,"byteStride":12,"target":34962},{"buffer":0,"byteLength":15680,"byteOffset":11760,"byteStride":16,"target":34962},{"buffer":0,"byteLength":11760,"byteOffset":27440,"byteStride":12,"target":34962},{"buffer":0,"byteLength":7840,"byteOffset":39200,"byteStride":8,"target":34962},{"buffer":0,"byteLength":7840,"byteOffset":47040,"byteStride":8,"target":34962},{"buffer":0,"byteLength":7032,"byteOffset":54880,"target":34963},{"buffer":0,"byteLength":420,"byteOffset":61912,"byteStride":12,"target":34962},{"buffer":0,"byteLength":560,"byteOffset":62332,"byteStride":16,"target":34962},{"buffer":0,"byteLength":420,"byteOffset":62892,"byteStride":12,"target":34962},{"buffer":0,"byteLength":280,"byteOffset":63312,"byteStride":8,"target":34962},{"buffer":0,"byteLength":280,"byteOffset":63592,"byteStride":8,"target":34962},{"buffer":0,"byteLength":144,"byteOffset":63872,"target":34963},{"buffer":0,"byteLength":768,"byteOffset":64016,"byteStride":12,"target":34962},{"buffer":0,"byteLength":1024,"byteOffset":64784,"byteStride":16,"target":34962},{"buffer":0,"byteLength":768,"byteOffset":65808,"byteStride":12,"target":34962},{"buffer":0,"byteLength":512,"byteOffset":66576,"byteStride":8,"target":34962},{"buffer":0,"byteLength":512,"byteOffset":67088,"byteStride":8,"target":34962},{"buffer":0,"byteLength":198,"byteOffset":67600,"target":34963},{"buffer":0,"byteLength":48,"byteOffset":67800},{"buffer":0,"byteLength":144,"byteOffset":67848},{"buffer":0,"byteLength":383466,"byteOffset":67992},{"buffer":0,"byteLength":8884,"byteOffset":451458},{"buffer":0,"byteLength":56626,"byteOffset":460342}],"buffers":[{"byteLength":516968,"uri":"prp_tv0.bin"}],"extensionsUsed":["GODOT_single_root"],"images":[{"bufferView":20,"mimeType":"image/png","name":"tv"},{"bufferView":21,"mimeType":"image/png","name":"tv_roughness"},{"bufferView":22,"mimeType":"image/png","name":"tv_normal"}],"materials":[{"name":"tv","normalTexture":{"index":2,"scale":1.0},"pbrMetallicRoughness":{"baseColorFactor":[1.0,1.0,1.0,1.0],"baseColorTexture":{"index":0},"metallicFactor":0.0,"metallicRoughnessTexture":{"index":1},"roughnessFactor":1.0}},{"name":"screen","pbrMetallicRoughness":{"baseColorFactor":[0.0639205,0.07171555,0.06892279,1.0],"metallicFactor":0.0,"roughnessFactor":0.2338612}}],"meshes":[{"name":"Cube_015","primitives":[{"attributes":{"NORMAL":2,"POSITION":0,"TANGENT":1,"TEXCOORD_0":3,"TEXCOORD_1":4},"indices":5,"material":0,"mode":4},{"attributes":{"NORMAL":8,"POSITION":6,"TANGENT":7,"TEXCOORD_0":9,"TEXCOORD_1":10},"indices":11,"material":1,"mode":4}]},{"name":"Cube_002","primitives":[{"attributes":{"NORMAL":14,"POSITION":12,"TANGENT":13,"TEXCOORD_0":15,"TEXCOORD_1":16},"indices":17,"material":0,"mode":4}]}],"nodes":[{"children":[1],"name":"prp_tv"},{"children":[2],"mesh":0,"name":"TV","rotation":[0.0,-0.7316257,0.0,0.6817066],"scale":[0.32595608,0.3988003,0.3988005],"translation":[3.0980206,1.86833,4.186098]},{"mesh":1,"name":"TVPowerBut"}],"samplers":[{"magFilter":9729,"minFilter":9987,"wrapS":10497,"wrapT":10497}],"scene":0,"scenes":[{"name":"prp_tv","nodes":[0]}],"textures":[{"sampler":0,"source":0},{"sampler":0,"source":1},{"sampler":0,"source":2}]}