{"accessors":[{"bufferView":0,"componentType":5126,"count":1155,"max":[3.0670655,2.294864,4.494523],"min":[-3.6845272,0.97579265,-1.6853161],"normalized":false,"type":"VEC3"},{"bufferView":1,"componentType":5126,"count":1155,"max":[1.0,3.9876864e-05,0.9239141,1.0],"min":[-0.92391694,-3.987471e-05,-0.9239269,1.0],"normalized":false,"type":"VEC4"},{"bufferView":2,"componentType":5126,"count":1155,"max":[0.92130166,1.0,0.92130166],"min":[-0.92132276,-0.32596073,-0.92132604],"normalized":false,"type":"VEC3"},{"bufferView":3,"componentType":5126,"count":1155,"max":[1.0,0.99],"min":[0.0,0.0],"normalized":false,"type":"VEC2"},{"bufferView":4,"componentType":5126,"count":1155,"max":[0.9907407,0.99],"min":[0.009259259,0.01],"normalized":false,"type":"VEC2"},{"bufferView":5,"componentType":5123,"count":1848,"max":[1154],"min":[0],"normalized":false,"type":"SCALAR"}],"asset":{"copyright":"The Creators of 'Friday Night Funkin': Lullaby'","generator":"GDRE Tools vv2.6.3","version":"2.0"},"bufferViews":[{"buffer":0,"byteLength":13860,"byteStride":12,"target":34962},{"buffer":0,"byteLength":18480,"byteOffset":13860,"byteStride":16,"target":34962},{"buffer":0,"byteLength":13860,"byteOffset":32340,"byteStride":12,"target":34962},{"buffer":0,"byteLength":9240,"byteOffset":46200,"byteStride":8,"target":34962},{"buffer":0,"byteLength":9240,"byteOffset":55440,"byteStride":8,"target":34962},{"buffer":0,"byteLength":3696,"byteOffset":64680,"target":34963}],"buffers":[{"byteLength":68376,"uri":"prp_candles_fake_shadow0.bin"}],"extensionsUsed":["GODOT_single_root"],"materials":[{"pbrMetallicRoughness":{"baseColorFactor":[1.0,1.0,1.0,1.0],"metallicFactor":0.0,"roughnessFactor":1.0}}],"meshes":[{"name":"Cylinder","primitives":[{"attributes":{"NORMAL":2,"POSITION":0,"TANGENT":1,"TEXCOORD_0":3,"TEXCOORD_1":4},"indices":5,"material":0,"mode":4}]}],"nodes":[{"children":[1],"name":"prp_candles_fake_shadow"},{"mesh":0,"name":"candle_shadows"}],"scene":0,"scenes":[{"name":"prp_candles_fake_shadow","nodes":[0]}]}