{"accessors":[{"bufferView":0,"componentType":5126,"count":119,"max":[0.7647181,0.98326254,0.18328866],"min":[-0.7647181,-0.19937682,-0.0071458668],"normalized":false,"type":"VEC3"},{"bufferView":1,"componentType":5126,"count":119,"max":[1.0,0.7228062,0.9824102,1.0],"min":[-0.9331317,-1.0,-0.9999806,-1.0],"normalized":false,"type":"VEC4"},{"bufferView":2,"componentType":5126,"count":119,"max":[0.93888116,0.70711595,1.0],"min":[-0.9387911,-0.99997234,-0.99460906],"normalized":false,"type":"VEC3"},{"bufferView":3,"componentType":5126,"count":119,"max":[0.83334094,0.98817426],"min":[0.011810483,0.011810483],"normalized":false,"type":"VEC2"},{"bufferView":4,"componentType":5121,"count":351,"max":[118],"min":[0],"normalized":false,"type":"SCALAR"}],"asset":{"copyright":"The Creators of 'Friday Night Funkin': Lullaby'","generator":"GDRE Tools vv2.6.3","version":"2.0"},"bufferViews":[{"buffer":0,"byteLength":1428,"byteStride":12,"target":34962},{"buffer":0,"byteLength":1904,"byteOffset":1428,"byteStride":16,"target":34962},{"buffer":0,"byteLength":1428,"byteOffset":3332,"byteStride":12,"target":34962},{"buffer":0,"byteLength":952,"byteOffset":4760,"byteStride":8,"target":34962},{"buffer":0,"byteLength":351,"byteOffset":5712,"target":34963},{"buffer":0,"byteLength":825409,"byteOffset":6063}],"buffers":[{"byteLength":831472,"uri":"prp_cartridge0.bin"}],"extensionsUsed":["GODOT_single_root","KHR_materials_unlit"],"images":[{"bufferView":5,"mimeType":"image/png","name":"hypno_cartridge"}],"materials":[{"extensions":{"KHR_materials_unlit":{}},"name":"cartridge_body","pbrMetallicRoughness":{"baseColorFactor":[1.0,1.0,1.0,1.0],"baseColorTexture":{"index":0},"metallicFactor":0.0,"roughnessFactor":1.0}}],"meshes":[{"name":"Cube_008","primitives":[{"attributes":{"NORMAL":2,"POSITION":0,"TANGENT":1,"TEXCOORD_0":3},"indices":4,"material":0,"mode":4}]}],"nodes":[{"children":[1],"name":"prp_cartridge"},{"mesh":0,"name":"Cartridge","rotation":[0.0,-0.6121268,0.0,0.7907596],"scale":[0.11491818,0.11491817,0.11491818],"translation":[3.2306578,1.7963716,3.0894601]}],"samplers":[{"magFilter":9729,"minFilter":9987,"wrapS":10497,"wrapT":10497}],"scene":0,"scenes":[{"name":"prp_cartridge","nodes":[0]}],"textures":[{"sampler":0,"source":0}]}