{"accessors":[{"bufferView":0,"componentType":5126,"count":272,"max":[0.39366752,0.16917166,0.71723574],"min":[0.03408365,-0.15936187,0.26718882],"normalized":false,"type":"VEC3"},{"bufferView":1,"componentType":5126,"count":272,"max":[1.0,0.84736073,0.9766973,1.0],"min":[-0.8914651,-0.8409527,-0.97633594,-1.0],"normalized":false,"type":"VEC4"},{"bufferView":2,"componentType":5126,"count":272,"max":[0.9979386,0.94117767,0.91951406],"min":[-0.96045405,-1.0,-1.0],"normalized":false,"type":"VEC3"},{"bufferView":3,"componentType":5126,"count":272,"max":[1.0,1.0],"min":[0.0,0.6561074],"normalized":false,"type":"VEC2"},{"bufferView":4,"componentType":5123,"count":816,"max":[271],"min":[0],"normalized":false,"type":"SCALAR"}],"asset":{"copyright":"The Creators of 'Friday Night Funkin': Lullaby'","generator":"GDRE Tools vv2.6.3","version":"2.0"},"bufferViews":[{"buffer":0,"byteLength":3264,"byteStride":12,"target":34962},{"buffer":0,"byteLength":4352,"byteOffset":3264,"byteStride":16,"target":34962},{"buffer":0,"byteLength":3264,"byteOffset":7616,"byteStride":12,"target":34962},{"buffer":0,"byteLength":2176,"byteOffset":10880,"byteStride":8,"target":34962},{"buffer":0,"byteLength":1632,"byteOffset":13056,"target":34963},{"buffer":0,"byteLength":589449,"byteOffset":14688}],"buffers":[{"byteLength":604137,"uri":"prp_chimera_photos0.bin"}],"extensionsUsed":["GODOT_single_root"],"images":[{"bufferView":5,"mimeType":"image/png","name":"pinboard"}],"materials":[{"name":"pinboard","pbrMetallicRoughness":{"baseColorFactor":[1.0,1.0,1.0,1.0],"baseColorTexture":{"index":0},"metallicFactor":0.0,"roughnessFactor":1.0}}],"meshes":[{"name":"Cylinder_012","primitives":[{"attributes":{"NORMAL":2,"POSITION":0,"TANGENT":1,"TEXCOORD_0":3},"indices":4,"material":0,"mode":4}]}],"nodes":[{"children":[1],"name":"prp_chimera_photos"},{"mesh":0,"name":"ChimeraPics","rotation":[0.07955273,-0.08118349,-0.4434407,0.8890675],"translation":[-4.0449224,1.7535657,3.8374772]}],"samplers":[{"magFilter":9729,"minFilter":9987,"wrapS":10497,"wrapT":10497}],"scene":0,"scenes":[{"name":"prp_chimera_photos","nodes":[0]}],"textures":[{"sampler":0,"source":0}]}