{"accessors":[{"bufferView":0,"componentType":5126,"count":12,"max":[1.0,4.470356e-08,1.4901369e-08,0.0,4.4703487e-08,-7.45058e-09,1.0,0.0,1.4901161e-08,4.5076913e-06,-7.450581e-09,0.0,4.0496616,2.1720479,3.309667,1.0],"min":[1.0,1.4901163e-08,-4.4703484e-08,0.0,4.4703484e-08,-1.0000002,-4.6269e-06,0.0,1.490116e-08,-1.0000001,-1.0000001,0.0,-2.3841858e-07,4.768372e-07,1.4210854e-14,1.0],"normalized":false,"type":"MAT4"},{"bufferView":1,"componentType":5126,"count":80,"max":[-3.9753525,2.2037988,3.3264413],"min":[-4.058658,1.6043154,3.2896793],"normalized":false,"type":"VEC3"},{"bufferView":2,"componentType":5126,"count":80,"max":[0.74663967,0.7645793,1.0,1.0],"min":[-0.8622456,-0.9451282,-0.95106953,-1.0],"normalized":false,"type":"VEC4"},{"bufferView":3,"componentType":5126,"count":80,"max":[1.0,0.95245653,0.8090048],"min":[-0.945112,-0.93588054,-1.0],"normalized":false,"type":"VEC3"},{"bufferView":4,"componentType":5126,"count":80,"max":[0.14143118,0.7487711],"min":[0.006559585,0.53868866],"normalized":false,"type":"VEC2"},{"bufferView":5,"componentType":5121,"count":80,"max":[11,9,3,6],"min":[0,0,0,0],"normalized":false,"type":"VEC4"},{"bufferView":6,"componentType":5126,"count":80,"max":[1.0,0.5,0.00697348,0.00697348],"min":[0.4930265,0.0,0.0,0.0],"normalized":false,"type":"VEC4"},{"bufferView":7,"componentType":5121,"count":240,"max":[79],"min":[0],"normalized":false,"type":"SCALAR"}],"asset":{"copyright":"The Creators of 'Friday Night Funkin': Lullaby'","generator":"GDRE Tools vv2.6.3","version":"2.0"},"bufferViews":[{"buffer":0,"byteLength":768},{"buffer":0,"byteLength":960,"byteOffset":768,"byteStride":12,"target":34962},{"buffer":0,"byteLength":1280,"byteOffset":1728,"byteStride":16,"target":34962},{"buffer":0,"byteLength":960,"byteOffset":3008,"byteStride":12,"target":34962},{"buffer":0,"byteLength":640,"byteOffset":3968,"byteStride":8,"target":34962},{"buffer":0,"byteLength":320,"byteOffset":4608,"byteStride":4,"target":34962},{"buffer":0,"byteLength":1280,"byteOffset":4928,"byteStride":16,"target":34962},{"buffer":0,"byteLength":240,"byteOffset":6208,"target":34963},{"buffer":0,"byteLength":589449,"byteOffset":6448}],"buffers":[{"byteLength":595897,"uri":"prp_pendulum_string0.bin"}],"extensionsUsed":["GODOT_single_root"],"images":[{"bufferView":8,"mimeType":"image/png","name":"pinboard"}],"materials":[{"doubleSided":true,"name":"pinboard","pbrMetallicRoughness":{"baseColorFactor":[1.0,1.0,1.0,1.0],"baseColorTexture":{"index":0},"metallicFactor":0.0,"roughnessFactor":1.0}}],"meshes":[{"name":"Cylinder_013","primitives":[{"attributes":{"JOINTS_0":5,"NORMAL":3,"POSITION":1,"TANGENT":2,"TEXCOORD_0":4,"WEIGHTS_0":6},"indices":7,"material":0,"mode":4}]}],"nodes":[{"children":[1],"name":"prp_pendulum_string"},{"children":[2,13,14],"name":"StringSLRig"},{"children":[3],"name":"SLString0","rotation":[1.0,0.0,-6.617445e-24,-2.9802322e-08],"translation":[-4.0496616,2.1720471,3.3096573]},{"children":[4],"name":"SLString1","translation":[1.4410857e-07,0.051612064,-3.1456173e-07]},{"children":[5],"name":"SLString2","translation":[1.4180134e-07,0.051612064,-3.1417719e-07]},{"children":[6],"name":"SLString3","translation":[1.394941e-07,0.051611856,-3.338742e-07]},{"children":[7],"name":"SLString4","translation":[1.3718687e-07,0.051612183,-3.13409e-07]},{"children":[8],"name":"SLString5","translation":[1.3487963e-07,0.051611915,-5.45449e-08]},{"children":[9],"name":"SLString6","translation":[1.3257241e-07,0.051611826,-7.42196e-08]},{"children":[10],"name":"SLString7","translation":[1.3026516e-07,0.051612064,-7.3835906e-08]},{"children":[11],"name":"SLString8","translation":[1.2795793e-07,0.051611826,-7.345137e-08]},{"children":[12],"name":"SLString9","translation":[1.256507e-07,0.051612064,-7.306683e-08]},{"name":"SLString10","translation":[1.2334347e-07,0.051611945,-7.268229e-08]},{"name":"neutral_bone","rotation":[-0.70710677,0.0,0.0,0.70710677]},{"mesh":0,"name":"StringSL","skin":0}],"samplers":[{"magFilter":9729,"minFilter":9987,"wrapS":10497,"wrapT":10497}],"scene":0,"scenes":[{"name":"prp_pendulum_string","nodes":[0]}],"skins":[{"inverseBindMatrices":0,"joints":[2,3,4,5,6,7,8,9,10,11,12,13],"name":"Skin"}],"textures":[{"sampler":0,"source":0}]}