{"accessors":[{"bufferView":0,"componentType":5126,"count":18,"max":[0.8504305,0.8504308,0.5260874,0.0,0.0010953946,1.0,1.0,0.0,0.85043067,0.5260875,-7.930297e-09,0.0,0.71752506,1.3595549,2.0367577,1.0],"min":[-0.8504307,1.0981524e-08,-0.00035522968,0.0,-4.4703484e-08,-1.4008326e-07,-1.0,0.0,-0.5260878,-0.8504305,-0.8504306,0.0,-1.202266,-1.264727,-1.7193108,1.0],"normalized":false,"type":"MAT4"},{"bufferView":1,"componentType":5126,"count":4667,"max":[-0.63826466,2.231997,1.2150159],"min":[-1.8409364,1.264727,0.060919106],"normalized":false,"type":"VEC3"},{"bufferView":2,"componentType":5126,"count":4667,"max":[1.0,1.0,0.9993366,1.0],"min":[-0.99835324,-1.0,-0.9970829,-1.0],"normalized":false,"type":"VEC4"},{"bufferView":3,"componentType":5126,"count":4667,"max":[0.99996483,1.0,0.9983429],"min":[-0.9886233,-1.0,-0.998344],"normalized":false,"type":"VEC3"},{"bufferView":4,"componentType":5126,"count":4667,"max":[0.9936047,0.9889723],"min":[0.004688735,0.012409747],"normalized":false,"type":"VEC2"},{"bufferView":5,"componentType":5121,"count":4667,"max":[17,17,0,0],"min":[1,0,0,0],"normalized":false,"type":"VEC4"},{"bufferView":6,"componentType":5126,"count":4667,"max":[1.0,0.49926758,0.0,0.0],"min":[0.5007324,0.0,0.0,0.0],"normalized":false,"type":"VEC4"},{"bufferView":7,"componentType":5123,"count":13485,"max":[4666],"min":[0],"normalized":false,"type":"SCALAR"},{"bufferView":8,"componentType":5126,"count":4,"max":[-0.81301373,1.8667526,0.94836915],"min":[-0.8928004,1.6288745,0.8193925],"normalized":false,"type":"VEC3"},{"bufferView":9,"componentType":5126,"count":4,"max":[0.52612084,0.0,-0.8504098,1.0],"min":[0.52612084,0.0,-0.8504098,1.0],"normalized":false,"type":"VEC4"},{"bufferView":10,"componentType":5126,"count":4,"max":[0.8504191,-2.1004425e-05,0.5261059],"min":[0.8504191,-2.1004425e-05,0.5261059],"normalized":false,"type":"VEC3"},{"bufferView":11,"componentType":5126,"count":4,"max":[1.0,1.0],"min":[0.0,0.0],"normalized":false,"type":"VEC2"},{"bufferView":12,"componentType":5121,"count":4,"max":[17,0,0,0],"min":[17,0,0,0],"normalized":false,"type":"VEC4"},{"bufferView":13,"componentType":5126,"count":4,"max":[1.0,0.0,0.0,0.0],"min":[1.0,0.0,0.0,0.0],"normalized":false,"type":"VEC4"},{"bufferView":14,"componentType":5121,"count":6,"max":[3],"min":[0],"normalized":false,"type":"SCALAR"},{"bufferView":15,"componentType":5126,"count":4,"max":[-1.1331968,1.6969427,0.8223264],"min":[-1.4808034,1.6969427,0.49644852],"normalized":false,"type":"VEC3"},{"bufferView":16,"componentType":5126,"count":4,"max":[-0.85048586,0.0,-0.52599794,1.0],"min":[-0.85048586,0.0,-0.52599794,1.0],"normalized":false,"type":"VEC4"},{"bufferView":17,"componentType":5126,"count":4,"max":[0.0,1.0,-1.5259022e-05],"min":[0.0,1.0,-1.5259022e-05],"normalized":false,"type":"VEC3"},{"bufferView":18,"componentType":5126,"count":4,"max":[1.0,1.0],"min":[0.0,0.0],"normalized":false,"type":"VEC2"},{"bufferView":19,"componentType":5121,"count":4,"max":[1,0,0,0],"min":[1,0,0,0],"normalized":false,"type":"VEC4"},{"bufferView":20,"componentType":5126,"count":4,"max":[-1.2422017,1.9137744,1.1749184],"min":[-1.7171309,1.7639055,0.881121],"normalized":false,"type":"VEC3"},{"bufferView":21,"componentType":5126,"count":4,"max":[0.8504191,-2.1004425e-05,0.5261059,1.0],"min":[0.8504191,-2.1004425e-05,0.5261059,1.0],"normalized":false,"type":"VEC4"},{"bufferView":22,"componentType":5126,"count":4,"max":[-0.5261059,-2.1004425e-05,0.8504191],"min":[-0.5261059,-2.1004425e-05,0.8504191],"normalized":false,"type":"VEC3"}],"asset":{"copyright":"The Creators of 'Friday Night Funkin': Lullaby'","generator":"GDRE Tools vv2.6.3","version":"2.0"},"bufferViews":[{"buffer":0,"byteLength":1152},{"buffer":0,"byteLength":56004,"byteOffset":1152,"byteStride":12,"target":34962},{"buffer":0,"byteLength":74672,"byteOffset":57156,"byteStride":16,"target":34962},{"buffer":0,"byteLength":56004,"byteOffset":131828,"byteStride":12,"target":34962},{"buffer":0,"byteLength":37336,"byteOffset":187832,"byteStride":8,"target":34962},{"buffer":0,"byteLength":18668,"byteOffset":225168,"byteStride":4,"target":34962},{"buffer":0,"byteLength":74672,"byteOffset":243836,"byteStride":16,"target":34962},{"buffer":0,"byteLength":26970,"byteOffset":318508,"target":34963},{"buffer":0,"byteLength":48,"byteOffset":345480,"byteStride":12,"target":34962},{"buffer":0,"byteLength":64,"byteOffset":345528,"byteStride":16,"target":34962},{"buffer":0,"byteLength":48,"byteOffset":345592,"byteStride":12,"target":34962},{"buffer":0,"byteLength":32,"byteOffset":345640,"byteStride":8,"target":34962},{"buffer":0,"byteLength":16,"byteOffset":345672,"byteStride":4,"target":34962},{"buffer":0,"byteLength":64,"byteOffset":345688,"byteStride":16,"target":34962},{"buffer":0,"byteLength":6,"byteOffset":345752,"target":34963},{"buffer":0,"byteLength":48,"byteOffset":345760,"byteStride":12,"target":34962},{"buffer":0,"byteLength":64,"byteOffset":345808,"byteStride":16,"target":34962},{"buffer":0,"byteLength":48,"byteOffset":345872,"byteStride":12,"target":34962},{"buffer":0,"byteLength":32,"byteOffset":345920,"byteStride":8,"target":34962},{"buffer":0,"byteLength":16,"byteOffset":345952,"byteStride":4,"target":34962},{"buffer":0,"byteLength":48,"byteOffset":345968,"byteStride":12,"target":34962},{"buffer":0,"byteLength":64,"byteOffset":346016,"byteStride":16,"target":34962},{"buffer":0,"byteLength":48,"byteOffset":346080,"byteStride":12,"target":34962},{"buffer":0,"byteLength":1157419,"byteOffset":346128},{"buffer":0,"byteLength":702343,"byteOffset":1503547},{"buffer":0,"byteLength":792319,"byteOffset":2205890}],"buffers":[{"byteLength":2998209,"uri":"prp_register0.bin"}],"extensionsUsed":["GODOT_single_root","KHR_materials_emissive_strength"],"images":[{"bufferView":23,"mimeType":"image/png","name":"cash_register"},{"bufferView":24,"mimeType":"image/png","name":"cash_register_orm"},{"bufferView":25,"mimeType":"image/png","name":"cash_register_normal"}],"materials":[{"name":"cash_register","normalTexture":{"index":2,"scale":1.0},"pbrMetallicRoughness":{"baseColorFactor":[1.0,1.0,1.0,1.0],"baseColorTexture":{"index":0},"metallicFactor":1.0,"metallicRoughnessTexture":{"index":1},"roughnessFactor":1.0}},{"emissiveFactor":[1.0547068,0.69008625,1.0547068],"extensions":{"KHR_materials_emissive_strength":{"emissiveStrength":1.25}},"name":"cash_register_screen1","pbrMetallicRoughness":{"baseColorFactor":[0.8,0.8,0.8,1.0],"metallicFactor":0.0,"roughnessFactor":0.5}},{"emissiveFactor":[1.0547068,0.69008625,1.0547068],"extensions":{"KHR_materials_emissive_strength":{"emissiveStrength":1.25}},"name":"cash_register_screen2","pbrMetallicRoughness":{"baseColorFactor":[0.8,0.8,0.8,1.0],"metallicFactor":0.0,"roughnessFactor":0.5}},{"emissiveFactor":[1.0547068,0.69008625,1.0547068],"extensions":{"KHR_materials_emissive_strength":{"emissiveStrength":1.25}},"name":"cash_register_screen3","pbrMetallicRoughness":{"baseColorFactor":[0.8,0.8,0.8,1.0],"metallicFactor":0.0,"roughnessFactor":0.5}}],"meshes":[{"name":"Cube_003","primitives":[{"attributes":{"JOINTS_0":5,"NORMAL":3,"POSITION":1,"TANGENT":2,"TEXCOORD_0":4,"WEIGHTS_0":6},"indices":7,"material":0,"mode":4},{"attributes":{"JOINTS_0":12,"NORMAL":10,"POSITION":8,"TANGENT":9,"TEXCOORD_0":11,"WEIGHTS_0":13},"indices":14,"material":1,"mode":4},{"attributes":{"JOINTS_0":19,"NORMAL":17,"POSITION":15,"TANGENT":16,"TEXCOORD_0":18,"WEIGHTS_0":13},"indices":14,"material":2,"mode":4},{"attributes":{"JOINTS_0":19,"NORMAL":22,"POSITION":20,"TANGENT":21,"TEXCOORD_0":11,"WEIGHTS_0":13},"indices":14,"material":3,"mode":4}]}],"nodes":[{"children":[1],"name":"prp_register"},{"children":[2,20],"name":"CashRegisterRig","rotation":[0.0,-0.27346823,0.0,0.96188104],"translation":[-1.32545,1.37258,0.778726]},{"children":[3],"name":"Root","rotation":[-0.70710677,1.2644057e-07,1.2644057e-07,0.70710677],"translation":[8.940697e-08,-0.107853174,0.0]},{"children":[4,5,6,7,8,9,10,11,12,13,14,15,16,17],"name":"CashRegister","rotation":[-5.2683564e-08,0.70710677,0.70710677,-5.2683564e-08]},{"name":"Drawer","rotation":[0.7071068,1.123822e-08,9.553193e-08,0.7071067],"translation":[8.9406974e-08,0.16169976,0.3746431]},{"name":"Button11","rotation":[0.6170047,-9.46755e-08,1.2976088e-07,0.78695947],"translation":[-0.21753702,0.3635144,0.40621322]},{"name":"Button8","rotation":[0.35559914,-3.188647e-08,-1.1612699e-08,0.93463856],"translation":[-0.21753699,0.42079517,0.3718515]},{"name":"Button5","rotation":[0.54595566,-8.892881e-09,-7.4514217e-10,0.8378141],"translation":[-0.21753702,0.49649462,0.30583772]},{"name":"Button2","rotation":[0.34878537,-3.9749047e-08,-1.1536534e-08,0.93720263],"translation":[-0.21753702,0.54994595,0.26719788]},{"name":"Button12","rotation":[0.6170047,2.7929295e-07,4.239702e-07,0.78695947],"translation":[-0.14569,0.3635144,0.40621322]},{"name":"Button9","rotation":[0.35559914,-3.188647e-08,-1.1612699e-08,0.93463856],"translation":[-0.14569,0.42079517,0.37185156]},{"name":"Button6","rotation":[0.54595566,8.4482345e-08,6.433784e-08,0.8378141],"translation":[-0.14569,0.49649462,0.30583784]},{"name":"Button3","rotation":[0.34878537,-3.9749047e-08,-1.1536534e-08,0.93720263],"translation":[-0.14568993,0.54994595,0.26719788]},{"name":"Button10","rotation":[0.6170047,5.5385186e-07,4.443464e-07,0.78695947],"translation":[-0.28938496,0.3635144,0.40621316]},{"name":"Button7","rotation":[0.35559914,-3.188647e-08,-1.1612699e-08,0.93463856],"translation":[-0.28938496,0.42079517,0.37185147]},{"name":"Button4","rotation":[0.54595566,8.4482345e-08,6.433784e-08,0.8378141],"translation":[-0.28938496,0.49649462,0.30583775]},{"name":"Button1","rotation":[0.34878537,-1.5899617e-07,3.049395e-07,0.93720263],"translation":[-0.289385,0.54994595,0.26719788]},{"children":[18],"name":"ScreenHinge1","rotation":[-0.4994524,0.49999964,0.4999997,0.50054765],"translation":[-0.35646328,0.45451412,0.15917191]},{"children":[19],"name":"ScreenHinge2","rotation":[-0.00054766616,0.00054768514,5.513501e-07,0.9999997],"translation":[-9.359792e-08,0.06361333,-1.2910459e-07]},{"name":"ScreenSwivel","translation":[4.383375e-08,0.020832628,-3.032422e-08]},{"mesh":0,"name":"Register","skin":0}],"samplers":[{"magFilter":9729,"minFilter":9987,"wrapS":10497,"wrapT":10497}],"scene":0,"scenes":[{"name":"prp_register","nodes":[0]}],"skins":[{"inverseBindMatrices":0,"joints":[2,3,4,5,6,7,8,9,10,11,12,13,14,15,16,17,18,19],"name":"Skin"}],"textures":[{"sampler":0,"source":0},{"sampler":0,"source":1},{"sampler":0,"source":2}]}