{"accessors":[{"bufferView":0,"componentType":5126,"count":667,"max":[-0.053030908,0.23717517,0.24723132],"min":[-0.2501761,-0.029892892,0.04972212],"normalized":false,"type":"VEC3"},{"bufferView":1,"componentType":5126,"count":667,"max":[0.9535731,0.9498504,0.9673607,1.0],"min":[-0.99849606,-0.97676194,-0.99337417,-1.0],"normalized":false,"type":"VEC4"},{"bufferView":2,"componentType":5126,"count":667,"max":[0.99989873,0.9999572,0.9996247],"min":[-0.9981337,-0.58877707,-0.9991287],"normalized":false,"type":"VEC3"},{"bufferView":3,"componentType":5126,"count":667,"max":[0.53402,0.30629435],"min":[0.025009537,0.054352637],"normalized":false,"type":"VEC2"},{"bufferView":4,"componentType":5123,"count":3774,"max":[666],"min":[0],"normalized":false,"type":"SCALAR"},{"bufferView":5,"componentType":5126,"count":16,"max":[-0.14395447,0.23882255,0.14389339],"min":[-0.17634477,0.17685309,0.111503094],"normalized":false,"type":"VEC3"},{"bufferView":6,"componentType":5126,"count":16,"max":[0.9996736,3.018643e-05,-0.02554796,1.0],"min":[-0.02557194,-1.1172189e-09,-0.99967456,-1.0],"normalized":false,"type":"VEC4"},{"bufferView":7,"componentType":5126,"count":16,"max":[0.999673,1.5649224e-05,0.9996736],"min":[-0.9996746,-3.0841307e-05,-0.99967337],"normalized":false,"type":"VEC3"},{"bufferView":8,"componentType":5126,"count":16,"max":[0.35159838,0.34876022],"min":[0.31816587,0.2661326],"normalized":false,"type":"VEC2"},{"bufferView":9,"componentType":5121,"count":24,"max":[15],"min":[0],"normalized":false,"type":"SCALAR"},{"bufferView":10,"componentType":5126,"count":647,"max":[0.09018372,0.19008623,0.10775416],"min":[-0.09977643,-0.027637433,-0.10053467],"normalized":false,"type":"VEC3"},{"bufferView":11,"componentType":5126,"count":647,"max":[0.88611335,0.9132895,0.7631072,1.0],"min":[-0.99861944,-0.9943661,-0.999144,1.0],"normalized":false,"type":"VEC4"},{"bufferView":12,"componentType":5126,"count":647,"max":[0.99995095,0.99957937,0.99980646],"min":[-0.99999076,-0.6663304,-0.99999535],"normalized":false,"type":"VEC3"},{"bufferView":13,"componentType":5126,"count":647,"max":[0.5418784,0.66048676],"min":[0.029068436,0.39513236],"normalized":false,"type":"VEC2"},{"bufferView":14,"componentType":5123,"count":3654,"max":[646],"min":[0],"normalized":false,"type":"SCALAR"},{"bufferView":15,"componentType":5126,"count":16,"max":[0.007698402,0.19058412,0.013740286],"min":[-0.024702333,0.12861465,-0.018660456],"normalized":false,"type":"VEC3"},{"bufferView":16,"componentType":5126,"count":16,"max":[0.99999726,1.5258976e-05,0.002413832,1.0],"min":[0.0024208562,-3.055473e-05,-0.9999971,-1.0],"normalized":false,"type":"VEC4"},{"bufferView":17,"componentType":5126,"count":16,"max":[0.9999971,1.5222082e-05,0.99999726],"min":[-0.999997,-1.2429987e-07,-0.99999714],"normalized":false,"type":"VEC3"},{"bufferView":18,"componentType":5126,"count":780,"max":[0.25250328,0.11726399,0.2219157],"min":[0.02136161,-0.028038155,-0.0040050745],"normalized":false,"type":"VEC3"},{"bufferView":19,"componentType":5126,"count":780,"max":[0.58299685,0.9997454,0.60865045,1.0],"min":[-0.97423136,-0.99929786,-0.9740341,1.0],"normalized":false,"type":"VEC4"},{"bufferView":20,"componentType":5126,"count":780,"max":[0.9994961,0.99662125,0.99748766],"min":[-0.9993644,-0.4360539,-0.99642414],"normalized":false,"type":"VEC3"},{"bufferView":21,"componentType":5126,"count":780,"max":[0.46082246,0.98121613],"min":[0.034317542,0.6849317],"normalized":false,"type":"VEC2"},{"bufferView":22,"componentType":5123,"count":4440,"max":[779],"min":[0],"normalized":false,"type":"SCALAR"},{"bufferView":23,"componentType":5126,"count":16,"max":[0.14209121,0.12942399,0.11017058],"min":[0.1098801,0.06745447,0.07795946],"normalized":false,"type":"VEC3"},{"bufferView":24,"componentType":5126,"count":16,"max":[0.99414325,2.8846509e-05,-0.108069934,1.0],"min":[-0.108103245,-4.730819e-09,-0.994155,-1.0],"normalized":false,"type":"VEC4"},{"bufferView":25,"componentType":5126,"count":16,"max":[0.9941397,1.6908572e-05,0.9941423],"min":[-0.9941549,-3.201788e-05,-0.9941433],"normalized":false,"type":"VEC3"}],"asset":{"copyright":"The Creators of 'Friday Night Funkin': Lullaby'","generator":"GDRE Tools vv2.6.3","version":"2.0"},"bufferViews":[{"buffer":0,"byteLength":8004,"byteStride":12,"target":34962},{"buffer":0,"byteLength":10672,"byteOffset":8004,"byteStride":16,"target":34962},{"buffer":0,"byteLength":8004,"byteOffset":18676,"byteStride":12,"target":34962},{"buffer":0,"byteLength":5336,"byteOffset":26680,"byteStride":8,"target":34962},{"buffer":0,"byteLength":7548,"byteOffset":32016,"target":34963},{"buffer":0,"byteLength":192,"byteOffset":39564,"byteStride":12,"target":34962},{"buffer":0,"byteLength":256,"byteOffset":39756,"byteStride":16,"target":34962},{"buffer":0,"byteLength":192,"byteOffset":40012,"byteStride":12,"target":34962},{"buffer":0,"byteLength":128,"byteOffset":40204,"byteStride":8,"target":34962},{"buffer":0,"byteLength":24,"byteOffset":40332,"target":34963},{"buffer":0,"byteLength":7764,"byteOffset":40356,"byteStride":12,"target":34962},{"buffer":0,"byteLength":10352,"byteOffset":48120,"byteStride":16,"target":34962},{"buffer":0,"byteLength":7764,"byteOffset":58472,"byteStride":12,"target":34962},{"buffer":0,"byteLength":5176,"byteOffset":66236,"byteStride":8,"target":34962},{"buffer":0,"byteLength":7308,"byteOffset":71412,"target":34963},{"buffer":0,"byteLength":192,"byteOffset":78720,"byteStride":12,"target":34962},{"buffer":0,"byteLength":256,"byteOffset":78912,"byteStride":16,"target":34962},{"buffer":0,"byteLength":192,"byteOffset":79168,"byteStride":12,"target":34962},{"buffer":0,"byteLength":9360,"byteOffset":79360,"byteStride":12,"target":34962},{"buffer":0,"byteLength":12480,"byteOffset":88720,"byteStride":16,"target":34962},{"buffer":0,"byteLength":9360,"byteOffset":101200,"byteStride":12,"target":34962},{"buffer":0,"byteLength":6240,"byteOffset":110560,"byteStride":8,"target":34962},{"buffer":0,"byteLength":8880,"byteOffset":116800,"target":34963},{"buffer":0,"byteLength":192,"byteOffset":125680,"byteStride":12,"target":34962},{"buffer":0,"byteLength":256,"byteOffset":125872,"byteStride":16,"target":34962},{"buffer":0,"byteLength":192,"byteOffset":126128,"byteStride":12,"target":34962},{"buffer":0,"byteLength":14268,"byteOffset":126320},{"buffer":0,"byteLength":8155,"byteOffset":140588},{"buffer":0,"byteLength":47128,"byteOffset":148743},{"buffer":0,"byteLength":474954,"byteOffset":195871}],"buffers":[{"byteLength":670825,"uri":"prp_candles0.bin"}],"extensionsUsed":["GODOT_single_root"],"images":[{"bufferView":26,"mimeType":"image/png","name":"candle"},{"bufferView":27,"mimeType":"image/png","name":"candle_roughness"},{"bufferView":28,"mimeType":"image/png","name":"candle_normal"},{"bufferView":29,"mimeType":"image/png","name":"misc_textures"}],"materials":[{"alphaCutoff":0.5,"alphaMode":"MASK","name":"candles","normalTexture":{"index":2,"scale":1.0},"pbrMetallicRoughness":{"baseColorFactor":[1.0,1.0,1.0,1.0],"baseColorTexture":{"index":0},"metallicFactor":0.0,"metallicRoughnessTexture":{"index":1},"roughnessFactor":1.0}},{"alphaCutoff":0.5,"alphaMode":"MASK","name":"misc_textures","pbrMetallicRoughness":{"baseColorFactor":[1.0,1.0,1.0,1.0],"baseColorTexture":{"index":3},"metallicFactor":0.0,"roughnessFactor":1.0}}],"meshes":[{"name":"Cylinder_001","primitives":[{"attributes":{"NORMAL":2,"POSITION":0,"TANGENT":1,"TEXCOORD_0":3},"indices":4,"material":0,"mode":4},{"attributes":{"NORMAL":7,"POSITION":5,"TANGENT":6,"TEXCOORD_0":8},"indices":9,"material":1,"mode":4}]},{"name":"Cylinder_027","primitives":[{"attributes":{"NORMAL":12,"POSITION":10,"TANGENT":11,"TEXCOORD_0":13},"indices":14,"material":0,"mode":4},{"attributes":{"NORMAL":17,"POSITION":15,"TANGENT":16,"TEXCOORD_0":8},"indices":9,"material":1,"mode":4}]},{"name":"Cylinder_026","primitives":[{"attributes":{"NORMAL":20,"POSITION":18,"TANGENT":19,"TEXCOORD_0":21},"indices":22,"material":0,"mode":4},{"attributes":{"NORMAL":25,"POSITION":23,"TANGENT":24,"TEXCOORD_0":8},"indices":9,"material":1,"mode":4}]},{"name":"Cylinder_018","primitives":[{"attributes":{"NORMAL":2,"POSITION":0,"TANGENT":1,"TEXCOORD_0":3},"indices":4,"material":0,"mode":4},{"attributes":{"NORMAL":7,"POSITION":5,"TANGENT":6,"TEXCOORD_0":8},"indices":9,"material":1,"mode":4}]},{"name":"Cylinder_006","primitives":[{"attributes":{"NORMAL":12,"POSITION":10,"TANGENT":11,"TEXCOORD_0":13},"indices":14,"material":0,"mode":4},{"attributes":{"NORMAL":17,"POSITION":15,"TANGENT":16,"TEXCOORD_0":8},"indices":9,"material":1,"mode":4}]},{"name":"Cylinder_023","primitives":[{"attributes":{"NORMAL":12,"POSITION":10,"TANGENT":11,"TEXCOORD_0":13},"indices":14,"material":0,"mode":4},{"attributes":{"NORMAL":17,"POSITION":15,"TANGENT":16,"TEXCOORD_0":8},"indices":9,"material":1,"mode":4}]},{"name":"Cylinder_022","primitives":[{"attributes":{"NORMAL":20,"POSITION":18,"TANGENT":19,"TEXCOORD_0":21},"indices":22,"material":0,"mode":4},{"attributes":{"NORMAL":25,"POSITION":23,"TANGENT":24,"TEXCOORD_0":8},"indices":9,"material":1,"mode":4}]},{"name":"Cylinder_025","primitives":[{"attributes":{"NORMAL":20,"POSITION":18,"TANGENT":19,"TEXCOORD_0":21},"indices":22,"material":0,"mode":4},{"attributes":{"NORMAL":25,"POSITION":23,"TANGENT":24,"TEXCOORD_0":8},"indices":9,"material":1,"mode":4}]},{"name":"Cylinder_021","primitives":[{"attributes":{"NORMAL":2,"POSITION":0,"TANGENT":1,"TEXCOORD_0":3},"indices":4,"material":0,"mode":4},{"attributes":{"NORMAL":7,"POSITION":5,"TANGENT":6,"TEXCOORD_0":8},"indices":9,"material":1,"mode":4}]},{"name":"Cylinder_020","primitives":[{"attributes":{"NORMAL":12,"POSITION":10,"TANGENT":11,"TEXCOORD_0":13},"indices":14,"material":0,"mode":4},{"attributes":{"NORMAL":17,"POSITION":15,"TANGENT":16,"TEXCOORD_0":8},"indices":9,"material":1,"mode":4}]},{"name":"Cylinder_019","primitives":[{"attributes":{"NORMAL":20,"POSITION":18,"TANGENT":19,"TEXCOORD_0":21},"indices":22,"material":0,"mode":4},{"attributes":{"NORMAL":25,"POSITION":23,"TANGENT":24,"TEXCOORD_0":8},"indices":9,"material":1,"mode":4}]}],"nodes":[{"children":[1,2,3,4,5,6,7,8,9,10,11],"name":"prp_candles"},{"mesh":0,"name":"CandleB1","rotation":[0.0,0.7824557,0.0,0.62270623],"translation":[2.7942853,1.5429432,2.589533]},{"mesh":1,"name":"CandleB2","translation":[2.4895084,2.112568,-1.611194]},{"mesh":2,"name":"CandleB3","translation":[2.4895084,2.112568,-1.611194]},{"mesh":3,"name":"CandleL1","rotation":[0.0,0.7824557,0.0,0.62270623],"translation":[-3.5867689,1.0206741,4.2845016]},{"mesh":4,"name":"CandleL2","rotation":[0.0,0.7824557,0.0,0.62270623],"translation":[-3.5867689,1.0206741,4.2845016]},{"mesh":5,"name":"CandleL3","rotation":[0.0,-0.821469,0.0,0.5702532],"translation":[-2.9858592,1.0225375,3.073496]},{"mesh":6,"name":"CandleL4","rotation":[0.0,-0.821469,0.0,0.5702532],"translation":[-2.9858592,1.0225375,3.073496]},{"mesh":7,"name":"CandleL5","rotation":[0.0,-0.07378739,0.0,0.99727404],"translation":[-3.0247753,1.0206741,4.119509]},{"mesh":8,"name":"CandleF1","translation":[1.1294148,1.313,1.537]},{"mesh":9,"name":"CandleF2","translation":[1.1294148,1.313,1.537]},{"mesh":10,"name":"CandleF3","translation":[1.1294148,1.313,1.537]}],"samplers":[{"magFilter":9729,"minFilter":9987,"wrapS":10497,"wrapT":10497}],"scene":0,"scenes":[{"name":"prp_candles","nodes":[0]}],"textures":[{"sampler":0,"source":0},{"sampler":0,"source":1},{"sampler":0,"source":2},{"sampler":0,"source":3}]}