{"accessors":[{"bufferView":0,"componentType":5126,"count":114,"max":[1.0204092,1.0040767,1.0180907,0.0,1.0180908,1.0203937,1.0178534,0.0,1.0199645,1.0204092,1.0203937,0.0,1.412946,1.9739276,1.8243732,1.0],"min":[-1.0204092,-1.0040768,-1.0180908,0.0,-1.0180907,-1.0191022,-1.0203081,0.0,-1.0199645,-1.0204092,-1.0203964,0.0,-1.412946,-2.031405,-1.8252249,1.0],"normalized":false,"type":"MAT4"},{"bufferView":1,"componentType":5126,"count":3076,"max":[0.76608014,1.977825,0.15047227],"min":[-0.7642302,-0.07893391,-0.12389825],"normalized":false,"type":"VEC3"},{"bufferView":2,"componentType":5126,"count":3076,"max":[0.99999845,0.9996842,0.9999352,1.0],"min":[-0.99858826,-0.99994564,-0.9999349,-1.0],"normalized":false,"type":"VEC4"},{"bufferView":3,"componentType":5126,"count":3076,"max":[0.9998714,0.9977295,0.9990312],"min":[-0.999871,-1.0,-0.99968463],"normalized":false,"type":"VEC3"},{"bufferView":4,"componentType":5126,"count":3076,"max":[0.99999994,1.0],"min":[-5.9345115e-08,0.008040428],"normalized":false,"type":"VEC2"},{"bufferView":5,"componentType":5126,"count":3076,"max":[1.0,1.7202384],"min":[0.0,-0.8721845],"normalized":false,"type":"VEC2"},{"bufferView":6,"componentType":5126,"count":3076,"max":[1.0,1.0,1.0,1.0],"min":[1.0,1.0,1.0,1.0],"normalized":false,"type":"VEC4"},{"bufferView":7,"componentType":5121,"count":3076,"max":[109,109,109,86],"min":[5,0,0,0],"normalized":false,"type":"VEC4"},{"bufferView":8,"componentType":5126,"count":3076,"max":[1.0,0.5,0.33020002,0.11414271],"min":[0.33569345,0.0,0.0,0.0],"normalized":false,"type":"VEC4"},{"bufferView":9,"componentType":5123,"count":13014,"max":[3075],"min":[0],"normalized":false,"type":"SCALAR"},{"componentType":5126,"count":3076,"max":[0.025592599,0.027262926,0.025960628],"min":[-0.025592607,-0.028124928,-0.011581734],"normalized":false,"sparse":{"count":1142,"indices":{"bufferView":10,"componentType":5123},"values":{"bufferView":11}},"type":"VEC3"},{"componentType":5126,"count":3076,"max":[0.8366535,1.6182542,0.7443527],"min":[-0.9403228,-1.2251246,-1.0937798],"normalized":false,"sparse":{"count":1078,"indices":{"bufferView":12,"componentType":5123},"values":{"bufferView":13}},"type":"VEC3"},{"componentType":5126,"count":3076,"max":[1.165794,0.8719297,1.0470768],"min":[-1.1249545,-0.9660114,-1.040462],"normalized":false,"sparse":{"count":1080,"indices":{"bufferView":14,"componentType":5123},"values":{"bufferView":15}},"type":"VEC3"},{"componentType":5126,"count":3076,"max":[0.0,0.0,0.0],"min":[0.0,0.0,0.0],"normalized":false,"type":"VEC3"},{"componentType":5126,"count":3076,"max":[0.050014764,0.03514433,0.042635545],"min":[-0.029386371,-0.047957182,-0.05263725],"normalized":false,"sparse":{"count":1394,"indices":{"bufferView":16,"componentType":5123},"values":{"bufferView":17}},"type":"VEC3"},{"componentType":5126,"count":3076,"max":[1.1835849,1.6486896,1.4012192],"min":[-1.5271997,-0.32653454,-1.4419504],"normalized":false,"sparse":{"count":929,"indices":{"bufferView":18,"componentType":5123},"values":{"bufferView":19}},"type":"VEC3"},{"componentType":5126,"count":3076,"max":[0.46684316,0.7912389,0.5249759],"min":[-0.5759581,-0.8406756,-0.79467726],"normalized":false,"sparse":{"count":1303,"indices":{"bufferView":20,"componentType":5123},"values":{"bufferView":21}},"type":"VEC3"},{"bufferView":22,"componentType":5126,"count":443,"max":[0.41356492,1.7196984,0.2477591],"min":[-0.41278505,0.24710026,-0.30165276],"normalized":false,"type":"VEC3"},{"bufferView":23,"componentType":5126,"count":443,"max":[1.0,0.62279105,0.9988701,1.0],"min":[-0.9939995,-0.99998814,-0.9982866,-1.0],"normalized":false,"type":"VEC4"},{"bufferView":24,"componentType":5126,"count":443,"max":[0.9963185,0.9971002,0.9999879],"min":[-0.99632114,-0.9551725,-0.9981967],"normalized":false,"type":"VEC3"},{"bufferView":25,"componentType":5126,"count":443,"max":[0.85660696,1.0],"min":[-9.8531485e-09,0.10433471],"normalized":false,"type":"VEC2"},{"bufferView":26,"componentType":5126,"count":443,"max":[0.0,1.0],"min":[0.0,1.0],"normalized":false,"type":"VEC2"},{"bufferView":27,"componentType":5126,"count":443,"max":[1.0,1.0,1.0,1.0],"min":[1.0,1.0,1.0,1.0],"normalized":false,"type":"VEC4"},{"bufferView":28,"componentType":5121,"count":443,"max":[105,105,105,104],"min":[1,0,0,0],"normalized":false,"type":"VEC4"},{"bufferView":29,"componentType":5126,"count":443,"max":[1.0,0.5,0.30285504,0.17233801],"min":[0.29508796,0.0,0.0,0.0],"normalized":false,"type":"VEC4"},{"bufferView":30,"componentType":5123,"count":1896,"max":[442],"min":[0],"normalized":false,"type":"SCALAR"},{"componentType":5126,"count":443,"max":[0.0,0.0,0.0],"min":[0.0,0.0,0.0],"normalized":false,"type":"VEC3"},{"bufferView":31,"componentType":5126,"count":1015,"max":[0.42442745,2.0899663,0.092399046],"min":[-0.3713488,1.2966182,-0.46415013],"normalized":false,"type":"VEC3"},{"bufferView":32,"componentType":5126,"count":1015,"max":[0.99943185,0.9929734,0.99892217,1.0],"min":[-0.99874437,-0.9990448,-0.9997292,-1.0],"normalized":false,"type":"VEC4"},{"bufferView":33,"componentType":5126,"count":1015,"max":[0.997278,0.998659,0.99963474],"min":[-0.9987639,-0.997507,-0.9989085],"normalized":false,"type":"VEC3"},{"bufferView":34,"componentType":5126,"count":1015,"max":[0.99993116,1.0],"min":[-3.7264904e-08,0.0],"normalized":false,"type":"VEC2"},{"bufferView":35,"componentType":5126,"count":1015,"max":[0.0,1.0],"min":[0.0,1.0],"normalized":false,"type":"VEC2"},{"bufferView":36,"componentType":5126,"count":1015,"max":[1.0,1.0,1.0,1.0],"min":[1.0,1.0,1.0,1.0],"normalized":false,"type":"VEC4"},{"bufferView":37,"componentType":5121,"count":1015,"max":[47,47,47,47],"min":[7,0,0,0],"normalized":false,"type":"VEC4"},{"bufferView":38,"componentType":5126,"count":1015,"max":[1.0,0.5,0.27736747,0.123434],"min":[0.36851662,0.0,0.0,0.0],"normalized":false,"type":"VEC4"},{"bufferView":39,"componentType":5123,"count":3978,"max":[1014],"min":[0],"normalized":false,"type":"SCALAR"},{"componentType":5126,"count":1015,"max":[0.0,0.0,0.0],"min":[0.0,0.0,0.0],"normalized":false,"type":"VEC3"},{"bufferView":40,"componentType":5126,"count":1691,"max":[0.76608014,1.8168153,0.09095099],"min":[-0.7642302,1.0035497,-0.1160824],"normalized":false,"type":"VEC3"},{"bufferView":41,"componentType":5126,"count":1691,"max":[0.9969795,0.99578375,0.9999352,1.0],"min":[-0.9326822,-0.99621844,-0.9999349,1.0],"normalized":false,"type":"VEC4"},{"bufferView":42,"componentType":5126,"count":1691,"max":[0.9998714,0.99516994,0.99774504],"min":[-0.999871,-0.9979429,-0.9997546],"normalized":false,"type":"VEC3"},{"bufferView":43,"componentType":5126,"count":1691,"max":[0.9041216,0.79003274],"min":[-5.9345115e-08,0.06620258],"normalized":false,"type":"VEC2"},{"bufferView":44,"componentType":5126,"count":1691,"max":[1.0,1.7202384],"min":[0.0,-0.8721845],"normalized":false,"type":"VEC2"},{"bufferView":45,"componentType":5126,"count":1691,"max":[1.0,1.0,1.0,1.0],"min":[1.0,1.0,1.0,1.0],"normalized":false,"type":"VEC4"},{"bufferView":46,"componentType":5121,"count":1691,"max":[89,89,87,86],"min":[7,0,0,0],"normalized":false,"type":"VEC4"},{"bufferView":47,"componentType":5126,"count":1691,"max":[1.0,0.49758905,0.33020002,0.11414271],"min":[0.33569345,0.0,0.0,0.0],"normalized":false,"type":"VEC4"},{"bufferView":48,"componentType":5123,"count":6210,"max":[1690],"min":[0],"normalized":false,"type":"SCALAR"},{"componentType":5126,"count":1691,"max":[0.028896615,0.025593758,0.019757498],"min":[-0.029015053,-0.026157856,-0.017626572],"normalized":false,"sparse":{"count":129,"indices":{"bufferView":49,"componentType":5123},"values":{"bufferView":50}},"type":"VEC3"},{"componentType":5126,"count":1691,"max":[0.5567321,0.25140914,0.12301892],"min":[-0.55679655,-0.34858325,-0.31054205],"normalized":false,"sparse":{"count":112,"indices":{"bufferView":51,"componentType":5123},"values":{"bufferView":52}},"type":"VEC3"},{"componentType":5126,"count":1691,"max":[0.94149435,0.4294105,0.50056547],"min":[-0.75768995,-1.4022175,-0.7812004],"normalized":false,"sparse":{"count":108,"indices":{"bufferView":53,"componentType":5123},"values":{"bufferView":54}},"type":"VEC3"},{"bufferView":55,"componentType":5126,"count":1691,"max":[0.014839768,0.048178077,0.049443766],"min":[-0.04287502,-0.0558331,-0.033711404],"normalized":false,"type":"VEC3"},{"componentType":5126,"count":1691,"max":[1.4724877,1.7619067,1.9033018],"min":[-1.6275686,-1.3494816,-1.9589925],"normalized":false,"sparse":{"count":1410,"indices":{"bufferView":56,"componentType":5123},"values":{"bufferView":57}},"type":"VEC3"},{"bufferView":58,"componentType":5126,"count":1691,"max":[1.8377578,1.6481225,1.9825379],"min":[-1.9333242,-1.5949783,-1.9425395],"normalized":false,"type":"VEC3"},{"componentType":5126,"count":1691,"max":[0.0,0.0,0.0],"min":[0.0,0.0,0.0],"normalized":false,"type":"VEC3"}],"asset":{"copyright":"The Creators of 'Friday Night Funkin': Lullaby'","generator":"GDRE Tools vv2.6.3","version":"2.0"},"bufferViews":[{"buffer":0,"byteLength":7296},{"buffer":0,"byteLength":36912,"byteOffset":7296,"byteStride":12,"target":34962},{"buffer":0,"byteLength":49216,"byteOffset":44208,"byteStride":16,"target":34962},{"buffer":0,"byteLength":36912,"byteOffset":93424,"byteStride":12,"target":34962},{"buffer":0,"byteLength":24608,"byteOffset":130336,"byteStride":8,"target":34962},{"buffer":0,"byteLength":24608,"byteOffset":154944,"byteStride":8,"target":34962},{"buffer":0,"byteLength":49216,"byteOffset":179552,"byteStride":16,"target":34962},{"buffer":0,"byteLength":12304,"byteOffset":228768,"byteStride":4,"target":34962},{"buffer":0,"byteLength":49216,"byteOffset":241072,"byteStride":16,"target":34962},{"buffer":0,"byteLength":26028,"byteOffset":290288,"target":34963},{"buffer":0,"byteLength":2284,"byteOffset":316316},{"buffer":0,"byteLength":13704,"byteOffset":318600},{"buffer":0,"byteLength":2156,"byteOffset":332304},{"buffer":0,"byteLength":12936,"byteOffset":334460},{"buffer":0,"byteLength":2160,"byteOffset":347396},{"buffer":0,"byteLength":12960,"byteOffset":349556},{"buffer":0,"byteLength":2788,"byteOffset":362516},{"buffer":0,"byteLength":16728,"byteOffset":365304},{"buffer":0,"byteLength":1858,"byteOffset":382032},{"buffer":0,"byteLength":11148,"byteOffset":383892},{"buffer":0,"byteLength":2606,"byteOffset":395040},{"buffer":0,"byteLength":15636,"byteOffset":397648},{"buffer":0,"byteLength":5316,"byteOffset":413284,"byteStride":12,"target":34962},{"buffer":0,"byteLength":7088,"byteOffset":418600,"byteStride":16,"target":34962},{"buffer":0,"byteLength":5316,"byteOffset":425688,"byteStride":12,"target":34962},{"buffer":0,"byteLength":3544,"byteOffset":431004,"byteStride":8,"target":34962},{"buffer":0,"byteLength":3544,"byteOffset":434548,"byteStride":8,"target":34962},{"buffer":0,"byteLength":7088,"byteOffset":438092,"byteStride":16,"target":34962},{"buffer":0,"byteLength":1772,"byteOffset":445180,"byteStride":4,"target":34962},{"buffer":0,"byteLength":7088,"byteOffset":446952,"byteStride":16,"target":34962},{"buffer":0,"byteLength":3792,"byteOffset":454040,"target":34963},{"buffer":0,"byteLength":12180,"byteOffset":457832,"byteStride":12,"target":34962},{"buffer":0,"byteLength":16240,"byteOffset":470012,"byteStride":16,"target":34962},{"buffer":0,"byteLength":12180,"byteOffset":486252,"byteStride":12,"target":34962},{"buffer":0,"byteLength":8120,"byteOffset":498432,"byteStride":8,"target":34962},{"buffer":0,"byteLength":8120,"byteOffset":506552,"byteStride":8,"target":34962},{"buffer":0,"byteLength":16240,"byteOffset":514672,"byteStride":16,"target":34962},{"buffer":0,"byteLength":4060,"byteOffset":530912,"byteStride":4,"target":34962},{"buffer":0,"byteLength":16240,"byteOffset":534972,"byteStride":16,"target":34962},{"buffer":0,"byteLength":7956,"byteOffset":551212,"target":34963},{"buffer":0,"byteLength":20292,"byteOffset":559168,"byteStride":12,"target":34962},{"buffer":0,"byteLength":27056,"byteOffset":579460,"byteStride":16,"target":34962},{"buffer":0,"byteLength":20292,"byteOffset":606516,"byteStride":12,"target":34962},{"buffer":0,"byteLength":13528,"byteOffset":626808,"byteStride":8,"target":34962},{"buffer":0,"byteLength":13528,"byteOffset":640336,"byteStride":8,"target":34962},{"buffer":0,"byteLength":27056,"byteOffset":653864,"byteStride":16,"target":34962},{"buffer":0,"byteLength":6764,"byteOffset":680920,"byteStride":4,"target":34962},{"buffer":0,"byteLength":27056,"byteOffset":687684,"byteStride":16,"target":34962},{"buffer":0,"byteLength":12420,"byteOffset":714740,"target":34963},{"buffer":0,"byteLength":258,"byteOffset":727160},{"buffer":0,"byteLength":1548,"byteOffset":727420},{"buffer":0,"byteLength":224,"byteOffset":728968},{"buffer":0,"byteLength":1344,"byteOffset":729192},{"buffer":0,"byteLength":216,"byteOffset":730536},{"buffer":0,"byteLength":1296,"byteOffset":730752},{"buffer":0,"byteLength":20292,"byteOffset":732048,"byteStride":12,"target":34962},{"buffer":0,"byteLength":2820,"byteOffset":752340},{"buffer":0,"byteLength":16920,"byteOffset":755160},{"buffer":0,"byteLength":20292,"byteOffset":772080,"byteStride":12,"target":34962},{"buffer":0,"byteLength":3589494,"byteOffset":792372},{"buffer":0,"byteLength":611273,"byteOffset":4381866},{"buffer":0,"byteLength":1032011,"byteOffset":4993139},{"buffer":0,"byteLength":505260,"byteOffset":6025150},{"buffer":0,"byteLength":266083,"byteOffset":6530410}],"buffers":[{"byteLength":6796493,"uri":"hex0.bin"}],"extensionsUsed":["GODOT_single_root"],"images":[{"bufferView":59,"mimeType":"image/png","name":"HexHead.001_BaseColor"},{"bufferView":60,"mimeType":"image/png","name":"HexBody_BaseColor"},{"bufferView":61,"mimeType":"image/png","name":"HexHead_BaseColor"},{"bufferView":62,"mimeType":"image/png","name":"HexBroeknArms_BaseColor"},{"bufferView":63,"mimeType":"image/png","name":"HexLimbs_Emission"}],"materials":[{"name":"HexHead","pbrMetallicRoughness":{"baseColorFactor":[1.0,1.0,1.0,1.0],"baseColorTexture":{"index":0},"metallicFactor":0.0,"roughnessFactor":1.0}},{"alphaCutoff":0.35,"alphaMode":"MASK","doubleSided":true,"name":"HexBody","pbrMetallicRoughness":{"baseColorFactor":[1.0,1.0,1.0,1.0],"baseColorTexture":{"index":1},"metallicFactor":0.0,"roughnessFactor":1.0}},{"name":"HexHair","pbrMetallicRoughness":{"baseColorFactor":[1.0,1.0,1.0,1.0],"baseColorTexture":{"index":2},"metallicFactor":0.0,"roughnessFactor":1.0}},{"alphaMode":"BLEND","emissiveFactor":[0.6255526,0.6255526,0.6255526],"emissiveTexture":{"index":4},"name":"HexBroeknArms","pbrMetallicRoughness":{"baseColorFactor":[1.0,1.0,1.0,1.0],"baseColorTexture":{"index":3},"metallicFactor":0.0,"roughnessFactor":1.0}}],"meshes":[{"extras":{"targetNames":["Mouth Closed","ArmGo(Broken)","ArmGO(Normal)"]},"name":"Plane_001","primitives":[{"attributes":{"COLOR_0":6,"JOINTS_0":7,"NORMAL":3,"POSITION":1,"TANGENT":2,"TEXCOORD_0":4,"TEXCOORD_1":5,"WEIGHTS_0":8},"indices":9,"material":0,"mode":4,"targets":[{"NORMAL":11,"POSITION":10,"TANGENT":12},{"NORMAL":13,"POSITION":13,"TANGENT":13},{"NORMAL":15,"POSITION":14,"TANGENT":16}]},{"attributes":{"COLOR_0":22,"JOINTS_0":23,"NORMAL":19,"POSITION":17,"TANGENT":18,"TEXCOORD_0":20,"TEXCOORD_1":21,"WEIGHTS_0":24},"indices":25,"material":1,"mode":4,"targets":[{"NORMAL":26,"POSITION":26,"TANGENT":26},{"NORMAL":26,"POSITION":26,"TANGENT":26},{"NORMAL":26,"POSITION":26,"TANGENT":26}]},{"attributes":{"COLOR_0":32,"JOINTS_0":33,"NORMAL":29,"POSITION":27,"TANGENT":28,"TEXCOORD_0":30,"TEXCOORD_1":31,"WEIGHTS_0":34},"indices":35,"material":2,"mode":4,"targets":[{"NORMAL":36,"POSITION":36,"TANGENT":36},{"NORMAL":36,"POSITION":36,"TANGENT":36},{"NORMAL":36,"POSITION":36,"TANGENT":36}]},{"attributes":{"COLOR_0":42,"JOINTS_0":43,"NORMAL":39,"POSITION":37,"TANGENT":38,"TEXCOORD_0":40,"TEXCOORD_1":41,"WEIGHTS_0":44},"indices":45,"material":3,"mode":4,"targets":[{"NORMAL":47,"POSITION":46,"TANGENT":48},{"NORMAL":50,"POSITION":49,"TANGENT":51},{"NORMAL":52,"POSITION":52,"TANGENT":52}]}],"weights":[0.0,0.0,0.0]}],"nodes":[{"children":[1],"name":"hex"},{"children":[2,116],"name":"HexRig","scale":[0.979999,0.979999,0.979999]},{"children":[3,108,110,112,113,114,115],"name":"spine_006","rotation":[-0.016427968,1.1919317e-07,-1.9583637e-09,0.99986506],"translation":[0.0,-0.09508968,-0.012010796]},{"children":[4,92,100],"name":"spine","rotation":[0.09749765,2.4430273e-14,2.324524e-08,0.9952358],"translation":[-5.1077502e-09,1.1048825,0.021423455]},{"children":[5],"name":"spine_001","rotation":[-0.05949827,-3.0863365e-15,-1.4185488e-08,0.99822843],"translation":[-1.9776726e-16,0.15331954,-7.21775e-09]},{"children":[6],"name":"spine_002","rotation":[-0.018936262,3.6990937e-15,-4.5147557e-09,0.9998207],"translation":[-5.6295885e-16,0.13816538,2.7939677e-09]},{"children":[7,46,49,52,72],"name":"spine_003","rotation":[-0.10328956,-2.3714331e-07,0.0,0.9946513],"translation":[2.7172753e-16,0.1852268,-9.313226e-10]},{"children":[8],"name":"spine_004","rotation":[0.06317883,2.3794229e-07,5.339738e-15,0.99800223],"translation":[-9.495178e-16,0.21344854,-1.8626451e-08]},{"children":[9],"name":"spine_005","rotation":[0.00026578645,-3.2668316e-14,6.337005e-11,0.99999994],"translation":[9.998762e-16,0.04870553,-3.7252903e-09]},{"children":[10,11,12,13,14,15,31,32,34,35,36,39,42,43,44,45],"name":"Head","rotation":[0.08550968,-1.1365905e-14,2.0387095e-08,0.9963373],"translation":[-1.6732119e-15,0.04402201,-1.1175871e-08]},{"name":"HairFringeMiddle","rotation":[0.99491423,9.8199045e-15,2.3720621e-07,0.10072583],"translation":[-2.3771038e-08,0.2174155,0.09970297]},{"name":"HairFringe_R","rotation":[0.9958589,-0.08968193,0.0015686952,0.014824371],"translation":[-0.09579738,0.19820273,0.05152674]},{"name":"HairFringe_L","rotation":[0.99680346,0.07848002,-0.0009633317,0.014928203],"translation":[0.08227945,0.19847119,0.05150072]},{"name":"Side_Hair_R","rotation":[0.99747556,-0.026424417,-0.0008352982,0.065905884],"scale":[0.99999815,0.99999964,0.9999883],"translation":[-0.08626664,0.11192141,0.020578237]},{"name":"Side_Hair_L","rotation":[0.9974756,0.026424123,0.00083175773,0.06590518],"translation":[0.08626664,0.11192141,0.02057828]},{"children":[16,19,25],"name":"Backhair_001","rotation":[0.99735427,-4.3636193e-14,2.377884e-07,-0.07269418],"translation":[2.2773113e-08,0.0039623333,-0.09551735]},{"children":[17],"name":"Backhair_002","rotation":[0.007369423,1.5573904e-15,1.7570139e-09,0.9999728],"translation":[1.5987212e-14,0.11862767,-2.9802322e-08]},{"children":[18],"name":"Backhair_003","rotation":[0.097352915,-3.4915833e-14,2.321086e-08,0.9952499],"translation":[-9.567233e-16,0.11907417,-1.4901161e-08]},{"name":"Backhair_004","rotation":[0.13078234,-1.4132396e-13,3.1181067e-08,0.9914111],"translation":[1.41637775e-14,0.12802131,-2.9802322e-08]},{"children":[20,24],"name":"Backhair_L_001","rotation":[0.030263353,-0.0034597593,-0.1592731,0.98676455],"translation":[0.074863434,0.015738992,-0.01473577]},{"children":[21],"name":"Backhair_L_002","rotation":[0.007299174,0.0023555674,-0.0010138728,0.9999701],"translation":[-4.9360096e-08,0.1186276,-5.3085387e-08]},{"children":[22],"name":"Backhair_L_003","rotation":[0.09683344,0.032173775,-0.010042805,0.99472976],"translation":[5.401671e-08,0.119074084,4.2375177e-08]},{"children":[23],"name":"Backhair_L_004","rotation":[0.1307395,0.04492484,-0.0033585087,0.9903927],"translation":[3.3527613e-08,0.12802096,9.49949e-08]},{"name":"Side_HairBottom_L","rotation":[0.32374722,0.050103143,-0.62148654,0.7116403],"translation":[0.057904653,-0.00057730824,-0.049605604]},{"name":"Side_HairTop_L","rotation":[0.43228373,0.24436563,-0.625827,0.60146224],"translation":[0.014406035,0.10806753,-0.018741956]},{"children":[26,30],"name":"Backhair_R_001","rotation":[0.03302158,-0.0136577785,0.15872411,0.9866761],"translation":[-0.07622024,0.015739111,-0.014735837]},{"children":[27],"name":"Backhair_R_002","rotation":[0.007330092,-0.0025000002,0.0007590063,0.9999697],"translation":[5.5879354e-09,0.118627496,-9.126961e-08]},{"children":[28],"name":"Backhair_R_003","rotation":[0.11951694,-0.03690407,0.036848508,0.9914615],"translation":[2.6077032e-08,0.119074255,7.916242e-09]},{"children":[29],"name":"Backhair_R_004","rotation":[0.23231922,-0.08172634,0.09779905,0.96425307],"translation":[0.0,0.14495097,4.208414e-08]},{"name":"Side_HairBottom_R","rotation":[0.2391904,0.018284805,0.51585704,0.82240206],"translation":[-0.056549743,-0.018352836,-0.043454647]},{"name":"Side_HairTop_R","rotation":[0.4430744,-0.23389578,0.6182342,0.60561067],"translation":[-0.013759533,0.10764146,-0.01825339]},{"name":"HairTop","rotation":[-0.037766933,-0.01902003,0.0006930394,0.9991053],"translation":[0.011204406,0.24593341,-0.019345002]},{"children":[33],"name":"Jaw","rotation":[0.8303817,3.3211475e-07,6.929256e-07,0.55719507],"translation":[5.5970784e-09,0.028771935,-0.02347584]},{"name":"BottomTeeth","rotation":[-0.017103618,1.1919035e-07,-2.6505795e-08,0.99985373],"translation":[3.2028048e-08,0.058421142,-0.022389304]},{"name":"TopTeeth","rotation":[0.8117769,4.1768658e-07,7.741712e-07,0.5839678],"translation":[-1.007253e-08,0.03470348,0.04224726]},{"name":"Nose","rotation":[0.6668517,0.0,1.589898e-07,0.74519044],"translation":[-2.5055108e-08,0.049789265,0.10508875]},{"children":[37],"name":"Eye_L","rotation":[0.1790801,0.7013903,0.6898969,0.0049232137],"translation":[0.039258394,0.09797414,0.060948633]},{"children":[38],"name":"Iris_L","rotation":[0.00018920228,-0.00073074823,-0.031579085,0.999501],"translation":[3.025867e-06,0.026810698,7.543713e-08]},{"name":"ShrinkEye_L","rotation":[-0.0010682916,-0.03456176,-0.0023284236,0.99939924],"translation":[0.00016596168,-0.0042079296,0.0019189431]},{"children":[40],"name":"Eye_R","rotation":[-0.17908031,0.7013903,0.6898968,-0.004923028],"translation":[-0.039258424,0.09797414,0.060948607]},{"children":[41],"name":"Iris_R","rotation":[0.00018919577,0.0007307704,0.031579085,0.999501],"translation":[-3.0193478e-06,0.02681071,3.1548552e-07]},{"name":"ShrinkEye_R","rotation":[-0.0010682954,0.034561772,0.002328414,0.99939924],"translation":[-0.00016598869,-0.0042079426,0.0019191843]},{"name":"UpperEyelid_L","rotation":[0.08280812,0.95096624,0.29776677,-0.01187172],"translation":[0.039258394,0.09797414,0.060948633]},{"name":"UpperEyelid_R","rotation":[-0.082808286,0.95096624,0.29776683,0.011871939],"translation":[-0.039258424,0.09797414,0.060948607]},{"name":"LowerEyelid_L","rotation":[0.2865843,0.31631967,0.9042056,-0.014947871],"translation":[0.039258394,0.09797414,0.060948633]},{"name":"LowerEyelid_R","rotation":[-0.28658444,0.3163199,0.9042055,0.014947882],"translation":[-0.039258424,0.09797414,0.060948607]},{"children":[47],"name":"shoulder_L","rotation":[-0.5213277,-0.39780363,-0.5199926,0.5473367],"translation":[0.018300004,0.11966595,0.01696127]},{"children":[48],"name":"upper_arm_L","rotation":[-0.22854018,0.70799226,-0.19443068,0.6393067],"translation":[-2.460368e-05,0.15479158,-0.00012628]},{"name":"forearm_L","rotation":[0.1287662,0.031051584,0.028865807,0.9907683],"translation":[-2.0489097e-08,0.29158732,7.450581e-09]},{"children":[50],"name":"shoulder_R","rotation":[-0.5213276,0.39780375,0.5199927,0.5473366],"translation":[-0.018299997,0.11966595,0.016961278]},{"children":[51],"name":"upper_arm_R","rotation":[-0.22854024,-0.7079923,0.19443063,0.63930666],"translation":[2.461113e-05,0.1547916,-0.00012627954]},{"name":"forearm_R","rotation":[0.12876618,-0.031051647,-0.02886574,0.9907683],"translation":[3.213063e-08,0.29158726,-2.2351742e-08]},{"children":[53,60,64,68],"name":"hand_L","rotation":[-0.06372465,-0.05488588,0.87376857,-0.47901484],"translation":[0.6319017,-0.27094048,-0.09624922]},{"children":[54,57],"name":"palm_01_L","rotation":[0.14804387,0.7065368,-0.0019619039,0.6920151],"translation":[-0.005440307,0.046298057,0.025891447]},{"children":[55],"name":"f_index_01_L","rotation":[0.08385024,0.011515622,-0.0059605194,0.996394],"translation":[-3.9115548e-08,0.07521736,1.9837171e-07]},{"children":[56],"name":"f_index_02_L","rotation":[0.07800462,-0.018506618,-0.008317965,0.99674654],"translation":[2.7939677e-08,0.049472462,1.0151416e-07]},{"name":"f_index_03_L","rotation":[0.11167055,-0.023287306,-0.038048122,0.99274355],"translation":[-9.313226e-09,0.03098915,1.6670674e-07]},{"children":[58],"name":"thumb_01_L","rotation":[0.0028012393,0.39930525,0.3038401,0.8650021],"translation":[-0.0018311604,-0.005681462,0.014741449]},{"children":[59],"name":"thumb_02_L","rotation":[0.05018066,0.00955789,0.011966159,0.9986227],"translation":[-2.3283064e-09,0.042538274,-1.2107193e-07]},{"name":"thumb_03_L","rotation":[-0.17565277,-0.04082014,0.014150065,0.98350376],"translation":[-9.313226e-09,0.04207682,3.3527613e-08]},{"children":[61],"name":"palm_02_L","rotation":[0.09501569,0.7049241,-0.04790078,0.7012557],"translation":[-0.007479431,0.05001367,0.0074620564]},{"children":[62],"name":"f_middle_01_L","rotation":[0.094572715,0.013527026,-0.014027978,0.99532723],"translation":[-3.259629e-09,0.06857302,1.5180558e-07]},{"children":[63],"name":"f_middle_02_L","rotation":[0.11877254,-0.03659693,-0.014549489,0.9921402],"translation":[2.7939677e-09,0.05441525,-1.3154931e-07]},{"name":"f_middle_03_L","rotation":[0.058465153,-0.019041047,-0.018386697,0.99793845],"translation":[-4.1909516e-09,0.035352234,1.2175587e-07]},{"children":[65],"name":"palm_03_L","rotation":[0.046826884,0.69152707,-0.11867862,0.71099436],"translation":[-0.0069311718,0.04823684,-0.009478895]},{"children":[66],"name":"f_ring_01_L","rotation":[0.12827122,-0.007621875,0.029375844,0.99127465],"translation":[5.7043508e-09,0.074741565,-4.877802e-08]},{"children":[67],"name":"f_ring_02_L","rotation":[0.074315704,-0.01858196,-0.020165283,0.9968577],"translation":[5.5879354e-09,0.046991173,3.7020072e-08]},{"name":"f_ring_03_L","rotation":[0.15717739,-0.03893076,-0.0347821,0.9861896],"translation":[-7.450581e-09,0.033344027,-4.4703484e-08]},{"children":[69],"name":"palm_04_L","rotation":[-0.009445087,0.6940693,-0.18950242,0.6944548],"translation":[-0.0050423043,0.043845028,-0.025905712]},{"children":[70],"name":"f_pinky_01_L","rotation":[0.14329718,-0.049878914,0.032713007,0.9878805],"translation":[-7.450581e-09,0.07141482,-4.8195943e-08]},{"children":[71],"name":"f_pinky_02_L","rotation":[0.04235647,-0.0029101986,-0.019226372,0.99891335],"translation":[3.7252903e-09,0.03480047,-4.1909516e-08]},{"name":"f_pinky_03_L","rotation":[0.08549089,-0.0038051105,-0.019446142,0.9961419],"translation":[-2.2351742e-08,0.028204223,1.0430813e-07]},{"children":[73,80,84,88],"name":"hand_R","rotation":[0.063724875,-0.054885767,0.87376857,0.47901484],"translation":[-0.6319017,-0.27094036,-0.09624891]},{"children":[74,77],"name":"palm_01_R","rotation":[0.14804386,-0.7065369,0.001961807,0.69201505],"translation":[0.0054403665,0.04629805,0.02589146]},{"children":[75],"name":"f_index_01_R","rotation":[0.08385029,-0.011515624,0.0059605013,0.996394],"translation":[3.259629e-08,0.07521745,2.0081643e-08]},{"children":[76],"name":"f_index_02_R","rotation":[0.07800452,0.01850662,0.008317976,0.99674654],"translation":[1.8626451e-08,0.049472433,-1.7229468e-08]},{"name":"f_index_03_R","rotation":[0.11167061,0.02328733,0.038048122,0.99274355],"translation":[2.2351742e-08,0.030989151,1.0896474e-07]},{"children":[78],"name":"thumb_01_R","rotation":[0.0028012176,-0.3993053,-0.3038401,0.8650021],"translation":[0.0018311702,-0.0056814332,0.01474127]},{"children":[79],"name":"thumb_02_R","rotation":[0.050180648,-0.009557884,-0.011966201,0.9986227],"translation":[3.213063e-08,0.042538278,-8.754432e-08]},{"name":"thumb_03_R","rotation":[-0.17565274,0.04082014,-0.014150041,0.98350376],"translation":[-9.313226e-10,0.042076908,7.4505806e-08]},{"children":[81],"name":"palm_02_R","rotation":[0.09501572,-0.7049242,0.047900774,0.7012556],"translation":[0.007479342,0.05001372,0.00746206]},{"children":[82],"name":"f_middle_01_R","rotation":[0.094572715,-0.013527032,0.0140279895,0.99532723],"translation":[1.44355e-08,0.06857311,1.5145633e-07]},{"children":[83],"name":"f_middle_02_R","rotation":[0.11877249,0.03659693,0.014549497,0.9921402],"translation":[-1.1175871e-08,0.05441525,-1.3195677e-07]},{"name":"f_middle_03_R","rotation":[0.058465153,0.019041058,0.0183867,0.99793845],"translation":[-9.313226e-10,0.035352293,1.2143573e-07]},{"children":[85],"name":"palm_03_R","rotation":[0.04682685,-0.69152707,0.11867861,0.71099436],"translation":[0.0069312025,0.04823689,-0.009478889]},{"children":[86],"name":"f_ring_01_R","rotation":[0.12827115,0.007621884,-0.029375847,0.99127465],"translation":[-3.259629e-09,0.074741535,9.662472e-09]},{"children":[87],"name":"f_ring_02_R","rotation":[0.074315675,0.018581953,0.02016527,0.9968577],"translation":[3.7252903e-09,0.046991207,-2.4214387e-08]},{"name":"f_ring_03_R","rotation":[0.15717736,0.038930763,0.0347821,0.9861896],"translation":[0.0,0.033343997,1.6228296e-07]},{"children":[89],"name":"palm_04_R","rotation":[-0.009445109,-0.6940694,0.18950243,0.6944547],"translation":[0.0050423355,0.043844964,-0.025905702]},{"children":[90],"name":"f_pinky_01_R","rotation":[0.14329718,0.04987893,-0.032712977,0.9878805],"translation":[1.4901161e-08,0.07141491,-1.6740523e-07]},{"children":[91],"name":"f_pinky_02_R","rotation":[0.042356435,0.0029102373,0.019226354,0.99891335],"translation":[-1.8626451e-08,0.03480051,1.2945384e-07]},{"name":"f_pinky_03_R","rotation":[0.08549087,0.003805104,0.019446142,0.9961419],"translation":[-3.7252903e-09,0.028204383,1.2107193e-07]},{"children":[93,94,96,98],"name":"thigh_L","rotation":[0.9911872,0.03605311,-0.0039568814,0.12740664],"translation":[0.098000005,0.05885674,-0.024844406]},{"name":"shin_L","rotation":[0.08621595,0.004775691,0.009998902,0.99621487],"translation":[-1.1371412e-08,0.42824614,-6.548362e-10]},{"children":[95],"name":"FrontDress_L","rotation":[-0.019666899,-1.5952667e-08,0.00010689622,0.9998066],"translation":[0.026702052,-0.022644833,-0.14930484]},{"name":"FrontDress_L_001","rotation":[0.017607521,0.00675653,-0.0018856578,0.9998204],"translation":[-3.608875e-09,0.43015736,-2.2700988e-08]},{"children":[97],"name":"BackDress_L","rotation":[0.13441035,-0.0042011836,-0.03287112,0.99037147],"translation":[0.007516446,-0.052783545,0.09623595]},{"name":"BackDress_L_001","rotation":[-0.07026042,0.011767742,-0.0038579043,0.99745184],"translation":[-9.546056e-09,0.4333412,6.61239e-08]},{"children":[99],"name":"SideDress_L","rotation":[0.04717628,0.003304713,-0.069489054,0.9964611],"translation":[0.11078213,-0.042164847,-0.0020614548]},{"name":"SideDress_L_001","rotation":[-0.0002676203,0.0064971913,0.018127805,0.9998145],"translation":[4.725007e-08,0.43496498,-5.4133125e-09]},{"children":[101,102,104,106],"name":"thigh_R","rotation":[0.99118716,-0.036053136,0.003957103,0.12740672],"translation":[-0.09799999,0.05885674,-0.024844455]},{"name":"shin_R","rotation":[0.08621595,-0.0047756843,-0.009998908,0.99621487],"translation":[1.1395059e-08,0.42824614,-3.2014214e-10]},{"children":[103],"name":"FrontDress_R","rotation":[-0.019666903,2.0435296e-08,-0.00010689258,0.9998066],"translation":[-0.026702067,-0.022644948,-0.14930488]},{"name":"FrontDress_R_001","rotation":[0.01760754,-0.0067565297,0.0018856608,0.9998204],"translation":[-3.0035153e-08,0.43015736,1.0419171e-08]},{"children":[105],"name":"BackDress_R","rotation":[0.13441032,0.004201192,0.032871112,0.99037147],"translation":[-0.0075164447,-0.052783553,0.09623598]},{"name":"BackDress_R_001","rotation":[-0.07026041,-0.011767744,0.0038578974,0.99745184],"translation":[-2.188608e-08,0.4333414,4.656613e-08]},{"children":[107],"name":"SideDress_R","rotation":[0.047176287,-0.0033047092,0.06948906,0.9964611],"translation":[-0.11078215,-0.04216485,-0.0020614634]},{"name":"SideDress_R_001","rotation":[-0.0002676209,-0.0064971913,-0.018127808,0.9998145],"translation":[-1.7374987e-08,0.43496487,-1.1117663e-08]},{"children":[109],"name":"foot_L","rotation":[0.922604,0.06108304,-0.031502414,0.3795765],"translation":[0.1614564,0.12919006,-0.034916993]},{"name":"toe_L","rotation":[-0.066463664,0.9394351,-0.33576488,0.017497646],"translation":[3.7252903e-09,0.11283488,-4.656613e-10]},{"children":[111],"name":"foot_R","rotation":[0.92260396,-0.061083127,0.03150261,0.3795765],"translation":[-0.1614564,0.12919007,-0.03491708]},{"name":"toe_R","rotation":[0.06646363,0.9394351,-0.33576494,-0.017497528],"translation":[-3.7951395e-08,0.11283487,-2.7939677e-09]},{"name":"thigh_L_002","rotation":[0.71821934,0.023438381,0.024221595,0.695],"translation":[0.12903881,0.72969204,0.38136718]},{"name":"thigh_R_002","rotation":[0.71821934,-0.023438536,-0.024221437,0.695],"translation":[-0.12903899,0.72969204,0.3813671]},{"name":"thigh_L_003","rotation":[-0.47486565,0.5249848,-0.5080127,0.49073073],"translation":[0.35381496,1.5033576,-0.46221614]},{"name":"thigh_R_003","rotation":[0.47486588,0.52498484,-0.50801253,-0.4907306],"translation":[-0.35381472,1.5033576,-0.46221632]},{"mesh":0,"name":"Hex Maniac","skin":0,"weights":[0.0,0.0,0.0]}],"samplers":[{"magFilter":9729,"minFilter":9987,"wrapS":10497,"wrapT":10497}],"scene":0,"scenes":[{"name":"hex","nodes":[0]}],"skins":[{"inverseBindMatrices":0,"joints":[2,3,4,5,6,7,8,9,10,11,12,13,14,15,16,17,18,19,20,21,22,23,24,25,26,27,28,29,30,31,32,33,34,35,36,37,38,39,40,41,42,43,44,45,46,47,48,49,50,51,52,53,54,55,56,57,58,59,60,61,62,63,64,65,66,67,68,69,70,71,72,73,74,75,76,77,78,79,80,81,82,83,84,85,86,87,88,89,90,91,92,93,94,95,96,97,98,99,100,101,102,103,104,105,106,107,108,109,110,111,112,113,114,115],"name":"Skin"}],"textures":[{"sampler":0,"source":0},{"sampler":0,"source":1},{"sampler":0,"source":2},{"sampler":0,"source":3},{"sampler":0,"source":4}]}