{"accessors":[{"bufferView":0,"componentType":5126,"count":4,"max":[-4.8274784,0.15461726,2.5677834],"min":[-6.948692,0.15461726,0.49192774],"normalized":false,"type":"VEC3"},{"bufferView":1,"componentType":5126,"count":4,"max":[0.114148855,-0.000113904476,0.9934635,1.0],"min":[0.114148855,-0.000113904476,0.9934635,1.0],"normalized":false,"type":"VEC4"},{"bufferView":2,"componentType":5126,"count":4,"max":[7.537008e-05,1.0,0.00010594727],"min":[7.537008e-05,1.0,0.00010594727],"normalized":false,"type":"VEC3"},{"bufferView":3,"componentType":5126,"count":4,"max":[0.20766003,0.2926528],"min":[0.0026092927,0.07449455],"normalized":false,"type":"VEC2"},{"bufferView":4,"componentType":5121,"count":6,"max":[3],"min":[0],"normalized":false,"type":"SCALAR"},{"bufferView":5,"componentType":5126,"count":80,"max":[3.0591283,0.73793554,3.3851066],"min":[-2.546579,-0.5073719,-2.9432087],"normalized":false,"type":"VEC3"},{"bufferView":6,"componentType":5126,"count":80,"max":[0.9784562,1.0,0.9997686,1.0],"min":[-0.3093618,-0.99999994,-0.9784605,1.0],"normalized":false,"type":"VEC4"},{"bufferView":7,"componentType":5126,"count":80,"max":[0.9784605,1.0,0.97844565],"min":[-0.9997668,-1.0,-0.9997705],"normalized":false,"type":"VEC3"},{"bufferView":8,"componentType":5126,"count":80,"max":[0.97227436,0.9973754],"min":[0.0026092927,0.008926528],"normalized":false,"type":"VEC2"},{"bufferView":9,"componentType":5121,"count":120,"max":[79],"min":[0],"normalized":false,"type":"SCALAR"},{"bufferView":10,"componentType":5126,"count":573,"max":[7.029268,2.866998,3.6297493],"min":[-8.70358,0.0,-4.711402],"normalized":false,"type":"VEC3"},{"bufferView":11,"componentType":5126,"count":573,"max":[1.0,1.0,1.0,1.0],"min":[-1.0,-0.8743988,-1.0,-1.0],"normalized":false,"type":"VEC4"},{"bufferView":12,"componentType":5126,"count":573,"max":[1.0,1.0,1.0],"min":[-1.0,-1.0,-1.0],"normalized":false,"type":"VEC3"},{"bufferView":13,"componentType":5126,"count":573,"max":[9.9109955,1.5332344],"min":[-4.511711,-0.0013769865],"normalized":false,"type":"VEC2"},{"bufferView":14,"componentType":5123,"count":1068,"max":[572],"min":[0],"normalized":false,"type":"SCALAR"},{"bufferView":15,"componentType":5126,"count":133,"max":[7.0292673,0.0,3.6297493],"min":[-8.70358,0.0,-4.711402],"normalized":false,"type":"VEC3"},{"bufferView":16,"componentType":5126,"count":133,"max":[2.798438e-05,-2.7477741e-05,1.0,1.0],"min":[-6.3568354e-05,-0.000119030476,1.0,1.0],"normalized":false,"type":"VEC4"},{"bufferView":17,"componentType":5126,"count":133,"max":[6.362796e-05,1.0,0.00011911988],"min":[-2.7954578e-05,1.0,2.7567148e-05],"normalized":false,"type":"VEC3"},{"bufferView":18,"componentType":5126,"count":133,"max":[2.573985,3.789264],"min":[-3.0358338,-6.7918234],"normalized":false,"type":"VEC2"},{"bufferView":19,"componentType":5121,"count":402,"max":[132],"min":[0],"normalized":false,"type":"SCALAR"},{"bufferView":20,"componentType":5126,"count":18,"max":[-2.8318348,0.0,-1.0167654],"min":[-6.606428,0.0,-3.248575],"normalized":false,"type":"VEC3"},{"bufferView":21,"componentType":5126,"count":18,"max":[2.798438e-05,-2.7477741e-05,1.0,1.0],"min":[-6.3568354e-05,-0.000119030476,1.0,1.0],"normalized":false,"type":"VEC4"},{"bufferView":22,"componentType":5126,"count":18,"max":[6.362796e-05,1.0,0.00011911988],"min":[-2.7954578e-05,1.0,2.7567148e-05],"normalized":false,"type":"VEC3"},{"bufferView":23,"componentType":5126,"count":18,"max":[0.98961884,2.4409778],"min":[-1.8535733,-1.2057204],"normalized":false,"type":"VEC2"},{"bufferView":24,"componentType":5121,"count":48,"max":[17],"min":[0],"normalized":false,"type":"SCALAR"},{"bufferView":25,"componentType":5126,"count":52,"max":[-2.8318348,2.8652835,-1.0167654],"min":[-6.606428,0.0,-3.2485752],"normalized":false,"type":"VEC3"},{"bufferView":26,"componentType":5126,"count":52,"max":[1.0,0.04182566,1.0,1.0],"min":[-1.0,-0.05573168,-1.0,-1.0],"normalized":false,"type":"VEC4"},{"bufferView":27,"componentType":5126,"count":52,"max":[1.0,9.183748e-05,1.0],"min":[-1.0,-3.1464744e-05,-1.0],"normalized":false,"type":"VEC3"},{"bufferView":28,"componentType":5126,"count":52,"max":[0.85162073,0.9949777],"min":[-2.5483294,0.029742315],"normalized":false,"type":"VEC2"},{"bufferView":29,"componentType":5121,"count":138,"max":[51],"min":[0],"normalized":false,"type":"SCALAR"},{"bufferView":30,"componentType":5126,"count":3536,"max":[3.4471235,1.9735448,2.789848],"min":[-10.117835,-1.8179237,-4.0072346],"normalized":false,"type":"VEC3"},{"bufferView":31,"componentType":5126,"count":3536,"max":[1.0,0.99838394,0.99945134,1.0],"min":[-0.998797,-0.99939865,-0.99371135,-1.0],"normalized":false,"type":"VEC4"},{"bufferView":32,"componentType":5126,"count":3536,"max":[0.99824774,0.99825925,0.99604964],"min":[-0.9982882,-0.999588,-0.99603903],"normalized":false,"type":"VEC3"},{"bufferView":33,"componentType":5126,"count":3536,"max":[1.0,1.0],"min":[0.0,0.0],"normalized":false,"type":"VEC2"},{"bufferView":34,"componentType":5123,"count":11601,"max":[3535],"min":[0],"normalized":false,"type":"SCALAR"},{"bufferView":35,"componentType":5126,"count":96,"max":[0.22276258,0.019986978,0.22276258],"min":[-0.22276258,-0.002036592,-0.22276258],"normalized":false,"type":"VEC3"},{"bufferView":36,"componentType":5126,"count":96,"max":[1.0,0.59285665,0.0037697554,1.0],"min":[0.8053081,-0.592829,-0.0036396533,-1.0],"normalized":false,"type":"VEC4"},{"bufferView":37,"componentType":5126,"count":96,"max":[0.59285665,1.0,0.59279627],"min":[-0.592829,-1.0,-0.5928348],"normalized":false,"type":"VEC3"},{"bufferView":38,"componentType":5126,"count":96,"max":[0.710811,0.44817272],"min":[0.2994888,0.03683528],"normalized":false,"type":"VEC2"},{"bufferView":39,"componentType":5121,"count":348,"max":[95],"min":[0],"normalized":false,"type":"SCALAR"},{"bufferView":40,"componentType":5126,"count":224,"max":[0.014674279,0.46041957,0.3659388],"min":[-0.011518815,-0.39420387,-0.3659397],"normalized":false,"type":"VEC3"},{"bufferView":41,"componentType":5126,"count":224,"max":[1.0,0.5920632,0.6787059,1.0],"min":[-1.0,-0.41756755,-0.99693626,-1.0],"normalized":false,"type":"VEC4"},{"bufferView":42,"componentType":5126,"count":224,"max":[0.93414754,1.0,1.0],"min":[-0.0001438107,-1.0,-1.0],"normalized":false,"type":"VEC3"},{"bufferView":43,"componentType":5126,"count":224,"max":[0.46945906,0.55539787],"min":[0.008926528,0.011764706],"normalized":false,"type":"VEC2"},{"bufferView":44,"componentType":5121,"count":1050,"max":[223],"min":[0],"normalized":false,"type":"SCALAR"},{"bufferView":45,"componentType":5126,"count":514,"max":[0.6187724,1.2937002,0.14492865],"min":[-0.6187724,-1.0,-0.14385392],"normalized":false,"type":"VEC3"},{"bufferView":46,"componentType":5126,"count":514,"max":[0.9999959,0.99931115,1.0,1.0],"min":[-0.99979484,-0.9958054,-0.99999994,-1.0],"normalized":false,"type":"VEC4"},{"bufferView":47,"componentType":5126,"count":514,"max":[1.0,1.0,1.0],"min":[-1.0,-1.0,-1.0],"normalized":false,"type":"VEC3"},{"bufferView":48,"componentType":5126,"count":514,"max":[0.9450461,0.99998057],"min":[0.007945675,-0.0019378286],"normalized":false,"type":"VEC2"},{"bufferView":49,"componentType":5123,"count":792,"max":[513],"min":[0],"normalized":false,"type":"SCALAR"},{"bufferView":50,"componentType":5126,"count":509,"max":[0.5583089,0.18495864,1.0187718],"min":[-0.25707984,-0.75775605,-1.0187718],"normalized":false,"type":"VEC3"},{"bufferView":51,"componentType":5126,"count":509,"max":[1.0,1.0,0.6024538,1.0],"min":[-0.9688425,-1.0,-0.99379563,1.0],"normalized":false,"type":"VEC4"},{"bufferView":52,"componentType":5126,"count":509,"max":[1.0,1.0,1.0],"min":[-0.52436614,-0.9997959,-1.0],"normalized":false,"type":"VEC3"},{"bufferView":53,"componentType":5126,"count":509,"max":[0.8854658,0.49008927],"min":[0.00561532,0.04216068],"normalized":false,"type":"VEC2"},{"bufferView":54,"componentType":5123,"count":1674,"max":[508],"min":[0],"normalized":false,"type":"SCALAR"},{"bufferView":55,"componentType":5126,"count":508,"max":[0.5294733,0.83121574,0.30284873],"min":[-0.3609138,-0.4750296,-0.30284873],"normalized":false,"type":"VEC3"},{"bufferView":56,"componentType":5126,"count":508,"max":[0.9999489,0.92636585,0.9999998,1.0],"min":[-0.99997807,-0.9505453,-1.0000001,1.0],"normalized":false,"type":"VEC4"},{"bufferView":57,"componentType":5126,"count":508,"max":[0.99981433,0.9960037,0.9999961],"min":[-0.999868,-0.9999956,-0.99999607],"normalized":false,"type":"VEC3"},{"bufferView":58,"componentType":5126,"count":508,"max":[0.92750436,0.9996948],"min":[0.00028992142,0.00028992142],"normalized":false,"type":"VEC2"},{"bufferView":59,"componentType":5123,"count":1596,"max":[507],"min":[0],"normalized":false,"type":"SCALAR"},{"bufferView":60,"componentType":5126,"count":240,"max":[0.7270019,1.4274304,0.1545929],"min":[-0.7270019,-1.0325751,-0.1535179],"normalized":false,"type":"VEC3"},{"bufferView":61,"componentType":5126,"count":240,"max":[1.0,1.0,1.0,1.0],"min":[-1.0,-0.99999994,-1.0,-1.0],"normalized":false,"type":"VEC4"},{"bufferView":62,"componentType":5126,"count":240,"max":[1.0,1.0,1.0],"min":[-1.0,-1.0,-1.0],"normalized":false,"type":"VEC3"},{"bufferView":63,"componentType":5126,"count":240,"max":[0.9454171,0.99998057],"min":[0.007948794,-0.0019378286],"normalized":false,"type":"VEC2"},{"bufferView":64,"componentType":5121,"count":876,"max":[239],"min":[0],"normalized":false,"type":"SCALAR"},{"bufferView":65,"componentType":5126,"count":388,"max":[0.34941658,0.83677435,0.56646895],"min":[-0.3093436,0.004403908,-0.56646895],"normalized":false,"type":"VEC3"},{"bufferView":66,"componentType":5126,"count":388,"max":[1.0,0.50357586,0.997218,1.0],"min":[-0.9999512,-1.0000001,-0.9745383,1.0],"normalized":false,"type":"VEC4"},{"bufferView":67,"componentType":5126,"count":388,"max":[1.0,1.0,1.0],"min":[-0.5243672,-0.9999862,-1.0],"normalized":false,"type":"VEC3"},{"bufferView":68,"componentType":5126,"count":388,"max":[0.94866866,0.23121996],"min":[0.09077592,0.00561532],"normalized":false,"type":"VEC2"},{"bufferView":69,"componentType":5123,"count":1176,"max":[387],"min":[0],"normalized":false,"type":"SCALAR"},{"bufferView":70,"componentType":5126,"count":76,"max":[0.14746386,2.8639474,1.1673436],"min":[-0.14746344,-0.06871629,-1.0061908],"normalized":false,"type":"VEC3"},{"bufferView":71,"componentType":5126,"count":76,"max":[1.0,3.058172e-05,0.0010922551,1.0],"min":[-1.0,-1.0000001,-0.011342168,1.0],"normalized":false,"type":"VEC4"},{"bufferView":72,"componentType":5126,"count":76,"max":[1.0,1.0,1.0],"min":[-1.0,-1.0,-1.0],"normalized":false,"type":"VEC3"},{"bufferView":73,"componentType":5126,"count":76,"max":[0.39458305,0.99436945],"min":[0.00561532,0.29384297],"normalized":false,"type":"VEC2"},{"bufferView":74,"componentType":5121,"count":192,"max":[75],"min":[0],"normalized":false,"type":"SCALAR"},{"bufferView":75,"componentType":5126,"count":895,"max":[0.4007877,0.66240656,1.0720506],"min":[-0.46955168,-0.49091995,-1.1306272],"normalized":false,"type":"VEC3"},{"bufferView":76,"componentType":5126,"count":895,"max":[1.0,1.0,0.99937004,1.0],"min":[-0.9999993,-0.99999905,-0.9998822,-1.0],"normalized":false,"type":"VEC4"},{"bufferView":77,"componentType":5126,"count":895,"max":[1.0,1.0,1.0],"min":[-1.0,-1.0,-1.0],"normalized":false,"type":"VEC3"},{"bufferView":78,"componentType":5126,"count":895,"max":[0.6261997,0.58873886],"min":[0.18727398,0.009872587],"normalized":false,"type":"VEC2"},{"bufferView":79,"componentType":5123,"count":3348,"max":[894],"min":[0],"normalized":false,"type":"SCALAR"},{"bufferView":80,"componentType":5126,"count":696,"max":[13.55581,-0.20002615,3.6561813],"min":[-0.0740757,-1.1913381,-5.186824],"normalized":false,"type":"VEC3"},{"bufferView":81,"componentType":5126,"count":696,"max":[1.0,1.0,0.31963626,1.0],"min":[-1.0,-0.006789319,-0.40179422,1.0],"normalized":false,"type":"VEC4"},{"bufferView":82,"componentType":5126,"count":696,"max":[1.0,1.0,1.0],"min":[-1.0,-1.0,-1.0],"normalized":false,"type":"VEC3"},{"bufferView":83,"componentType":5126,"count":696,"max":[0.9416337,20.561638],"min":[0.058350116,-19.562029],"normalized":false,"type":"VEC2"},{"bufferView":84,"componentType":5123,"count":1044,"max":[695],"min":[0],"normalized":false,"type":"SCALAR"},{"bufferView":85,"componentType":5126,"count":24,"max":[0.46508932,2.376011,0.042870834],"min":[-0.46508947,0.0066273212,-0.042870834],"normalized":false,"type":"VEC3"},{"bufferView":86,"componentType":5126,"count":24,"max":[1.0,0.0,7.630093e-05,1.0],"min":[-1.5260186e-05,-1.0,-1.5259022e-05,-1.0],"normalized":false,"type":"VEC4"},{"bufferView":87,"componentType":5126,"count":24,"max":[1.0,1.0,1.0],"min":[-1.0,-1.0,-1.0],"normalized":false,"type":"VEC3"},{"bufferView":88,"componentType":5126,"count":24,"max":[0.42328796,0.66466784],"min":[0.1360318,0.5608382],"normalized":false,"type":"VEC2"},{"bufferView":89,"componentType":5121,"count":36,"max":[23],"min":[0],"normalized":false,"type":"SCALAR"},{"bufferView":90,"componentType":5126,"count":1574,"max":[0.6605941,2.8244286,2.474485],"min":[-0.5823734,0.0018094778,-0.5261249],"normalized":false,"type":"VEC3"},{"bufferView":91,"componentType":5126,"count":1574,"max":[1.0,1.0,0.99937004,1.0],"min":[-1.0,-1.0000001,-1.0,-1.0],"normalized":false,"type":"VEC4"},{"bufferView":92,"componentType":5126,"count":1574,"max":[1.0,1.0,1.0],"min":[-1.0,-1.0,-1.0],"normalized":false,"type":"VEC3"},{"bufferView":93,"componentType":5126,"count":1574,"max":[0.98643476,0.99436945],"min":[0.048432134,0.016388189],"normalized":false,"type":"VEC2"},{"bufferView":94,"componentType":5123,"count":5817,"max":[1573],"min":[0],"normalized":false,"type":"SCALAR"},{"bufferView":95,"componentType":5126,"count":16,"max":[0.17038248,0.37695664,0.17038248],"min":[-0.17038248,-0.5252808,-0.17038248],"normalized":false,"type":"VEC3"},{"bufferView":96,"componentType":5126,"count":16,"max":[1.0,3.058172e-05,0.99999994,1.0],"min":[-1.0,-3.0456227e-05,-0.99999994,1.0],"normalized":false,"type":"VEC4"},{"bufferView":97,"componentType":5126,"count":16,"max":[1.0,-8.742278e-08,1.0],"min":[-1.0,-3.0579864e-05,-1.0],"normalized":false,"type":"VEC3"},{"bufferView":98,"componentType":5126,"count":16,"max":[1.0046206,1.2039287],"min":[-0.4986542,-0.20393394],"normalized":false,"type":"VEC2"},{"bufferView":99,"componentType":5121,"count":24,"max":[15],"min":[0],"normalized":false,"type":"SCALAR"},{"bufferView":100,"componentType":5126,"count":168,"max":[2.2143426,-0.7338179,2.747913],"min":[-2.4244065,-1.0662344,-2.4571395],"normalized":false,"type":"VEC3"},{"bufferView":101,"componentType":5126,"count":168,"max":[1.0,1.0,7.367134e-05,1.0],"min":[-1.0,-3.0456227e-05,-3.057986e-05,1.0],"normalized":false,"type":"VEC4"},{"bufferView":102,"componentType":5126,"count":168,"max":[1.0,1.0,1.0],"min":[-1.0,-1.0,-1.0],"normalized":false,"type":"VEC3"},{"bufferView":103,"componentType":5126,"count":168,"max":[1.1182723,25.86142],"min":[-0.11830291,-24.861452],"normalized":false,"type":"VEC2"},{"bufferView":104,"componentType":5121,"count":252,"max":[167],"min":[0],"normalized":false,"type":"SCALAR"},{"bufferView":105,"componentType":5126,"count":3074,"max":[1.622054,-0.08399856,1.7276357],"min":[-1.3283526,-1.2021633,-1.6099693],"normalized":false,"type":"VEC3"},{"bufferView":106,"componentType":5126,"count":3074,"max":[0.9998391,0.99997044,0.99994564,1.0],"min":[-0.9999067,-0.9975334,-0.99978524,-1.0],"normalized":false,"type":"VEC4"},{"bufferView":107,"componentType":5126,"count":3074,"max":[0.99993765,0.9998318,0.9952693],"min":[-0.9979098,-0.999871,-0.99430746],"normalized":false,"type":"VEC3"},{"bufferView":108,"componentType":5126,"count":3074,"max":[4.2905927,4.2712803],"min":[-3.290338,-3.2597556],"normalized":false,"type":"VEC2"},{"bufferView":109,"componentType":5123,"count":11037,"max":[3073],"min":[0],"normalized":false,"type":"SCALAR"},{"bufferView":110,"componentType":5126,"count":479,"max":[0.59231585,0.46989062,1.061028],"min":[-1.1339039,-0.089083314,-0.548403],"normalized":false,"type":"VEC3"},{"bufferView":111,"componentType":5126,"count":479,"max":[1.0,0.998189,0.84532464,1.0],"min":[-0.9781285,-0.99818945,-0.94568354,-1.0],"normalized":false,"type":"VEC4"},{"bufferView":112,"componentType":5126,"count":479,"max":[0.99919474,0.99999905,0.99638194],"min":[-0.9988683,-0.99972963,-0.99369466],"normalized":false,"type":"VEC3"},{"bufferView":113,"componentType":5126,"count":479,"max":[0.9945245,0.996213],"min":[0.0,-0.00026607513],"normalized":false,"type":"VEC2"},{"bufferView":114,"componentType":5123,"count":1860,"max":[478],"min":[0],"normalized":false,"type":"SCALAR"},{"bufferView":115,"componentType":5126,"count":110,"max":[0.04239292,0.35759825,0.048951082],"min":[-0.042393032,-0.03818604,-0.0489513],"normalized":false,"type":"VEC3"},{"bufferView":116,"componentType":5126,"count":110,"max":[1.0,0.79360306,0.86605537,1.0],"min":[-1.0,-0.7935943,-0.9360475,-1.0],"normalized":false,"type":"VEC4"},{"bufferView":117,"componentType":5126,"count":110,"max":[0.86603075,0.72332317,0.9999871],"min":[-0.8660413,-0.61006314,-0.9999869],"normalized":false,"type":"VEC3"},{"bufferView":118,"componentType":5126,"count":110,"max":[0.36412534,0.6676975],"min":[0.012588166,0.0055131316],"normalized":false,"type":"VEC2"},{"bufferView":119,"componentType":5121,"count":492,"max":[109],"min":[0],"normalized":false,"type":"SCALAR"},{"bufferView":120,"componentType":5126,"count":56,"max":[0.016145064,0.02510912,0.04398863],"min":[-0.018222349,-0.06349339,-0.108833164],"normalized":false,"type":"VEC3"},{"bufferView":121,"componentType":5126,"count":56,"max":[0.93941265,0.9185221,0.94175935,1.0],"min":[-0.9919527,-0.43216765,-0.90074027,-1.0],"normalized":false,"type":"VEC4"},{"bufferView":122,"componentType":5126,"count":56,"max":[0.99736387,0.9364225,0.83915704],"min":[-0.9981642,-0.82226664,-0.9199275],"normalized":false,"type":"VEC3"},{"bufferView":123,"componentType":5126,"count":56,"max":[1.0,1.0],"min":[0.18329138,0.183093],"normalized":false,"type":"VEC2"},{"bufferView":124,"componentType":5121,"count":120,"max":[55],"min":[0],"normalized":false,"type":"SCALAR"},{"bufferView":125,"componentType":5126,"count":607,"max":[0.22363386,3.3948884,0.22363393],"min":[-0.22363354,1.4878881,-0.22363345],"normalized":false,"type":"VEC3"},{"bufferView":126,"componentType":5126,"count":607,"max":[1.0,0.9998916,0.9935687,1.0],"min":[-0.9999948,-0.99779934,-0.98274416,-1.0],"normalized":false,"type":"VEC4"},{"bufferView":127,"componentType":5126,"count":607,"max":[0.96593875,1.0,0.999733],"min":[-0.96593875,-0.74499786,-0.9997332],"normalized":false,"type":"VEC3"},{"bufferView":128,"componentType":5126,"count":607,"max":[0.8126087,0.91098565],"min":[0.005619852,0.22192055],"normalized":false,"type":"VEC2"},{"bufferView":129,"componentType":5123,"count":2724,"max":[606],"min":[0],"normalized":false,"type":"SCALAR"},{"bufferView":130,"componentType":5126,"count":240,"max":[0.5183481,0.013048299,0.14398521],"min":[-0.14398402,-0.013048194,-0.57594085],"normalized":false,"type":"VEC3"},{"bufferView":131,"componentType":5126,"count":240,"max":[0.44837707,0.9910723,0.9807359,1.0],"min":[-0.67778254,-0.99389064,-0.07905409,1.0],"normalized":false,"type":"VEC4"},{"bufferView":132,"componentType":5126,"count":240,"max":[0.96597105,1.0,0.9659406],"min":[-0.96592927,-9.1248236e-05,-0.96593547],"normalized":false,"type":"VEC3"},{"bufferView":133,"componentType":5126,"count":240,"max":[0.56252384,0.67187],"min":[0.50626385,0.61516744],"normalized":false,"type":"VEC2"},{"bufferView":134,"componentType":5121,"count":408,"max":[239],"min":[0],"normalized":false,"type":"SCALAR"},{"bufferView":135,"componentType":5126,"count":561,"max":[2.6966567,0.37684757,3.6083128],"min":[-2.6966567,-1.1901176,-2.9749467],"normalized":false,"type":"VEC3"},{"bufferView":136,"componentType":5126,"count":561,"max":[1.0,0.45730183,1.0,1.0],"min":[-0.087491125,-0.9999642,-1.0,-1.0],"normalized":false,"type":"VEC4"},{"bufferView":137,"componentType":5126,"count":561,"max":[1.0,1.0,1.0],"min":[-1.0,-1.0,-1.0],"normalized":false,"type":"VEC3"},{"bufferView":138,"componentType":5126,"count":561,"max":[2.559654,1.6496708],"min":[-1.8679678,-3.8778906],"normalized":false,"type":"VEC2"},{"bufferView":139,"componentType":5123,"count":1218,"max":[560],"min":[0],"normalized":false,"type":"SCALAR"},{"bufferView":140,"componentType":5126,"count":45,"max":[2.6966567,0.0,3.6083128],"min":[-2.6966567,0.0,-2.9749467],"normalized":false,"type":"VEC3"},{"bufferView":141,"componentType":5126,"count":45,"max":[2.798438e-05,-2.7477741e-05,1.0,1.0],"min":[-6.3568354e-05,-0.000119030476,1.0,1.0],"normalized":false,"type":"VEC4"},{"bufferView":142,"componentType":5126,"count":45,"max":[-2.7954578e-05,1.0,0.00011911988],"min":[-2.7954578e-05,1.0,2.7567148e-05],"normalized":false,"type":"VEC3"},{"bufferView":143,"componentType":5126,"count":45,"max":[2.559654,-0.250597],"min":[-1.8680183,-3.8778906],"normalized":false,"type":"VEC2"},{"bufferView":144,"componentType":5121,"count":168,"max":[44],"min":[0],"normalized":false,"type":"SCALAR"},{"bufferView":145,"componentType":5126,"count":4,"max":[0.46375638,2.2507124,0.13023657],"min":[0.0072241426,1.7743609,-0.38924962],"normalized":false,"type":"VEC3"},{"bufferView":146,"componentType":5126,"count":4,"max":[0.6601405,1.1461694e-05,0.75114214,1.0],"min":[0.6601405,1.1461694e-05,0.75114214,1.0],"normalized":false,"type":"VEC4"},{"bufferView":147,"componentType":5126,"count":4,"max":[-0.75114214,-5.1859233e-06,0.6601405],"min":[-0.75114214,-5.1859233e-06,0.6601405],"normalized":false,"type":"VEC3"},{"bufferView":148,"componentType":5126,"count":4,"max":[0.6657206,0.92439157],"min":[0.5301442,0.8310216],"normalized":false,"type":"VEC2"},{"bufferView":149,"componentType":5121,"count":6,"max":[3],"min":[0],"normalized":false,"type":"SCALAR"},{"bufferView":150,"componentType":5126,"count":5312,"max":[7.4692907,-1.3497976,3.2582703],"min":[-9.717174,-1.507013,-4.7860537],"normalized":false,"type":"VEC3"},{"bufferView":151,"componentType":5126,"count":5312,"max":[0.11731848,0.33615175,-0.86238563,1.0],"min":[-0.16413948,-0.50569344,-1.0000001,1.0],"normalized":false,"type":"VEC4"},{"bufferView":152,"componentType":5126,"count":5312,"max":[0.2684157,0.9999978,0.33618417],"min":[-0.28575253,0.8626603,-0.5052906],"normalized":false,"type":"VEC3"},{"bufferView":153,"componentType":5126,"count":5312,"max":[7.873603,16.309319],"min":[-7.312533,-16.003714],"normalized":false,"type":"VEC2"},{"bufferView":154,"componentType":5123,"count":7968,"max":[5311],"min":[0],"normalized":false,"type":"SCALAR"},{"bufferView":155,"componentType":5126,"count":397,"max":[7.1287026,-0.9055737,3.405727],"min":[-7.872358,-1.9613944,-4.971415],"normalized":false,"type":"VEC3"},{"bufferView":156,"componentType":5126,"count":397,"max":[1.0,0.046283506,1.0000001,1.0],"min":[-1.0,-0.04758808,-1.0000001,-1.0],"normalized":false,"type":"VEC4"},{"bufferView":157,"componentType":5126,"count":397,"max":[1.0,1.0,1.0],"min":[-1.0,-1.0,-1.0],"normalized":false,"type":"VEC3"},{"bufferView":158,"componentType":5126,"count":397,"max":[25.53805,1.0341291],"min":[-28.413427,-1.7756608],"normalized":false,"type":"VEC2"},{"bufferView":159,"componentType":5123,"count":744,"max":[396],"min":[0],"normalized":false,"type":"SCALAR"},{"bufferView":160,"componentType":5126,"count":60,"max":[5.8154135,-0.9166198,3.0778594],"min":[-7.557992,-0.9166198,-4.5820384],"normalized":false,"type":"VEC3"},{"bufferView":161,"componentType":5126,"count":60,"max":[1.0,8.779764e-05,1.0,1.0],"min":[7.370114e-05,-2.4616718e-05,1.5258657e-05,1.0],"normalized":false,"type":"VEC4"},{"bufferView":162,"componentType":5126,"count":60,"max":[6.279349e-05,-1.0,8.5413456e-05],"min":[-2.4676323e-05,-1.0,-1.385808e-05],"normalized":false,"type":"VEC3"},{"bufferView":163,"componentType":5126,"count":60,"max":[2.5430887,5.01386],"min":[-2.2339678,-3.3264306],"normalized":false,"type":"VEC2"},{"bufferView":164,"componentType":5121,"count":180,"max":[59],"min":[0],"normalized":false,"type":"SCALAR"},{"bufferView":165,"componentType":5126,"count":60,"max":[0.05000733,0.47241732,0.25131503],"min":[0.000865899,-0.44139615,-0.43388388],"normalized":false,"type":"VEC3"},{"bufferView":166,"componentType":5126,"count":60,"max":[1.0,0.16217262,0.0001438107,1.0],"min":[-1.0,-0.16505863,-1.0000001,-1.0],"normalized":false,"type":"VEC4"},{"bufferView":167,"componentType":5126,"count":60,"max":[1.0,1.0,1.0],"min":[-0.0001438107,-1.0,-1.0],"normalized":false,"type":"VEC3"},{"bufferView":168,"componentType":5126,"count":60,"max":[0.99806213,0.649958],"min":[0.5126268,0.0025635157],"normalized":false,"type":"VEC2"},{"bufferView":169,"componentType":5121,"count":102,"max":[59],"min":[0],"normalized":false,"type":"SCALAR"},{"bufferView":170,"componentType":5126,"count":60,"max":[0.0012752712,0.2612788,0.31940246],"min":[-0.024953604,-0.22394475,-0.3284616],"normalized":false,"type":"VEC3"},{"bufferView":171,"componentType":5126,"count":60,"max":[1.0,0.47289327,0.0001438107,1.0],"min":[-1.0,-0.4950856,-1.0,-1.0],"normalized":false,"type":"VEC4"},{"bufferView":172,"componentType":5126,"count":60,"max":[1.0,1.0,1.0],"min":[-0.0001438107,-1.0,-1.0],"normalized":false,"type":"VEC3"},{"bufferView":173,"componentType":5126,"count":60,"max":[0.5000229,0.99853516],"min":[0.0019378958,0.62548256],"normalized":false,"type":"VEC2"},{"bufferView":174,"componentType":5121,"count":102,"max":[59],"min":[0],"normalized":false,"type":"SCALAR"},{"bufferView":175,"componentType":5126,"count":233,"max":[7.983986,0.029999923,4.950347],"min":[-10.259041,-0.32447124,-4.949211],"normalized":false,"type":"VEC3"},{"bufferView":176,"componentType":5126,"count":233,"max":[1.0,0.0011362605,0.0026801738,1.0],"min":[0.999986,-0.00044342445,-0.0051745917,-1.0],"normalized":false,"type":"VEC4"},{"bufferView":177,"componentType":5126,"count":233,"max":[0.9950336,0.0059667323,0.9999812],"min":[-0.89537424,-0.9999992,-0.99405366],"normalized":false,"type":"VEC3"},{"bufferView":178,"componentType":5126,"count":233,"max":[4.5495205,0.97414684],"min":[-0.13337398,-3.7087474],"normalized":false,"type":"VEC2"},{"bufferView":179,"componentType":5121,"count":417,"max":[232],"min":[0],"normalized":false,"type":"SCALAR"},{"bufferView":180,"componentType":5126,"count":574,"max":[3.4185665,3.6850142,3.4187062],"min":[-6.89165,-0.22146434,-3.418808],"normalized":false,"type":"VEC3"},{"bufferView":181,"componentType":5126,"count":574,"max":[1.0,1.0,0.6844361,1.0],"min":[-0.50951,-0.73439175,-0.9999984,-1.0],"normalized":false,"type":"VEC4"},{"bufferView":182,"componentType":5126,"count":574,"max":[1.0,0.9999984,0.9994382],"min":[-1.0,-0.99996763,-0.9991207],"normalized":false,"type":"VEC3"},{"bufferView":183,"componentType":5126,"count":574,"max":[5.5948944,5.728887],"min":[-4.6182833,-4.728887],"normalized":false,"type":"VEC2"},{"bufferView":184,"componentType":5123,"count":1116,"max":[573],"min":[0],"normalized":false,"type":"SCALAR"},{"bufferView":185,"componentType":5126,"count":394,"max":[0.029340712,0.2626173,0.45313188],"min":[-0.02234561,-0.34185806,-0.56795514],"normalized":false,"type":"VEC3"},{"bufferView":186,"componentType":5126,"count":394,"max":[1.0,0.79212433,0.9999855,1.0],"min":[-0.74106026,-0.6954314,-0.01997389,-1.0],"normalized":false,"type":"VEC4"},{"bufferView":187,"componentType":5126,"count":394,"max":[0.19949703,0.99959093,0.99982756],"min":[-1.0,-0.9997983,-0.9995905],"normalized":false,"type":"VEC3"},{"bufferView":188,"componentType":5126,"count":394,"max":[0.6201673,0.4749773],"min":[0.531007,0.4076181],"normalized":false,"type":"VEC2"},{"bufferView":189,"componentType":5123,"count":720,"max":[393],"min":[0],"normalized":false,"type":"SCALAR"},{"bufferView":190,"componentType":5126,"count":5044,"max":[2.795396,-0.50950694,2.0907161],"min":[-2.2570646,-2.0504763,-1.3378634],"normalized":false,"type":"VEC3"},{"bufferView":191,"componentType":5126,"count":5044,"max":[0.9999611,0.9980632,0.9999619,1.0],"min":[-0.99995804,-0.9995949,-0.9996339,-1.0],"normalized":false,"type":"VEC4"},{"bufferView":192,"componentType":5126,"count":5044,"max":[0.9996647,0.9981051,0.9997471],"min":[-0.9998985,-0.9991572,-0.9992237],"normalized":false,"type":"VEC3"},{"bufferView":193,"componentType":5126,"count":5044,"max":[8.33363,8.336794],"min":[-7.334128,-7.3369126],"normalized":false,"type":"VEC2"},{"bufferView":194,"componentType":5123,"count":19758,"max":[5043],"min":[0],"normalized":false,"type":"SCALAR"},{"bufferView":195,"componentType":5126,"count":5050,"max":[35.266533,15.498276,61.520073],"min":[-99.03086,-55.023697,-73.49636],"normalized":false,"type":"VEC3"},{"bufferView":196,"componentType":5126,"count":5050,"max":[0.9991928,0.99868435,0.9993365,1.0],"min":[-0.99943477,-0.9986286,-0.99929273,1.0],"normalized":false,"type":"VEC4"},{"bufferView":197,"componentType":5126,"count":5050,"max":[0.99851793,0.9991561,0.9993961],"min":[-0.9989208,-0.9988479,-0.9958386],"normalized":false,"type":"VEC3"},{"bufferView":198,"componentType":5126,"count":5050,"max":[1.010994,1.0406834],"min":[0.19257243,-1.5879568e-05],"normalized":false,"type":"VEC2"},{"bufferView":199,"componentType":5123,"count":11208,"max":[5049],"min":[0],"normalized":false,"type":"SCALAR"},{"bufferView":200,"componentType":5126,"count":4,"max":[0.9240084,2.3189013,3.6083128],"min":[-0.34037775,0.0,3.6083126],"normalized":false,"type":"VEC3"},{"bufferView":201,"componentType":5126,"count":4,"max":[-0.9996884,0.011386877,4.368203e-07,1.0],"min":[-1.0,-0.024962995,-8.975151e-08,1.0],"normalized":false,"type":"VEC4"},{"bufferView":202,"componentType":5126,"count":4,"max":[6.1166304e-07,9.207474e-05,-1.0],"min":[8.5094044e-08,-3.0772426e-05,-1.0],"normalized":false,"type":"VEC3"},{"bufferView":203,"componentType":5126,"count":4,"max":[-2.7945297,1.0048144],"min":[-3.5004396,0.2676592],"normalized":false,"type":"VEC2"},{"bufferView":204,"componentType":5126,"count":48,"max":[0.7270019,1.4274304,0.072443806],"min":[-0.7270019,-1.0325751,-0.072443806],"normalized":false,"type":"VEC3"},{"bufferView":205,"componentType":5126,"count":48,"max":[7.370114e-05,0.29010537,1.0,1.0],"min":[-1.0,-0.29004595,-3.4163757e-05,-1.0],"normalized":false,"type":"VEC4"},{"bufferView":206,"componentType":5126,"count":48,"max":[1.0,1.0,1.0],"min":[-1.0,-1.0,-1.0],"normalized":false,"type":"VEC3"},{"bufferView":207,"componentType":5126,"count":48,"max":[0.79784846,0.99998474],"min":[0.04512093,0.0],"normalized":false,"type":"VEC2"},{"bufferView":208,"componentType":5121,"count":84,"max":[47],"min":[0],"normalized":false,"type":"SCALAR"},{"bufferView":209,"componentType":5126,"count":36,"max":[0.33682165,0.3415678,0.0011183321],"min":[-0.2666808,-0.4160511,-0.043691278],"normalized":false,"type":"VEC3"},{"bufferView":210,"componentType":5126,"count":36,"max":[6.902218e-05,1.0000001,0.99989426,1.0],"min":[-3.927946e-05,-0.014536142,-0.99903595,1.0],"normalized":false,"type":"VEC4"},{"bufferView":211,"componentType":5126,"count":36,"max":[0.99408066,0.9998944,0.014536055],"min":[-0.9940609,-0.999036,-1.0],"normalized":false,"type":"VEC3"},{"bufferView":212,"componentType":5126,"count":36,"max":[0.93989474,0.9797513],"min":[0.5474632,0.66756696],"normalized":false,"type":"VEC2"},{"bufferView":213,"componentType":5121,"count":54,"max":[35],"min":[0],"normalized":false,"type":"SCALAR"},{"bufferView":214,"componentType":5126,"count":144,"max":[0.8153807,0.03867524,1.7463485],"min":[-0.8153807,-0.023683626,-1.7463485],"normalized":false,"type":"VEC3"},{"bufferView":215,"componentType":5126,"count":144,"max":[1.0,0.2473731,0.02030566,1.0],"min":[0.96185255,-0.2735678,-0.020339336,1.0],"normalized":false,"type":"VEC4"},{"bufferView":216,"componentType":5126,"count":144,"max":[0.27351835,0.9999659,0.09775974],"min":[-0.24727106,0.9616526,-0.11821375],"normalized":false,"type":"VEC3"},{"bufferView":217,"componentType":5126,"count":144,"max":[1.0,1.0],"min":[0.0,0.0],"normalized":false,"type":"VEC2"},{"bufferView":218,"componentType":5121,"count":726,"max":[143],"min":[0],"normalized":false,"type":"SCALAR"},{"bufferView":219,"componentType":5126,"count":4800,"max":[1.2824477,0.9969004,2.0401685],"min":[-0.999704,-0.08747524,-2.2370274],"normalized":false,"type":"VEC3"},{"bufferView":220,"componentType":5126,"count":4800,"max":[0.99979836,0.4698991,0.9972857,1.0],"min":[-0.9984417,-0.45891547,-0.99649715,-1.0],"normalized":false,"type":"VEC4"},{"bufferView":221,"componentType":5126,"count":4800,"max":[0.99962914,0.61802,0.99961895],"min":[-0.99733937,-0.5460148,-0.99929],"normalized":false,"type":"VEC3"},{"bufferView":222,"componentType":5126,"count":4800,"max":[1.0,1.0],"min":[0.0,0.0],"normalized":false,"type":"VEC2"},{"bufferView":223,"componentType":5123,"count":7200,"max":[4799],"min":[0],"normalized":false,"type":"SCALAR"},{"bufferView":224,"componentType":5126,"count":203,"max":[2.4787726,2.7265105,1.695915],"min":[-2.479899,-0.052959457,-1.3294289],"normalized":false,"type":"VEC3"},{"bufferView":225,"componentType":5126,"count":203,"max":[1.0,1.0,0.9999999,1.0],"min":[-1.0,-0.99998647,-1.0,1.0],"normalized":false,"type":"VEC4"},{"bufferView":226,"componentType":5126,"count":203,"max":[1.0,0.99998194,1.0],"min":[-1.0,-0.99998844,-1.0],"normalized":false,"type":"VEC3"},{"bufferView":227,"componentType":5126,"count":203,"max":[0.90629435,0.5920348],"min":[0.4129549,0.093812466],"normalized":false,"type":"VEC2"},{"bufferView":228,"componentType":5121,"count":798,"max":[202],"min":[0],"normalized":false,"type":"SCALAR"},{"bufferView":229,"componentType":5126,"count":101,"max":[0.38256255,1.0391362,0.31975558],"min":[-0.35751608,-0.037101954,-0.30526784],"normalized":false,"type":"VEC3"},{"bufferView":230,"componentType":5126,"count":101,"max":[0.8392952,0.99997306,0.94824713,1.0],"min":[-0.9078938,-0.86808205,-0.9526417,1.0],"normalized":false,"type":"VEC4"},{"bufferView":231,"componentType":5126,"count":101,"max":[1.0,0.8705213,0.99314123],"min":[-0.7950842,-0.7435778,-0.9931284],"normalized":false,"type":"VEC3"},{"bufferView":232,"componentType":5126,"count":101,"max":[0.9806821,0.70022124],"min":[0.28061342,0.015686275],"normalized":false,"type":"VEC2"},{"bufferView":233,"componentType":5121,"count":375,"max":[100],"min":[0],"normalized":false,"type":"SCALAR"},{"bufferView":234,"componentType":5126,"count":132,"max":[0.62625015,1.1727546,0.6606555],"min":[-0.6033877,-0.24881682,-0.40064478],"normalized":false,"type":"VEC3"},{"bufferView":235,"componentType":5126,"count":132,"max":[0.9338244,0.13981505,0.88645095,1.0],"min":[-0.579787,-0.9999997,-0.9108051,1.0],"normalized":false,"type":"VEC4"},{"bufferView":236,"componentType":5126,"count":132,"max":[0.91390747,0.99999976,0.90540594],"min":[-0.9138759,-0.9999994,-0.579787],"normalized":false,"type":"VEC3"},{"bufferView":237,"componentType":5126,"count":132,"max":[0.9655451,0.9886778],"min":[0.14863813,0.052460518],"normalized":false,"type":"VEC2"},{"bufferView":238,"componentType":5121,"count":336,"max":[131],"min":[0],"normalized":false,"type":"SCALAR"},{"bufferView":239,"componentType":5126,"count":72,"max":[-0.67391026,2.0324578,1.347764],"min":[-1.0,1.0315782,-1.347764],"normalized":false,"type":"VEC3"},{"bufferView":240,"componentType":5126,"count":72,"max":[1.0,1.0,0.11270355,1.0],"min":[-1.0,-1.0,-0.11253995,1.0],"normalized":false,"type":"VEC4"},{"bufferView":241,"componentType":5126,"count":72,"max":[1.0,1.0,1.0],"min":[-1.0,-1.0,-1.0],"normalized":false,"type":"VEC3"},{"bufferView":242,"componentType":5126,"count":72,"max":[0.47107652,0.9886778],"min":[0.04771496,0.506035],"normalized":false,"type":"VEC2"},{"bufferView":243,"componentType":5121,"count":108,"max":[71],"min":[0],"normalized":false,"type":"SCALAR"},{"bufferView":244,"componentType":5126,"count":306,"max":[0.26265433,0.68423015,0.2719353],"min":[-0.27173564,-0.01095923,-0.26245472],"normalized":false,"type":"VEC3"},{"bufferView":245,"componentType":5126,"count":306,"max":[1.0,0.9755069,1.0000001,1.0],"min":[-1.0,-0.9981589,-1.0000001,1.0],"normalized":false,"type":"VEC4"},{"bufferView":246,"componentType":5126,"count":306,"max":[1.0,1.0,1.0],"min":[-1.0,-1.0,-1.0],"normalized":false,"type":"VEC3"},{"bufferView":247,"componentType":5126,"count":306,"max":[0.9538872,0.9886778],"min":[0.23582818,0.011306935],"normalized":false,"type":"VEC2"},{"bufferView":248,"componentType":5123,"count":912,"max":[305],"min":[0],"normalized":false,"type":"SCALAR"},{"bufferView":249,"componentType":5126,"count":92,"max":[2.8441076,2.2469246,-3.2622902],"min":[0.39096057,0.015494645,-4.595214],"normalized":false,"type":"VEC3"},{"bufferView":250,"componentType":5126,"count":92,"max":[2.798438e-05,1.5259022e-05,1.0,1.0],"min":[-1.0,-0.000119030476,-3.057986e-05,1.0],"normalized":false,"type":"VEC4"},{"bufferView":251,"componentType":5126,"count":92,"max":[8.742278e-08,1.0,1.0],"min":[-1.0,-3.051851e-05,-1.0],"normalized":false,"type":"VEC3"},{"bufferView":252,"componentType":5126,"count":92,"max":[0.9384756,0.9973754],"min":[0.21287861,0.12628366],"normalized":false,"type":"VEC2"},{"bufferView":253,"componentType":5121,"count":138,"max":[91],"min":[0],"normalized":false,"type":"SCALAR"},{"bufferView":254,"componentType":5126,"count":20,"max":[0.0995574,0.05917883,1.0],"min":[-0.0995574,0.008663893,-1.0],"normalized":false,"type":"VEC3"},{"bufferView":255,"componentType":5126,"count":20,"max":[0.99998206,0.6352786,0.88797426,1.0],"min":[-5.015731e-05,-0.6351986,-0.7818181,1.0],"normalized":false,"type":"VEC4"},{"bufferView":256,"componentType":5126,"count":20,"max":[1.0,1.0,1.0],"min":[-1.0,-2.95639e-05,-1.0],"normalized":false,"type":"VEC3"},{"bufferView":257,"componentType":5126,"count":20,"max":[0.6824598,0.4012665],"min":[0.64466316,0.17788967],"normalized":false,"type":"VEC2"},{"bufferView":258,"componentType":5121,"count":30,"max":[19],"min":[0],"normalized":false,"type":"SCALAR"},{"bufferView":259,"componentType":5126,"count":1538,"max":[2.303337,1.3006537,2.1643553],"min":[-11.830663,-1.1450264,-4.6209793],"normalized":false,"type":"VEC3"},{"bufferView":260,"componentType":5126,"count":1538,"max":[1.0,0.82687354,1.0,1.0],"min":[-1.0,-0.9999974,-1.0,1.0],"normalized":false,"type":"VEC4"},{"bufferView":261,"componentType":5126,"count":1538,"max":[1.0,1.0,1.0],"min":[-1.0,-1.0,-1.0],"normalized":false,"type":"VEC3"},{"bufferView":262,"componentType":5126,"count":1538,"max":[0.8411383,0.70022124],"min":[0.28061342,0.18117037],"normalized":false,"type":"VEC2"},{"bufferView":263,"componentType":5123,"count":2958,"max":[1537],"min":[0],"normalized":false,"type":"SCALAR"},{"bufferView":264,"componentType":5126,"count":112,"max":[2.2873182,1.1664828,2.1299553],"min":[-11.764935,-1.0135938,-4.589534],"normalized":false,"type":"VEC3"},{"bufferView":265,"componentType":5126,"count":112,"max":[0.9999517,0.12894984,0.18509763,1.0],"min":[-0.9999509,-0.9998573,-0.20869952,1.0],"normalized":false,"type":"VEC4"},{"bufferView":266,"componentType":5126,"count":112,"max":[5.371274e-06,9.628638e-05,1.0],"min":[-1.0,-0.00014665723,-1.0],"normalized":false,"type":"VEC3"},{"bufferView":267,"componentType":5126,"count":112,"max":[0.4583963,0.65111774],"min":[0.29401085,0.44234377],"normalized":false,"type":"VEC2"},{"bufferView":268,"componentType":5121,"count":168,"max":[111],"min":[0],"normalized":false,"type":"SCALAR"},{"bufferView":269,"componentType":5126,"count":70,"max":[0.8218431,0.8360425,-0.057073653],"min":[-0.84878343,-1.0435331,-0.23210943],"normalized":false,"type":"VEC3"},{"bufferView":270,"componentType":5126,"count":70,"max":[0.9999998,0.12377484,0.6662263,1.0],"min":[0.74351555,-0.121863246,-0.6574862,1.0],"normalized":false,"type":"VEC4"},{"bufferView":271,"componentType":5126,"count":70,"max":[0.66821283,0.1324411,0.9998635],"min":[-0.6681925,-0.08965541,0.73742217],"normalized":false,"type":"VEC3"},{"bufferView":272,"componentType":5126,"count":70,"max":[0.23318838,0.48172733],"min":[0.08268864,0.3312276],"normalized":false,"type":"VEC2"},{"bufferView":273,"componentType":5121,"count":288,"max":[69],"min":[0],"normalized":false,"type":"SCALAR"},{"bufferView":274,"componentType":5126,"count":64,"max":[0.19203663,1.1138107,0.6601917],"min":[0.16508077,-0.47909117,-0.6601917],"normalized":false,"type":"VEC3"},{"bufferView":275,"componentType":5126,"count":64,"max":[0.78185314,0.1348438,0.99944806,1.0],"min":[-0.78174955,-0.20348778,0.62230504,1.0],"normalized":false,"type":"VEC4"},{"bufferView":276,"componentType":5126,"count":64,"max":[-0.622787,0.72131836,0.7823915],"min":[-1.0,-0.7213081,-0.7823786],"normalized":false,"type":"VEC3"},{"bufferView":277,"componentType":5126,"count":64,"max":[0.9769741,0.40851453],"min":[0.8074617,0.27589837],"normalized":false,"type":"VEC2"},{"bufferView":278,"componentType":5121,"count":234,"max":[63],"min":[0],"normalized":false,"type":"SCALAR"},{"bufferView":279,"componentType":5126,"count":40,"max":[0.66969144,0.964322,1.0892769],"min":[-0.74562633,-0.12376298,-1.4712781],"normalized":false,"type":"VEC3"},{"bufferView":280,"componentType":5126,"count":40,"max":[0.9968908,0.8015414,0.9043273,1.0],"min":[-0.9493152,-0.6573044,-0.805356,1.0],"normalized":false,"type":"VEC4"},{"bufferView":281,"componentType":5126,"count":40,"max":[0.9914514,0.9932691,0.99672794],"min":[-0.9914591,-0.76841044,-0.99672055],"normalized":false,"type":"VEC3"},{"bufferView":282,"componentType":5126,"count":40,"max":[0.6824598,0.4012665],"min":[0.64466316,0.17788967],"normalized":false,"type":"VEC2"},{"bufferView":283,"componentType":5121,"count":60,"max":[39],"min":[0],"normalized":false,"type":"SCALAR"},{"bufferView":284,"componentType":5126,"count":958,"max":[1.581818,1.4816055,1.7092588],"min":[-1.6957141,-0.71231437,-1.8100417],"normalized":false,"type":"VEC3"},{"bufferView":285,"componentType":5126,"count":958,"max":[0.98630023,0.96585745,0.99833024,1.0],"min":[-0.93806833,-0.9980699,-0.99416995,1.0],"normalized":false,"type":"VEC4"},{"bufferView":286,"componentType":5126,"count":958,"max":[0.9658246,0.99649405,0.96467507],"min":[-0.9657993,-0.9964887,-0.9326578],"normalized":false,"type":"VEC3"},{"bufferView":287,"componentType":5126,"count":958,"max":[0.96472114,0.9886778],"min":[0.011306935,0.011306935],"normalized":false,"type":"VEC2"},{"bufferView":288,"componentType":5123,"count":2688,"max":[957],"min":[0],"normalized":false,"type":"SCALAR"},{"bufferView":289,"componentType":5126,"count":216,"max":[0.12239516,2.1387942,0.6272397],"min":[-1.456823,0.020164937,-1.7646942],"normalized":false,"type":"VEC3"},{"bufferView":290,"componentType":5126,"count":216,"max":[1.0,1.0,1.0,1.0],"min":[-1.0,-1.0,-1.0,1.0],"normalized":false,"type":"VEC4"},{"bufferView":291,"componentType":5126,"count":216,"max":[1.0,1.0,1.0],"min":[-1.0,-1.0,-1.0],"normalized":false,"type":"VEC3"},{"bufferView":292,"componentType":5126,"count":216,"max":[0.47107652,0.9886778],"min":[0.04771496,0.506035],"normalized":false,"type":"VEC2"},{"bufferView":293,"componentType":5121,"count":324,"max":[215],"min":[0],"normalized":false,"type":"SCALAR"},{"bufferView":294,"componentType":5126,"count":460,"max":[-1.9565649,1.3006537,2.1702607],"min":[-6.77148,-1.1450264,2.0589824],"normalized":false,"type":"VEC3"},{"bufferView":295,"componentType":5126,"count":460,"max":[0.24375099,0.8268088,1.0,1.0],"min":[-1.0,-0.7911521,-1.0,1.0],"normalized":false,"type":"VEC4"},{"bufferView":296,"componentType":5126,"count":460,"max":[1.0,1.0,0.3833021],"min":[-1.0,-1.0,-1.0],"normalized":false,"type":"VEC3"},{"bufferView":297,"componentType":5126,"count":460,"max":[0.8411383,0.70022124],"min":[0.28061342,0.18117037],"normalized":false,"type":"VEC2"},{"bufferView":298,"componentType":5123,"count":900,"max":[459],"min":[0],"normalized":false,"type":"SCALAR"},{"bufferView":299,"componentType":5126,"count":32,"max":[-2.022293,1.1664828,2.1358602],"min":[-6.705752,-1.0135938,2.1358602],"normalized":false,"type":"VEC3"},{"bufferView":300,"componentType":5126,"count":32,"max":[-0.99230707,0.10942061,5.196691e-06,1.0],"min":[-0.9999509,-0.12380061,-1.4094226e-06,1.0],"normalized":false,"type":"VEC4"},{"bufferView":301,"componentType":5126,"count":32,"max":[5.371274e-06,9.628638e-05,-1.0],"min":[-1.2347286e-06,-3.2410448e-05,-1.0],"normalized":false,"type":"VEC3"},{"bufferView":302,"componentType":5126,"count":32,"max":[0.4583963,0.65111774],"min":[0.29401085,0.44234377],"normalized":false,"type":"VEC2"},{"bufferView":303,"componentType":5121,"count":48,"max":[31],"min":[0],"normalized":false,"type":"SCALAR"},{"bufferView":304,"componentType":5126,"count":216,"max":[1.0028043,0.65563834,0.65161],"min":[-1.0,0.007483892,-0.6536325],"normalized":false,"type":"VEC3"},{"bufferView":305,"componentType":5126,"count":216,"max":[1.0,1.0,1.0,1.0],"min":[-1.0,-0.99999994,-1.0,1.0],"normalized":false,"type":"VEC4"},{"bufferView":306,"componentType":5126,"count":216,"max":[1.0,1.0,1.0],"min":[-1.0,-1.0,-1.0],"normalized":false,"type":"VEC3"},{"bufferView":307,"componentType":5126,"count":216,"max":[0.6866255,0.9973754],"min":[0.0026092927,0.16646066],"normalized":false,"type":"VEC2"},{"bufferView":308,"componentType":5121,"count":456,"max":[215],"min":[0],"normalized":false,"type":"SCALAR"},{"bufferView":309,"componentType":5126,"count":186,"max":[0.7338583,0.7110053,1.1688033],"min":[-0.43762618,-0.08869938,-1.1688033],"normalized":false,"type":"VEC3"},{"bufferView":310,"componentType":5126,"count":186,"max":[0.9983088,0.9992362,0.99979424,1.0],"min":[-1.0,-1.0000001,-0.99979967,1.0],"normalized":false,"type":"VEC4"},{"bufferView":311,"componentType":5126,"count":186,"max":[1.0,1.0,1.0],"min":[-1.0,-1.0,-1.0],"normalized":false,"type":"VEC3"},{"bufferView":312,"componentType":5126,"count":186,"max":[0.9306325,0.9886778],"min":[0.011306935,0.025329977],"normalized":false,"type":"VEC2"},{"bufferView":313,"componentType":5121,"count":540,"max":[185],"min":[0],"normalized":false,"type":"SCALAR"}],"asset":{"copyright":"The Creators of 'Friday Night Funkin': Lullaby'","generator":"GDRE Tools vv2.6.3","version":"2.0"},"bufferViews":[{"buffer":0,"byteLength":48,"byteStride":12,"target":34962},{"buffer":0,"byteLength":64,"byteOffset":48,"byteStride":16,"target":34962},{"buffer":0,"byteLength":48,"byteOffset":112,"byteStride":12,"target":34962},{"buffer":0,"byteLength":32,"byteOffset":160,"byteStride":8,"target":34962},{"buffer":0,"byteLength":6,"byteOffset":192,"target":34963},{"buffer":0,"byteLength":960,"byteOffset":200,"byteStride":12,"target":34962},{"buffer":0,"byteLength":1280,"byteOffset":1160,"byteStride":16,"target":34962},{"buffer":0,"byteLength":960,"byteOffset":2440,"byteStride":12,"target":34962},{"buffer":0,"byteLength":640,"byteOffset":3400,"byteStride":8,"target":34962},{"buffer":0,"byteLength":120,"byteOffset":4040,"target":34963},{"buffer":0,"byteLength":6876,"byteOffset":4160,"byteStride":12,"target":34962},{"buffer":0,"byteLength":9168,"byteOffset":11036,"byteStride":16,"target":34962},{"buffer":0,"byteLength":6876,"byteOffset":20204,"byteStride":12,"target":34962},{"buffer":0,"byteLength":4584,"byteOffset":27080,"byteStride":8,"target":34962},{"buffer":0,"byteLength":2136,"byteOffset":31664,"target":34963},{"buffer":0,"byteLength":1596,"byteOffset":33800,"byteStride":12,"target":34962},{"buffer":0,"byteLength":2128,"byteOffset":35396,"byteStride":16,"target":34962},{"buffer":0,"byteLength":1596,"byteOffset":37524,"byteStride":12,"target":34962},{"buffer":0,"byteLength":1064,"byteOffset":39120,"byteStride":8,"target":34962},{"buffer":0,"byteLength":402,"byteOffset":40184,"target":34963},{"buffer":0,"byteLength":216,"byteOffset":40588,"byteStride":12,"target":34962},{"buffer":0,"byteLength":288,"byteOffset":40804,"byteStride":16,"target":34962},{"buffer":0,"byteLength":216,"byteOffset":41092,"byteStride":12,"target":34962},{"buffer":0,"byteLength":144,"byteOffset":41308,"byteStride":8,"target":34962},{"buffer":0,"byteLength":48,"byteOffset":41452,"target":34963},{"buffer":0,"byteLength":624,"byteOffset":41500,"byteStride":12,"target":34962},{"buffer":0,"byteLength":832,"byteOffset":42124,"byteStride":16,"target":34962},{"buffer":0,"byteLength":624,"byteOffset":42956,"byteStride":12,"target":34962},{"buffer":0,"byteLength":416,"byteOffset":43580,"byteStride":8,"target":34962},{"buffer":0,"byteLength":138,"byteOffset":43996,"target":34963},{"buffer":0,"byteLength":42432,"byteOffset":44136,"byteStride":12,"target":34962},{"buffer":0,"byteLength":56576,"byteOffset":86568,"byteStride":16,"target":34962},{"buffer":0,"byteLength":42432,"byteOffset":143144,"byteStride":12,"target":34962},{"buffer":0,"byteLength":28288,"byteOffset":185576,"byteStride":8,"target":34962},{"buffer":0,"byteLength":23202,"byteOffset":213864,"target":34963},{"buffer":0,"byteLength":1152,"byteOffset":237068,"byteStride":12,"target":34962},{"buffer":0,"byteLength":1536,"byteOffset":238220,"byteStride":16,"target":34962},{"buffer":0,"byteLength":1152,"byteOffset":239756,"byteStride":12,"target":34962},{"buffer":0,"byteLength":768,"byteOffset":240908,"byteStride":8,"target":34962},{"buffer":0,"byteLength":348,"byteOffset":241676,"target":34963},{"buffer":0,"byteLength":2688,"byteOffset":242024,"byteStride":12,"target":34962},{"buffer":0,"byteLength":3584,"byteOffset":244712,"byteStride":16,"target":34962},{"buffer":0,"byteLength":2688,"byteOffset":248296,"byteStride":12,"target":34962},{"buffer":0,"byteLength":1792,"byteOffset":250984,"byteStride":8,"target":34962},{"buffer":0,"byteLength":1050,"byteOffset":252776,"target":34963},{"buffer":0,"byteLength":6168,"byteOffset":253828,"byteStride":12,"target":34962},{"buffer":0,"byteLength":8224,"byteOffset":259996,"byteStride":16,"target":34962},{"buffer":0,"byteLength":6168,"byteOffset":268220,"byteStride":12,"target":34962},{"buffer":0,"byteLength":4112,"byteOffset":274388,"byteStride":8,"target":34962},{"buffer":0,"byteLength":1584,"byteOffset":278500,"target":34963},{"buffer":0,"byteLength":6108,"byteOffset":280084,"byteStride":12,"target":34962},{"buffer":0,"byteLength":8144,"byteOffset":286192,"byteStride":16,"target":34962},{"buffer":0,"byteLength":6108,"byteOffset":294336,"byteStride":12,"target":34962},{"buffer":0,"byteLength":4072,"byteOffset":300444,"byteStride":8,"target":34962},{"buffer":0,"byteLength":3348,"byteOffset":304516,"target":34963},{"buffer":0,"byteLength":6096,"byteOffset":307864,"byteStride":12,"target":34962},{"buffer":0,"byteLength":8128,"byteOffset":313960,"byteStride":16,"target":34962},{"buffer":0,"byteLength":6096,"byteOffset":322088,"byteStride":12,"target":34962},{"buffer":0,"byteLength":4064,"byteOffset":328184,"byteStride":8,"target":34962},{"buffer":0,"byteLength":3192,"byteOffset":332248,"target":34963},{"buffer":0,"byteLength":2880,"byteOffset":335440,"byteStride":12,"target":34962},{"buffer":0,"byteLength":3840,"byteOffset":338320,"byteStride":16,"target":34962},{"buffer":0,"byteLength":2880,"byteOffset":342160,"byteStride":12,"target":34962},{"buffer":0,"byteLength":1920,"byteOffset":345040,"byteStride":8,"target":34962},{"buffer":0,"byteLength":876,"byteOffset":346960,"target":34963},{"buffer":0,"byteLength":4656,"byteOffset":347836,"byteStride":12,"target":34962},{"buffer":0,"byteLength":6208,"byteOffset":352492,"byteStride":16,"target":34962},{"buffer":0,"byteLength":4656,"byteOffset":358700,"byteStride":12,"target":34962},{"buffer":0,"byteLength":3104,"byteOffset":363356,"byteStride":8,"target":34962},{"buffer":0,"byteLength":2352,"byteOffset":366460,"target":34963},{"buffer":0,"byteLength":912,"byteOffset":368812,"byteStride":12,"target":34962},{"buffer":0,"byteLength":1216,"byteOffset":369724,"byteStride":16,"target":34962},{"buffer":0,"byteLength":912,"byteOffset":370940,"byteStride":12,"target":34962},{"buffer":0,"byteLength":608,"byteOffset":371852,"byteStride":8,"target":34962},{"buffer":0,"byteLength":192,"byteOffset":372460,"target":34963},{"buffer":0,"byteLength":10740,"byteOffset":372652,"byteStride":12,"target":34962},{"buffer":0,"byteLength":14320,"byteOffset":383392,"byteStride":16,"target":34962},{"buffer":0,"byteLength":10740,"byteOffset":397712,"byteStride":12,"target":34962},{"buffer":0,"byteLength":7160,"byteOffset":408452,"byteStride":8,"target":34962},{"buffer":0,"byteLength":6696,"byteOffset":415612,"target":34963},{"buffer":0,"byteLength":8352,"byteOffset":422308,"byteStride":12,"target":34962},{"buffer":0,"byteLength":11136,"byteOffset":430660,"byteStride":16,"target":34962},{"buffer":0,"byteLength":8352,"byteOffset":441796,"byteStride":12,"target":34962},{"buffer":0,"byteLength":5568,"byteOffset":450148,"byteStride":8,"target":34962},{"buffer":0,"byteLength":2088,"byteOffset":455716,"target":34963},{"buffer":0,"byteLength":288,"byteOffset":457804,"byteStride":12,"target":34962},{"buffer":0,"byteLength":384,"byteOffset":458092,"byteStride":16,"target":34962},{"buffer":0,"byteLength":288,"byteOffset":458476,"byteStride":12,"target":34962},{"buffer":0,"byteLength":192,"byteOffset":458764,"byteStride":8,"target":34962},{"buffer":0,"byteLength":36,"byteOffset":458956,"target":34963},{"buffer":0,"byteLength":18888,"byteOffset":458992,"byteStride":12,"target":34962},{"buffer":0,"byteLength":25184,"byteOffset":477880,"byteStride":16,"target":34962},{"buffer":0,"byteLength":18888,"byteOffset":503064,"byteStride":12,"target":34962},{"buffer":0,"byteLength":12592,"byteOffset":521952,"byteStride":8,"target":34962},{"buffer":0,"byteLength":11634,"byteOffset":534544,"target":34963},{"buffer":0,"byteLength":192,"byteOffset":546180,"byteStride":12,"target":34962},{"buffer":0,"byteLength":256,"byteOffset":546372,"byteStride":16,"target":34962},{"buffer":0,"byteLength":192,"byteOffset":546628,"byteStride":12,"target":34962},{"buffer":0,"byteLength":128,"byteOffset":546820,"byteStride":8,"target":34962},{"buffer":0,"byteLength":24,"byteOffset":546948,"target":34963},{"buffer":0,"byteLength":2016,"byteOffset":546972,"byteStride":12,"target":34962},{"buffer":0,"byteLength":2688,"byteOffset":548988,"byteStride":16,"target":34962},{"buffer":0,"byteLength":2016,"byteOffset":551676,"byteStride":12,"target":34962},{"buffer":0,"byteLength":1344,"byteOffset":553692,"byteStride":8,"target":34962},{"buffer":0,"byteLength":252,"byteOffset":555036,"target":34963},{"buffer":0,"byteLength":36888,"byteOffset":555288,"byteStride":12,"target":34962},{"buffer":0,"byteLength":49184,"byteOffset":592176,"byteStride":16,"target":34962},{"buffer":0,"byteLength":36888,"byteOffset":641360,"byteStride":12,"target":34962},{"buffer":0,"byteLength":24592,"byteOffset":678248,"byteStride":8,"target":34962},{"buffer":0,"byteLength":22074,"byteOffset":702840,"target":34963},{"buffer":0,"byteLength":5748,"byteOffset":724916,"byteStride":12,"target":34962},{"buffer":0,"byteLength":7664,"byteOffset":730664,"byteStride":16,"target":34962},{"buffer":0,"byteLength":5748,"byteOffset":738328,"byteStride":12,"target":34962},{"buffer":0,"byteLength":3832,"byteOffset":744076,"byteStride":8,"target":34962},{"buffer":0,"byteLength":3720,"byteOffset":747908,"target":34963},{"buffer":0,"byteLength":1320,"byteOffset":751628,"byteStride":12,"target":34962},{"buffer":0,"byteLength":1760,"byteOffset":752948,"byteStride":16,"target":34962},{"buffer":0,"byteLength":1320,"byteOffset":754708,"byteStride":12,"target":34962},{"buffer":0,"byteLength":880,"byteOffset":756028,"byteStride":8,"target":34962},{"buffer":0,"byteLength":492,"byteOffset":756908,"target":34963},{"buffer":0,"byteLength":672,"byteOffset":757400,"byteStride":12,"target":34962},{"buffer":0,"byteLength":896,"byteOffset":758072,"byteStride":16,"target":34962},{"buffer":0,"byteLength":672,"byteOffset":758968,"byteStride":12,"target":34962},{"buffer":0,"byteLength":448,"byteOffset":759640,"byteStride":8,"target":34962},{"buffer":0,"byteLength":120,"byteOffset":760088,"target":34963},{"buffer":0,"byteLength":7284,"byteOffset":760208,"byteStride":12,"target":34962},{"buffer":0,"byteLength":9712,"byteOffset":767492,"byteStride":16,"target":34962},{"buffer":0,"byteLength":7284,"byteOffset":777204,"byteStride":12,"target":34962},{"buffer":0,"byteLength":4856,"byteOffset":784488,"byteStride":8,"target":34962},{"buffer":0,"byteLength":5448,"byteOffset":789344,"target":34963},{"buffer":0,"byteLength":2880,"byteOffset":794792,"byteStride":12,"target":34962},{"buffer":0,"byteLength":3840,"byteOffset":797672,"byteStride":16,"target":34962},{"buffer":0,"byteLength":2880,"byteOffset":801512,"byteStride":12,"target":34962},{"buffer":0,"byteLength":1920,"byteOffset":804392,"byteStride":8,"target":34962},{"buffer":0,"byteLength":408,"byteOffset":806312,"target":34963},{"buffer":0,"byteLength":6732,"byteOffset":806720,"byteStride":12,"target":34962},{"buffer":0,"byteLength":8976,"byteOffset":813452,"byteStride":16,"target":34962},{"buffer":0,"byteLength":6732,"byteOffset":822428,"byteStride":12,"target":34962},{"buffer":0,"byteLength":4488,"byteOffset":829160,"byteStride":8,"target":34962},{"buffer":0,"byteLength":2436,"byteOffset":833648,"target":34963},{"buffer":0,"byteLength":540,"byteOffset":836084,"byteStride":12,"target":34962},{"buffer":0,"byteLength":720,"byteOffset":836624,"byteStride":16,"target":34962},{"buffer":0,"byteLength":540,"byteOffset":837344,"byteStride":12,"target":34962},{"buffer":0,"byteLength":360,"byteOffset":837884,"byteStride":8,"target":34962},{"buffer":0,"byteLength":168,"byteOffset":838244,"target":34963},{"buffer":0,"byteLength":48,"byteOffset":838412,"byteStride":12,"target":34962},{"buffer":0,"byteLength":64,"byteOffset":838460,"byteStride":16,"target":34962},{"buffer":0,"byteLength":48,"byteOffset":838524,"byteStride":12,"target":34962},{"buffer":0,"byteLength":32,"byteOffset":838572,"byteStride":8,"target":34962},{"buffer":0,"byteLength":6,"byteOffset":838604,"target":34963},{"buffer":0,"byteLength":63744,"byteOffset":838612,"byteStride":12,"target":34962},{"buffer":0,"byteLength":84992,"byteOffset":902356,"byteStride":16,"target":34962},{"buffer":0,"byteLength":63744,"byteOffset":987348,"byteStride":12,"target":34962},{"buffer":0,"byteLength":42496,"byteOffset":1051092,"byteStride":8,"target":34962},{"buffer":0,"byteLength":15936,"byteOffset":1093588,"target":34963},{"buffer":0,"byteLength":4764,"byteOffset":1109524,"byteStride":12,"target":34962},{"buffer":0,"byteLength":6352,"byteOffset":1114288,"byteStride":16,"target":34962},{"buffer":0,"byteLength":4764,"byteOffset":1120640,"byteStride":12,"target":34962},{"buffer":0,"byteLength":3176,"byteOffset":1125404,"byteStride":8,"target":34962},{"buffer":0,"byteLength":1488,"byteOffset":1128580,"target":34963},{"buffer":0,"byteLength":720,"byteOffset":1130068,"byteStride":12,"target":34962},{"buffer":0,"byteLength":960,"byteOffset":1130788,"byteStride":16,"target":34962},{"buffer":0,"byteLength":720,"byteOffset":1131748,"byteStride":12,"target":34962},{"buffer":0,"byteLength":480,"byteOffset":1132468,"byteStride":8,"target":34962},{"buffer":0,"byteLength":180,"byteOffset":1132948,"target":34963},{"buffer":0,"byteLength":720,"byteOffset":1133128,"byteStride":12,"target":34962},{"buffer":0,"byteLength":960,"byteOffset":1133848,"byteStride":16,"target":34962},{"buffer":0,"byteLength":720,"byteOffset":1134808,"byteStride":12,"target":34962},{"buffer":0,"byteLength":480,"byteOffset":1135528,"byteStride":8,"target":34962},{"buffer":0,"byteLength":102,"byteOffset":1136008,"target":34963},{"buffer":0,"byteLength":720,"byteOffset":1136112,"byteStride":12,"target":34962},{"buffer":0,"byteLength":960,"byteOffset":1136832,"byteStride":16,"target":34962},{"buffer":0,"byteLength":720,"byteOffset":1137792,"byteStride":12,"target":34962},{"buffer":0,"byteLength":480,"byteOffset":1138512,"byteStride":8,"target":34962},{"buffer":0,"byteLength":102,"byteOffset":1138992,"target":34963},{"buffer":0,"byteLength":2796,"byteOffset":1139096,"byteStride":12,"target":34962},{"buffer":0,"byteLength":3728,"byteOffset":1141892,"byteStride":16,"target":34962},{"buffer":0,"byteLength":2796,"byteOffset":1145620,"byteStride":12,"target":34962},{"buffer":0,"byteLength":1864,"byteOffset":1148416,"byteStride":8,"target":34962},{"buffer":0,"byteLength":417,"byteOffset":1150280,"target":34963},{"buffer":0,"byteLength":6888,"byteOffset":1150700,"byteStride":12,"target":34962},{"buffer":0,"byteLength":9184,"byteOffset":1157588,"byteStride":16,"target":34962},{"buffer":0,"byteLength":6888,"byteOffset":1166772,"byteStride":12,"target":34962},{"buffer":0,"byteLength":4592,"byteOffset":1173660,"byteStride":8,"target":34962},{"buffer":0,"byteLength":2232,"byteOffset":1178252,"target":34963},{"buffer":0,"byteLength":4728,"byteOffset":1180484,"byteStride":12,"target":34962},{"buffer":0,"byteLength":6304,"byteOffset":1185212,"byteStride":16,"target":34962},{"buffer":0,"byteLength":4728,"byteOffset":1191516,"byteStride":12,"target":34962},{"buffer":0,"byteLength":3152,"byteOffset":1196244,"byteStride":8,"target":34962},{"buffer":0,"byteLength":1440,"byteOffset":1199396,"target":34963},{"buffer":0,"byteLength":60528,"byteOffset":1200836,"byteStride":12,"target":34962},{"buffer":0,"byteLength":80704,"byteOffset":1261364,"byteStride":16,"target":34962},{"buffer":0,"byteLength":60528,"byteOffset":1342068,"byteStride":12,"target":34962},{"buffer":0,"byteLength":40352,"byteOffset":1402596,"byteStride":8,"target":34962},{"buffer":0,"byteLength":39516,"byteOffset":1442948,"target":34963},{"buffer":0,"byteLength":60600,"byteOffset":1482464,"byteStride":12,"target":34962},{"buffer":0,"byteLength":80800,"byteOffset":1543064,"byteStride":16,"target":34962},{"buffer":0,"byteLength":60600,"byteOffset":1623864,"byteStride":12,"target":34962},{"buffer":0,"byteLength":40400,"byteOffset":1684464,"byteStride":8,"target":34962},{"buffer":0,"byteLength":22416,"byteOffset":1724864,"target":34963},{"buffer":0,"byteLength":48,"byteOffset":1747280,"byteStride":12,"target":34962},{"buffer":0,"byteLength":64,"byteOffset":1747328,"byteStride":16,"target":34962},{"buffer":0,"byteLength":48,"byteOffset":1747392,"byteStride":12,"target":34962},{"buffer":0,"byteLength":32,"byteOffset":1747440,"byteStride":8,"target":34962},{"buffer":0,"byteLength":576,"byteOffset":1747472,"byteStride":12,"target":34962},{"buffer":0,"byteLength":768,"byteOffset":1748048,"byteStride":16,"target":34962},{"buffer":0,"byteLength":576,"byteOffset":1748816,"byteStride":12,"target":34962},{"buffer":0,"byteLength":384,"byteOffset":1749392,"byteStride":8,"target":34962},{"buffer":0,"byteLength":84,"byteOffset":1749776,"target":34963},{"buffer":0,"byteLength":432,"byteOffset":1749860,"byteStride":12,"target":34962},{"buffer":0,"byteLength":576,"byteOffset":1750292,"byteStride":16,"target":34962},{"buffer":0,"byteLength":432,"byteOffset":1750868,"byteStride":12,"target":34962},{"buffer":0,"byteLength":288,"byteOffset":1751300,"byteStride":8,"target":34962},{"buffer":0,"byteLength":54,"byteOffset":1751588,"target":34963},{"buffer":0,"byteLength":1728,"byteOffset":1751644,"byteStride":12,"target":34962},{"buffer":0,"byteLength":2304,"byteOffset":1753372,"byteStride":16,"target":34962},{"buffer":0,"byteLength":1728,"byteOffset":1755676,"byteStride":12,"target":34962},{"buffer":0,"byteLength":1152,"byteOffset":1757404,"byteStride":8,"target":34962},{"buffer":0,"byteLength":726,"byteOffset":1758556,"target":34963},{"buffer":0,"byteLength":57600,"byteOffset":1759284,"byteStride":12,"target":34962},{"buffer":0,"byteLength":76800,"byteOffset":1816884,"byteStride":16,"target":34962},{"buffer":0,"byteLength":57600,"byteOffset":1893684,"byteStride":12,"target":34962},{"buffer":0,"byteLength":38400,"byteOffset":1951284,"byteStride":8,"target":34962},{"buffer":0,"byteLength":14400,"byteOffset":1989684,"target":34963},{"buffer":0,"byteLength":2436,"byteOffset":2004084,"byteStride":12,"target":34962},{"buffer":0,"byteLength":3248,"byteOffset":2006520,"byteStride":16,"target":34962},{"buffer":0,"byteLength":2436,"byteOffset":2009768,"byteStride":12,"target":34962},{"buffer":0,"byteLength":1624,"byteOffset":2012204,"byteStride":8,"target":34962},{"buffer":0,"byteLength":798,"byteOffset":2013828,"target":34963},{"buffer":0,"byteLength":1212,"byteOffset":2014628,"byteStride":12,"target":34962},{"buffer":0,"byteLength":1616,"byteOffset":2015840,"byteStride":16,"target":34962},{"buffer":0,"byteLength":1212,"byteOffset":2017456,"byteStride":12,"target":34962},{"buffer":0,"byteLength":808,"byteOffset":2018668,"byteStride":8,"target":34962},{"buffer":0,"byteLength":375,"byteOffset":2019476,"target":34963},{"buffer":0,"byteLength":1584,"byteOffset":2019852,"byteStride":12,"target":34962},{"buffer":0,"byteLength":2112,"byteOffset":2021436,"byteStride":16,"target":34962},{"buffer":0,"byteLength":1584,"byteOffset":2023548,"byteStride":12,"target":34962},{"buffer":0,"byteLength":1056,"byteOffset":2025132,"byteStride":8,"target":34962},{"buffer":0,"byteLength":336,"byteOffset":2026188,"target":34963},{"buffer":0,"byteLength":864,"byteOffset":2026524,"byteStride":12,"target":34962},{"buffer":0,"byteLength":1152,"byteOffset":2027388,"byteStride":16,"target":34962},{"buffer":0,"byteLength":864,"byteOffset":2028540,"byteStride":12,"target":34962},{"buffer":0,"byteLength":576,"byteOffset":2029404,"byteStride":8,"target":34962},{"buffer":0,"byteLength":108,"byteOffset":2029980,"target":34963},{"buffer":0,"byteLength":3672,"byteOffset":2030088,"byteStride":12,"target":34962},{"buffer":0,"byteLength":4896,"byteOffset":2033760,"byteStride":16,"target":34962},{"buffer":0,"byteLength":3672,"byteOffset":2038656,"byteStride":12,"target":34962},{"buffer":0,"byteLength":2448,"byteOffset":2042328,"byteStride":8,"target":34962},{"buffer":0,"byteLength":1824,"byteOffset":2044776,"target":34963},{"buffer":0,"byteLength":1104,"byteOffset":2046600,"byteStride":12,"target":34962},{"buffer":0,"byteLength":1472,"byteOffset":2047704,"byteStride":16,"target":34962},{"buffer":0,"byteLength":1104,"byteOffset":2049176,"byteStride":12,"target":34962},{"buffer":0,"byteLength":736,"byteOffset":2050280,"byteStride":8,"target":34962},{"buffer":0,"byteLength":138,"byteOffset":2051016,"target":34963},{"buffer":0,"byteLength":240,"byteOffset":2051156,"byteStride":12,"target":34962},{"buffer":0,"byteLength":320,"byteOffset":2051396,"byteStride":16,"target":34962},{"buffer":0,"byteLength":240,"byteOffset":2051716,"byteStride":12,"target":34962},{"buffer":0,"byteLength":160,"byteOffset":2051956,"byteStride":8,"target":34962},{"buffer":0,"byteLength":30,"byteOffset":2052116,"target":34963},{"buffer":0,"byteLength":18456,"byteOffset":2052148,"byteStride":12,"target":34962},{"buffer":0,"byteLength":24608,"byteOffset":2070604,"byteStride":16,"target":34962},{"buffer":0,"byteLength":18456,"byteOffset":2095212,"byteStride":12,"target":34962},{"buffer":0,"byteLength":12304,"byteOffset":2113668,"byteStride":8,"target":34962},{"buffer":0,"byteLength":5916,"byteOffset":2125972,"target":34963},{"buffer":0,"byteLength":1344,"byteOffset":2131888,"byteStride":12,"target":34962},{"buffer":0,"byteLength":1792,"byteOffset":2133232,"byteStride":16,"target":34962},{"buffer":0,"byteLength":1344,"byteOffset":2135024,"byteStride":12,"target":34962},{"buffer":0,"byteLength":896,"byteOffset":2136368,"byteStride":8,"target":34962},{"buffer":0,"byteLength":168,"byteOffset":2137264,"target":34963},{"buffer":0,"byteLength":840,"byteOffset":2137432,"byteStride":12,"target":34962},{"buffer":0,"byteLength":1120,"byteOffset":2138272,"byteStride":16,"target":34962},{"buffer":0,"byteLength":840,"byteOffset":2139392,"byteStride":12,"target":34962},{"buffer":0,"byteLength":560,"byteOffset":2140232,"byteStride":8,"target":34962},{"buffer":0,"byteLength":288,"byteOffset":2140792,"target":34963},{"buffer":0,"byteLength":768,"byteOffset":2141080,"byteStride":12,"target":34962},{"buffer":0,"byteLength":1024,"byteOffset":2141848,"byteStride":16,"target":34962},{"buffer":0,"byteLength":768,"byteOffset":2142872,"byteStride":12,"target":34962},{"buffer":0,"byteLength":512,"byteOffset":2143640,"byteStride":8,"target":34962},{"buffer":0,"byteLength":234,"byteOffset":2144152,"target":34963},{"buffer":0,"byteLength":480,"byteOffset":2144388,"byteStride":12,"target":34962},{"buffer":0,"byteLength":640,"byteOffset":2144868,"byteStride":16,"target":34962},{"buffer":0,"byteLength":480,"byteOffset":2145508,"byteStride":12,"target":34962},{"buffer":0,"byteLength":320,"byteOffset":2145988,"byteStride":8,"target":34962},{"buffer":0,"byteLength":60,"byteOffset":2146308,"target":34963},{"buffer":0,"byteLength":11496,"byteOffset":2146368,"byteStride":12,"target":34962},{"buffer":0,"byteLength":15328,"byteOffset":2157864,"byteStride":16,"target":34962},{"buffer":0,"byteLength":11496,"byteOffset":2173192,"byteStride":12,"target":34962},{"buffer":0,"byteLength":7664,"byteOffset":2184688,"byteStride":8,"target":34962},{"buffer":0,"byteLength":5376,"byteOffset":2192352,"target":34963},{"buffer":0,"byteLength":2592,"byteOffset":2197728,"byteStride":12,"target":34962},{"buffer":0,"byteLength":3456,"byteOffset":2200320,"byteStride":16,"target":34962},{"buffer":0,"byteLength":2592,"byteOffset":2203776,"byteStride":12,"target":34962},{"buffer":0,"byteLength":1728,"byteOffset":2206368,"byteStride":8,"target":34962},{"buffer":0,"byteLength":324,"byteOffset":2208096,"target":34963},{"buffer":0,"byteLength":5520,"byteOffset":2208420,"byteStride":12,"target":34962},{"buffer":0,"byteLength":7360,"byteOffset":2213940,"byteStride":16,"target":34962},{"buffer":0,"byteLength":5520,"byteOffset":2221300,"byteStride":12,"target":34962},{"buffer":0,"byteLength":3680,"byteOffset":2226820,"byteStride":8,"target":34962},{"buffer":0,"byteLength":1800,"byteOffset":2230500,"target":34963},{"buffer":0,"byteLength":384,"byteOffset":2232300,"byteStride":12,"target":34962},{"buffer":0,"byteLength":512,"byteOffset":2232684,"byteStride":16,"target":34962},{"buffer":0,"byteLength":384,"byteOffset":2233196,"byteStride":12,"target":34962},{"buffer":0,"byteLength":256,"byteOffset":2233580,"byteStride":8,"target":34962},{"buffer":0,"byteLength":48,"byteOffset":2233836,"target":34963},{"buffer":0,"byteLength":2592,"byteOffset":2233884,"byteStride":12,"target":34962},{"buffer":0,"byteLength":3456,"byteOffset":2236476,"byteStride":16,"target":34962},{"buffer":0,"byteLength":2592,"byteOffset":2239932,"byteStride":12,"target":34962},{"buffer":0,"byteLength":1728,"byteOffset":2242524,"byteStride":8,"target":34962},{"buffer":0,"byteLength":456,"byteOffset":2244252,"target":34963},{"buffer":0,"byteLength":2232,"byteOffset":2244708,"byteStride":12,"target":34962},{"buffer":0,"byteLength":2976,"byteOffset":2246940,"byteStride":16,"target":34962},{"buffer":0,"byteLength":2232,"byteOffset":2249916,"byteStride":12,"target":34962},{"buffer":0,"byteLength":1488,"byteOffset":2252148,"byteStride":8,"target":34962},{"buffer":0,"byteLength":540,"byteOffset":2253636,"target":34963},{"buffer":0,"byteLength":5772189,"byteOffset":2254176},{"buffer":0,"byteLength":1618024,"byteOffset":8026365},{"buffer":0,"byteLength":1263352,"byteOffset":9644389},{"buffer":0,"byteLength":2043295,"byteOffset":10907741},{"buffer":0,"byteLength":349804,"byteOffset":12951036},{"buffer":0,"byteLength":436238,"byteOffset":13300840},{"buffer":0,"byteLength":459128,"byteOffset":13737078},{"buffer":0,"byteLength":694177,"byteOffset":14196206},{"buffer":0,"byteLength":1261260,"byteOffset":14890383},{"buffer":0,"byteLength":943285,"byteOffset":16151643},{"buffer":0,"byteLength":4363,"byteOffset":17094928},{"buffer":0,"byteLength":4876251,"byteOffset":17099291},{"buffer":0,"byteLength":1264459,"byteOffset":21975542},{"buffer":0,"byteLength":25502,"byteOffset":23240001},{"buffer":0,"byteLength":483673,"byteOffset":23265503},{"buffer":0,"byteLength":30347,"byteOffset":23749176},{"buffer":0,"byteLength":265107,"byteOffset":23779523},{"buffer":0,"byteLength":787517,"byteOffset":24044630},{"buffer":0,"byteLength":520154,"byteOffset":24832147},{"buffer":0,"byteLength":406357,"byteOffset":25352301},{"buffer":0,"byteLength":227030,"byteOffset":25758658},{"buffer":0,"byteLength":784351,"byteOffset":25985688},{"buffer":0,"byteLength":125300,"byteOffset":26770039},{"buffer":0,"byteLength":4143754,"byteOffset":26895339},{"buffer":0,"byteLength":626367,"byteOffset":31039093},{"buffer":0,"byteLength":62146,"byteOffset":31665460}],"buffers":[{"byteLength":31727606,"uri":"chimera_house0.bin"}],"extensionsUsed":["GODOT_single_root","KHR_materials_unlit"],"images":[{"bufferView":314,"mimeType":"image/png","name":"props2_Base_Color"},{"bufferView":315,"mimeType":"image/png","name":"props2_Metallic-props2_Roughness"},{"bufferView":316,"mimeType":"image/png","name":"props2_Normal"},{"bufferView":317,"mimeType":"image/png","name":"wall"},{"bufferView":318,"mimeType":"image/png","name":"floor1"},{"bufferView":319,"mimeType":"image/png","name":"floor2"},{"bufferView":320,"mimeType":"image/png","name":"wall2"},{"bufferView":321,"mimeType":"image/png","name":"trash"},{"bufferView":322,"mimeType":"image/png","name":"photos"},{"bufferView":323,"mimeType":"image/png","name":"fuckigndoor"},{"bufferView":324,"mimeType":"image/png","name":"door_metallic"},{"bufferView":325,"mimeType":"image/png","name":"FUKC"},{"bufferView":326,"mimeType":"image/png","name":"chair"},{"bufferView":327,"mimeType":"image/png","name":"wood"},{"bufferView":328,"mimeType":"image/png","name":"bricks"},{"bufferView":329,"mimeType":"image/png","name":"fiberglass"},{"bufferView":330,"mimeType":"image/png","name":"plantt"},{"bufferView":331,"mimeType":"image/png","name":"dirt"},{"bufferView":332,"mimeType":"image/png","name":"plywood"},{"bufferView":333,"mimeType":"image/png","name":"roofer"},{"bufferView":334,"mimeType":"image/png","name":"foliage"},{"bufferView":335,"mimeType":"image/png","name":"bro"},{"bufferView":336,"mimeType":"image/png","name":"grars"},{"bufferView":337,"mimeType":"image/png","name":"props1_Base_Color"},{"bufferView":338,"mimeType":"image/png","name":"props1_Metallic-props1_Roughness"},{"bufferView":339,"mimeType":"image/png","name":"props1_Normal_OpenGL"}],"materials":[{"alphaMode":"BLEND","doubleSided":true,"name":"props2","normalTexture":{"index":2,"scale":1.0},"pbrMetallicRoughness":{"baseColorFactor":[1.0,1.0,1.0,1.0],"baseColorTexture":{"index":0},"metallicFactor":1.0,"metallicRoughnessTexture":{"index":1},"roughnessFactor":1.0}},{"doubleSided":true,"name":"wall","pbrMetallicRoughness":{"baseColorFactor":[1.0,1.0,1.0,1.0],"baseColorTexture":{"index":3},"metallicFactor":0.0,"roughnessFactor":1.0}},{"doubleSided":true,"name":"floor","pbrMetallicRoughness":{"baseColorFactor":[1.0,1.0,1.0,1.0],"baseColorTexture":{"index":4},"metallicFactor":0.0,"roughnessFactor":1.0}},{"doubleSided":true,"name":"floor2","pbrMetallicRoughness":{"baseColorFactor":[1.0,1.0,1.0,1.0],"baseColorTexture":{"index":5},"metallicFactor":0.0,"roughnessFactor":0.5}},{"doubleSided":true,"name":"wall2","pbrMetallicRoughness":{"baseColorFactor":[1.0,1.0,1.0,1.0],"baseColorTexture":{"index":6},"metallicFactor":0.0,"roughnessFactor":0.5}},{"alphaMode":"BLEND","doubleSided":true,"name":"trash","pbrMetallicRoughness":{"baseColorFactor":[1.0,1.0,1.0,1.0],"baseColorTexture":{"index":7},"metallicFactor":0.0,"roughnessFactor":0.5}},{"doubleSided":true,"name":"photos","pbrMetallicRoughness":{"baseColorFactor":[1.0,1.0,1.0,1.0],"baseColorTexture":{"index":8},"metallicFactor":0.0,"roughnessFactor":1.0}},{"doubleSided":true,"name":"Material","pbrMetallicRoughness":{"baseColorFactor":[1.0,1.0,1.0,1.0],"baseColorTexture":{"index":9},"metallicFactor":1.0,"metallicRoughnessTexture":{"index":10},"roughnessFactor":0.5}},{"alphaMode":"BLEND","doubleSided":true,"name":"propruhhhhhoneofthem","pbrMetallicRoughness":{"baseColorFactor":[1.0,1.0,1.0,1.0],"baseColorTexture":{"index":11},"metallicFactor":0.0,"roughnessFactor":1.0}},{"doubleSided":true,"name":"chair","pbrMetallicRoughness":{"baseColorFactor":[1.0,1.0,1.0,1.0],"baseColorTexture":{"index":12},"metallicFactor":0.0,"roughnessFactor":1.0}},{"doubleSided":true,"name":"wood","pbrMetallicRoughness":{"baseColorFactor":[1.0,1.0,1.0,1.0],"baseColorTexture":{"index":13},"metallicFactor":0.0,"roughnessFactor":0.5}},{"doubleSided":true,"name":"bricks","pbrMetallicRoughness":{"baseColorFactor":[1.0,1.0,1.0,1.0],"baseColorTexture":{"index":14},"metallicFactor":0.0,"roughnessFactor":0.5}},{"doubleSided":true,"name":"fiberglass","pbrMetallicRoughness":{"baseColorFactor":[1.0,1.0,1.0,1.0],"baseColorTexture":{"index":15},"metallicFactor":0.0,"roughnessFactor":1.0}},{"alphaMode":"BLEND","doubleSided":true,"name":"Material.001","pbrMetallicRoughness":{"baseColorFactor":[1.0,1.0,1.0,1.0],"baseColorTexture":{"index":16},"metallicFactor":0.0,"roughnessFactor":1.0}},{"doubleSided":true,"name":"Material.002","pbrMetallicRoughness":{"baseColorFactor":[1.0,1.0,1.0,1.0],"baseColorTexture":{"index":17},"metallicFactor":0.0,"roughnessFactor":0.5}},{"doubleSided":true,"name":"plywood","pbrMetallicRoughness":{"baseColorFactor":[1.0,1.0,1.0,1.0],"baseColorTexture":{"index":18},"metallicFactor":0.0,"roughnessFactor":0.5}},{"doubleSided":true,"name":"Material.003","pbrMetallicRoughness":{"baseColorFactor":[1.0,1.0,1.0,1.0],"baseColorTexture":{"index":19},"metallicFactor":0.0,"roughnessFactor":0.5}},{"alphaMode":"BLEND","doubleSided":true,"name":"foliage","pbrMetallicRoughness":{"baseColorFactor":[1.0,1.0,1.0,1.0],"baseColorTexture":{"index":20},"metallicFactor":0.0,"roughnessFactor":1.0}},{"doubleSided":true,"name":"Material.004","pbrMetallicRoughness":{"baseColorFactor":[1.0,1.0,1.0,1.0],"baseColorTexture":{"index":21},"metallicFactor":0.0,"roughnessFactor":1.0}},{"alphaMode":"BLEND","doubleSided":true,"name":"grars","pbrMetallicRoughness":{"baseColorFactor":[1.0,1.0,1.0,1.0],"baseColorTexture":{"index":22},"metallicFactor":0.0,"roughnessFactor":0.5}},{"alphaMode":"BLEND","doubleSided":true,"name":"props1","normalTexture":{"index":25,"scale":1.0},"pbrMetallicRoughness":{"baseColorFactor":[1.0,1.0,1.0,1.0],"baseColorTexture":{"index":23},"metallicFactor":1.0,"metallicRoughnessTexture":{"index":24},"roughnessFactor":1.0}},{"doubleSided":true,"extensions":{"KHR_materials_unlit":{}},"name":"outside","pbrMetallicRoughness":{"baseColorFactor":[1.0,1.0,1.0,1.0],"metallicFactor":0.0,"roughnessFactor":1.0}}],"meshes":[{"name":"Plane_002","primitives":[{"attributes":{"NORMAL":2,"POSITION":0,"TANGENT":1,"TEXCOORD_0":3},"indices":4,"material":0,"mode":4}]},{"name":"Cube_010","primitives":[{"attributes":{"NORMAL":7,"POSITION":5,"TANGENT":6,"TEXCOORD_0":8},"indices":9,"material":0,"mode":4}]},{"name":"Plane_007","primitives":[{"attributes":{"NORMAL":12,"POSITION":10,"TANGENT":11,"TEXCOORD_0":13},"indices":14,"material":1,"mode":4},{"attributes":{"NORMAL":17,"POSITION":15,"TANGENT":16,"TEXCOORD_0":18},"indices":19,"material":2,"mode":4},{"attributes":{"NORMAL":22,"POSITION":20,"TANGENT":21,"TEXCOORD_0":23},"indices":24,"material":3,"mode":4},{"attributes":{"NORMAL":27,"POSITION":25,"TANGENT":26,"TEXCOORD_0":28},"indices":29,"material":4,"mode":4}]},{"name":"Cylinder_004_cell_008","primitives":[{"attributes":{"NORMAL":32,"POSITION":30,"TANGENT":31,"TEXCOORD_0":33},"indices":34,"material":5,"mode":4}]},{"name":"Circle","primitives":[{"attributes":{"NORMAL":37,"POSITION":35,"TANGENT":36,"TEXCOORD_0":38},"indices":39,"material":5,"mode":4}]},{"name":"Circle_001","primitives":[{"attributes":{"NORMAL":42,"POSITION":40,"TANGENT":41,"TEXCOORD_0":43},"indices":44,"material":6,"mode":4}]},{"name":"Cube_003","primitives":[{"attributes":{"NORMAL":47,"POSITION":45,"TANGENT":46,"TEXCOORD_0":48},"indices":49,"material":7,"mode":4}]},{"name":"Cube_015","primitives":[{"attributes":{"NORMAL":52,"POSITION":50,"TANGENT":51,"TEXCOORD_0":53},"indices":54,"material":8,"mode":4}]},{"name":"Cube_014","primitives":[{"attributes":{"NORMAL":57,"POSITION":55,"TANGENT":56,"TEXCOORD_0":58},"indices":59,"material":9,"mode":4}]},{"name":"Cube_023","primitives":[{"attributes":{"NORMAL":57,"POSITION":55,"TANGENT":56,"TEXCOORD_0":58},"indices":59,"material":9,"mode":4}]},{"name":"Cube_003_009","primitives":[{"attributes":{"NORMAL":47,"POSITION":45,"TANGENT":46,"TEXCOORD_0":48},"indices":49,"material":7,"mode":4}]},{"name":"Cube_003_009","primitives":[{"attributes":{"NORMAL":47,"POSITION":45,"TANGENT":46,"TEXCOORD_0":48},"indices":49,"material":7,"mode":4}]},{"name":"Cube_019","primitives":[{"attributes":{"NORMAL":62,"POSITION":60,"TANGENT":61,"TEXCOORD_0":63},"indices":64,"material":7,"mode":4}]},{"name":"Cube_003_010","primitives":[{"attributes":{"NORMAL":47,"POSITION":45,"TANGENT":46,"TEXCOORD_0":48},"indices":49,"material":7,"mode":4}]},{"name":"Cube_021","primitives":[{"attributes":{"NORMAL":67,"POSITION":65,"TANGENT":66,"TEXCOORD_0":68},"indices":69,"material":8,"mode":4}]},{"name":"Cube_007","primitives":[{"attributes":{"NORMAL":72,"POSITION":70,"TANGENT":71,"TEXCOORD_0":73},"indices":74,"material":8,"mode":4}]},{"name":"Cube_025","primitives":[{"attributes":{"NORMAL":77,"POSITION":75,"TANGENT":76,"TEXCOORD_0":78},"indices":79,"material":8,"mode":4}]},{"name":"Cube_009","primitives":[{"attributes":{"NORMAL":82,"POSITION":80,"TANGENT":81,"TEXCOORD_0":83},"indices":84,"material":10,"mode":4}]},{"name":"Cube_032","primitives":[{"attributes":{"NORMAL":87,"POSITION":85,"TANGENT":86,"TEXCOORD_0":88},"indices":89,"material":8,"mode":4}]},{"name":"Cube_033","primitives":[{"attributes":{"NORMAL":92,"POSITION":90,"TANGENT":91,"TEXCOORD_0":93},"indices":94,"material":8,"mode":4}]},{"name":"Cube_029","primitives":[{"attributes":{"NORMAL":97,"POSITION":95,"TANGENT":96,"TEXCOORD_0":98},"indices":99,"material":11,"mode":4}]},{"name":"Cube_024","primitives":[{"attributes":{"NORMAL":97,"POSITION":95,"TANGENT":96,"TEXCOORD_0":98},"indices":99,"material":11,"mode":4}]},{"name":"Cube_030","primitives":[{"attributes":{"NORMAL":97,"POSITION":95,"TANGENT":96,"TEXCOORD_0":98},"indices":99,"material":11,"mode":4}]},{"name":"Cube_031","primitives":[{"attributes":{"NORMAL":97,"POSITION":95,"TANGENT":96,"TEXCOORD_0":98},"indices":99,"material":11,"mode":4}]},{"name":"Cube_017","primitives":[{"attributes":{"NORMAL":102,"POSITION":100,"TANGENT":101,"TEXCOORD_0":103},"indices":104,"material":10,"mode":4}]},{"name":"Cube_008","primitives":[{"attributes":{"NORMAL":107,"POSITION":105,"TANGENT":106,"TEXCOORD_0":108},"indices":109,"material":12,"mode":4}]},{"name":"Cylinder_002","primitives":[{"attributes":{"NORMAL":112,"POSITION":110,"TANGENT":111,"TEXCOORD_0":113},"indices":114,"material":13,"mode":4}]},{"name":"Cylinder_003","primitives":[{"attributes":{"NORMAL":117,"POSITION":115,"TANGENT":116,"TEXCOORD_0":118},"indices":119,"material":5,"mode":4}]},{"name":"Cylinder_004_cell_013","primitives":[{"attributes":{"NORMAL":122,"POSITION":120,"TANGENT":121,"TEXCOORD_0":123},"indices":124,"material":5,"mode":4}]},{"name":"Cylinder_005","primitives":[{"attributes":{"NORMAL":127,"POSITION":125,"TANGENT":126,"TEXCOORD_0":128},"indices":129,"material":8,"mode":4}]},{"name":"Cylinder_006","primitives":[{"attributes":{"NORMAL":132,"POSITION":130,"TANGENT":131,"TEXCOORD_0":133},"indices":134,"material":8,"mode":4}]},{"name":"Plane_019","primitives":[{"attributes":{"NORMAL":137,"POSITION":135,"TANGENT":136,"TEXCOORD_0":138},"indices":139,"material":2,"mode":4}]},{"name":"Plane_018","primitives":[{"attributes":{"NORMAL":142,"POSITION":140,"TANGENT":141,"TEXCOORD_0":143},"indices":144,"material":2,"mode":4}]},{"name":"Plane_006","primitives":[{"attributes":{"NORMAL":147,"POSITION":145,"TANGENT":146,"TEXCOORD_0":148},"indices":149,"material":8,"mode":4}]},{"name":"Plane_008","primitives":[{"attributes":{"NORMAL":152,"POSITION":150,"TANGENT":151,"TEXCOORD_0":153},"indices":154,"material":14,"mode":4}]},{"name":"Plane_009","primitives":[{"attributes":{"NORMAL":157,"POSITION":155,"TANGENT":156,"TEXCOORD_0":158},"indices":159,"material":11,"mode":4},{"attributes":{"NORMAL":162,"POSITION":160,"TANGENT":161,"TEXCOORD_0":163},"indices":164,"material":15,"mode":4}]},{"name":"Plane_015","primitives":[{"attributes":{"NORMAL":167,"POSITION":165,"TANGENT":166,"TEXCOORD_0":168},"indices":169,"material":6,"mode":4}]},{"name":"Plane_014","primitives":[{"attributes":{"NORMAL":172,"POSITION":170,"TANGENT":171,"TEXCOORD_0":173},"indices":174,"material":6,"mode":4}]},{"name":"Plane_016","primitives":[{"attributes":{"NORMAL":177,"POSITION":175,"TANGENT":176,"TEXCOORD_0":178},"indices":179,"material":16,"mode":4}]},{"name":"Plane_017","primitives":[{"attributes":{"NORMAL":182,"POSITION":180,"TANGENT":181,"TEXCOORD_0":183},"indices":184,"material":15,"mode":4}]},{"name":"Plane_020","primitives":[{"attributes":{"NORMAL":187,"POSITION":185,"TANGENT":186,"TEXCOORD_0":188},"indices":189,"material":8,"mode":4}]},{"name":"Sphere","primitives":[{"attributes":{"NORMAL":192,"POSITION":190,"TANGENT":191,"TEXCOORD_0":193},"indices":194,"material":12,"mode":4}]},{"name":"Plane_956","primitives":[{"attributes":{"NORMAL":197,"POSITION":195,"TANGENT":196,"TEXCOORD_0":198},"indices":199,"material":17,"mode":4}]},{"name":"Plane_027","primitives":[{"attributes":{"NORMAL":202,"POSITION":200,"TANGENT":201,"TEXCOORD_0":203},"indices":4,"material":1,"mode":4}]},{"name":"Cube_026","primitives":[{"attributes":{"NORMAL":206,"POSITION":204,"TANGENT":205,"TEXCOORD_0":207},"indices":208,"material":7,"mode":4}]},{"name":"Plane_026","primitives":[{"attributes":{"NORMAL":211,"POSITION":209,"TANGENT":210,"TEXCOORD_0":212},"indices":213,"material":6,"mode":4}]},{"name":"Plane_025","primitives":[{"attributes":{"NORMAL":216,"POSITION":214,"TANGENT":215,"TEXCOORD_0":217},"indices":218,"material":18,"mode":4},{"attributes":{"NORMAL":221,"POSITION":219,"TANGENT":220,"TEXCOORD_0":222},"indices":223,"material":19,"mode":4}]},{"name":"Cube_001","primitives":[{"attributes":{"NORMAL":226,"POSITION":224,"TANGENT":225,"TEXCOORD_0":227},"indices":228,"material":20,"mode":4}]},{"name":"Cube","primitives":[{"attributes":{"NORMAL":231,"POSITION":229,"TANGENT":230,"TEXCOORD_0":232},"indices":233,"material":0,"mode":4}]},{"name":"Cube_002","primitives":[{"attributes":{"NORMAL":236,"POSITION":234,"TANGENT":235,"TEXCOORD_0":237},"indices":238,"material":20,"mode":4}]},{"name":"Cube_004","primitives":[{"attributes":{"NORMAL":241,"POSITION":239,"TANGENT":240,"TEXCOORD_0":242},"indices":243,"material":20,"mode":4}]},{"name":"Cube_011","primitives":[{"attributes":{"NORMAL":246,"POSITION":244,"TANGENT":245,"TEXCOORD_0":247},"indices":248,"material":20,"mode":4}]},{"name":"Cube_013","primitives":[{"attributes":{"NORMAL":251,"POSITION":249,"TANGENT":250,"TEXCOORD_0":252},"indices":253,"material":0,"mode":4}]},{"name":"Cube_012","primitives":[{"attributes":{"NORMAL":256,"POSITION":254,"TANGENT":255,"TEXCOORD_0":257},"indices":258,"material":0,"mode":4}]},{"name":"Cube_018","primitives":[{"attributes":{"NORMAL":261,"POSITION":259,"TANGENT":260,"TEXCOORD_0":262},"indices":263,"material":0,"mode":4},{"attributes":{"NORMAL":266,"POSITION":264,"TANGENT":265,"TEXCOORD_0":267},"indices":268,"material":21,"mode":4}]},{"name":"Plane_003","primitives":[{"attributes":{"NORMAL":271,"POSITION":269,"TANGENT":270,"TEXCOORD_0":272},"indices":273,"material":0,"mode":4}]},{"name":"Plane_004","primitives":[{"attributes":{"NORMAL":276,"POSITION":274,"TANGENT":275,"TEXCOORD_0":277},"indices":278,"material":8,"mode":4}]},{"name":"Cube_016","primitives":[{"attributes":{"NORMAL":281,"POSITION":279,"TANGENT":280,"TEXCOORD_0":282},"indices":283,"material":0,"mode":4},{"attributes":{"NORMAL":286,"POSITION":284,"TANGENT":285,"TEXCOORD_0":287},"indices":288,"material":20,"mode":4}]},{"name":"Cube_022","primitives":[{"attributes":{"NORMAL":291,"POSITION":289,"TANGENT":290,"TEXCOORD_0":292},"indices":293,"material":20,"mode":4}]},{"name":"Cube_020","primitives":[{"attributes":{"NORMAL":296,"POSITION":294,"TANGENT":295,"TEXCOORD_0":297},"indices":298,"material":0,"mode":4},{"attributes":{"NORMAL":301,"POSITION":299,"TANGENT":300,"TEXCOORD_0":302},"indices":303,"material":21,"mode":4}]},{"name":"Cube_005","primitives":[{"attributes":{"NORMAL":306,"POSITION":304,"TANGENT":305,"TEXCOORD_0":307},"indices":308,"material":0,"mode":4}]},{"name":"Cube_006","primitives":[{"attributes":{"NORMAL":311,"POSITION":309,"TANGENT":310,"TEXCOORD_0":312},"indices":313,"material":20,"mode":4}]}],"nodes":[{"children":[1,2,3,4,5,6,7,8,9,10,11,12,13,14,15,16,17,18,19,20,21,22,23,24,25,26,27,28,29,30,31,32,33,34,35,36,37,38,39,40,41,42,43,44,45,46,47,48,49,50,51,52,53,54,55,56,57,58,59,60,61,62,63,64,65,66],"name":"chimera_house"},{"mesh":0,"name":"carpet","translation":[0.0,-0.14281803,0.0]},{"mesh":1,"name":"boxes","translation":[0.0,0.47596234,-0.011391518]},{"mesh":2,"name":"walls"},{"mesh":3,"name":"trash","rotation":[0.2310919,0.22280774,0.06243352,0.945016],"translation":[2.903195,0.054482695,-0.8048586]},{"mesh":4,"name":"Circle","translation":[2.2285314,1.0007566,2.8828156]},{"mesh":5,"name":"Circle_001","rotation":[0.22306384,0.11390619,0.12950063,0.95942557],"translation":[-6.3591847,1.2071289,-0.10793418]},{"mesh":6,"name":"frontDoor","translation":[0.29058182,1.0084604,3.6126037]},{"mesh":7,"name":"dresser","translation":[-8.209568,0.82729614,2.0680852]},{"mesh":8,"name":"Cube_002","rotation":[0.0,-0.3456853,0.0,0.9383505],"translation":[4.934227,0.46683636,0.6366942]},{"mesh":9,"name":"Cube_003","rotation":[0.0,0.15136051,0.0,0.9884786],"translation":[4.6056037,0.46683636,-0.39163038]},{"mesh":10,"name":"Cube_004","translation":[-4.955806,1.0084604,0.3227067]},{"mesh":11,"name":"Cube_005","translation":[-4.955806,1.0084604,-0.988873]},{"mesh":12,"name":"Cube_006","translation":[4.5910106,1.0084604,-3.0140674]},{"mesh":13,"name":"Cube_007","rotation":[0.0,-0.70710677,0.0,0.70710677],"translation":[7.0655217,1.0084604,0.85522413]},{"mesh":14,"name":"Cube_008","translation":[-6.1861525,0.0,-0.33630744]},{"mesh":15,"name":"Cube_009","translation":[3.261986,0.0,-2.019612]},{"mesh":16,"name":"Cube_010","translation":[-3.2585073,0.5039065,-2.101806]},{"mesh":17,"name":"Cube_011","translation":[-7.766387,-0.011353307,0.0]},{"mesh":18,"name":"Cube_012","translation":[-7.0565715,-0.056655288,0.2990923]},{"mesh":19,"name":"Cube_013","translation":[6.4013386,0.0,-2.398555]},{"mesh":20,"name":"Cube_015","translation":[-2.748189,-0.760361,0.39989936]},{"mesh":21,"name":"Cube_016","translation":[-2.748189,-0.760361,-0.75112844]},{"mesh":22,"name":"Cube_017","translation":[3.392375,-0.760361,-0.75112844]},{"mesh":23,"name":"Cube_018","translation":[3.392375,-0.760361,-2.9661572]},{"mesh":24,"name":"Cube_022","translation":[0.0,3.8850677,0.0]},{"mesh":25,"name":"Cube_023","translation":[0.0,3.4271908,0.0]},{"mesh":26,"name":"Cylinder_001","translation":[2.6584487,0.052037872,0.032600172]},{"mesh":27,"name":"Cylinder_002","translation":[2.206456,1.0216138,2.5095935]},{"mesh":28,"name":"Cylinder_004_cell_001","rotation":[0.4466445,-0.42618886,0.6356134,-0.4635379],"translation":[2.6754436,0.052772973,0.21972689]},{"mesh":29,"name":"Cylinder_005","rotation":[0.0,-0.36305204,0.0,0.9317689],"translation":[-3.2770226,-1.4897951,1.2692815]},{"mesh":30,"name":"Cylinder_006","translation":[6.3414736,1.0016735,-0.1997876]},{"name":"Empty","scale":[3.9843507,3.9843507,3.9843507]},{"name":"Empty_001","rotation":[0.50000006,0.49999994,-0.5,0.49999994],"scale":[5.9659886,5.9659886,5.9659886],"translation":[-10.196649,6.643464,8.110576]},{"name":"Empty_002","rotation":[0.7071069,0.0,0.0,0.70710665],"scale":[5.9659886,5.9659886,5.9659886],"translation":[5.609544,6.643464,0.0]},{"name":"Empty_004","scale":[3.9843507,3.9843507,3.9843507],"translation":[8.966023,0.0,7.649334]},{"mesh":31,"name":"floorfucked"},{"mesh":32,"name":"floornormal"},{"mesh":33,"name":"Plane","translation":[-7.125042,0.0,0.0]},{"mesh":34,"name":"Plane_004","translation":[0.0,0.2750165,0.0]},{"mesh":35,"name":"Plane_005","translation":[0.0,0.7036187,0.0]},{"mesh":36,"name":"Plane_006","translation":[-2.6968565,1.86666,-2.0683017]},{"mesh":37,"name":"Plane_008","rotation":[0.0,-0.70710677,0.0,0.70710677],"translation":[2.3501437,1.796558,-2.9459002]},{"mesh":38,"name":"Plane_009","translation":[0.0,2.7966783,0.0]},{"mesh":39,"name":"Plane_010","translation":[0.0,3.3700135,0.0]},{"mesh":40,"name":"Plane_011","translation":[6.710446,-0.8481923,-0.37513506]},{"mesh":41,"name":"Sphere","translation":[0.0,3.8354192,0.0]},{"mesh":42,"name":"green","rotation":[-0.016138893,0.8421781,0.2480152,-0.47850183],"scale":[0.11679999,0.11680001,0.116799995],"translation":[-2.6966567,2.6981773,3.5717683]},{"mesh":43,"name":"fuck you"},{"mesh":44,"name":"frontDoor_001","translation":[0.29058182,1.0084604,3.6126037]},{"mesh":45,"name":"pjhotoscarety","translation":[5.6298018,1.759778,1.634918]},{"mesh":46,"name":"Plane_007","translation":[8.185721,-1.1783284,-0.48596093]},{"mesh":47,"name":"batub _)","translation":[-6.350804,0.0,-1.8174114]},{"mesh":48,"name":"turdlet","translation":[-6.1054893,0.0,-2.996785]},{"mesh":49,"name":"teevee","translation":[-1.9168309,0.2499553,-2.7632236]},{"mesh":50,"name":"leshelvse","translation":[-1.709653,0.0,1.7914189]},{"mesh":51,"name":"stool","rotation":[0.0,-0.19160663,0.0,0.9814718],"translation":[-0.99473965,0.023836227,-2.5300074]},{"mesh":52,"name":"stairs!!"},{"mesh":53,"name":"plank","rotation":[0.0,0.3725389,0.0,0.9280166],"translation":[-0.67697716,-0.013442265,1.4636964]},{"mesh":54,"name":"window_004","translation":[4.726447,1.3857714,1.3706732]},{"mesh":55,"name":"curtains","translation":[-4.6977124,1.8279649,-2.8933907]},{"mesh":56,"name":"mirror","scale":[0.95339483,0.95339483,0.95339483],"translation":[-3.0279772,1.5490113,-2.1348433]},{"mesh":57,"name":"fuck you dont go up there","rotation":[0.37931287,0.38854837,-0.11083116,0.83238715],"translation":[1.0531466,0.68930495,-3.3674755]},{"mesh":58,"name":"leshelvse_001","rotation":[0.0,-0.70710677,0.0,0.70710677],"translation":[3.9810438,0.0,-3.2163045]},{"mesh":59,"name":"window_001","translation":[4.726447,1.3857714,1.3706732]},{"mesh":60,"name":"bed","rotation":[0.0,-0.055318322,0.0,0.99846876],"translation":[-4.3977475,0.0,2.5521836]},{"mesh":61,"name":"table","rotation":[0.0,-0.02975855,0.0,0.9995571],"translation":[3.897551,0.092361555,0.10840712]}],"samplers":[{"magFilter":9729,"minFilter":9987,"wrapS":10497,"wrapT":10497}],"scene":0,"scenes":[{"name":"chimera_house","nodes":[0]}],"textures":[{"sampler":0,"source":0},{"sampler":0,"source":1},{"sampler":0,"source":2},{"sampler":0,"source":3},{"sampler":0,"source":4},{"sampler":0,"source":5},{"sampler":0,"source":6},{"sampler":0,"source":7},{"sampler":0,"source":8},{"sampler":0,"source":9},{"sampler":0,"source":10},{"sampler":0,"source":11},{"sampler":0,"source":12},{"sampler":0,"source":13},{"sampler":0,"source":14},{"sampler":0,"source":15},{"sampler":0,"source":16},{"sampler":0,"source":17},{"sampler":0,"source":18},{"sampler":0,"source":19},{"sampler":0,"source":20},{"sampler":0,"source":21},{"sampler":0,"source":22},{"sampler":0,"source":23},{"sampler":0,"source":24},{"sampler":0,"source":25}]}