{"accessors":[{"bufferView":0,"componentType":5126,"count":72,"max":[3.0099413,-0.04019475,1.4295671],"min":[-2.0425584,-3.3122637,-2.2569938],"normalized":false,"type":"VEC3"},{"bufferView":1,"componentType":5126,"count":72,"max":[1.0,0.0,-1.5259022e-05,1.0],"min":[1.0,0.0,-4.5778463e-05,-1.0],"normalized":false,"type":"VEC4"},{"bufferView":2,"componentType":5126,"count":72,"max":[0.982388,0.19041936,0.99101454],"min":[-0.9963063,0.028972687,-0.99383],"normalized":false,"type":"VEC3"},{"bufferView":3,"componentType":5126,"count":72,"max":[0.0,1.0],"min":[0.0,1.0],"normalized":false,"type":"VEC2"},{"bufferView":4,"componentType":5121,"count":216,"max":[71],"min":[0],"normalized":false,"type":"SCALAR"}],"asset":{"copyright":"The Creators of 'Friday Night Funkin': Lullaby'","generator":"GDRE Tools vv2.6.3","version":"2.0"},"bufferViews":[{"buffer":0,"byteLength":864,"byteStride":12,"target":34962},{"buffer":0,"byteLength":1152,"byteOffset":864,"byteStride":16,"target":34962},{"buffer":0,"byteLength":864,"byteOffset":2016,"byteStride":12,"target":34962},{"buffer":0,"byteLength":576,"byteOffset":2880,"byteStride":8,"target":34962},{"buffer":0,"byteLength":216,"byteOffset":3456,"target":34963}],"buffers":[{"byteLength":3672,"uri":"god_rays0.bin"}],"extensionsUsed":["GODOT_single_root"],"materials":[{"pbrMetallicRoughness":{"baseColorFactor":[1.0,1.0,1.0,1.0],"metallicFactor":0.0,"roughnessFactor":1.0}}],"meshes":[{"name":"Plane_017","primitives":[{"attributes":{"NORMAL":2,"POSITION":0,"TANGENT":1,"TEXCOORD_0":3},"indices":4,"material":0,"mode":4}]}],"nodes":[{"children":[1],"name":"god_rays"},{"mesh":0,"name":"Ray","translation":[0.0,3.3700135,0.0]}],"scene":0,"scenes":[{"name":"god_rays","nodes":[0]}]}