{"accessors":[{"bufferView":0,"componentType":5126,"count":4,"max":[1.0,1.3552527e-20,2.3841858e-07,0.0,1.0,1.0,1.0,0.0,-2.220446e-16,5.684342e-14,1.0,0.0,6.7102014e-15,0.31082362,4.176189e-08,1.0],"min":[4.217746e-14,-1.0,-1.343588e-07,0.0,-2.3841858e-07,-1.3896296e-13,0.0,0.0,-3.1391647e-07,-1.0,-5.293956e-23,0.0,-1.3109747e-14,-0.15909453,-2.137575e-08,1.0],"normalized":false,"type":"MAT4"},{"bufferView":1,"componentType":5126,"count":535,"max":[0.26838365,0.19567396,0.1543317],"min":[-0.15710777,-0.158667,-0.1543317],"normalized":false,"type":"VEC3"},{"bufferView":2,"componentType":5126,"count":535,"max":[0.99264145,0.99975985,0.9998772,1.0],"min":[-0.9999475,-0.99983484,-1.0,-1.0],"normalized":false,"type":"VEC4"},{"bufferView":3,"componentType":5126,"count":535,"max":[0.9999981,0.9999929,1.0],"min":[-0.98752326,-0.9999929,-1.0],"normalized":false,"type":"VEC3"},{"bufferView":4,"componentType":5126,"count":535,"max":[0.21960807,0.9318205],"min":[0.021830946,0.11664599],"normalized":false,"type":"VEC2"},{"bufferView":5,"componentType":5121,"count":535,"max":[3,3,0,0],"min":[2,0,0,0],"normalized":false,"type":"VEC4"},{"bufferView":6,"componentType":5126,"count":535,"max":[1.0,0.49066132,0.0,0.0],"min":[0.5093386,0.0,0.0,0.0],"normalized":false,"type":"VEC4"},{"bufferView":7,"componentType":5123,"count":1038,"max":[534],"min":[0],"normalized":false,"type":"SCALAR"},{"bufferView":8,"componentType":5126,"count":7,"max":[1.0],"min":[0.0],"normalized":false,"type":"SCALAR"},{"bufferView":9,"componentType":5126,"count":7,"max":[0.0,4.794481e-10,0.0],"min":[-0.0029791882,0.0,-7.102938e-10],"normalized":false,"type":"VEC3"},{"bufferView":10,"componentType":5126,"count":23,"max":[1.0],"min":[0.0],"normalized":false,"type":"SCALAR"},{"bufferView":11,"componentType":5126,"count":23,"max":[1.0348812,1.0348812,1.0348812],"min":[0.8431392,0.84313923,0.8431392],"normalized":false,"type":"VEC3"},{"bufferView":12,"componentType":5126,"count":15,"max":[1.0],"min":[0.0],"normalized":false,"type":"SCALAR"},{"bufferView":13,"componentType":5126,"count":15,"max":[-0.15909453,2.6771848e-21,-3.7931095e-08],"min":[-0.17945659,4.5385523e-22,-4.5521613e-08],"normalized":false,"type":"VEC3"},{"bufferView":14,"componentType":5126,"count":16,"max":[1.0],"min":[0.0],"normalized":false,"type":"SCALAR"},{"bufferView":15,"componentType":5126,"count":16,"max":[1.0,1.0,1.0],"min":[0.7872465,0.977455,0.977455],"normalized":false,"type":"VEC3"},{"bufferView":16,"componentType":5126,"count":15,"max":[0.31082362,-1.0280091e-21,7.4106126e-08],"min":[0.28929797,-5.2500523e-21,6.6081846e-08],"normalized":false,"type":"VEC3"},{"bufferView":17,"componentType":5126,"count":1,"max":[0.0],"min":[0.0],"normalized":false,"type":"SCALAR"},{"bufferView":18,"componentType":5126,"count":1,"max":[0.0,0.0,0.0],"min":[0.0,0.0,0.0],"normalized":false,"type":"VEC3"},{"bufferView":19,"componentType":5126,"count":1,"max":[1.0,1.0,1.0],"min":[1.0,1.0,1.0],"normalized":false,"type":"VEC3"},{"bufferView":20,"componentType":5126,"count":1,"max":[-0.15909453,7.514722e-22,-3.7931095e-08],"min":[-0.15909453,7.514722e-22,-3.7931095e-08],"normalized":false,"type":"VEC3"},{"bufferView":21,"componentType":5126,"count":1,"max":[0.31082362,-2.7866023e-21,7.4106126e-08],"min":[0.31082362,-2.7866023e-21,7.4106126e-08],"normalized":false,"type":"VEC3"}],"animations":[{"channels":[{"sampler":0,"target":{"node":3,"path":"translation"}},{"sampler":1,"target":{"node":3,"path":"scale"}},{"sampler":2,"target":{"node":4,"path":"translation"}},{"sampler":3,"target":{"node":4,"path":"scale"}},{"sampler":4,"target":{"node":5,"path":"translation"}}],"name":"ArrowPress_24f","samplers":[{"input":8,"interpolation":"LINEAR","output":9},{"input":10,"interpolation":"LINEAR","output":11},{"input":12,"interpolation":"LINEAR","output":13},{"input":14,"interpolation":"LINEAR","output":15},{"input":12,"interpolation":"LINEAR","output":16}]},{"channels":[{"sampler":0,"target":{"node":3,"path":"translation"}},{"sampler":1,"target":{"node":3,"path":"scale"}},{"sampler":2,"target":{"node":4,"path":"translation"}},{"sampler":3,"target":{"node":4,"path":"scale"}},{"sampler":4,"target":{"node":5,"path":"translation"}}],"name":"Idle_192f","samplers":[{"input":17,"interpolation":"STEP","output":18},{"input":17,"interpolation":"STEP","output":19},{"input":17,"interpolation":"STEP","output":20},{"input":17,"interpolation":"STEP","output":19},{"input":17,"interpolation":"STEP","output":21}]},{"channels":[{"sampler":0,"target":{"node":3,"path":"translation"}},{"sampler":1,"target":{"node":3,"path":"scale"}},{"sampler":2,"target":{"node":4,"path":"translation"}},{"sampler":3,"target":{"node":4,"path":"scale"}},{"sampler":4,"target":{"node":5,"path":"translation"}}],"name":"Select_48f","samplers":[{"input":17,"interpolation":"STEP","output":18},{"input":17,"interpolation":"STEP","output":19},{"input":17,"interpolation":"STEP","output":20},{"input":17,"interpolation":"STEP","output":19},{"input":17,"interpolation":"STEP","output":21}]}],"asset":{"copyright":"The Creators of 'Friday Night Funkin': Lullaby'","generator":"GDRE Tools vv2.6.3","version":"2.0"},"bufferViews":[{"buffer":0,"byteLength":256},{"buffer":0,"byteLength":6420,"byteOffset":256,"byteStride":12,"target":34962},{"buffer":0,"byteLength":8560,"byteOffset":6676,"byteStride":16,"target":34962},{"buffer":0,"byteLength":6420,"byteOffset":15236,"byteStride":12,"target":34962},{"buffer":0,"byteLength":4280,"byteOffset":21656,"byteStride":8,"target":34962},{"buffer":0,"byteLength":2140,"byteOffset":25936,"byteStride":4,"target":34962},{"buffer":0,"byteLength":8560,"byteOffset":28076,"byteStride":16,"target":34962},{"buffer":0,"byteLength":2076,"byteOffset":36636,"target":34963},{"buffer":0,"byteLength":28,"byteOffset":38712},{"buffer":0,"byteLength":84,"byteOffset":38740},{"buffer":0,"byteLength":92,"byteOffset":38824},{"buffer":0,"byteLength":276,"byteOffset":38916},{"buffer":0,"byteLength":60,"byteOffset":39192},{"buffer":0,"byteLength":180,"byteOffset":39252},{"buffer":0,"byteLength":64,"byteOffset":39432},{"buffer":0,"byteLength":192,"byteOffset":39496},{"buffer":0,"byteLength":180,"byteOffset":39688},{"buffer":0,"byteLength":4,"byteOffset":39868},{"buffer":0,"byteLength":12,"byteOffset":39872},{"buffer":0,"byteLength":12,"byteOffset":39884},{"buffer":0,"byteLength":12,"byteOffset":39896},{"buffer":0,"byteLength":12,"byteOffset":39908},{"buffer":0,"byteLength":10565,"byteOffset":39920}],"buffers":[{"byteLength":50485,"uri":"ui_arrow0.bin"}],"extensionsUsed":["GODOT_single_root","KHR_materials_unlit"],"images":[{"bufferView":22,"mimeType":"image/png","name":"uigradient_tex"}],"materials":[{"alphaMode":"BLEND","extensions":{"KHR_materials_unlit":{}},"name":"UIMat","pbrMetallicRoughness":{"baseColorFactor":[1.0,1.0,1.0,1.0],"baseColorTexture":{"index":0},"metallicFactor":0.0,"roughnessFactor":1.0}}],"meshes":[{"name":"Plane_001","primitives":[{"attributes":{"JOINTS_0":5,"NORMAL":3,"POSITION":1,"TANGENT":2,"TEXCOORD_0":4,"WEIGHTS_0":6},"indices":7,"material":0,"mode":4}]}],"nodes":[{"children":[1],"name":"ui_arrow"},{"children":[2,6],"name":"HatArrow"},{"children":[3],"name":"arrowRoot","rotation":[-0.70710677,8.4293696e-08,-8.4293696e-08,0.70710677]},{"children":[4,5],"name":"arrow","rotation":[0.70710677,0.0,1.6858739e-07,0.70710677]},{"name":"arrowtip","rotation":[-2.4278302e-07,-2.0810463e-08,0.70710677,0.70710677],"translation":[-0.15909453,0.0,-3.793109e-08]},{"name":"arrowbase","rotation":[-2.4278302e-07,-2.0810463e-08,0.70710677,0.70710677],"translation":[0.31082362,0.0,7.4106126e-08]},{"mesh":0,"name":"HatArrowMesh","skin":0}],"samplers":[{"magFilter":9729,"minFilter":9987,"wrapS":10497,"wrapT":10497}],"scene":0,"scenes":[{"name":"ui_arrow","nodes":[0]}],"skins":[{"inverseBindMatrices":0,"joints":[2,3,4,5],"name":"Skin"}],"textures":[{"sampler":0,"source":0}]}