{"accessors":[{"bufferView":0,"componentType":5126,"count":16,"max":[1.0,0.70023173,4.4872843e-07,0.0,0.70023173,1.0000002,1.0000004,0.0,6.5168274e-07,1.0000004,1.0,0.0,0.20207636,0.2854135,8.6781434e-08,1.0],"min":[-1.0,-0.7002317,-6.5168274e-07,0.0,-0.7002318,-1.0000002,-1.0,0.0,-5.9084397e-07,-1.0000001,-1.0,0.0,-0.19805759,-0.41167346,-0.2854136,1.0],"normalized":false,"type":"MAT4"},{"bufferView":1,"componentType":5126,"count":599,"max":[0.28262797,0.5654092,1.2354061e-08],"min":[-0.28262797,0.00015324354,-0.050000012],"normalized":false,"type":"VEC3"},{"bufferView":2,"componentType":5126,"count":599,"max":[1.0,0.99603915,0.8433247,1.0],"min":[-1.0,-0.9960428,-0.8433151,-1.0],"normalized":false,"type":"VEC4"},{"bufferView":3,"componentType":5126,"count":599,"max":[1.0,0.89761066,1.0],"min":[-0.9322686,-0.8976227,-1.0],"normalized":false,"type":"VEC3"},{"bufferView":4,"componentType":5126,"count":599,"max":[0.3984664,0.932352],"min":[0.037101306,0.12699324],"normalized":false,"type":"VEC2"},{"bufferView":5,"componentType":5121,"count":599,"max":[15,0,0,0],"min":[13,0,0,0],"normalized":false,"type":"VEC4"},{"bufferView":6,"componentType":5126,"count":599,"max":[1.0,0.0,0.0,0.0],"min":[1.0,0.0,0.0,0.0],"normalized":false,"type":"VEC4"},{"bufferView":7,"componentType":5123,"count":1395,"max":[598],"min":[0],"normalized":false,"type":"SCALAR"},{"bufferView":8,"componentType":5126,"count":1,"max":[0.0],"min":[0.0],"normalized":false,"type":"SCALAR"},{"bufferView":9,"componentType":5126,"count":1,"max":[0.0,0.0,0.0],"min":[0.0,0.0,0.0],"normalized":false,"type":"VEC3"},{"bufferView":10,"componentType":5126,"count":1,"max":[0.7071068,-2.2197248e-07,-2.2197248e-07,0.7071068],"min":[0.7071068,-2.2197248e-07,-2.2197248e-07,0.7071068],"normalized":false,"type":"VEC4"},{"bufferView":11,"componentType":5126,"count":1,"max":[-7.987218e-30,0.24647143,4.9190635e-25],"min":[-7.987218e-30,0.24647143,4.9190635e-25],"normalized":false,"type":"VEC3"},{"bufferView":12,"componentType":5126,"count":1,"max":[-3.488235e-23,4.4505063e-07,2.271904e-29,1.0],"min":[-3.488235e-23,4.4505063e-07,2.271904e-29,1.0],"normalized":false,"type":"VEC4"},{"bufferView":13,"componentType":5126,"count":1,"max":[1.0,0.99999994,1.0],"min":[1.0,0.99999994,1.0],"normalized":false,"type":"VEC3"},{"bufferView":14,"componentType":5126,"count":1,"max":[2.4565622e-29,-0.020402819,3.7696024e-23],"min":[2.4565622e-29,-0.020402819,3.7696024e-23],"normalized":false,"type":"VEC3"},{"bufferView":15,"componentType":5126,"count":1,"max":[-3.485173e-23,3.2584134e-07,1.7443034e-27,1.0],"min":[-3.485173e-23,3.2584134e-07,1.7443034e-27,1.0],"normalized":false,"type":"VEC4"},{"bufferView":16,"componentType":5126,"count":1,"max":[-6.7762636e-21,2.842171e-14,0.0,1.0],"min":[-6.7762636e-21,2.842171e-14,0.0,1.0],"normalized":false,"type":"VEC4"},{"bufferView":17,"componentType":5126,"count":1,"max":[1.71054e-08,-9.268359e-08,0.37820917,0.92572016],"min":[1.71054e-08,-9.268359e-08,0.37820917,0.92572016],"normalized":false,"type":"VEC4"},{"bufferView":18,"componentType":5126,"count":1,"max":[9.393992e-08,2.8074703e-07,-0.3782092,0.92572016],"min":[9.393992e-08,2.8074703e-07,-0.3782092,0.92572016],"normalized":false,"type":"VEC4"},{"bufferView":19,"componentType":5126,"count":1,"max":[2.1508786e-29,0.013247669,3.3004912e-23],"min":[2.1508786e-29,0.013247669,3.3004912e-23],"normalized":false,"type":"VEC3"},{"bufferView":20,"componentType":5126,"count":1,"max":[1.0,1.0,1.0],"min":[1.0,1.0,1.0],"normalized":false,"type":"VEC3"},{"bufferView":21,"componentType":5126,"count":1,"max":[0.0,-0.033650488,3.4129634e-30],"min":[0.0,-0.033650488,3.4129634e-30],"normalized":false,"type":"VEC3"},{"bufferView":22,"componentType":5126,"count":1,"max":[-3.1554436e-30,0.0,-1.5046328e-36,1.0],"min":[-3.1554436e-30,0.0,-1.5046328e-36,1.0],"normalized":false,"type":"VEC4"},{"bufferView":23,"componentType":5126,"count":1,"max":[-0.17639951,-0.033650488,3.4129634e-30],"min":[-0.17639951,-0.033650488,3.4129634e-30],"normalized":false,"type":"VEC3"},{"bufferView":24,"componentType":5126,"count":1,"max":[-3.1554436e-30,0.0,0.0,1.0],"min":[-3.1554436e-30,0.0,0.0,1.0],"normalized":false,"type":"VEC4"},{"bufferView":25,"componentType":5126,"count":1,"max":[0.17639951,-0.033650488,3.4129634e-30],"min":[0.17639951,-0.033650488,3.4129634e-30],"normalized":false,"type":"VEC3"},{"bufferView":26,"componentType":5126,"count":1,"max":[9.561096e-25,0.28541344,-4.9368817e-24],"min":[9.561096e-25,0.28541344,-4.9368817e-24],"normalized":false,"type":"VEC3"},{"bufferView":27,"componentType":5126,"count":1,"max":[1.0,-2.1507953e-23,-3.1391644e-07,6.970043e-23],"min":[1.0,-2.1507953e-23,-3.1391644e-07,6.970043e-23],"normalized":false,"type":"VEC4"},{"bufferView":28,"componentType":5126,"count":1,"max":[1.0,0.99999976,1.0],"min":[1.0,0.99999976,1.0],"normalized":false,"type":"VEC3"},{"bufferView":29,"componentType":5126,"count":1,"max":[-1.0,4.3018822e-23,4.371139e-08,6.971777e-23],"min":[-1.0,4.3018822e-23,4.371139e-08,6.971777e-23],"normalized":false,"type":"VEC4"},{"bufferView":30,"componentType":5126,"count":1,"max":[3.608225e-15,-5.9604645e-08,-3.6240447e-23],"min":[3.608225e-15,-5.9604645e-08,-3.6240447e-23],"normalized":false,"type":"VEC3"},{"bufferView":31,"componentType":5126,"count":1,"max":[-4.777302e-08,-0.7071068,0.7071068,3.090862e-08],"min":[-4.777302e-08,-0.7071068,0.7071068,3.090862e-08],"normalized":false,"type":"VEC4"},{"bufferView":32,"componentType":5126,"count":1,"max":[0.7071067,-8.432195e-09,8.432194e-09,0.7071068],"min":[0.7071067,-8.432195e-09,8.432194e-09,0.7071068],"normalized":false,"type":"VEC4"},{"bufferView":33,"componentType":5126,"count":1,"max":[1.0,0.99999994,0.99999994],"min":[1.0,0.99999994,0.99999994],"normalized":false,"type":"VEC3"},{"bufferView":34,"componentType":5126,"count":15,"max":[8.0],"min":[0.0],"normalized":false,"type":"SCALAR"},{"bufferView":35,"componentType":5126,"count":15,"max":[5.813268e-09,0.01,1.2908048e-24],"min":[-5.813268e-09,0.00074074045,-1.2908048e-24],"normalized":false,"type":"VEC3"},{"bufferView":36,"componentType":5126,"count":119,"max":[8.0],"min":[0.0],"normalized":false,"type":"SCALAR"},{"bufferView":37,"componentType":5126,"count":119,"max":[0.7193061,0.061628215,0.061628215,0.71324223],"min":[0.70085406,-0.061628662,-0.061628662,0.69467974],"normalized":false,"type":"VEC4"},{"bufferView":38,"componentType":5126,"count":1,"max":[-1.543898e-16,0.24647145,6.66134e-16],"min":[-1.543898e-16,0.24647145,6.66134e-16],"normalized":false,"type":"VEC3"},{"bufferView":39,"componentType":5126,"count":1,"max":[5.2735594e-16,4.4505063e-07,1.6653322e-16,1.0],"min":[5.2735594e-16,4.4505063e-07,1.6653322e-16,1.0],"normalized":false,"type":"VEC4"},{"bufferView":40,"componentType":5126,"count":1,"max":[0.99999994,0.99999994,0.99999994],"min":[0.99999994,0.99999994,0.99999994],"normalized":false,"type":"VEC3"},{"bufferView":41,"componentType":5126,"count":1,"max":[5.2042023e-18,-0.020402819,4.857229e-17],"min":[5.2042023e-18,-0.020402819,4.857229e-17],"normalized":false,"type":"VEC3"},{"bufferView":42,"componentType":5126,"count":1,"max":[5.2735594e-16,3.2584134e-07,5.551098e-17,1.0],"min":[5.2735594e-16,3.2584134e-07,5.551098e-17,1.0],"normalized":false,"type":"VEC4"},{"bufferView":43,"componentType":5126,"count":1,"max":[-7.839806e-11,-3.2014793e-09,0.019193884,0.9998158],"min":[-7.839806e-11,-3.2014793e-09,0.019193884,0.9998158],"normalized":false,"type":"VEC4"},{"bufferView":44,"componentType":5126,"count":1,"max":[2.15737e-08,-8.884585e-08,0.37820917,0.92572016],"min":[2.15737e-08,-8.884585e-08,0.37820917,0.92572016],"normalized":false,"type":"VEC4"},{"bufferView":45,"componentType":5126,"count":1,"max":[9.19002e-08,2.8560453e-07,-0.3782092,0.92572016],"min":[9.19002e-08,2.8560453e-07,-0.3782092,0.92572016],"normalized":false,"type":"VEC4"},{"bufferView":46,"componentType":5126,"count":1,"max":[-1.7347212e-17,0.013247667,3.6429236e-17],"min":[-1.7347212e-17,0.013247667,3.6429236e-17],"normalized":false,"type":"VEC3"},{"bufferView":47,"componentType":5126,"count":1,"max":[4.1633363e-17,-0.033650488,-5.89806e-17],"min":[4.1633363e-17,-0.033650488,-5.89806e-17],"normalized":false,"type":"VEC3"},{"bufferView":48,"componentType":5126,"count":1,"max":[-3.6082248e-16,1.1613616e-21,5.551115e-17,1.0],"min":[-3.6082248e-16,1.1613616e-21,5.551115e-17,1.0],"normalized":false,"type":"VEC4"},{"bufferView":49,"componentType":5126,"count":1,"max":[-0.17639951,-0.033650488,-2.6102849e-09],"min":[-0.17639951,-0.033650488,-2.6102849e-09],"normalized":false,"type":"VEC3"},{"bufferView":50,"componentType":5126,"count":1,"max":[0.17639951,-0.033650488,1.1150054e-09],"min":[0.17639951,-0.033650488,1.1150054e-09],"normalized":false,"type":"VEC3"},{"bufferView":51,"componentType":5126,"count":1,"max":[-1.2316547e-16,0.28541344,-1.6653339e-16],"min":[-1.2316547e-16,0.28541344,-1.6653339e-16],"normalized":false,"type":"VEC3"},{"bufferView":52,"componentType":5126,"count":3,"max":[8.0],"min":[0.0],"normalized":false,"type":"SCALAR"},{"bufferView":53,"componentType":5126,"count":3,"max":[1.0,5.5511515e-17,3.1391644e-07,1.2212453e-15],"min":[-1.0,-1.665333e-16,-3.1391644e-07,-1.2142701e-15],"normalized":false,"type":"VEC4"},{"bufferView":54,"componentType":5126,"count":1,"max":[1.0,3.3306688e-16,-3.6260808e-08,4.9960036e-16],"min":[1.0,3.3306688e-16,-3.6260808e-08,4.9960036e-16],"normalized":false,"type":"VEC4"},{"bufferView":55,"componentType":5126,"count":1,"max":[2.2204458e-15,-5.9604645e-08,1.3322673e-15],"min":[2.2204458e-15,-5.9604645e-08,1.3322673e-15],"normalized":false,"type":"VEC3"},{"bufferView":56,"componentType":5126,"count":1,"max":[-5.304137e-08,-0.7071068,0.7071068,2.5640261e-08],"min":[-5.304137e-08,-0.7071068,0.7071068,2.5640261e-08],"normalized":false,"type":"VEC4"},{"bufferView":57,"componentType":5126,"count":1,"max":[0.7071067,-1.3700551e-08,1.3700549e-08,0.7071068],"min":[0.7071067,-1.3700551e-08,1.3700549e-08,0.7071068],"normalized":false,"type":"VEC4"},{"bufferView":58,"componentType":5126,"count":1,"max":[1.0,1.0,0.99999994],"min":[1.0,1.0,0.99999994],"normalized":false,"type":"VEC3"},{"bufferView":59,"componentType":5126,"count":22,"max":[1.5],"min":[0.0],"normalized":false,"type":"SCALAR"},{"bufferView":60,"componentType":5126,"count":22,"max":[1.4933194e-08,0.24647143,0.01677696],"min":[-7.987218e-30,0.23666498,4.9190635e-25],"normalized":false,"type":"VEC3"},{"bufferView":61,"componentType":5126,"count":37,"max":[1.5],"min":[0.0],"normalized":false,"type":"SCALAR"},{"bufferView":62,"componentType":5126,"count":37,"max":[0.119222715,0.010815049,0.04365381,1.0],"min":[-9.01317e-09,4.4505063e-07,-0.043619394,0.99184847],"normalized":false,"type":"VEC4"},{"bufferView":63,"componentType":5126,"count":37,"max":[1.5],"min":[0.0],"normalized":false,"type":"SCALAR"},{"bufferView":64,"componentType":5126,"count":37,"max":[1.0518354,1.0558652,1.0690236],"min":[0.6761008,0.703201,0.7916894],"normalized":false,"type":"VEC3"},{"bufferView":65,"componentType":5126,"count":21,"max":[1.5],"min":[0.0],"normalized":false,"type":"SCALAR"},{"bufferView":66,"componentType":5126,"count":21,"max":[2.4565622e-29,0.0068581942,3.7696024e-23],"min":[2.2088984e-29,-0.020402819,3.389565e-23],"normalized":false,"type":"VEC3"},{"bufferView":67,"componentType":5126,"count":23,"max":[1.5],"min":[0.0],"normalized":false,"type":"SCALAR"},{"bufferView":68,"componentType":5126,"count":23,"max":[-3.485173e-23,3.2584134e-07,3.8667345e-08,1.0],"min":[-0.11866923,3.2353893e-07,1.7443034e-27,0.99293387],"normalized":false,"type":"VEC4"},{"bufferView":69,"componentType":5126,"count":29,"max":[1.5],"min":[0.0],"normalized":false,"type":"SCALAR"},{"bufferView":70,"componentType":5126,"count":29,"max":[1.0219494,1.084878,1.0],"min":[0.90334445,0.96340704,1.0],"normalized":false,"type":"VEC3"},{"bufferView":71,"componentType":5126,"count":38,"max":[1.5],"min":[0.0],"normalized":false,"type":"SCALAR"},{"bufferView":72,"componentType":5126,"count":38,"max":[1.9667827e-09,2.842171e-14,1.0,1.0],"min":[-3.0003453e-09,-1.4172413e-07,0.0,4.371139e-08],"normalized":false,"type":"VEC4"},{"bufferView":73,"componentType":5126,"count":26,"max":[1.5],"min":[0.0],"normalized":false,"type":"SCALAR"},{"bufferView":74,"componentType":5126,"count":26,"max":[2.4565622e-29,0.05232601,3.7696024e-23],"min":[1.7958274e-29,-0.020402819,2.755712e-23],"normalized":false,"type":"VEC3"},{"bufferView":75,"componentType":5126,"count":27,"max":[1.5],"min":[0.0],"normalized":false,"type":"SCALAR"},{"bufferView":76,"componentType":5126,"count":27,"max":[-3.485173e-23,3.2584134e-07,1.7443034e-27,1.0],"min":[-0.057149585,-0.04130454,-0.0023664348,0.99750805],"normalized":false,"type":"VEC4"},{"bufferView":77,"componentType":5126,"count":28,"max":[1.5],"min":[0.0],"normalized":false,"type":"SCALAR"},{"bufferView":78,"componentType":5126,"count":28,"max":[0.026746131,-9.268359e-08,0.37820917,0.9568928],"min":[1.3480706e-08,-0.07760111,0.28996828,0.92572016],"normalized":false,"type":"VEC4"},{"bufferView":79,"componentType":5126,"count":28,"max":[0.02674622,0.0776013,-0.28998065,0.9568888],"min":[9.21368e-08,2.8074703e-07,-0.3782092,0.92572016],"normalized":false,"type":"VEC4"},{"bufferView":80,"componentType":5126,"count":20,"max":[1.5],"min":[0.0],"normalized":false,"type":"SCALAR"},{"bufferView":81,"componentType":5126,"count":20,"max":[2.1508786e-29,0.029748904,3.3004912e-23],"min":[2.0009663e-29,0.013247669,3.0704527e-23],"normalized":false,"type":"VEC3"},{"bufferView":82,"componentType":5126,"count":30,"max":[1.5],"min":[0.0],"normalized":false,"type":"SCALAR"},{"bufferView":83,"componentType":5126,"count":30,"max":[1.0,1.0820516,1.0],"min":[0.99060255,0.74630773,1.0],"normalized":false,"type":"VEC3"},{"bufferView":84,"componentType":5126,"count":27,"max":[1.5],"min":[0.0],"normalized":false,"type":"SCALAR"},{"bufferView":85,"componentType":5126,"count":27,"max":[5.380241e-38,-0.024711028,5.25611e-30],"min":[-7.4280903e-38,-0.04599252,1.7499015e-31],"normalized":false,"type":"VEC3"},{"bufferView":86,"componentType":5126,"count":20,"max":[1.5],"min":[0.0],"normalized":false,"type":"SCALAR"},{"bufferView":87,"componentType":5126,"count":20,"max":[-3.1554436e-30,0.017369825,0.0001300674,1.0],"min":[-0.029577695,0.0,-1.5046328e-36,0.9994116],"normalized":false,"type":"VEC4"},{"bufferView":88,"componentType":5126,"count":29,"max":[1.5],"min":[0.0],"normalized":false,"type":"SCALAR"},{"bufferView":89,"componentType":5126,"count":29,"max":[1.0,0.99999994,1.0],"min":[0.95527256,0.9778395,0.99999994],"normalized":false,"type":"VEC3"},{"bufferView":90,"componentType":5126,"count":15,"max":[1.5],"min":[0.0],"normalized":false,"type":"SCALAR"},{"bufferView":91,"componentType":5126,"count":15,"max":[-0.17639951,-0.011582537,3.417299e-30],"min":[-0.18562853,-0.033650488,-0.08533858],"normalized":false,"type":"VEC3"},{"bufferView":92,"componentType":5126,"count":35,"max":[1.5],"min":[0.0],"normalized":false,"type":"SCALAR"},{"bufferView":93,"componentType":5126,"count":35,"max":[9.782185e-21,2.020698e-29,0.06356421,1.0],"min":[-5.7895046e-21,-5.0491308e-30,-0.06694076,0.99775696],"normalized":false,"type":"VEC4"},{"bufferView":94,"componentType":5126,"count":16,"max":[1.5],"min":[0.0],"normalized":false,"type":"SCALAR"},{"bufferView":95,"componentType":5126,"count":16,"max":[1.0,0.99999994,1.0],"min":[0.6556135,0.40629444,0.6568593],"normalized":false,"type":"VEC3"},{"bufferView":96,"componentType":5126,"count":18,"max":[1.5],"min":[0.0],"normalized":false,"type":"SCALAR"},{"bufferView":97,"componentType":5126,"count":18,"max":[0.18562853,-0.010830649,3.4129634e-30],"min":[0.17639951,-0.033650488,-0.08533858],"normalized":false,"type":"VEC3"},{"bufferView":98,"componentType":5126,"count":35,"max":[1.5],"min":[0.0],"normalized":false,"type":"SCALAR"},{"bufferView":99,"componentType":5126,"count":35,"max":[9.537659e-21,3.155623e-30,0.06694076,1.0],"min":[-5.4211547e-21,-1.260077e-30,-0.06391427,0.99775696],"normalized":false,"type":"VEC4"},{"bufferView":100,"componentType":5126,"count":18,"max":[1.5],"min":[0.0],"normalized":false,"type":"SCALAR"},{"bufferView":101,"componentType":5126,"count":18,"max":[1.0,0.99999994,1.0],"min":[0.6556135,0.40629444,0.6568593],"normalized":false,"type":"VEC3"},{"bufferView":102,"componentType":5126,"count":23,"max":[1.5],"min":[0.0],"normalized":false,"type":"SCALAR"},{"bufferView":103,"componentType":5126,"count":23,"max":[9.561096e-25,0.31478995,-4.9368817e-24],"min":[-2.8696514e-08,0.28541344,-0.044034485],"normalized":false,"type":"VEC3"},{"bufferView":104,"componentType":5126,"count":25,"max":[1.5],"min":[0.0],"normalized":false,"type":"SCALAR"},{"bufferView":105,"componentType":5126,"count":25,"max":[1.0,-2.1507953e-23,-3.1391644e-07,0.07443646],"min":[0.9948048,-0.056306068,-0.04064741,6.970043e-23],"normalized":false,"type":"VEC4"},{"bufferView":106,"componentType":5126,"count":27,"max":[1.5],"min":[0.0],"normalized":false,"type":"SCALAR"},{"bufferView":107,"componentType":5126,"count":27,"max":[1.0197861,1.0197859,1.0197864],"min":[0.8699613,0.869961,0.8699612],"normalized":false,"type":"VEC3"},{"bufferView":108,"componentType":5126,"count":35,"max":[1.5],"min":[0.0],"normalized":false,"type":"SCALAR"},{"bufferView":109,"componentType":5126,"count":35,"max":[1.0,0.027606044,4.371139e-08,0.15589775],"min":[-1.0,4.3018822e-23,-0.024557553,6.971777e-23],"normalized":false,"type":"VEC4"},{"bufferView":110,"componentType":5126,"count":30,"max":[1.5],"min":[0.0],"normalized":false,"type":"SCALAR"},{"bufferView":111,"componentType":5126,"count":30,"max":[4.048469e-09,-1.2726224e-08,-3.6240447e-23],"min":[-5.7167865e-10,-1.1122028e-07,-0.06343244],"normalized":false,"type":"VEC3"},{"bufferView":112,"componentType":5126,"count":36,"max":[1.5],"min":[0.0],"normalized":false,"type":"SCALAR"},{"bufferView":113,"componentType":5126,"count":36,"max":[-4.777302e-08,0.7070679,0.7071068,0.043440707],"min":[-0.11419333,-0.7071068,-0.7291485,3.090862e-08],"normalized":false,"type":"VEC4"},{"bufferView":114,"componentType":5126,"count":34,"max":[1.5],"min":[0.0],"normalized":false,"type":"SCALAR"},{"bufferView":115,"componentType":5126,"count":34,"max":[0.71135294,0.07065005,0.10819935,0.7071068],"min":[0.7071067,-8.432195e-09,8.432194e-09,0.6910141],"normalized":false,"type":"VEC4"},{"bufferView":116,"componentType":5126,"count":33,"max":[1.5],"min":[0.0],"normalized":false,"type":"SCALAR"},{"bufferView":117,"componentType":5126,"count":33,"max":[1.0732683,1.0732683,1.073268],"min":[1.0,0.99999994,0.99999994],"normalized":false,"type":"VEC3"}],"animations":[{"channels":[{"sampler":0,"target":{"node":2,"path":"translation"}},{"sampler":1,"target":{"node":2,"path":"rotation"}},{"sampler":2,"target":{"node":4,"path":"translation"}},{"sampler":3,"target":{"node":4,"path":"rotation"}},{"sampler":4,"target":{"node":4,"path":"scale"}},{"sampler":5,"target":{"node":5,"path":"translation"}},{"sampler":6,"target":{"node":5,"path":"rotation"}},{"sampler":7,"target":{"node":5,"path":"scale"}},{"sampler":8,"target":{"node":6,"path":"rotation"}},{"sampler":9,"target":{"node":7,"path":"translation"}},{"sampler":10,"target":{"node":7,"path":"rotation"}},{"sampler":11,"target":{"node":8,"path":"rotation"}},{"sampler":12,"target":{"node":9,"path":"rotation"}},{"sampler":13,"target":{"node":10,"path":"translation"}},{"sampler":14,"target":{"node":10,"path":"scale"}},{"sampler":15,"target":{"node":11,"path":"translation"}},{"sampler":16,"target":{"node":11,"path":"rotation"}},{"sampler":17,"target":{"node":11,"path":"scale"}},{"sampler":18,"target":{"node":12,"path":"translation"}},{"sampler":19,"target":{"node":12,"path":"rotation"}},{"sampler":20,"target":{"node":12,"path":"scale"}},{"sampler":21,"target":{"node":13,"path":"translation"}},{"sampler":22,"target":{"node":13,"path":"rotation"}},{"sampler":23,"target":{"node":13,"path":"scale"}},{"sampler":24,"target":{"node":14,"path":"translation"}},{"sampler":25,"target":{"node":14,"path":"rotation"}},{"sampler":26,"target":{"node":14,"path":"scale"}},{"sampler":27,"target":{"node":15,"path":"rotation"}},{"sampler":28,"target":{"node":16,"path":"translation"}},{"sampler":29,"target":{"node":16,"path":"rotation"}},{"sampler":30,"target":{"node":17,"path":"rotation"}},{"sampler":31,"target":{"node":17,"path":"scale"}}],"name":"ArrowPress_24f","samplers":[{"input":8,"interpolation":"STEP","output":9},{"input":8,"interpolation":"STEP","output":10},{"input":8,"interpolation":"STEP","output":11},{"input":8,"interpolation":"STEP","output":12},{"input":8,"interpolation":"STEP","output":13},{"input":8,"interpolation":"STEP","output":14},{"input":8,"interpolation":"STEP","output":15},{"input":8,"interpolation":"STEP","output":13},{"input":8,"interpolation":"STEP","output":16},{"input":8,"interpolation":"STEP","output":14},{"input":8,"interpolation":"STEP","output":15},{"input":8,"interpolation":"STEP","output":17},{"input":8,"interpolation":"STEP","output":18},{"input":8,"interpolation":"STEP","output":19},{"input":8,"interpolation":"STEP","output":20},{"input":8,"interpolation":"STEP","output":21},{"input":8,"interpolation":"STEP","output":22},{"input":8,"interpolation":"STEP","output":13},{"input":8,"interpolation":"STEP","output":23},{"input":8,"interpolation":"STEP","output":24},{"input":8,"interpolation":"STEP","output":13},{"input":8,"interpolation":"STEP","output":25},{"input":8,"interpolation":"STEP","output":24},{"input":8,"interpolation":"STEP","output":13},{"input":8,"interpolation":"STEP","output":26},{"input":8,"interpolation":"STEP","output":27},{"input":8,"interpolation":"STEP","output":28},{"input":8,"interpolation":"STEP","output":29},{"input":8,"interpolation":"STEP","output":30},{"input":8,"interpolation":"STEP","output":31},{"input":8,"interpolation":"STEP","output":32},{"input":8,"interpolation":"STEP","output":33}]},{"channels":[{"sampler":0,"target":{"node":2,"path":"translation"}},{"sampler":1,"target":{"node":2,"path":"rotation"}},{"sampler":2,"target":{"node":4,"path":"translation"}},{"sampler":3,"target":{"node":4,"path":"rotation"}},{"sampler":4,"target":{"node":4,"path":"scale"}},{"sampler":5,"target":{"node":5,"path":"translation"}},{"sampler":6,"target":{"node":5,"path":"rotation"}},{"sampler":7,"target":{"node":5,"path":"scale"}},{"sampler":8,"target":{"node":6,"path":"rotation"}},{"sampler":9,"target":{"node":7,"path":"translation"}},{"sampler":10,"target":{"node":7,"path":"rotation"}},{"sampler":11,"target":{"node":8,"path":"rotation"}},{"sampler":12,"target":{"node":9,"path":"rotation"}},{"sampler":13,"target":{"node":10,"path":"translation"}},{"sampler":14,"target":{"node":10,"path":"scale"}},{"sampler":15,"target":{"node":11,"path":"translation"}},{"sampler":16,"target":{"node":11,"path":"rotation"}},{"sampler":17,"target":{"node":11,"path":"scale"}},{"sampler":18,"target":{"node":12,"path":"translation"}},{"sampler":19,"target":{"node":12,"path":"rotation"}},{"sampler":20,"target":{"node":12,"path":"scale"}},{"sampler":21,"target":{"node":13,"path":"translation"}},{"sampler":22,"target":{"node":13,"path":"rotation"}},{"sampler":23,"target":{"node":13,"path":"scale"}},{"sampler":24,"target":{"node":14,"path":"translation"}},{"sampler":25,"target":{"node":14,"path":"rotation"}},{"sampler":26,"target":{"node":14,"path":"scale"}},{"sampler":27,"target":{"node":15,"path":"rotation"}},{"sampler":28,"target":{"node":16,"path":"translation"}},{"sampler":29,"target":{"node":16,"path":"rotation"}},{"sampler":30,"target":{"node":17,"path":"rotation"}},{"sampler":31,"target":{"node":17,"path":"scale"}}],"name":"Idle_192f","samplers":[{"input":34,"interpolation":"LINEAR","output":35},{"input":36,"interpolation":"LINEAR","output":37},{"input":8,"interpolation":"LINEAR","output":38},{"input":8,"interpolation":"LINEAR","output":39},{"input":8,"interpolation":"STEP","output":40},{"input":8,"interpolation":"LINEAR","output":41},{"input":8,"interpolation":"LINEAR","output":42},{"input":8,"interpolation":"STEP","output":13},{"input":8,"interpolation":"LINEAR","output":43},{"input":8,"interpolation":"LINEAR","output":41},{"input":8,"interpolation":"LINEAR","output":42},{"input":8,"interpolation":"LINEAR","output":44},{"input":8,"interpolation":"LINEAR","output":45},{"input":8,"interpolation":"LINEAR","output":46},{"input":8,"interpolation":"STEP","output":20},{"input":8,"interpolation":"LINEAR","output":47},{"input":8,"interpolation":"LINEAR","output":48},{"input":8,"interpolation":"STEP","output":13},{"input":8,"interpolation":"LINEAR","output":49},{"input":8,"interpolation":"LINEAR","output":48},{"input":8,"interpolation":"STEP","output":13},{"input":8,"interpolation":"LINEAR","output":50},{"input":8,"interpolation":"LINEAR","output":48},{"input":8,"interpolation":"STEP","output":13},{"input":8,"interpolation":"LINEAR","output":51},{"input":52,"interpolation":"LINEAR","output":53},{"input":8,"interpolation":"STEP","output":28},{"input":8,"interpolation":"LINEAR","output":54},{"input":8,"interpolation":"LINEAR","output":55},{"input":8,"interpolation":"LINEAR","output":56},{"input":8,"interpolation":"LINEAR","output":57},{"input":8,"interpolation":"STEP","output":58}]},{"channels":[{"sampler":0,"target":{"node":2,"path":"translation"}},{"sampler":1,"target":{"node":2,"path":"rotation"}},{"sampler":2,"target":{"node":4,"path":"translation"}},{"sampler":3,"target":{"node":4,"path":"rotation"}},{"sampler":4,"target":{"node":4,"path":"scale"}},{"sampler":5,"target":{"node":5,"path":"translation"}},{"sampler":6,"target":{"node":5,"path":"rotation"}},{"sampler":7,"target":{"node":5,"path":"scale"}},{"sampler":8,"target":{"node":6,"path":"rotation"}},{"sampler":9,"target":{"node":7,"path":"translation"}},{"sampler":10,"target":{"node":7,"path":"rotation"}},{"sampler":11,"target":{"node":8,"path":"rotation"}},{"sampler":12,"target":{"node":9,"path":"rotation"}},{"sampler":13,"target":{"node":10,"path":"translation"}},{"sampler":14,"target":{"node":10,"path":"scale"}},{"sampler":15,"target":{"node":11,"path":"translation"}},{"sampler":16,"target":{"node":11,"path":"rotation"}},{"sampler":17,"target":{"node":11,"path":"scale"}},{"sampler":18,"target":{"node":12,"path":"translation"}},{"sampler":19,"target":{"node":12,"path":"rotation"}},{"sampler":20,"target":{"node":12,"path":"scale"}},{"sampler":21,"target":{"node":13,"path":"translation"}},{"sampler":22,"target":{"node":13,"path":"rotation"}},{"sampler":23,"target":{"node":13,"path":"scale"}},{"sampler":24,"target":{"node":14,"path":"translation"}},{"sampler":25,"target":{"node":14,"path":"rotation"}},{"sampler":26,"target":{"node":14,"path":"scale"}},{"sampler":27,"target":{"node":15,"path":"rotation"}},{"sampler":28,"target":{"node":16,"path":"translation"}},{"sampler":29,"target":{"node":16,"path":"rotation"}},{"sampler":30,"target":{"node":17,"path":"rotation"}},{"sampler":31,"target":{"node":17,"path":"scale"}}],"name":"Select_48f","samplers":[{"input":8,"interpolation":"STEP","output":9},{"input":8,"interpolation":"STEP","output":10},{"input":59,"interpolation":"LINEAR","output":60},{"input":61,"interpolation":"LINEAR","output":62},{"input":63,"interpolation":"LINEAR","output":64},{"input":65,"interpolation":"LINEAR","output":66},{"input":67,"interpolation":"LINEAR","output":68},{"input":69,"interpolation":"LINEAR","output":70},{"input":71,"interpolation":"LINEAR","output":72},{"input":73,"interpolation":"LINEAR","output":74},{"input":75,"interpolation":"LINEAR","output":76},{"input":77,"interpolation":"LINEAR","output":78},{"input":77,"interpolation":"LINEAR","output":79},{"input":80,"interpolation":"LINEAR","output":81},{"input":82,"interpolation":"LINEAR","output":83},{"input":84,"interpolation":"LINEAR","output":85},{"input":86,"interpolation":"LINEAR","output":87},{"input":88,"interpolation":"LINEAR","output":89},{"input":90,"interpolation":"LINEAR","output":91},{"input":92,"interpolation":"LINEAR","output":93},{"input":94,"interpolation":"LINEAR","output":95},{"input":96,"interpolation":"LINEAR","output":97},{"input":98,"interpolation":"LINEAR","output":99},{"input":100,"interpolation":"LINEAR","output":101},{"input":102,"interpolation":"LINEAR","output":103},{"input":104,"interpolation":"LINEAR","output":105},{"input":106,"interpolation":"LINEAR","output":107},{"input":108,"interpolation":"LINEAR","output":109},{"input":110,"interpolation":"LINEAR","output":111},{"input":112,"interpolation":"LINEAR","output":113},{"input":114,"interpolation":"LINEAR","output":115},{"input":116,"interpolation":"LINEAR","output":117}]}],"asset":{"copyright":"The Creators of 'Friday Night Funkin': Lullaby'","generator":"GDRE Tools vv2.6.3","version":"2.0"},"bufferViews":[{"buffer":0,"byteLength":1024},{"buffer":0,"byteLength":7188,"byteOffset":1024,"byteStride":12,"target":34962},{"buffer":0,"byteLength":9584,"byteOffset":8212,"byteStride":16,"target":34962},{"buffer":0,"byteLength":7188,"byteOffset":17796,"byteStride":12,"target":34962},{"buffer":0,"byteLength":4792,"byteOffset":24984,"byteStride":8,"target":34962},{"buffer":0,"byteLength":2396,"byteOffset":29776,"byteStride":4,"target":34962},{"buffer":0,"byteLength":9584,"byteOffset":32172,"byteStride":16,"target":34962},{"buffer":0,"byteLength":2790,"byteOffset":41756,"target":34963},{"buffer":0,"byteLength":4,"byteOffset":44548},{"buffer":0,"byteLength":12,"byteOffset":44552},{"buffer":0,"byteLength":16,"byteOffset":44564},{"buffer":0,"byteLength":12,"byteOffset":44580},{"buffer":0,"byteLength":16,"byteOffset":44592},{"buffer":0,"byteLength":12,"byteOffset":44608},{"buffer":0,"byteLength":12,"byteOffset":44620},{"buffer":0,"byteLength":16,"byteOffset":44632},{"buffer":0,"byteLength":16,"byteOffset":44648},{"buffer":0,"byteLength":16,"byteOffset":44664},{"buffer":0,"byteLength":16,"byteOffset":44680},{"buffer":0,"byteLength":12,"byteOffset":44696},{"buffer":0,"byteLength":12,"byteOffset":44708},{"buffer":0,"byteLength":12,"byteOffset":44720},{"buffer":0,"byteLength":16,"byteOffset":44732},{"buffer":0,"byteLength":12,"byteOffset":44748},{"buffer":0,"byteLength":16,"byteOffset":44760},{"buffer":0,"byteLength":12,"byteOffset":44776},{"buffer":0,"byteLength":12,"byteOffset":44788},{"buffer":0,"byteLength":16,"byteOffset":44800},{"buffer":0,"byteLength":12,"byteOffset":44816},{"buffer":0,"byteLength":16,"byteOffset":44828},{"buffer":0,"byteLength":12,"byteOffset":44844},{"buffer":0,"byteLength":16,"byteOffset":44856},{"buffer":0,"byteLength":16,"byteOffset":44872},{"buffer":0,"byteLength":12,"byteOffset":44888},{"buffer":0,"byteLength":60,"byteOffset":44900},{"buffer":0,"byteLength":180,"byteOffset":44960},{"buffer":0,"byteLength":476,"byteOffset":45140},{"buffer":0,"byteLength":1904,"byteOffset":45616},{"buffer":0,"byteLength":12,"byteOffset":47520},{"buffer":0,"byteLength":16,"byteOffset":47532},{"buffer":0,"byteLength":12,"byteOffset":47548},{"buffer":0,"byteLength":12,"byteOffset":47560},{"buffer":0,"byteLength":16,"byteOffset":47572},{"buffer":0,"byteLength":16,"byteOffset":47588},{"buffer":0,"byteLength":16,"byteOffset":47604},{"buffer":0,"byteLength":16,"byteOffset":47620},{"buffer":0,"byteLength":12,"byteOffset":47636},{"buffer":0,"byteLength":12,"byteOffset":47648},{"buffer":0,"byteLength":16,"byteOffset":47660},{"buffer":0,"byteLength":12,"byteOffset":47676},{"buffer":0,"byteLength":12,"byteOffset":47688},{"buffer":0,"byteLength":12,"byteOffset":47700},{"buffer":0,"byteLength":12,"byteOffset":47712},{"buffer":0,"byteLength":48,"byteOffset":47724},{"buffer":0,"byteLength":16,"byteOffset":47772},{"buffer":0,"byteLength":12,"byteOffset":47788},{"buffer":0,"byteLength":16,"byteOffset":47800},{"buffer":0,"byteLength":16,"byteOffset":47816},{"buffer":0,"byteLength":12,"byteOffset":47832},{"buffer":0,"byteLength":88,"byteOffset":47844},{"buffer":0,"byteLength":264,"byteOffset":47932},{"buffer":0,"byteLength":148,"byteOffset":48196},{"buffer":0,"byteLength":592,"byteOffset":48344},{"buffer":0,"byteLength":148,"byteOffset":48936},{"buffer":0,"byteLength":444,"byteOffset":49084},{"buffer":0,"byteLength":84,"byteOffset":49528},{"buffer":0,"byteLength":252,"byteOffset":49612},{"buffer":0,"byteLength":92,"byteOffset":49864},{"buffer":0,"byteLength":368,"byteOffset":49956},{"buffer":0,"byteLength":116,"byteOffset":50324},{"buffer":0,"byteLength":348,"byteOffset":50440},{"buffer":0,"byteLength":152,"byteOffset":50788},{"buffer":0,"byteLength":608,"byteOffset":50940},{"buffer":0,"byteLength":104,"byteOffset":51548},{"buffer":0,"byteLength":312,"byteOffset":51652},{"buffer":0,"byteLength":108,"byteOffset":51964},{"buffer":0,"byteLength":432,"byteOffset":52072},{"buffer":0,"byteLength":112,"byteOffset":52504},{"buffer":0,"byteLength":448,"byteOffset":52616},{"buffer":0,"byteLength":448,"byteOffset":53064},{"buffer":0,"byteLength":80,"byteOffset":53512},{"buffer":0,"byteLength":240,"byteOffset":53592},{"buffer":0,"byteLength":120,"byteOffset":53832},{"buffer":0,"byteLength":360,"byteOffset":53952},{"buffer":0,"byteLength":108,"byteOffset":54312},{"buffer":0,"byteLength":324,"byteOffset":54420},{"buffer":0,"byteLength":80,"byteOffset":54744},{"buffer":0,"byteLength":320,"byteOffset":54824},{"buffer":0,"byteLength":116,"byteOffset":55144},{"buffer":0,"byteLength":348,"byteOffset":55260},{"buffer":0,"byteLength":60,"byteOffset":55608},{"buffer":0,"byteLength":180,"byteOffset":55668},{"buffer":0,"byteLength":140,"byteOffset":55848},{"buffer":0,"byteLength":560,"byteOffset":55988},{"buffer":0,"byteLength":64,"byteOffset":56548},{"buffer":0,"byteLength":192,"byteOffset":56612},{"buffer":0,"byteLength":72,"byteOffset":56804},{"buffer":0,"byteLength":216,"byteOffset":56876},{"buffer":0,"byteLength":140,"byteOffset":57092},{"buffer":0,"byteLength":560,"byteOffset":57232},{"buffer":0,"byteLength":72,"byteOffset":57792},{"buffer":0,"byteLength":216,"byteOffset":57864},{"buffer":0,"byteLength":92,"byteOffset":58080},{"buffer":0,"byteLength":276,"byteOffset":58172},{"buffer":0,"byteLength":100,"byteOffset":58448},{"buffer":0,"byteLength":400,"byteOffset":58548},{"buffer":0,"byteLength":108,"byteOffset":58948},{"buffer":0,"byteLength":324,"byteOffset":59056},{"buffer":0,"byteLength":140,"byteOffset":59380},{"buffer":0,"byteLength":560,"byteOffset":59520},{"buffer":0,"byteLength":120,"byteOffset":60080},{"buffer":0,"byteLength":360,"byteOffset":60200},{"buffer":0,"byteLength":144,"byteOffset":60560},{"buffer":0,"byteLength":576,"byteOffset":60704},{"buffer":0,"byteLength":136,"byteOffset":61280},{"buffer":0,"byteLength":544,"byteOffset":61416},{"buffer":0,"byteLength":132,"byteOffset":61960},{"buffer":0,"byteLength":396,"byteOffset":62092},{"buffer":0,"byteLength":10565,"byteOffset":62488}],"buffers":[{"byteLength":73053,"uri":"ui_training0.bin"}],"extensionsUsed":["GODOT_single_root","KHR_materials_unlit"],"images":[{"bufferView":118,"mimeType":"image/png","name":"uigradient_tex"}],"materials":[{"alphaMode":"BLEND","extensions":{"KHR_materials_unlit":{}},"name":"UIMat","pbrMetallicRoughness":{"baseColorFactor":[1.0,1.0,1.0,1.0],"baseColorTexture":{"index":0},"metallicFactor":0.0,"roughnessFactor":1.0}}],"meshes":[{"name":"Circle_001","primitives":[{"attributes":{"JOINTS_0":5,"NORMAL":3,"POSITION":1,"TANGENT":2,"TEXCOORD_0":4,"WEIGHTS_0":6},"indices":7,"material":0,"mode":4}]}],"nodes":[{"children":[1],"name":"ui_training"},{"children":[2,18],"name":"UI_Icons"},{"children":[3],"name":"UIROOT","rotation":[0.70710677,-2.219725e-07,-2.219725e-07,0.70710677]},{"children":[4,5,7,10,14],"name":"ICONS","rotation":[-0.70710677,-8.432175e-09,4.5237718e-07,0.70710677]},{"name":"UI_CARTRIDGES1","translation":[3.2047474e-31,0.24647142,4.919084e-25]},{"children":[6],"name":"UI_GALLERY1","translation":[2.4565622e-29,-0.020402819,3.7696024e-23]},{"name":"UI_GALLERY2","translation":[0.12170242,0.4320763,5.8053264e-08]},{"children":[8,9],"name":"UI_SETTINGS1","translation":[2.4565622e-29,-0.020402819,3.7696024e-23]},{"name":"UI_SETTINGS_L","rotation":[1.7105396e-08,-9.268359e-08,0.37820917,0.92572016],"translation":[-0.0016306639,0.30491117,2.3834382e-08]},{"name":"UI_SETTINGS_R","rotation":[9.393996e-08,2.8074703e-07,-0.3782092,0.92572016],"translation":[0.0016306512,0.31065032,2.4605484e-08]},{"children":[11,12,13],"name":"UI_CREDITS","translation":[2.1508786e-29,0.013247669,3.3004912e-23]},{"name":"UI_CREDITS1","translation":[0.0,-0.033650488,3.4129634e-30]},{"name":"UI_CREDITS_R","translation":[-0.17639951,-0.033650488,3.4129634e-30]},{"name":"UI_CREDITS_L","translation":[0.17639951,-0.033650488,3.4129634e-30]},{"children":[15,16,17],"name":"UI_TRAINING","rotation":[1.0,-2.1504722e-23,-3.1391644e-07,6.970196e-23],"translation":[-3.2109104e-30,0.28541344,-4.9368777e-24]},{"name":"UI_TRAINING1","rotation":[1.0,-4.3018015e-23,-4.371139e-08,-6.971063e-23]},{"name":"UI_TRAINING2","rotation":[4.7773003e-08,0.70710677,-0.70710677,-3.0908623e-08]},{"name":"UI_TRAINING3","rotation":[0.70710665,-8.4321945e-09,8.432193e-09,0.7071069]},{"mesh":0,"name":"TRAINING","skin":0}],"samplers":[{"magFilter":9729,"minFilter":9987,"wrapS":10497,"wrapT":10497}],"scene":0,"scenes":[{"name":"ui_training","nodes":[0]}],"skins":[{"inverseBindMatrices":0,"joints":[2,3,4,5,6,7,8,9,10,11,12,13,14,15,16,17],"name":"Skin"}],"textures":[{"sampler":0,"source":0}]}