{"accessors":[{"bufferView":0,"componentType":5126,"count":101,"max":[3.6940181,3.5007,3.6049688,0.0,3.4473152,3.6940155,3.5955024,0.0,3.0720568,3.5902202,3.6940143,0.0,6.94314,7.267966,9.146118,1.0],"min":[-3.6940172,-3.5007,-3.6049688,0.0,-3.4473147,-3.6935732,-3.6740048,0.0,-3.0720568,-3.6939528,-3.6939716,0.0,-6.9431405,-12.684878,-5.766816,1.0],"normalized":false,"type":"MAT4"},{"bufferView":1,"componentType":5126,"count":1154,"max":[0.6379188,2.1395655,0.1442493],"min":[-0.6380659,-0.010921755,-1.5492597],"normalized":false,"type":"VEC3"},{"bufferView":2,"componentType":5126,"count":1154,"max":[0.99993026,0.9878056,0.99985343,1.0],"min":[-0.99997723,-0.99944973,-0.9999149,1.0],"normalized":false,"type":"VEC4"},{"bufferView":3,"componentType":5126,"count":1154,"max":[0.9999104,0.9999945,0.9995753],"min":[-0.9996796,-0.99843526,-0.9998338],"normalized":false,"type":"VEC3"},{"bufferView":4,"componentType":5126,"count":1154,"max":[0.8398082,0.9837943],"min":[0.026460797,0.016205788],"normalized":false,"type":"VEC2"},{"bufferView":5,"componentType":5121,"count":1154,"max":[45,45,43,43],"min":[8,0,0,0],"normalized":false,"type":"VEC4"},{"bufferView":6,"componentType":5126,"count":1154,"max":[1.0,0.49943542,0.15128024,0.095815785],"min":[0.5005646,0.0,0.0,0.0],"normalized":false,"type":"VEC4"},{"bufferView":7,"componentType":5123,"count":5856,"max":[1153],"min":[0],"normalized":false,"type":"SCALAR"},{"bufferView":8,"componentType":5126,"count":177,"max":[0.13910517,2.1187096,0.15318836],"min":[-0.13910519,1.6014024,-0.13608229],"normalized":false,"type":"VEC3"},{"bufferView":9,"componentType":5126,"count":177,"max":[1.0,0.9805646,0.9976448,1.0],"min":[-0.99692106,-0.98734707,-0.9977253,1.0],"normalized":false,"type":"VEC4"},{"bufferView":10,"componentType":5126,"count":177,"max":[0.99009436,0.9901656,0.99989265],"min":[-0.9900968,-0.97512436,-0.9867072],"normalized":false,"type":"VEC3"},{"bufferView":11,"componentType":5126,"count":177,"max":[0.63451976,0.5272238],"min":[0.3460837,0.29205275],"normalized":false,"type":"VEC2"},{"bufferView":12,"componentType":5121,"count":177,"max":[21,43,38,0],"min":[20,0,0,0],"normalized":false,"type":"VEC4"},{"bufferView":13,"componentType":5126,"count":177,"max":[1.0,0.48748744,0.0029603404,0.0],"min":[0.51251256,0.0,0.0,0.0],"normalized":false,"type":"VEC4"},{"bufferView":14,"componentType":5121,"count":540,"max":[176],"min":[0],"normalized":false,"type":"SCALAR"},{"bufferView":15,"componentType":5126,"count":148,"max":[0.10192895,2.286083,0.14433536],"min":[-0.10192897,1.6229969,-0.077487044],"normalized":false,"type":"VEC3"},{"bufferView":16,"componentType":5126,"count":148,"max":[0.99998504,0.70034415,0.9988568,1.0],"min":[-0.9999376,-0.99881095,-0.7738428,1.0],"normalized":false,"type":"VEC4"},{"bufferView":17,"componentType":5126,"count":148,"max":[0.9753558,0.998591,0.9999328],"min":[-0.993419,-0.40739757,-0.9999968],"normalized":false,"type":"VEC3"},{"bufferView":18,"componentType":5126,"count":148,"max":[0.7537253,0.59559524],"min":[0.086545706,0.15188193],"normalized":false,"type":"VEC2"},{"bufferView":19,"componentType":5121,"count":148,"max":[22,23,23,0],"min":[20,0,0,0],"normalized":false,"type":"VEC4"},{"bufferView":20,"componentType":5126,"count":148,"max":[1.0,0.46102786,0.0029756,0.0],"min":[0.53897214,0.0,0.0,0.0],"normalized":false,"type":"VEC4"},{"bufferView":21,"componentType":5121,"count":690,"max":[147],"min":[0],"normalized":false,"type":"SCALAR"},{"bufferView":22,"componentType":5126,"count":196,"max":[0.6242265,0.8620658,0.062156588],"min":[-0.6242265,0.7541256,-0.07239673],"normalized":false,"type":"VEC3"},{"bufferView":23,"componentType":5126,"count":196,"max":[0.9949074,0.9903316,0.33386156,1.0],"min":[-0.9949116,-0.9736018,-0.907622,-1.0],"normalized":false,"type":"VEC4"},{"bufferView":24,"componentType":5126,"count":196,"max":[0.9790165,0.99882454,0.96451896],"min":[-0.9790251,-0.9746846,-0.9714704],"normalized":false,"type":"VEC3"},{"bufferView":25,"componentType":5126,"count":196,"max":[0.9638469,0.9543976],"min":[0.02847156,0.06671828],"normalized":false,"type":"VEC2"},{"bufferView":26,"componentType":5121,"count":196,"max":[81,81,0,0],"min":[59,0,0,0],"normalized":false,"type":"VEC4"},{"bufferView":27,"componentType":5126,"count":196,"max":[1.0,0.48945588,0.0,0.0],"min":[0.5105442,0.0,0.0,0.0],"normalized":false,"type":"VEC4"},{"bufferView":28,"componentType":5121,"count":1056,"max":[195],"min":[0],"normalized":false,"type":"SCALAR"},{"bufferView":29,"componentType":5126,"count":2240,"max":[0.746492,2.523805,0.19973321],"min":[-0.746492,0.0017931119,-0.554612],"normalized":false,"type":"VEC3"},{"bufferView":30,"componentType":5126,"count":2240,"max":[1.0,0.99982864,0.9924346,1.0],"min":[-0.9999517,-0.9998382,-0.96103233,-1.0],"normalized":false,"type":"VEC4"},{"bufferView":31,"componentType":5126,"count":2240,"max":[0.99983335,0.99035656,0.99995184],"min":[-0.99996054,-0.9999587,-0.9999316],"normalized":false,"type":"VEC3"},{"bufferView":32,"componentType":5126,"count":2240,"max":[0.9394859,0.9801278],"min":[0.022144973,0.031001091],"normalized":false,"type":"VEC2"},{"bufferView":33,"componentType":5121,"count":2240,"max":[57,57,57,57],"min":[21,0,0,0],"normalized":false,"type":"VEC4"},{"bufferView":34,"componentType":5126,"count":2240,"max":[1.0,0.49993896,0.31389248,0.24337728],"min":[0.25849965,0.0,0.0,0.0],"normalized":false,"type":"VEC4"},{"bufferView":35,"componentType":5123,"count":12150,"max":[2239],"min":[0],"normalized":false,"type":"SCALAR"},{"bufferView":36,"componentType":5126,"count":262,"max":[0.07403338,2.622678,0.1649378],"min":[-0.12013044,2.2706249,-0.030534342],"normalized":false,"type":"VEC3"},{"bufferView":37,"componentType":5126,"count":262,"max":[1.0,0.99926466,0.6684191,1.0],"min":[-1.0,-0.99610937,-0.512996,-1.0],"normalized":false,"type":"VEC4"},{"bufferView":38,"componentType":5126,"count":262,"max":[0.9954963,0.9785604,0.9993548],"min":[-0.9971427,-0.9803997,-0.9993554],"normalized":false,"type":"VEC3"},{"bufferView":39,"componentType":5126,"count":262,"max":[0.8750001,1.0],"min":[0.12500001,-1.1920929e-07],"normalized":false,"type":"VEC2"},{"bufferView":40,"componentType":5121,"count":262,"max":[23,0,0,0],"min":[23,0,0,0],"normalized":false,"type":"VEC4"},{"bufferView":41,"componentType":5126,"count":262,"max":[1.0,0.0,0.0,0.0],"min":[1.0,0.0,0.0,0.0],"normalized":false,"type":"VEC4"},{"bufferView":42,"componentType":5123,"count":1212,"max":[261],"min":[0],"normalized":false,"type":"SCALAR"},{"bufferView":43,"componentType":5126,"count":1672,"max":[0.7227815,0.79148954,0.16553771],"min":[-0.7227815,0.45795906,-0.0988002],"normalized":false,"type":"VEC3"},{"bufferView":44,"componentType":5126,"count":1672,"max":[0.99261343,0.9736607,0.99937046,1.0],"min":[-0.9926061,-0.992246,-0.9922614,-1.0],"normalized":false,"type":"VEC4"},{"bufferView":45,"componentType":5126,"count":1672,"max":[0.9993243,0.960573,0.9935076],"min":[-0.99932396,-0.9887126,-0.9940076],"normalized":false,"type":"VEC3"},{"bufferView":46,"componentType":5126,"count":1672,"max":[0.6301602,0.9793912],"min":[0.01893039,0.1511643],"normalized":false,"type":"VEC2"},{"bufferView":47,"componentType":5121,"count":1672,"max":[100,100,100,100],"min":[60,0,0,0],"normalized":false,"type":"VEC4"},{"bufferView":48,"componentType":5126,"count":1672,"max":[1.0,0.49993896,0.3063037,0.22703065],"min":[0.28428426,0.0,0.0,0.0],"normalized":false,"type":"VEC4"},{"bufferView":49,"componentType":5123,"count":8004,"max":[1671],"min":[0],"normalized":false,"type":"SCALAR"},{"bufferView":50,"componentType":5126,"count":404,"max":[0.30688658,2.9416916,0.48460895],"min":[-0.38723168,2.4427683,-0.24646223],"normalized":false,"type":"VEC3"},{"bufferView":51,"componentType":5126,"count":404,"max":[0.99386036,0.99434805,0.91944087,1.0],"min":[-0.99940026,-0.9821945,-0.9960037,1.0],"normalized":false,"type":"VEC4"},{"bufferView":52,"componentType":5126,"count":404,"max":[0.9997746,0.99993867,0.98588675],"min":[-0.99458474,-0.9989644,-0.99949557],"normalized":false,"type":"VEC3"},{"bufferView":53,"componentType":5126,"count":404,"max":[0.98084277,0.9831313],"min":[0.0048995465,0.2857355],"normalized":false,"type":"VEC2"},{"bufferView":54,"componentType":5121,"count":404,"max":[25,0,0,0],"min":[24,0,0,0],"normalized":false,"type":"VEC4"},{"bufferView":55,"componentType":5126,"count":404,"max":[1.0,0.0,0.0,0.0],"min":[1.0,0.0,0.0,0.0],"normalized":false,"type":"VEC4"},{"bufferView":56,"componentType":5123,"count":1944,"max":[403],"min":[0],"normalized":false,"type":"SCALAR"},{"bufferView":57,"componentType":5126,"count":277,"max":[0.36941352,2.4070454,0.35014886],"min":[0.00831756,2.2093475,0.082629845],"normalized":false,"type":"VEC3"},{"bufferView":58,"componentType":5126,"count":277,"max":[0.7035934,0.99242014,0.81646305,1.0],"min":[-0.9979631,-0.9489156,-0.9903593,-1.0],"normalized":false,"type":"VEC4"},{"bufferView":59,"componentType":5126,"count":277,"max":[0.9939864,0.9979108,0.98691255],"min":[-0.98411757,-0.9925728,-0.98536265],"normalized":false,"type":"VEC3"},{"bufferView":60,"componentType":5126,"count":277,"max":[0.9022837,0.90428376],"min":[0.060804635,0.021608472],"normalized":false,"type":"VEC2"},{"bufferView":61,"componentType":5121,"count":277,"max":[58,0,0,0],"min":[58,0,0,0],"normalized":false,"type":"VEC4"},{"bufferView":62,"componentType":5126,"count":277,"max":[1.0,0.0,0.0,0.0],"min":[1.0,0.0,0.0,0.0],"normalized":false,"type":"VEC4"},{"bufferView":63,"componentType":5123,"count":1434,"max":[276],"min":[0],"normalized":false,"type":"SCALAR"},{"bufferView":64,"componentType":5126,"count":653,"max":[0.3609367,2.3197303,0.3420529],"min":[0.2753394,2.2755108,0.25762954],"normalized":false,"type":"VEC3"},{"bufferView":65,"componentType":5126,"count":653,"max":[0.9101318,0.9402743,0.53054756,1.0],"min":[-0.5573321,-0.9882676,-0.9459794,1.0],"normalized":false,"type":"VEC4"},{"bufferView":66,"componentType":5126,"count":653,"max":[0.9965757,0.9995928,0.99737597],"min":[-0.8433346,-0.531771,-0.92494905],"normalized":false,"type":"VEC3"},{"bufferView":67,"componentType":5126,"count":653,"max":[0.6307682,0.76352817],"min":[0.44985035,0.584097],"normalized":false,"type":"VEC2"},{"bufferView":68,"componentType":5121,"count":653,"max":[58,0,0,0],"min":[58,0,0,0],"normalized":false,"type":"VEC4"},{"bufferView":69,"componentType":5126,"count":653,"max":[1.0,0.0,0.0,0.0],"min":[1.0,0.0,0.0,0.0],"normalized":false,"type":"VEC4"},{"bufferView":70,"componentType":5123,"count":1872,"max":[652],"min":[0],"normalized":false,"type":"SCALAR"},{"bufferView":71,"componentType":5126,"count":916,"max":[0.048019532,2.4468346,0.14532429],"min":[-0.09485453,2.3676097,0.07728162],"normalized":false,"type":"VEC3"},{"bufferView":72,"componentType":5126,"count":916,"max":[0.999966,0.9131486,0.99982584,1.0],"min":[-0.99967605,-0.9192779,-0.99907696,1.0],"normalized":false,"type":"VEC4"},{"bufferView":73,"componentType":5126,"count":916,"max":[0.99946654,0.98807704,0.99993056],"min":[-0.99983764,-0.99989736,-0.9989598],"normalized":false,"type":"VEC3"},{"bufferView":74,"componentType":5126,"count":916,"max":[0.98518574,0.9610494],"min":[0.7555763,0.14477545],"normalized":false,"type":"VEC2"},{"bufferView":75,"componentType":5121,"count":916,"max":[29,28,28,0],"min":[26,27,0,0],"normalized":false,"type":"VEC4"},{"bufferView":76,"componentType":5126,"count":916,"max":[0.69056815,0.49978638,0.15309611,0.0],"min":[0.5002136,0.15646839,0.0,0.0],"normalized":false,"type":"VEC4"},{"bufferView":77,"componentType":5123,"count":4176,"max":[915],"min":[0],"normalized":false,"type":"SCALAR"}],"asset":{"copyright":"The Creators of 'Friday Night Funkin': Lullaby'","generator":"GDRE Tools vv2.6.3","version":"2.0"},"bufferViews":[{"buffer":0,"byteLength":6464},{"buffer":0,"byteLength":13848,"byteOffset":6464,"byteStride":12,"target":34962},{"buffer":0,"byteLength":18464,"byteOffset":20312,"byteStride":16,"target":34962},{"buffer":0,"byteLength":13848,"byteOffset":38776,"byteStride":12,"target":34962},{"buffer":0,"byteLength":9232,"byteOffset":52624,"byteStride":8,"target":34962},{"buffer":0,"byteLength":4616,"byteOffset":61856,"byteStride":4,"target":34962},{"buffer":0,"byteLength":18464,"byteOffset":66472,"byteStride":16,"target":34962},{"buffer":0,"byteLength":11712,"byteOffset":84936,"target":34963},{"buffer":0,"byteLength":2124,"byteOffset":96648,"byteStride":12,"target":34962},{"buffer":0,"byteLength":2832,"byteOffset":98772,"byteStride":16,"target":34962},{"buffer":0,"byteLength":2124,"byteOffset":101604,"byteStride":12,"target":34962},{"buffer":0,"byteLength":1416,"byteOffset":103728,"byteStride":8,"target":34962},{"buffer":0,"byteLength":708,"byteOffset":105144,"byteStride":4,"target":34962},{"buffer":0,"byteLength":2832,"byteOffset":105852,"byteStride":16,"target":34962},{"buffer":0,"byteLength":540,"byteOffset":108684,"target":34963},{"buffer":0,"byteLength":1776,"byteOffset":109224,"byteStride":12,"target":34962},{"buffer":0,"byteLength":2368,"byteOffset":111000,"byteStride":16,"target":34962},{"buffer":0,"byteLength":1776,"byteOffset":113368,"byteStride":12,"target":34962},{"buffer":0,"byteLength":1184,"byteOffset":115144,"byteStride":8,"target":34962},{"buffer":0,"byteLength":592,"byteOffset":116328,"byteStride":4,"target":34962},{"buffer":0,"byteLength":2368,"byteOffset":116920,"byteStride":16,"target":34962},{"buffer":0,"byteLength":690,"byteOffset":119288,"target":34963},{"buffer":0,"byteLength":2352,"byteOffset":119980,"byteStride":12,"target":34962},{"buffer":0,"byteLength":3136,"byteOffset":122332,"byteStride":16,"target":34962},{"buffer":0,"byteLength":2352,"byteOffset":125468,"byteStride":12,"target":34962},{"buffer":0,"byteLength":1568,"byteOffset":127820,"byteStride":8,"target":34962},{"buffer":0,"byteLength":784,"byteOffset":129388,"byteStride":4,"target":34962},{"buffer":0,"byteLength":3136,"byteOffset":130172,"byteStride":16,"target":34962},{"buffer":0,"byteLength":1056,"byteOffset":133308,"target":34963},{"buffer":0,"byteLength":26880,"byteOffset":134364,"byteStride":12,"target":34962},{"buffer":0,"byteLength":35840,"byteOffset":161244,"byteStride":16,"target":34962},{"buffer":0,"byteLength":26880,"byteOffset":197084,"byteStride":12,"target":34962},{"buffer":0,"byteLength":17920,"byteOffset":223964,"byteStride":8,"target":34962},{"buffer":0,"byteLength":8960,"byteOffset":241884,"byteStride":4,"target":34962},{"buffer":0,"byteLength":35840,"byteOffset":250844,"byteStride":16,"target":34962},{"buffer":0,"byteLength":24300,"byteOffset":286684,"target":34963},{"buffer":0,"byteLength":3144,"byteOffset":310984,"byteStride":12,"target":34962},{"buffer":0,"byteLength":4192,"byteOffset":314128,"byteStride":16,"target":34962},{"buffer":0,"byteLength":3144,"byteOffset":318320,"byteStride":12,"target":34962},{"buffer":0,"byteLength":2096,"byteOffset":321464,"byteStride":8,"target":34962},{"buffer":0,"byteLength":1048,"byteOffset":323560,"byteStride":4,"target":34962},{"buffer":0,"byteLength":4192,"byteOffset":324608,"byteStride":16,"target":34962},{"buffer":0,"byteLength":2424,"byteOffset":328800,"target":34963},{"buffer":0,"byteLength":20064,"byteOffset":331224,"byteStride":12,"target":34962},{"buffer":0,"byteLength":26752,"byteOffset":351288,"byteStride":16,"target":34962},{"buffer":0,"byteLength":20064,"byteOffset":378040,"byteStride":12,"target":34962},{"buffer":0,"byteLength":13376,"byteOffset":398104,"byteStride":8,"target":34962},{"buffer":0,"byteLength":6688,"byteOffset":411480,"byteStride":4,"target":34962},{"buffer":0,"byteLength":26752,"byteOffset":418168,"byteStride":16,"target":34962},{"buffer":0,"byteLength":16008,"byteOffset":444920,"target":34963},{"buffer":0,"byteLength":4848,"byteOffset":460928,"byteStride":12,"target":34962},{"buffer":0,"byteLength":6464,"byteOffset":465776,"byteStride":16,"target":34962},{"buffer":0,"byteLength":4848,"byteOffset":472240,"byteStride":12,"target":34962},{"buffer":0,"byteLength":3232,"byteOffset":477088,"byteStride":8,"target":34962},{"buffer":0,"byteLength":1616,"byteOffset":480320,"byteStride":4,"target":34962},{"buffer":0,"byteLength":6464,"byteOffset":481936,"byteStride":16,"target":34962},{"buffer":0,"byteLength":3888,"byteOffset":488400,"target":34963},{"buffer":0,"byteLength":3324,"byteOffset":492288,"byteStride":12,"target":34962},{"buffer":0,"byteLength":4432,"byteOffset":495612,"byteStride":16,"target":34962},{"buffer":0,"byteLength":3324,"byteOffset":500044,"byteStride":12,"target":34962},{"buffer":0,"byteLength":2216,"byteOffset":503368,"byteStride":8,"target":34962},{"buffer":0,"byteLength":1108,"byteOffset":505584,"byteStride":4,"target":34962},{"buffer":0,"byteLength":4432,"byteOffset":506692,"byteStride":16,"target":34962},{"buffer":0,"byteLength":2868,"byteOffset":511124,"target":34963},{"buffer":0,"byteLength":7836,"byteOffset":513992,"byteStride":12,"target":34962},{"buffer":0,"byteLength":10448,"byteOffset":521828,"byteStride":16,"target":34962},{"buffer":0,"byteLength":7836,"byteOffset":532276,"byteStride":12,"target":34962},{"buffer":0,"byteLength":5224,"byteOffset":540112,"byteStride":8,"target":34962},{"buffer":0,"byteLength":2612,"byteOffset":545336,"byteStride":4,"target":34962},{"buffer":0,"byteLength":10448,"byteOffset":547948,"byteStride":16,"target":34962},{"buffer":0,"byteLength":3744,"byteOffset":558396,"target":34963},{"buffer":0,"byteLength":10992,"byteOffset":562140,"byteStride":12,"target":34962},{"buffer":0,"byteLength":14656,"byteOffset":573132,"byteStride":16,"target":34962},{"buffer":0,"byteLength":10992,"byteOffset":587788,"byteStride":12,"target":34962},{"buffer":0,"byteLength":7328,"byteOffset":598780,"byteStride":8,"target":34962},{"buffer":0,"byteLength":3664,"byteOffset":606108,"byteStride":4,"target":34962},{"buffer":0,"byteLength":14656,"byteOffset":609772,"byteStride":16,"target":34962},{"buffer":0,"byteLength":8352,"byteOffset":624428,"target":34963}],"buffers":[{"byteLength":632780,"uri":"Collector0.bin"}],"extensionsUsed":["GODOT_single_root","KHR_materials_emissive_strength"],"materials":[{"name":"Collector1.001","pbrMetallicRoughness":{"baseColorFactor":[1.0,1.0,1.0,1.0],"metallicFactor":1.0,"roughnessFactor":1.0}},{"doubleSided":true,"name":"collector4.001","pbrMetallicRoughness":{"baseColorFactor":[1.0,1.0,1.0,1.0],"metallicFactor":1.0,"roughnessFactor":1.0}},{"doubleSided":true,"name":"Collector0.003","pbrMetallicRoughness":{"baseColorFactor":[1.0,1.0,1.0,1.0],"metallicFactor":1.0,"roughnessFactor":1.0}},{"doubleSided":true,"name":"cuff","pbrMetallicRoughness":{"baseColorFactor":[1.0,1.0,1.0,1.0],"metallicFactor":1.0,"roughnessFactor":1.0}},{"name":"Collector2.001","pbrMetallicRoughness":{"baseColorFactor":[1.0,1.0,1.0,1.0],"metallicFactor":1.0,"roughnessFactor":1.0}},{"name":"Material","pbrMetallicRoughness":{"baseColorFactor":[0.0,0.0,0.0,1.0],"metallicFactor":0.0,"roughnessFactor":0.5}},{"doubleSided":true,"name":"Collector0.002","pbrMetallicRoughness":{"baseColorFactor":[1.0,1.0,1.0,1.0],"metallicFactor":1.0,"roughnessFactor":1.0}},{"doubleSided":true,"name":"Collector3.001","pbrMetallicRoughness":{"baseColorFactor":[1.0,1.0,1.0,1.0],"metallicFactor":1.0,"roughnessFactor":0.75454545}},{"doubleSided":true,"emissiveFactor":[1.0,1.0,1.0],"extensions":{"KHR_materials_emissive_strength":{"emissiveStrength":53.699997}},"name":"Collector-1.001","pbrMetallicRoughness":{"baseColorFactor":[1.0,1.0,1.0,1.0],"metallicFactor":1.0,"roughnessFactor":0.75454545}}],"meshes":[{"name":"Intro Scene_Plane_012","primitives":[{"attributes":{"JOINTS_0":5,"NORMAL":3,"POSITION":1,"TANGENT":2,"TEXCOORD_0":4,"WEIGHTS_0":6},"indices":7,"material":0,"mode":4},{"attributes":{"JOINTS_0":12,"NORMAL":10,"POSITION":8,"TANGENT":9,"TEXCOORD_0":11,"WEIGHTS_0":13},"indices":14,"material":1,"mode":4},{"attributes":{"JOINTS_0":19,"NORMAL":17,"POSITION":15,"TANGENT":16,"TEXCOORD_0":18,"WEIGHTS_0":20},"indices":21,"material":2,"mode":4}]},{"name":"Intro Scene_Cube_003","primitives":[{"attributes":{"JOINTS_0":26,"NORMAL":24,"POSITION":22,"TANGENT":23,"TEXCOORD_0":25,"WEIGHTS_0":27},"indices":28,"material":3,"mode":4}]},{"name":"Intro Scene_Plane_008","primitives":[{"attributes":{"JOINTS_0":33,"NORMAL":31,"POSITION":29,"TANGENT":30,"TEXCOORD_0":32,"WEIGHTS_0":34},"indices":35,"material":4,"mode":4}]},{"name":"Intro Scene_Cube","primitives":[{"attributes":{"JOINTS_0":40,"NORMAL":38,"POSITION":36,"TANGENT":37,"TEXCOORD_0":39,"WEIGHTS_0":41},"indices":42,"material":5,"mode":4}]},{"name":"Intro Scene_Cube_005","primitives":[{"attributes":{"JOINTS_0":47,"NORMAL":45,"POSITION":43,"TANGENT":44,"TEXCOORD_0":46,"WEIGHTS_0":48},"indices":49,"material":2,"mode":4}]},{"name":"Intro Scene_Plane_002","primitives":[{"attributes":{"JOINTS_0":54,"NORMAL":52,"POSITION":50,"TANGENT":51,"TEXCOORD_0":53,"WEIGHTS_0":55},"indices":56,"material":6,"mode":4}]},{"name":"Intro Scene_Cylinder","primitives":[{"attributes":{"JOINTS_0":61,"NORMAL":59,"POSITION":57,"TANGENT":58,"TEXCOORD_0":60,"WEIGHTS_0":62},"indices":63,"material":7,"mode":4}]},{"name":"Intro Scene_Cylinder_001","primitives":[{"attributes":{"JOINTS_0":68,"NORMAL":66,"POSITION":64,"TANGENT":65,"TEXCOORD_0":67,"WEIGHTS_0":69},"indices":70,"material":8,"mode":4}]},{"name":"Intro Scene_Cube_002","primitives":[{"attributes":{"JOINTS_0":75,"NORMAL":73,"POSITION":71,"TANGENT":72,"TEXCOORD_0":74,"WEIGHTS_0":76},"indices":77,"material":0,"mode":4}]}],"nodes":[{"children":[1],"name":"Intro Scene"},{"children":[2,60,61,82,103,104,105,106,107,108,109,110,111],"name":"Armature","scale":[0.270708,0.27070823,0.27070823]},{"children":[3,4,5,6,7,8,9,10],"name":"Root"},{"name":"Pelvis_001","rotation":[1.6094017e-08,0.9999018,0.014014529,1.1482684e-06],"translation":[0.32467496,0.35976267,-5.758995]},{"name":"Spine_013","rotation":[0.0027755839,-0.014106986,0.99989665,-3.915917e-05],"translation":[0.1470585,0.59102595,-3.9088914]},{"name":"Spine_014","rotation":[0.022512201,-0.0077314167,0.99971664,-0.00017410055],"translation":[-0.24940118,0.795081,-1.7459031]},{"name":"Forearm_R_002","rotation":[-0.7131121,0.079800196,-0.08228046,0.6916162],"translation":[-2.0253294,3.0804417,-0.011203763]},{"name":"Forearm_L_002","rotation":[-0.7131121,-0.079800196,0.08228046,0.6916162],"translation":[2.0253294,3.0804417,-0.011203763]},{"name":"Arm_R_001","rotation":[-0.7043949,0.08139203,-0.081861146,0.70035845],"translation":[-1.4977386,4.9020834,-4.8955984]},{"name":"Arm_L_001","rotation":[-0.7043949,-0.08139203,0.081861146,0.70035845],"translation":[1.4977386,4.9020834,-4.8955984]},{"children":[11,18],"name":"Spine_006","rotation":[0.010113653,0.99953294,0.009577761,0.027202167],"translation":[-7.450581e-09,1.0547568,-0.045440514]},{"children":[12],"name":"Spine_005","rotation":[0.8873229,0.12086063,-0.11050713,0.43109044]},{"children":[13],"name":"Spine_004","rotation":[-0.4206336,-0.061145026,0.14703025,0.8931466],"translation":[-7.450581e-09,0.8883437,-2.7939677e-09]},{"children":[14],"name":"Spine_003","rotation":[0.24838589,-0.03531736,0.12877107,0.95941395],"translation":[-9.313226e-09,1.0515226,-7.264316e-08]},{"children":[15],"name":"Spine_002","rotation":[-0.17528307,0.02796463,-0.11627201,0.97722805],"translation":[8.568168e-08,1.2600007,1.5459955e-07]},{"children":[16],"name":"Spine_001","rotation":[-0.12422618,0.010910989,0.05430377,0.9907068],"translation":[-1.8626451e-09,0.9983049,-5.8673322e-08]},{"children":[17],"name":"Spine","rotation":[0.4722827,-0.02423991,-0.095276855,0.87594736],"translation":[6.821938e-08,0.76005685,2.5704503e-07]},{"name":"Pelvis","rotation":[-0.2462801,0.015996808,0.10496088,0.9633657],"translation":[7.450581e-09,0.68056333,3.1013042e-07]},{"children":[19],"name":"Spine_007","rotation":[-0.16001835,0.056862768,-0.1668567,0.9712464],"translation":[-1.193257e-09,1.9184884,-7.916242e-09]},{"children":[20],"name":"Spine_008","rotation":[0.23564266,-0.002413145,0.22332288,0.9458296],"translation":[3.959576e-08,0.7722898,4.0978193e-08]},{"children":[21],"name":"Spine_009","rotation":[0.1474146,0.019816991,0.0315061,0.98837423],"translation":[-3.8184226e-08,1.0112282,-1.3876706e-07]},{"children":[22],"name":"Spine_010","rotation":[0.08516183,0.9774023,-0.18663408,0.050989117],"translation":[-8.342451e-08,0.5766536,2.4821327e-07]},{"children":[23],"name":"Spine_011","rotation":[0.10948652,3.3529982e-08,2.428425e-08,0.9939883],"translation":[7.1054274e-15,0.5816457,4.470347e-08]},{"children":[24,39,44,49,51,55,59],"name":"Spine_012","rotation":[-0.0043476904,1.5549776e-15,-1.0365728e-09,0.9999905],"translation":[2.1316282e-14,0.99421406,5.960463e-08]},{"children":[25,32,33],"name":"Neck","rotation":[-0.0049831592,2.4902962e-05,0.0049843774,0.99997514],"translation":[5.3290705e-15,1.0158241,1.7881392e-07]},{"children":[26,28,31],"name":"Head","rotation":[0.043052256,-0.0018053458,0.03190303,0.9985617],"translation":[7.537892e-09,0.65809256,1.2601217e-08]},{"children":[27],"name":"Hat_2","rotation":[-0.0074445377,0.0002750292,-0.03691318,0.9992907],"translation":[-0.08452971,1.0733094,-5.46544e-08]},{"name":"Brim","rotation":[0.7388318,-9.812469e-10,1.7529457e-07,0.67388994]},{"children":[29,30],"name":"Teeth top","rotation":[0.71611834,-0.026452698,-0.025746414,0.69700205],"translation":[-0.015868096,0.6892394,-0.29116687]},{"name":"Teeth_R","translation":[-0.2853151,0.020830382,0.08600787]},{"name":"Teeth_L","translation":[0.29813123,0.020830141,0.086007364]},{"name":"Teeth Bottom","rotation":[0.8075398,-0.029829688,-0.02174404,0.58865684],"translation":[-0.022490727,0.5997193,-0.30118865]},{"name":"Cape","rotation":[-0.062136654,0.00030953693,-0.004974819,0.9980552],"translation":[0.0020025144,0.2008669,-0.05105745]},{"children":[34,35,36,37,38],"name":"fnfmodding_hollywood","rotation":[-0.062136646,0.00030954095,-0.004974752,0.9980552],"translation":[3.3231275,1.9387742,-0.1642167]},{"name":"armikR_slider","translation":[-1.4115359,2.9730349,3.789346e-07]},{"name":"armikL_slider","translation":[1.3603401,2.9730349,3.8143952e-07]},{"name":"handParentR_slider","translation":[-1.4115361,0.8082628,4.1119222e-07]},{"name":"handParentL_slider","translation":[1.3603399,0.8082628,4.1369714e-07]},{"name":"handParentL_slider_001","translation":[-0.5375916,-1.77952,1.2271741e-07]},{"children":[40,43],"name":"Collar_R","rotation":[0.07240493,0.011027375,0.590616,0.8036222],"translation":[-0.11625428,0.7573276,-0.102341235]},{"children":[41],"name":"Arm_R","rotation":[0.7112816,-0.696494,-0.007583849,0.09443066],"translation":[-0.2171398,0.637186,0.08659172]},{"children":[42],"name":"Forearm_R","rotation":[-0.04170489,-1.8251749e-05,0.004523114,0.99911976],"translation":[-1.4388934e-07,2.6448636,-6.7055225e-08]},{"name":"Bigcuff_R","rotation":[0.040216126,-0.008992027,0.77816164,0.6267107],"translation":[-4.3871114e-07,1.89732,-1.5832484e-08]},{"name":"Cape_R","rotation":[0.7212287,-0.6804485,-0.01585453,0.12871568],"translation":[0.018295716,0.9495537,0.21154341]},{"children":[45,48],"name":"Collar_L","rotation":[0.07240505,-0.011027551,-0.590616,0.80362225],"translation":[0.116254315,0.7573277,-0.10234118]},{"children":[46],"name":"Arm_L","rotation":[0.7112817,0.69649386,0.007583837,0.09443065],"translation":[0.21713977,0.6371856,0.08659152]},{"children":[47],"name":"Forearm_L","rotation":[-0.04170489,1.8252214e-05,-0.0045231353,0.99911976],"translation":[-2.1443702e-07,2.6448631,2.6077032e-08]},{"name":"Bigcuff_L","rotation":[0.04021611,0.008992052,-0.77816164,0.6267107],"translation":[1.9854633e-07,1.8973202,9.313226e-09]},{"name":"Cape_L","rotation":[0.7212288,0.6804484,0.015854513,0.12871568],"translation":[-0.018295705,0.9495534,0.21154323]},{"children":[50],"name":"Cape_001","rotation":[0.99995744,2.1991462e-09,2.4203892e-14,-0.009223913],"translation":[1.1480829e-07,0.526818,-0.48154044]},{"name":"Cape_002","rotation":[-0.032631315,-3.4157545e-14,7.779908e-09,0.9994675],"translation":[3.5527137e-14,1.8922331,1.192093e-07]},{"children":[52],"name":"Cape_L_001","rotation":[0.9959658,0.08578146,0.003811663,0.026059456],"translation":[0.98467493,-0.50769365,-0.38298747]},{"children":[53],"name":"Cape_L_002","rotation":[-0.13042167,-0.010887114,0.110430166,0.9852293],"translation":[-1.4901161e-07,1.3097816,-1.7695129e-08]},{"children":[54],"name":"Cape_L_003","rotation":[0.075153194,0.044053607,-0.30527207,0.9482722],"translation":[-3.981404e-08,2.7199655,-3.1199306e-08]},{"name":"Cape_L_004","rotation":[-0.1872853,1.3809068e-07,-0.09270751,0.977921],"translation":[-1.9115396e-07,1.8528193,-1.9557774e-08]},{"children":[56],"name":"Cape_R_001","rotation":[0.9959658,-0.085781574,-0.0038111147,0.026059479],"translation":[-0.9846748,-0.50769347,-0.382988]},{"children":[57],"name":"Cape_R_002","rotation":[-0.13042147,0.010887116,-0.11043005,0.9852294],"translation":[2.514571e-07,1.3097814,-3.8184226e-08]},{"children":[58],"name":"Cape_R_003","rotation":[0.0751529,-0.04405364,0.30527154,0.9482724],"translation":[1.4901161e-08,2.7199655,4.5634806e-08]},{"name":"Cape_R_004","rotation":[-0.18728532,-1.0856783e-07,0.09270734,0.97792107],"translation":[-1.816079e-08,1.8528192,-1.21071935e-08]},{"name":"Capemain","rotation":[-0.0021922006,-2.6640537e-15,-5.226657e-10,0.9999976],"translation":[8.376701e-09,0.7896221,-0.035134103]},{"name":"Pipe_2","rotation":[0.75752825,0.26018816,-0.38320637,0.46000645],"translation":[0.04006203,8.879335,0.31792647]},{"children":[62],"name":"Forearm_L_001","rotation":[0.9858319,0.16541503,0.023985242,0.014072405],"translation":[2.0253294,3.0804417,-0.011203763]},{"children":[63],"name":"Hand_L","rotation":[0.017866902,0.00040221584,-0.00016017724,0.99984026],"translation":[-1.9483014e-07,0.33095187,1.5133992e-09]},{"children":[64,67,79],"name":"Index_L","rotation":[-0.12134728,0.061649922,-0.0068681147,0.99066997],"translation":[0.07723666,0.045984667,-0.15737633]},{"children":[65],"name":"Index_L_001","rotation":[0.0070237746,0.00014450242,0.046432063,0.9988968],"translation":[-5.5879354e-08,0.4232622,1.4901161e-08]},{"children":[66],"name":"Index_L_002","rotation":[-0.0049007554,1.6766107e-05,-0.026213408,0.99964434],"translation":[1.1175871e-08,0.19409683,-6.7055225e-08]},{"name":"Index_L_003","rotation":[0.0051768785,2.4764799e-05,-0.0141227795,0.9998869],"translation":[1.9744039e-07,0.2061089,2.2351742e-08]},{"children":[68,71],"name":"Middle_L","rotation":[0.092229456,-0.039463837,-0.034148768,0.99436927],"translation":[-0.019443864,-0.0072769187,0.104314804]},{"children":[69],"name":"Middle_L_001","rotation":[-0.0056270454,-0.0054408037,0.04024535,0.99915916],"translation":[-2.0861626e-07,0.43274057,-7.450581e-09]},{"children":[70],"name":"Middle_L_002","rotation":[-0.0015940779,-0.0010260425,-0.019440437,0.9998092],"translation":[2.1466985e-07,0.23153108,-5.5879354e-09]},{"name":"Middle_L_003","rotation":[0.003826671,0.006723418,-0.014547077,0.9998643],"translation":[-1.755543e-07,0.20610914,7.450581e-09]},{"children":[72,75],"name":"Ring_L","rotation":[0.07450172,-0.06165362,0.002014321,0.99531114],"translation":[-0.020910777,-0.017601542,0.1250338]},{"children":[73],"name":"Ring_L_001","rotation":[-0.036073126,-0.002668044,0.041947607,0.9984648],"translation":[-6.193295e-08,0.4308372,1.4901161e-08]},{"children":[74],"name":"Ring_L_002","rotation":[-0.004187852,-0.015618933,-0.019051043,0.99968773],"translation":[2.0489097e-08,0.2315309,9.313226e-09]},{"name":"Ring_L_003","rotation":[0.0014222193,-0.006652171,-0.014974755,0.99986476],"translation":[2.9616058e-07,0.2061092,0.0]},{"children":[76],"name":"Pinky_L","rotation":[0.042055827,0.0018975474,0.036778495,0.9984363],"translation":[-0.017042618,0.019686969,0.13065729]},{"children":[77],"name":"Pinky_L_001","rotation":[-0.044930656,-0.039039567,0.04412609,0.9972513],"translation":[-3.1664968e-08,0.38175577,-5.9604645e-08]},{"children":[78],"name":"Pinky_L_002","rotation":[-0.0015792033,-0.008803948,-0.024069658,0.99967027],"translation":[-1.4156103e-07,0.19198738,-1.3038516e-08]},{"name":"Pinky_L_003","rotation":[0.00092217064,0.0069663143,-0.015013316,0.9998626],"translation":[5.5134296e-07,0.2061093,0.0]},{"children":[80],"name":"Thumb_L","rotation":[-0.25066426,0.65400434,-0.052692007,0.7118071],"translation":[-0.11602746,-0.07513453,-0.015444592]},{"children":[81],"name":"Thumb_L_001","rotation":[0.017349072,0.043754928,0.057187777,0.9972533],"translation":[-4.4703484e-08,0.2968742,1.1175871e-07]},{"name":"Thumb_L_002","rotation":[0.014157787,0.022511225,0.0050851335,0.99963343],"translation":[2.9802322e-08,0.2061086,1.4156103e-07]},{"children":[83],"name":"Forearm_R_001","rotation":[0.9858319,-0.16541503,-0.023985242,0.014072405],"translation":[-2.0253294,3.0804417,-0.011203763]},{"children":[84],"name":"Hand_R","rotation":[0.017866902,-0.00040221584,0.00016017724,0.99984026],"translation":[1.9483014e-07,0.33095187,1.5133992e-09]},{"children":[85,88,100],"name":"Index_R","rotation":[-0.12134728,-0.061649922,0.0068681147,0.99066997],"translation":[-0.07723666,0.045984667,-0.15737633]},{"children":[86],"name":"Index_R_001","rotation":[0.0070237746,-0.00014450242,-0.046432063,0.9988968],"translation":[5.5879354e-08,0.4232622,1.4901161e-08]},{"children":[87],"name":"Index_R_002","rotation":[-0.0049007554,-1.6766107e-05,0.026213408,0.99964434],"translation":[-1.1175871e-08,0.19409683,-6.7055225e-08]},{"name":"Index_R_003","rotation":[0.0051768785,-2.4764799e-05,0.0141227795,0.9998869],"translation":[-1.9744039e-07,0.2061089,2.2351742e-08]},{"children":[89,92],"name":"Middle_R","rotation":[0.092229456,0.039463837,0.034148768,0.99436927],"translation":[0.019443864,-0.0072769187,0.104314804]},{"children":[90],"name":"Middle_R_001","rotation":[-0.0056270454,0.0054408037,-0.04024535,0.99915916],"translation":[2.0861626e-07,0.43274057,-7.450581e-09]},{"children":[91],"name":"Middle_R_002","rotation":[-0.0015940779,0.0010260425,0.019440437,0.9998092],"translation":[-2.1466985e-07,0.23153108,-5.5879354e-09]},{"name":"Middle_R_003","rotation":[0.003826671,-0.006723418,0.014547077,0.9998643],"translation":[1.755543e-07,0.20610914,7.450581e-09]},{"children":[93,96],"name":"Ring_R","rotation":[0.07450172,0.06165362,-0.002014321,0.99531114],"translation":[0.020910777,-0.017601542,0.1250338]},{"children":[94],"name":"Ring_R_001","rotation":[-0.036073126,0.002668044,-0.041947607,0.9984648],"translation":[6.193295e-08,0.4308372,1.4901161e-08]},{"children":[95],"name":"Ring_R_002","rotation":[-0.004187852,0.015618933,0.019051043,0.99968773],"translation":[-2.0489097e-08,0.2315309,9.313226e-09]},{"name":"Ring_R_003","rotation":[0.0014222193,0.006652171,0.014974755,0.99986476],"translation":[-2.9616058e-07,0.2061092,0.0]},{"children":[97],"name":"Pinky_R","rotation":[0.042055827,-0.0018975474,-0.036778495,0.9984363],"translation":[0.017042618,0.019686969,0.13065729]},{"children":[98],"name":"Pinky_R_001","rotation":[-0.044930656,0.039039567,-0.04412609,0.9972513],"translation":[3.1664968e-08,0.38175577,-5.9604645e-08]},{"children":[99],"name":"Pinky_R_002","rotation":[-0.0015792033,0.008803948,0.024069658,0.99967027],"translation":[1.4156103e-07,0.19198738,-1.3038516e-08]},{"name":"Pinky_R_003","rotation":[0.00092217064,-0.0069663143,0.015013316,0.9998626],"translation":[-5.5134296e-07,0.2061093,0.0]},{"children":[101],"name":"Thumb_R","rotation":[-0.25066426,-0.65400434,0.052692007,0.7118071],"translation":[0.11602746,-0.07513453,-0.015444592]},{"children":[102],"name":"Thumb_R_001","rotation":[0.017349072,-0.043754928,-0.057187777,0.9972533],"translation":[4.4703484e-08,0.2968742,1.1175871e-07]},{"name":"Thumb_R_002","rotation":[0.014157787,-0.022511225,-0.0050851335,0.99963343],"translation":[-2.9802322e-08,0.2061086,1.4156103e-07]},{"mesh":0,"name":"Body","skin":0},{"mesh":1,"name":"Body_001","skin":0},{"mesh":2,"name":"Coat","skin":0},{"mesh":3,"name":"Cube","skin":0},{"mesh":4,"name":"Hands","skin":0},{"mesh":5,"name":"Hat","skin":0},{"mesh":6,"name":"Pipe","skin":0},{"mesh":7,"name":"Pipe_001","skin":0},{"mesh":8,"name":"Teeth","skin":0}],"scene":0,"scenes":[{"name":"Collector","nodes":[0]}],"skins":[{"inverseBindMatrices":0,"joints":[2,3,4,5,6,7,8,9,10,11,12,13,14,15,16,17,18,19,20,21,22,23,24,25,26,27,28,29,30,31,32,33,34,35,36,37,38,39,40,41,42,43,44,45,46,47,48,49,50,51,52,53,54,55,56,57,58,59,60,61,62,63,64,65,66,67,68,69,70,71,72,73,74,75,76,77,78,79,80,81,82,83,84,85,86,87,88,89,90,91,92,93,94,95,96,97,98,99,100,101,102],"name":"Skin"}]}