{"accessors":[{"bufferView":0,"componentType":5126,"count":5,"max":[1.0,0.0,0.0,0.0,0.0,1.0,1.0,0.0,8.742278e-08,1.0,1.0,0.0,1.3545741e-15,1.4901161e-08,0.0,1.0],"min":[-1.0,-8.742279e-08,-8.742278e-08,0.0,-8.742276e-08,-1.0000001,0.0,0.0,-8.742278e-08,-2.1696258e-07,-1.0,0.0,-5.137057e-16,-1.4901161e-08,-3.8542614e-09,1.0],"normalized":false,"type":"MAT4"},{"bufferView":1,"componentType":5126,"count":101,"max":[3.6940176,3.5006998,3.6049688,0.0,3.4473133,3.6940138,3.5955024,0.0,3.0720568,3.590219,3.6940138,0.0,6.786702,7.2706385,8.918059,1.0],"min":[-3.6940172,-3.5007,-3.6049688,0.0,-3.4473126,-3.6935635,-3.6740057,0.0,-3.0720568,-3.6939528,-3.693972,0.0,-6.786703,-12.68487,-6.570665,1.0],"normalized":false,"type":"MAT4"},{"bufferView":2,"componentType":5126,"count":826,"max":[0.37513193,0.25475833,0.09141475],"min":[-0.37503514,-0.23692875,-0.09141475],"normalized":false,"type":"VEC3"},{"bufferView":3,"componentType":5126,"count":826,"max":[1.0,1.0,1.0,1.0],"min":[-1.0,-0.9999736,-1.0,-1.0],"normalized":false,"type":"VEC4"},{"bufferView":4,"componentType":5126,"count":826,"max":[1.0,1.0,1.0],"min":[-1.0,-1.0,-1.0],"normalized":false,"type":"VEC3"},{"bufferView":5,"componentType":5126,"count":826,"max":[0.9876395,0.98923016],"min":[0.015275653,0.008528888],"normalized":false,"type":"VEC2"},{"bufferView":6,"componentType":5121,"count":826,"max":[4,0,0,0],"min":[2,0,0,0],"normalized":false,"type":"VEC4"},{"bufferView":7,"componentType":5126,"count":826,"max":[1.0,0.0,0.0,0.0],"min":[1.0,0.0,0.0,0.0],"normalized":false,"type":"VEC4"},{"bufferView":8,"componentType":5123,"count":2460,"max":[825],"min":[0],"normalized":false,"type":"SCALAR"},{"bufferView":9,"componentType":5126,"count":196,"max":[0.6242265,0.8620658,-0.15553741],"min":[-0.6242265,0.7541256,-0.29009074],"normalized":false,"type":"VEC3"},{"bufferView":10,"componentType":5126,"count":196,"max":[0.9949074,0.9903316,0.33386156,1.0],"min":[-0.9949084,-0.9736018,-0.90764517,-1.0],"normalized":false,"type":"VEC4"},{"bufferView":11,"componentType":5126,"count":196,"max":[0.9790165,0.99882454,0.96451896],"min":[-0.9790251,-0.97467667,-0.9714704],"normalized":false,"type":"VEC3"},{"bufferView":12,"componentType":5126,"count":196,"max":[0.9638469,0.9543976],"min":[0.02847156,0.06671828],"normalized":false,"type":"VEC2"},{"bufferView":13,"componentType":5121,"count":196,"max":[81,81,0,0],"min":[53,0,0,0],"normalized":false,"type":"VEC4"},{"bufferView":14,"componentType":5126,"count":196,"max":[1.0,0.48945588,0.0,0.0],"min":[0.5105442,0.0,0.0,0.0],"normalized":false,"type":"VEC4"},{"bufferView":15,"componentType":5121,"count":1056,"max":[195],"min":[0],"normalized":false,"type":"SCALAR"},{"bufferView":16,"componentType":5126,"count":1672,"max":[0.7227815,0.79148954,-0.052156284],"min":[-0.7227815,0.45795906,-0.3164942],"normalized":false,"type":"VEC3"},{"bufferView":17,"componentType":5126,"count":1672,"max":[0.99261343,0.973673,0.99937046,1.0],"min":[-0.99260604,-0.992246,-0.9922614,-1.0],"normalized":false,"type":"VEC4"},{"bufferView":18,"componentType":5126,"count":1672,"max":[0.99932534,0.960573,0.9935076],"min":[-0.99932396,-0.9887126,-0.9940076],"normalized":false,"type":"VEC3"},{"bufferView":19,"componentType":5126,"count":1672,"max":[0.6301602,0.9793912],"min":[0.01893039,0.1511643],"normalized":false,"type":"VEC2"},{"bufferView":20,"componentType":5121,"count":1672,"max":[100,100,100,100],"min":[54,0,0,0],"normalized":false,"type":"VEC4"},{"bufferView":21,"componentType":5126,"count":1672,"max":[1.0,0.49993896,0.3063037,0.22703065],"min":[0.28428426,0.0,0.0,0.0],"normalized":false,"type":"VEC4"},{"bufferView":22,"componentType":5123,"count":8004,"max":[1671],"min":[0],"normalized":false,"type":"SCALAR"}],"asset":{"copyright":"The Creators of 'Friday Night Funkin': Lullaby'","generator":"GDRE Tools vv2.6.3","version":"2.0"},"bufferViews":[{"buffer":0,"byteLength":320},{"buffer":0,"byteLength":6464,"byteOffset":320},{"buffer":0,"byteLength":9912,"byteOffset":6784,"byteStride":12,"target":34962},{"buffer":0,"byteLength":13216,"byteOffset":16696,"byteStride":16,"target":34962},{"buffer":0,"byteLength":9912,"byteOffset":29912,"byteStride":12,"target":34962},{"buffer":0,"byteLength":6608,"byteOffset":39824,"byteStride":8,"target":34962},{"buffer":0,"byteLength":3304,"byteOffset":46432,"byteStride":4,"target":34962},{"buffer":0,"byteLength":13216,"byteOffset":49736,"byteStride":16,"target":34962},{"buffer":0,"byteLength":4920,"byteOffset":62952,"target":34963},{"buffer":0,"byteLength":2352,"byteOffset":67872,"byteStride":12,"target":34962},{"buffer":0,"byteLength":3136,"byteOffset":70224,"byteStride":16,"target":34962},{"buffer":0,"byteLength":2352,"byteOffset":73360,"byteStride":12,"target":34962},{"buffer":0,"byteLength":1568,"byteOffset":75712,"byteStride":8,"target":34962},{"buffer":0,"byteLength":784,"byteOffset":77280,"byteStride":4,"target":34962},{"buffer":0,"byteLength":3136,"byteOffset":78064,"byteStride":16,"target":34962},{"buffer":0,"byteLength":1056,"byteOffset":81200,"target":34963},{"buffer":0,"byteLength":20064,"byteOffset":82256,"byteStride":12,"target":34962},{"buffer":0,"byteLength":26752,"byteOffset":102320,"byteStride":16,"target":34962},{"buffer":0,"byteLength":20064,"byteOffset":129072,"byteStride":12,"target":34962},{"buffer":0,"byteLength":13376,"byteOffset":149136,"byteStride":8,"target":34962},{"buffer":0,"byteLength":6688,"byteOffset":162512,"byteStride":4,"target":34962},{"buffer":0,"byteLength":26752,"byteOffset":169200,"byteStride":16,"target":34962},{"buffer":0,"byteLength":16008,"byteOffset":195952,"target":34963},{"buffer":0,"byteLength":573280,"byteOffset":211960},{"buffer":0,"byteLength":624623,"byteOffset":785240},{"buffer":0,"byteLength":1009846,"byteOffset":1409863},{"buffer":0,"byteLength":141162,"byteOffset":2419709},{"buffer":0,"byteLength":2177841,"byteOffset":2560871},{"buffer":0,"byteLength":1705039,"byteOffset":4738712},{"buffer":0,"byteLength":1374604,"byteOffset":6443751},{"buffer":0,"byteLength":2940911,"byteOffset":7818355}],"buffers":[{"byteLength":10759266,"uri":"intro0.bin"}],"extensionsUsed":["GODOT_single_root","KHR_materials_emissive_strength"],"images":[{"bufferView":23,"mimeType":"image/png","name":"cardboardmarker1_BaseColor"},{"bufferView":24,"mimeType":"image/png","name":"cardboardmarker_orm"},{"bufferView":25,"mimeType":"image/png","name":"cardboardmarker_Normal"},{"bufferView":26,"mimeType":"image/png","name":"cardboardmarker1_Emission"},{"bufferView":27,"mimeType":"image/png"},{"bufferView":28,"mimeType":"image/png","name":"tex_body_1_metallic_roughness"},{"bufferView":29,"mimeType":"image/png","name":"tex_body_0_roughness"},{"bufferView":30,"mimeType":"image/png","name":"tex_body_0_normal"}],"materials":[{"emissiveFactor":[1.0,1.0,1.0],"emissiveTexture":{"index":3},"extensions":{"KHR_materials_emissive_strength":{"emissiveStrength":3.0}},"name":"cardboardmarker","normalTexture":{"index":2,"scale":1.0},"pbrMetallicRoughness":{"baseColorFactor":[1.0,1.0,1.0,1.0],"baseColorTexture":{"index":0},"metallicFactor":1.0,"metallicRoughnessTexture":{"index":1},"roughnessFactor":1.0}},{"name":"cuff","pbrMetallicRoughness":{"baseColorFactor":[1.0,1.0,1.0,1.0],"baseColorTexture":{"index":4},"metallicFactor":0.0,"metallicRoughnessTexture":{"index":5},"roughnessFactor":1.0}},{"name":"Collector0_001","normalTexture":{"index":8,"scale":1.0},"pbrMetallicRoughness":{"baseColorFactor":[1.0,1.0,1.0,1.0],"baseColorTexture":{"index":6},"metallicFactor":1.0,"metallicRoughnessTexture":{"index":7},"roughnessFactor":1.0}}],"meshes":[{"name":"Intro Scene_Cylinder_017","primitives":[{"attributes":{"JOINTS_0":6,"NORMAL":4,"POSITION":2,"TANGENT":3,"TEXCOORD_0":5,"WEIGHTS_0":7},"indices":8,"material":0,"mode":4}]},{"name":"Intro Scene_Cube_003","primitives":[{"attributes":{"JOINTS_0":13,"NORMAL":11,"POSITION":9,"TANGENT":10,"TEXCOORD_0":12,"WEIGHTS_0":14},"indices":15,"material":1,"mode":4}]},{"name":"Intro Scene_Cube_005","primitives":[{"attributes":{"JOINTS_0":20,"NORMAL":18,"POSITION":16,"TANGENT":17,"TEXCOORD_0":19,"WEIGHTS_0":21},"indices":22,"material":2,"mode":4}]}],"nodes":[{"children":[1,8],"name":"Intro Scene"},{"children":[2,7],"name":"Armature_002"},{"children":[3,5],"name":"CardboardRoot","rotation":[0.0,0.70710677,0.70710677,0.0]},{"children":[4],"name":"CardboardSign","rotation":[0.099825956,0.9768011,0.029174903,-0.18719824],"translation":[-0.55813766,-0.40211773,0.61508244]},{"name":"CardboardSign_OFFSET","rotation":[-0.65574574,-0.09966379,-0.060263794,0.7459443],"translation":[0.44003296,0.12935147,-0.05917398]},{"children":[6],"name":"Marker","rotation":[0.114007264,0.883641,0.018405434,-0.45369834],"translation":[5.8469687,-0.74440706,-1.3077556]},{"name":"Marker_OFFSET","rotation":[0.07269065,-0.32699278,-0.1910639,0.9226518],"translation":[0.008858998,0.12954727,-0.08381619]},{"mesh":0,"name":"Cylinder","skin":0},{"children":[9,10,11,61,62,83,84,85,86,87,88,89,110,111],"name":"Armature","scale":[0.270708,0.27070823,0.27070823],"translation":[0.0,0.0,-0.217694]},{"name":"Root"},{"name":"Pelvis_001","rotation":[1.6094017e-08,0.9999018,0.0140145235,1.1482681e-06],"translation":[0.32467496,0.35976267,-5.758995]},{"children":[12,19],"name":"Spine_006","rotation":[0.010113651,0.99953294,0.009577724,0.027202124],"translation":[-7.450581e-09,1.0547568,-0.045440495]},{"children":[13],"name":"Spine_005","rotation":[0.86484313,0.06294315,-0.057161067,0.49479008]},{"children":[14],"name":"Spine_004","rotation":[-0.0034248326,-0.055771854,0.0014854838,0.99843657],"translation":[3.7252903e-08,0.88834345,4.004687e-08]},{"children":[15],"name":"Spine_003","rotation":[-0.09726848,-0.06780693,0.20715821,0.97109556],"translation":[-3.9115548e-08,1.0515223,-2.7939677e-09]},{"children":[16],"name":"Spine_002","rotation":[-0.16513675,0.056247193,-0.048493408,0.9834707],"translation":[8.568168e-08,1.2600007,-1.5599653e-07]},{"children":[17],"name":"Spine_001","rotation":[-0.25865743,0.011316868,0.050756823,0.9645683],"translation":[-2.0489097e-08,0.9983049,-4.4703484e-08]},{"children":[18],"name":"Spine","rotation":[0.41230458,-0.023926198,-0.098323636,0.90540874],"translation":[1.18045136e-07,0.760056,-1.1175871e-08]},{"name":"Pelvis","rotation":[-0.28041586,0.012080957,0.106904134,0.9538304],"translation":[7.0780516e-08,0.6805629,7.47852e-07]},{"children":[20],"name":"Spine_007","rotation":[-0.16001837,0.056862704,-0.16685674,0.9712464],"translation":[0.0,1.9184883,1.1944212e-07]},{"children":[21],"name":"Spine_008","rotation":[0.23564266,-0.002413145,0.22332293,0.9458296],"translation":[2.3347093e-07,0.7722896,-1.937151e-07]},{"children":[22],"name":"Spine_009","rotation":[0.1474146,0.019816998,0.031506065,0.98837423],"translation":[-5.9604645e-08,1.0112284,3.678724e-08]},{"children":[23],"name":"Spine_010","rotation":[0.08516181,0.9774023,-0.18663408,0.050989147],"translation":[-1.3111924e-07,0.57665384,3.0292057e-07]},{"children":[24],"name":"Spine_011","rotation":[0.10948659,3.186643e-08,4.3206605e-08,0.9939883],"translation":[-2.3980817e-14,0.58164465,-8.940697e-08]},{"children":[25,40,45,50,52,56,60],"name":"Spine_012","rotation":[-0.0043477034,2.2367305e-15,-1.0365716e-09,0.9999905],"translation":[-3.8191672e-14,0.99421406,1.1920928e-07]},{"children":[26,33,34],"name":"Neck","rotation":[-0.0049831565,2.4903291e-05,0.004984383,0.99997514],"translation":[-5.2402527e-14,1.0158225,1.7881393e-07]},{"children":[27,29,32],"name":"Head","rotation":[0.043052286,-0.0018053429,0.031903043,0.9985617],"translation":[-8.731149e-10,0.6580919,1.1650358e-07]},{"children":[28],"name":"Hat","rotation":[-0.0074445414,0.00027502247,-0.03691321,0.9992907],"translation":[-0.0845297,1.0733093,-1.8791047e-07]},{"name":"Brim","rotation":[0.73883176,-3.7521626e-09,1.7268107e-07,0.67388994]},{"children":[30,31],"name":"Teeth top","rotation":[0.7161184,-0.0264527,-0.025746418,0.69700205],"translation":[-0.015868085,0.6892383,-0.29116693]},{"name":"Teeth_R","translation":[-0.28531507,0.0208302,0.08600662]},{"name":"Teeth_L","translation":[0.29813117,0.020830164,0.086007155]},{"name":"Teeth Bottom","rotation":[0.8075398,-0.02982968,-0.02174404,0.58865684],"translation":[-0.022490716,0.59971917,-0.30118868]},{"name":"Cape","rotation":[-0.06213669,0.00030953684,-0.0049748234,0.9980552],"translation":[0.0020025077,0.2008667,-0.05105734]},{"children":[35,36,37,38,39],"name":"fnfmodding_hollywood","rotation":[-0.062136684,0.00030954112,-0.004974756,0.9980552],"translation":[3.323128,1.9387732,-0.16421641]},{"name":"armikR_slider","translation":[-1.4115356,2.973034,2.949892e-07]},{"name":"armikL_slider","translation":[1.3603406,2.9730334,4.2899853e-07]},{"name":"handParentR_slider","translation":[-1.4115359,0.8082627,3.1111801e-07]},{"name":"handParentL_slider","translation":[1.3603404,0.8082624,4.451273e-07]},{"name":"handParentL_slider_001","translation":[-0.53759134,-1.7795188,1.5022376e-08]},{"children":[41,44],"name":"Collar_R","rotation":[0.072404884,0.011027382,0.5906162,0.80362207],"translation":[-0.11625426,0.75732654,-0.102341324]},{"children":[42],"name":"Arm_R","rotation":[0.7118109,-0.6936375,0.008273053,0.11010848],"translation":[-0.21713905,0.63718593,0.08659143]},{"children":[43],"name":"Forearm_R","rotation":[-0.041719384,-1.824297e-05,0.0045246664,0.9991191],"translation":[-3.7252903e-09,2.6448622,3.3527613e-08]},{"name":"Bigcuff_R","rotation":[0.04021614,-0.008992027,0.7781614,0.62671095],"translation":[1.0430813e-07,1.8973185,7.450581e-09]},{"name":"Cape_R","rotation":[0.72122866,-0.6804485,-0.015854534,0.12871556],"translation":[0.01829648,0.9495536,0.21154317]},{"children":[46,49],"name":"Collar_L","rotation":[0.07240504,-0.011027621,-0.590616,0.80362225],"translation":[0.11625431,0.75732654,-0.102341264]},{"children":[47],"name":"Arm_L","rotation":[0.71181047,0.69363767,-0.008271525,0.11011007],"translation":[0.21713941,0.6371858,0.08659156]},{"children":[48],"name":"Forearm_L","rotation":[-0.04170494,1.8184299e-05,-0.004523123,0.9991197],"translation":[2.2351742e-08,2.6448622,-1.1175871e-08]},{"name":"Bigcuff_L","rotation":[0.04021613,0.008992101,-0.77816135,0.626711],"translation":[-4.0978193e-08,1.8973185,4.4703484e-08]},{"name":"Cape_L","rotation":[0.72122866,0.6804485,0.015854493,0.12871566],"translation":[-0.018296123,0.94955355,0.21154338]},{"children":[51],"name":"Cape_001","rotation":[0.99995744,2.1991513e-09,1.6046875e-15,-0.009223911],"translation":[1.1480822e-07,0.5268169,-0.4815405]},{"name":"Cape_002","rotation":[-0.032631293,-2.4507345e-14,7.779905e-09,0.9994675],"translation":[8.881784e-15,1.8922311,3.5527137e-15]},{"children":[53],"name":"Cape_L_001","rotation":[0.9959658,0.08578159,0.0038113762,0.026059462],"translation":[0.9846749,-0.5076934,-0.3829876]},{"children":[54],"name":"Cape_L_002","rotation":[-0.13042149,-0.010887213,0.11043001,0.9852294],"translation":[-8.940697e-08,1.3097813,-6.519258e-09]},{"children":[55],"name":"Cape_L_003","rotation":[0.075152814,0.044053704,-0.3052716,0.9482724],"translation":[6.239861e-08,2.7199626,1.2572855e-08]},{"name":"Cape_L_004","rotation":[-0.18728547,1.4951888e-07,-0.0927074,0.977921],"translation":[-9.313226e-08,1.8528184,6.519258e-08]},{"children":[57],"name":"Cape_R_001","rotation":[0.9959658,-0.0857819,-0.0038098476,0.026059316],"translation":[-0.98467475,-0.50769395,-0.38298807]},{"children":[58],"name":"Cape_R_002","rotation":[-0.13042113,0.010887023,-0.110429324,0.9852295],"translation":[-1.0058284e-07,1.3097813,2.0395964e-07]},{"children":[59],"name":"Cape_R_003","rotation":[0.0751517,-0.044053733,0.3052695,0.9482732],"translation":[6.891787e-08,2.7199595,1.0617077e-07]},{"name":"Cape_R_004","rotation":[-0.18728581,2.4761087e-08,0.09270687,0.977921],"translation":[-1.4528632e-07,1.8528169,-2.2351742e-08]},{"name":"Capemain","rotation":[-0.0021921932,6.2381347e-15,-5.2266036e-10,0.9999976],"translation":[8.376661e-09,0.78962106,-0.035134196]},{"name":"Pipe","rotation":[0.75752825,0.26018816,-0.38320637,0.46000645],"translation":[0.04006203,8.879335,0.31792644]},{"children":[63],"name":"Forearm_L_001","rotation":[0.6280886,-0.035668626,0.21930546,0.7457463],"translation":[5.441381,2.8746867,-0.17444743]},{"children":[64],"name":"Hand_L","rotation":[0.0506086,-0.06197691,0.033672724,0.99622476],"translation":[-1.899898e-07,0.33095184,1.4156103e-07]},{"children":[65,68,80],"name":"Index_L","rotation":[-0.12134728,0.06164993,-0.006868116,0.99066997],"translation":[0.07723642,0.045984764,-0.1573765]},{"children":[66],"name":"Index_L_001","rotation":[0.006587011,-0.0024424081,0.4096635,0.9122097],"translation":[-7.4505806e-08,0.42326227,8.940697e-08]},{"children":[67],"name":"Index_L_002","rotation":[-0.0045528854,0.0018135434,0.34235793,0.93955684],"translation":[-1.1920929e-07,0.19409692,0.0]},{"name":"Index_L_003","rotation":[0.0048249667,-0.0018762184,0.35369447,0.93534666],"translation":[2.8312206e-07,0.20610891,-5.9604645e-08]},{"children":[69,72],"name":"Middle_L","rotation":[0.09222943,-0.039463837,-0.034148768,0.99436927],"translation":[-0.019443884,-0.007276848,0.104314834]},{"children":[70],"name":"Middle_L_001","rotation":[-0.007489247,-0.0022753398,0.49154216,0.8708186],"translation":[-1.1175871e-08,0.43274057,5.2154064e-08]},{"children":[71],"name":"Middle_L_002","rotation":[-0.0018593597,-0.00036967115,0.3487192,0.93722534],"translation":[6.7055225e-08,0.23153079,1.1175871e-07]},{"name":"Middle_L_003","rotation":[0.006026483,0.004850696,0.35329148,0.9354813],"translation":[-1.1920929e-07,0.2061091,7.450581e-09]},{"children":[73,76],"name":"Ring_L","rotation":[0.07450172,-0.061653607,0.0020143196,0.99531114],"translation":[-0.020910576,-0.017601512,0.12503383]},{"children":[74],"name":"Ring_L_001","rotation":[-0.004713041,0.021494308,0.48312747,0.87527347],"translation":[-1.1920929e-07,0.43083692,2.0861626e-07]},{"children":[75],"name":"Ring_L_002","rotation":[-0.00962602,-0.012993432,0.3490367,0.9369695],"translation":[-1.7508864e-07,0.231531,-5.5879354e-09]},{"name":"Ring_L_003","rotation":[-0.0011174621,-0.0067100865,0.35289377,0.93563867],"translation":[1.3411045e-07,0.20610929,5.9604645e-08]},{"children":[77],"name":"Pinky_L","rotation":[0.04205584,0.0018975483,0.036778502,0.9984363],"translation":[-0.017042674,0.01968667,0.13065745]},{"children":[78],"name":"Pinky_L_001","rotation":[-0.056120276,-0.01983348,0.40691462,0.9115249],"translation":[1.6391277e-07,0.38175577,0.0]},{"children":[79],"name":"Pinky_L_002","rotation":[-0.004699021,-0.007610693,0.34436175,0.93879443],"translation":[3.1292439e-07,0.1919871,2.2351742e-08]},{"name":"Pinky_L_003","rotation":[0.0034136288,0.0061422475,0.3528573,0.93565077],"translation":[5.2154064e-07,0.20610917,1.937151e-07]},{"children":[81],"name":"Thumb_L","rotation":[-0.42380607,0.7223202,-0.020570261,0.5460942],"translation":[-0.11602748,-0.075134486,-0.015444487]},{"children":[82],"name":"Thumb_L_001","rotation":[0.018099084,0.0434501,0.074331276,0.9961222],"translation":[-1.1920929e-07,0.29687414,2.4586916e-07]},{"name":"Thumb_L_002","rotation":[0.014542872,0.022264404,0.022277214,0.99939805],"translation":[2.9802322e-08,0.2061086,1.3411045e-07]},{"name":"Spine_013","rotation":[0.0027755762,-0.014281353,0.99989414,-3.964314e-05],"translation":[0.1470585,-0.08917469,-3.9088914]},{"name":"Spine_014","rotation":[0.022510998,-0.007809778,0.9997161,-0.0001758563],"translation":[-0.24940118,0.11488079,-1.745903]},{"name":"Forearm_R_002","rotation":[-0.7131121,0.07980019,-0.082280464,0.69161624],"translation":[-2.0253294,3.0804417,-0.011203766]},{"name":"Forearm_L_002","rotation":[-0.7131121,-0.07980019,0.082280464,0.69161624],"translation":[2.0253294,3.0804417,-0.011203766]},{"name":"Arm_R_001","rotation":[-0.7043949,0.08139203,-0.081861146,0.70035845],"translation":[-1.4977386,4.9020834,-4.8955984]},{"name":"Arm_L_001","rotation":[-0.7043949,-0.08139203,0.081861146,0.70035845],"translation":[1.4977386,4.9020834,-4.8955984]},{"children":[90],"name":"Forearm_R_001","rotation":[0.65716517,0.058538686,0.20418377,0.7231986],"translation":[2.1340473,2.2546206,-1.0037525]},{"children":[91],"name":"Hand_R","rotation":[0.017866906,-0.0004022159,0.00016017727,0.99984026],"translation":[1.899898e-07,0.33095184,1.4156103e-07]},{"children":[92,95,107],"name":"Index_R","rotation":[-0.12134728,-0.06164993,0.006868116,0.99066997],"translation":[-0.07723642,0.045984764,-0.1573765]},{"children":[93],"name":"Index_R_001","rotation":[0.0065869843,0.0024423765,-0.4096635,0.9122097],"translation":[7.4505806e-08,0.42326227,8.940697e-08]},{"children":[94],"name":"Index_R_002","rotation":[-0.004552912,-0.0018135374,-0.3423579,0.93955684],"translation":[1.1920929e-07,0.19409692,0.0]},{"name":"Index_R_003","rotation":[0.004824956,0.0018762395,-0.35369447,0.93534666],"translation":[-2.8312206e-07,0.20610891,-5.9604645e-08]},{"children":[96,99],"name":"Middle_R","rotation":[0.09222943,0.039463837,0.034148768,0.99436927],"translation":[0.019443884,-0.007276848,0.104314834]},{"children":[97],"name":"Middle_R_001","rotation":[-0.007489287,0.0022753552,-0.49154198,0.87081873],"translation":[1.1175871e-08,0.43274057,5.2154064e-08]},{"children":[98],"name":"Middle_R_002","rotation":[-0.0018593724,0.0003696792,-0.3487192,0.93722534],"translation":[-6.7055225e-08,0.23153079,1.1175871e-07]},{"name":"Middle_R_003","rotation":[0.006026442,-0.0048506917,-0.35329148,0.9354813],"translation":[1.1920929e-07,0.2061091,7.450581e-09]},{"children":[100,103],"name":"Ring_R","rotation":[0.07450172,0.061653607,-0.0020143196,0.99531114],"translation":[0.020910576,-0.017601512,0.12503383]},{"children":[101],"name":"Ring_R_001","rotation":[-0.00471306,-0.021494295,-0.48312747,0.87527347],"translation":[1.1920929e-07,0.43083692,2.0861626e-07]},{"children":[102],"name":"Ring_R_002","rotation":[-0.009625996,0.012993455,-0.34903687,0.93696946],"translation":[1.7508864e-07,0.231531,-5.5879354e-09]},{"name":"Ring_R_003","rotation":[-0.0011174162,0.0067101237,-0.3528938,0.93563867],"translation":[-1.3411045e-07,0.20610929,5.9604645e-08]},{"children":[104],"name":"Pinky_R","rotation":[0.04205584,-0.0018975483,-0.036778502,0.9984363],"translation":[0.017042674,0.01968667,0.13065745]},{"children":[105],"name":"Pinky_R_001","rotation":[-0.056120194,0.01983355,-0.40691462,0.9115249],"translation":[-1.6391277e-07,0.38175577,0.0]},{"children":[106],"name":"Pinky_R_002","rotation":[-0.004698949,0.0076107704,-0.34436175,0.93879443],"translation":[-3.1292439e-07,0.1919871,2.2351742e-08]},{"name":"Pinky_R_003","rotation":[0.0034137254,-0.006142225,-0.3528573,0.93565077],"translation":[-5.2154064e-07,0.20610917,1.937151e-07]},{"children":[108],"name":"Thumb_R","rotation":[0.4194511,0.78786016,-0.08023136,-0.44373426],"translation":[0.11602748,-0.075134486,-0.015444487]},{"children":[109],"name":"Thumb_R_001","rotation":[0.018099073,-0.0434501,-0.07433129,0.9961222],"translation":[1.1920929e-07,0.29687414,2.4586916e-07]},{"name":"Thumb_R_002","rotation":[0.014542878,-0.022264399,-0.022277217,0.99939805],"translation":[-2.9802322e-08,0.2061086,1.3411045e-07]},{"mesh":1,"name":"Body_001","skin":1},{"mesh":2,"name":"Hands","skin":1}],"samplers":[{"magFilter":9729,"minFilter":9987,"wrapS":10497,"wrapT":10497}],"scene":0,"scenes":[{"name":"intro","nodes":[0]}],"skins":[{"inverseBindMatrices":0,"joints":[2,3,4,5,6],"name":"Skin"},{"inverseBindMatrices":1,"joints":[9,10,11,12,13,14,15,16,17,18,19,20,21,22,23,24,25,26,27,28,29,30,31,32,33,34,35,36,37,38,39,40,41,42,43,44,45,46,47,48,49,50,51,52,53,54,55,56,57,58,59,60,61,62,63,64,65,66,67,68,69,70,71,72,73,74,75,76,77,78,79,80,81,82,83,84,85,86,87,88,89,90,91,92,93,94,95,96,97,98,99,100,101,102,103,104,105,106,107,108,109],"name":"Skin2"}],"textures":[{"sampler":0,"source":0},{"sampler":0,"source":1},{"sampler":0,"source":2},{"sampler":0,"source":3},{"sampler":0,"source":4},{"sampler":0,"source":5},{"sampler":0,"source":4},{"sampler":0,"source":6},{"sampler":0,"source":7}]}