{"accessors":[{"bufferView":0,"componentType":5126,"count":979,"max":[0.16276516,0.11314749,0.08578968],"min":[-0.16276516,-0.10240693,-0.069040745],"normalized":false,"type":"VEC3"},{"bufferView":1,"componentType":5126,"count":979,"max":[1.0,1.0000001,1.0,1.0],"min":[-1.0,-1.0000001,-1.0,1.0],"normalized":false,"type":"VEC4"},{"bufferView":2,"componentType":5126,"count":979,"max":[1.0,1.0,1.0],"min":[-1.0,-1.0,-1.0],"normalized":false,"type":"VEC3"},{"bufferView":3,"componentType":5126,"count":979,"max":[0.99514765,0.9933623],"min":[0.0044708936,0.0031891356],"normalized":false,"type":"VEC2"},{"bufferView":4,"componentType":5123,"count":2784,"max":[978],"min":[0],"normalized":false,"type":"SCALAR"}],"asset":{"copyright":"The Creators of 'Friday Night Funkin': Lullaby'","generator":"GDRE Tools vv2.6.3","version":"2.0"},"bufferViews":[{"buffer":0,"byteLength":11748,"byteStride":12,"target":34962},{"buffer":0,"byteLength":15664,"byteOffset":11748,"byteStride":16,"target":34962},{"buffer":0,"byteLength":11748,"byteOffset":27412,"byteStride":12,"target":34962},{"buffer":0,"byteLength":7832,"byteOffset":39160,"byteStride":8,"target":34962},{"buffer":0,"byteLength":5568,"byteOffset":46992,"target":34963},{"buffer":0,"byteLength":662306,"byteOffset":52560},{"buffer":0,"byteLength":724420,"byteOffset":714866},{"buffer":0,"byteLength":616345,"byteOffset":1439286}],"buffers":[{"byteLength":2055631,"uri":"mdl_chimera_camera0.bin"}],"extensionsUsed":["GODOT_single_root"],"images":[{"bufferView":5,"mimeType":"image/png","name":"SerenaCamera_BaseColor"},{"bufferView":6,"mimeType":"image/png","name":"SerenaCamera_Metallic-SerenaCamera_Roughness"},{"bufferView":7,"mimeType":"image/png","name":"SerenaCamera_Normal"}],"materials":[{"doubleSided":true,"name":"SerenaCamera","normalTexture":{"index":2,"scale":1.0},"pbrMetallicRoughness":{"baseColorFactor":[1.0,1.0,1.0,1.0],"baseColorTexture":{"index":0},"metallicFactor":1.0,"metallicRoughnessTexture":{"index":1},"roughnessFactor":1.0}}],"meshes":[{"name":"Cylinder_003","primitives":[{"attributes":{"NORMAL":2,"POSITION":0,"TANGENT":1,"TEXCOORD_0":3},"indices":4,"material":0,"mode":4}]}],"nodes":[{"children":[1],"name":"mdl_chimera_camera"},{"mesh":0,"name":"SerenaCamera"}],"samplers":[{"magFilter":9729,"minFilter":9987,"wrapS":10497,"wrapT":10497}],"scene":0,"scenes":[{"name":"mdl_chimera_camera","nodes":[0]}],"textures":[{"sampler":0,"source":0},{"sampler":0,"source":1},{"sampler":0,"source":2}]}